<svg width="122" height="122" fill="none" version="1.1" viewBox="0 0 122 122" xmlns="http://www.w3.org/2000/svg"><path d="m122 61c0 33.7-27.3 61-61 61s-61-27.3-61-61 27.3-61 61-61 61 27.3 61 61z" fill="none" stroke="#566e88" stroke-opacity=".992"/><g clip-rule="evenodd" fill-rule="evenodd"><path d="m54.7 5.81c0.38-0.166 0.822 0.00702 0.988 0.386l1.67 3.82c1.23 2.82 2.25 5.72 3.04 8.7l0.818 3.07 0.198 0.594c0.891 2.67 0.602 5.6-0.797 8.05-1.15 2.02-1.42 4.42-0.736 6.64l0.326 1.06c0.315 1.02 0.775 1.99 1.38 2.86 1.54 2.2 4.64 6.47 7.46 9.5 0.147 0.158 0.32 0.339 0.511 0.536 1.16 1.2 1.68 2.85 1.49 4.33-0.19 1.51-1.12 2.89-2.85 3.36-0.0395 0.0108-0.0792 0.0213-0.119 0.0314-1.47 0.374-2.82 1.24-3.67 2.35-0.837 1.09-1.16 2.36-0.706 3.63 0.688 1.75-0.286 3.7-2.1 4.21l-4.09 1.14c-0.691 0.192-1.43 0.513-1.92 0.914-0.488 0.398-0.589 0.731-0.491 1.05 0.0063 0.0206 0.0125 0.0318 0.0164 0.0375 0.0761 0.114 0.27 0.287 0.652 0.489 0.367 0.194 0.838 0.377 1.38 0.548 1.08 0.341 2.37 0.604 3.47 0.791 0.876 0.148 1.75 0.558 2.36 1.19 0.628 0.646 1 1.55 0.738 2.59-0.113 0.443-0.435 0.936-0.703 1.34-0.0639 0.0956-0.128 0.191-0.192 0.285-0.239 0.353-0.476 0.703-0.679 1.06-0.57 1.01-0.909 1.76-1.11 2.57-0.206 0.812-0.288 1.72-0.288 3.06 0 0.582 0.152 1.05 0.333 1.61 0.0472 0.146 0.0965 0.297 0.146 0.459 0.232 0.762 0.411 1.65-0.0377 2.72-0.462 1.1-0.948 1.89-1.71 2.45-0.747 0.54-1.67 0.785-2.84 1-1.49 0.274-3.26 0.173-4.98 0.075-0.402-0.0229-0.801-0.0457-1.19-0.0634-0.894-0.0405-1.66-0.133-2.43-0.224-0.186-0.0224-0.372-0.0447-0.559-0.0662-0.963-0.111-2.02-0.209-3.48-0.209-1.59 0-2.8 0.383-4.04 1.34-0.646 0.501-1.35 1.52-1.97 2.6-0.946 1.65-1.57 3.49-2.15 5.39l-1.12 3.64c-0.122 0.395-0.542 0.618-0.937 0.496s-0.618-0.542-0.496-0.938l1.12-3.64c0.588-1.91 1.25-3.88 2.28-5.69 0.622-1.09 1.45-2.34 2.36-3.04 1.52-1.18 3.06-1.66 4.96-1.66 1.54 0 2.65 0.104 3.65 0.218 0.202 0.0232 0.397 0.0466 0.588 0.0696 0.759 0.091 1.46 0.175 2.29 0.213 0.443 0.0201 0.877 0.0444 1.3 0.0682 1.7 0.0954 3.23 0.181 4.53-0.0566 1.15-0.212 1.78-0.413 2.23-0.74 0.433-0.313 0.786-0.805 1.21-1.81 0.248-0.591 0.178-1.07-0.0146-1.7-0.0327-0.108-0.0707-0.223-0.111-0.346-0.19-0.576-0.433-1.31-0.433-2.16 0-1.39 0.0833-2.45 0.334-3.43 0.252-0.991 0.662-1.87 1.26-2.93 0.236-0.417 0.517-0.832 0.759-1.19 0.0596-0.0881 0.117-0.173 0.171-0.253 0.306-0.458 0.459-0.728 0.496-0.874 0.11-0.429-0.0195-0.82-0.36-1.17-0.356-0.366-0.92-0.65-1.53-0.754-1.13-0.192-2.5-0.468-3.67-0.839-0.589-0.185-1.15-0.401-1.63-0.652-0.461-0.243-0.917-0.559-1.2-0.982-0.093-0.139-0.159-0.286-0.204-0.432-0.354-1.16 0.262-2.07 0.978-2.65 0.712-0.58 1.66-0.974 2.46-1.2l4.09-1.14c0.954-0.265 1.47-1.3 1.1-2.22l0.696-0.279-0.706 0.252c-0.665-1.86-0.154-3.66 0.925-5.06 1.07-1.39 2.72-2.44 4.49-2.89 0.0208-0.0053 0.0414-0.0107 0.0619-0.0162 0.0111-0.0029 0.0222-0.0059 0.0332-0.0089 1.05-0.287 1.63-1.1 1.76-2.1 0.13-1.03-0.234-2.23-1.08-3.1-0.195-0.202-0.374-0.39-0.53-0.557-2.9-3.11-6.04-7.46-7.59-9.66-0.705-1.01-1.23-2.12-1.59-3.28l-0.326-1.06c-0.805-2.62-0.491-5.45 0.867-7.83 1.19-2.08 1.43-4.56 0.676-6.83l-0.212-0.637-0.83-3.11c-0.773-2.9-1.76-5.73-2.97-8.48l-1.67-3.82c-0.166-0.379 0.0071-0.822 0.386-0.988z" fill="#566e88" fill-opacity=".992" opacity=".99"/><g fill="#566E88"><path d="m75.8 59.3c0.39-0.39 1.02-0.39 1.41 0l-0.707 0.707c0.707-0.707 0.707-0.707 0.707-0.707l0.0012 0.0012 0.0016 0.0017 0.0047 0.0047 0.0147 0.0149c0.0121 0.0124 0.0288 0.0296 0.0499 0.0517 0.042 0.044 0.101 0.107 0.176 0.189 0.148 0.163 0.356 0.4 0.603 0.705 0.494 0.609 1.15 1.49 1.8 2.61 1.31 2.22 2.64 5.4 2.64 9.13 0 4.22-1.32 7.29-2.67 9.3-0.67 1.01-1.34 1.75-1.86 2.24-0.256 0.248-0.473 0.434-0.63 0.562-0.0785 0.0639-0.142 0.113-0.188 0.148-0.0231 0.0174-0.0419 0.0312-0.0561 0.0415l-0.0177 0.0128-0.0062 0.0044-0.0035 0.0024c-4e-4 3e-4 -9e-4 6e-4 -0.574-0.819l0.573 0.819c-0.452 0.317-1.08 0.207-1.39-0.246-0.316-0.451-0.207-1.07 0.243-1.39 1e-4 -2e-4 -2e-4 1e-4 0 0 1e-4 -1e-4 7e-4 -6e-4 9e-4 -7e-4 3e-4 -2e-4 -3e-4 2e-4 0 0 2e-4 -1e-4 0.0012-8e-4 0.0014-1e-3l0.0012-9e-4c0.0048-0.0034 0.014-0.0102 0.0275-0.0204 0.027-0.0203 0.0708-0.054 0.129-0.102 0.116-0.0948 0.29-0.244 0.503-0.449 0.425-0.411 1-1.04 1.58-1.91 1.15-1.73 2.33-4.42 2.33-8.2 0-3.26-1.17-6.09-2.36-8.12-0.595-1.01-1.19-1.81-1.63-2.36-0.222-0.273-0.404-0.482-0.53-0.619-0.0626-0.0688-0.111-0.12-0.142-0.152-0.0156-0.0163-0.0269-0.028-0.0338-0.035l-0.0064-0.0066c-6e-4 -5e-4 -0.0011-0.0011-0.0011-1e-3 -0.39-0.391-0.389-1.02 0.0011-1.41z"/><path d="m84.7 54.9c0.357-0.422 0.988-0.474 1.41-0.118l-0.646 0.763c0.646-0.763 0.646-0.763 0.647-0.763l1e-3 8e-4 0.0023 2e-3 0.0065 0.0055 0.0198 0.0172c0.0162 0.0142 0.0385 0.0338 0.0663 0.0589 0.0557 0.0502 0.134 0.122 0.231 0.216 0.194 0.188 0.466 0.463 0.789 0.826 0.645 0.725 1.5 1.8 2.35 3.23 1.7 2.85 3.39 7.11 3.39 12.7 0 6.04-1.68 10.3-3.4 13-0.858 1.37-1.72 2.35-2.38 3-0.328 0.326-0.606 0.568-0.806 0.733-0.1 0.0822-0.181 0.145-0.24 0.189-0.0292 0.022-0.0528 0.0393-0.0705 0.052l-0.0218 0.0156-0.0075 0.0053-0.0028 2e-3 -0.0012 8e-4c-6e-4 4e-4 -0.0011 7e-4 -0.57-0.822l0.569 0.822c-0.454 0.314-1.08 0.201-1.39-0.253-0.314-0.453-0.202-1.07 0.25-1.39 4e-4 -2e-4 7e-4 -5e-4 0.0011-8e-4 3e-4 -2e-4 7e-4 -4e-4 1e-3 -6e-4l-8e-4 5e-4 0.0045-0.0033c7e-3 -5e-3 0.0199-0.0144 0.0382-0.0282 0.0368-0.0276 0.0955-0.073 0.173-0.137 0.155-0.127 0.386-0.328 0.666-0.607 0.562-0.557 1.32-1.43 2.09-2.65 1.53-2.43 3.1-6.3 3.1-11.9 0-5.19-1.56-9.1-3.11-11.7-0.776-1.3-1.55-2.28-2.12-2.92-0.287-0.322-0.523-0.561-0.684-0.716-0.0804-0.0776-0.142-0.134-0.182-0.17-0.0198-0.0178-0.034-0.0303-0.0424-0.0376l-0.0076-0.0066c-0.421-0.357-0.473-0.987-0.117-1.41z"/><path d="m93.2 50.4c0.355-0.423 0.985-0.479 1.41-0.125l-0.642 0.767c0.642-0.767 0.642-0.766 0.643-0.766l1e-3 8e-4 0.0026 0.0022 0.0075 0.0063 0.024 0.0206c0.0199 0.0172 0.0477 0.0415 0.0828 0.0728 0.0702 0.0625 0.17 0.153 0.294 0.272 0.249 0.237 0.599 0.586 1.01 1.05 0.832 0.92 1.93 2.29 3.03 4.09 2.2 3.62 4.4 9 4.4 16.1 0 7.06-2.19 12.4-4.4 16-1.1 1.79-2.2 3.15-3.04 4.06-0.417 0.455-0.767 0.8-1.02 1.03-0.125 0.117-0.224 0.206-0.295 0.268-0.0351 0.0309-0.063 0.0548-0.0831 0.0718l-0.0241 0.0204-0.0075 0.0063-0.0036 3e-3c-5e-4 3e-4 -9e-4 7e-4 -0.637-0.771l0.636 0.772c-0.426 0.351-1.06 0.29-1.41-0.136-0.351-0.426-0.29-1.06 0.135-1.41 4e-4 -4e-4 9e-4 -7e-4 0.0013-0.0011l0.0127-0.0107c0.0121-0.0103 0.032-0.0273 0.059-0.0511 0.0542-0.0475 0.137-0.122 0.245-0.223 0.216-0.202 0.53-0.511 0.91-0.926 0.761-0.831 1.78-2.08 2.81-3.75 2.05-3.33 4.1-8.33 4.1-15 0-6.63-2.06-11.7-4.1-15-1.03-1.68-2.05-2.95-2.81-3.79-0.38-0.421-0.695-0.734-0.911-0.94-0.108-0.103-0.191-0.178-0.245-0.227-0.0271-0.0242-0.047-0.0415-0.0593-0.0521l-0.0124-0.0107c-2e-4 -1e-4 -9e-4 -7e-4 -0.0011-9e-4 1e-4 1e-4 -1e-4 -1e-4 0 0m-0.124-1.41c-0.354 0.423-0.299 1.05 0.124 1.41z"/></g></g></svg>
