<?xml version="1.0" encoding="UTF-8" standalone="no"?>
<!-- Created with Inkscape (http://www.inkscape.org/) -->

<svg
   xmlns:dc="http://purl.org/dc/elements/1.1/"
   xmlns:cc="http://creativecommons.org/ns#"
   xmlns:rdf="http://www.w3.org/1999/02/22-rdf-syntax-ns#"
   xmlns:svg="http://www.w3.org/2000/svg"
   xmlns="http://www.w3.org/2000/svg"
   xmlns:sodipodi="http://sodipodi.sourceforge.net/DTD/sodipodi-0.dtd"
   xmlns:inkscape="http://www.inkscape.org/namespaces/inkscape"
   width="137.81984mm"
   height="137.81984mm"
   viewBox="0 0 137.81984 137.81984"
   version="1.1"
   id="svg4578"
   inkscape:version="0.92.4 (5da689c313, 2019-01-14)"
   sodipodi:docname="female_avatar.svg">
  <defs
     id="defs4572" />
  <sodipodi:namedview
     id="base"
     pagecolor="#ffffff"
     bordercolor="#666666"
     borderopacity="1.0"
     inkscape:pageopacity="0.0"
     inkscape:pageshadow="2"
     inkscape:zoom="0.91966914"
     inkscape:cx="1.8142074"
     inkscape:cy="186.10242"
     inkscape:document-units="mm"
     inkscape:current-layer="layer7"
     showgrid="false"
     inkscape:window-width="1718"
     inkscape:window-height="1080"
     inkscape:window-x="368"
     inkscape:window-y="74"
     inkscape:window-maximized="0" />
  <metadata
     id="metadata4575">
    <rdf:RDF>
      <cc:Work
         rdf:about="">
        <dc:format>image/svg+xml</dc:format>
        <dc:type
           rdf:resource="http://purl.org/dc/dcmitype/StillImage" />
        <dc:title></dc:title>
      </cc:Work>
    </rdf:RDF>
  </metadata>
  <g
     inkscape:label="ginger"
     inkscape:groupmode="layer"
     id="layer1"
     style="display:inline"
     transform="translate(-33.631371,-67.405676)">
    <circle
       style="fill:#cf5c1b;fill-opacity:1;stroke-width:0.60376501"
       cx="98.855316"
       cy="122.58031"
       r="24.496798"
       id="circle28" />
    <circle
       style="fill:#ffb9b9;fill-opacity:1;stroke-width:0.60479122"
       cx="100.92747"
       cy="127.13076"
       r="19.940243"
       id="circle30" />
    <path
       inkscape:connector-curvature="0"
       style="fill:#cf5c1b;fill-opacity:1;stroke-width:0.60479122"
       d="m 114.46892,106.80445 a 22.840919,22.840919 0 0 0 -34.726271,19.93411 c 10.160588,2.55101 20.834921,4.50323 31.670481,0.61019 l 2.55885,-6.26269 1.50861,6.26732 c 3.29979,1.34875 6.60812,2.48992 9.91643,-0.0137 a 23.321857,23.321857 0 0 0 -10.9281,-20.53592 z"
       id="path32" />
  </g>
  <g
     inkscape:groupmode="layer"
     id="layer9"
     inkscape:label="background"
     transform="translate(-33.631371,-67.405676)">
    <path
       inkscape:connector-curvature="0"
       style="display:inline;fill:#deecdb;fill-opacity:1;stroke-width:0.60479122"
       d="m 153.86085,181.91684 a 68.583502,68.583502 0 0 1 -95.986414,6.93695 l 5.884605,-16.42009 a 17.657901,17.657901 0 0 1 14.998828,-10.29957 l 3.743657,-0.22982 8.926719,-7.69901 c 0,0 24.052555,-0.85882 23.695745,-1.27004 l 14.5694,8.76341 -0.0115,-0.0606 5.72737,0.35077 a 17.650189,17.650189 0 0 1 14.99882,10.29957 z"
       id="path62" />
  </g>
  <g
     inkscape:groupmode="layer"
     id="layer8"
     inkscape:label="hairnew"
     transform="translate(-33.631371,-67.405676)">
    <circle
       style="display:inline;fill:#cf5c1b;fill-opacity:1;stroke-width:0.60479122"
       cx="83.398994"
       cy="100.58323"
       r="9.6862211"
       id="circle26" />
    <path
       inkscape:connector-curvature="0"
       style="display:inline;fill:#cf5c1b;fill-opacity:1;stroke-width:0.60479122"
       d="m 74.380516,74.288769 c -6.697994,-3.071119 -15.102103,-1.630044 -20.679197,3.185618 -5.577137,4.815685 -8.228536,12.653299 -7.15182,19.942725 1.098293,7.436318 5.619105,13.839958 9.786234,20.096158 4.167196,6.25615 8.238295,13.11155 8.233633,20.62852 a 20.448716,20.448716 0 0 1 -20.408097,20.4361 c 6.35432,2.73555 12.986572,5.52477 19.897147,5.20046 6.910619,-0.32424 14.153874,-4.76685 15.28115,-11.59258 0.812223,-4.91819 -1.600694,-9.71404 -3.613181,-14.27455 a 100.9717,100.9717 0 0 1 -7.056707,-23.22957 c -0.672124,-3.81765 -1.10979,-7.83114 0.134865,-11.50227 A 13.506614,13.506614 0 0 1 82.222312,94.315911 L 84.505668,92.26164 C 85.521398,84.963436 81.078531,77.359867 74.380516,74.288769 Z"
       id="path34" />
  </g>
  <g
     inkscape:groupmode="layer"
     id="layer7"
     inkscape:label="hair2"
     style="display:inline"
     transform="translate(-33.631371,-67.405676)">
    <path
       inkscape:connector-curvature="0"
       style="display:inline;fill:#cf5c1b;fill-opacity:1;stroke-width:1.05530727"
       d="m 72.326616,121.52926 a 24.521212,24.521212 0 1 0 42.176544,-17.00801 l -0.11774,-0.11776 c -0.19632,-0.20631 -0.39249,-0.41203 -0.59837,-0.60824 a 0.00960331,0.00960331 0 0 1 -0.008,-0.008 c -0.25487,-0.23534 -0.51005,-0.47078 -0.77489,-0.69638 -4.31571,-3.786026 -10.38149,-7.895469 -16.570661,-7.895469 -13.545491,0 -24.105138,12.789929 -24.105138,26.335479 z"
       id="path38-1-7" />
    <circle
       style="display:inline;fill:#f2d2c0;fill-opacity:1;stroke-width:1.05530727"
       cx="104.0408"
       cy="127.20271"
       id="circle46-8-1"
       r="20.562094" />
    <path
       inkscape:connector-curvature="0"
       style="display:inline;fill:#cf5c1b;fill-opacity:1;stroke-width:1.05530727"
       d="m 129.20231,123.53695 a 70.102072,70.102072 0 0 1 -7.45172,4.1085 42.879065,42.879065 0 0 1 -8.12696,2.93799 28.089019,28.089019 0 0 0 -2.9266,-4.98649 18.134506,18.134506 0 0 1 0.024,5.57173 29.028717,29.028717 0 0 1 -13.8565,-1.13682 l -3.872128,-6.49487 -0.292765,7.24903 c -3.208008,0.58535 -6.404806,1.1369 -9.612794,1.71097 -0.19152,0.024 -0.382518,0.0674 -0.562786,0.10123 -1.992442,-8.98246 0.832916,-18.87676 7.113913,-24.86501 a 22.631065,22.631065 0 0 1 23.77322,-4.61509 c 0.50657,0.20261 1.02431,0.42773 1.51955,0.66413 a 0.01103851,0.01103851 0 0 0 0.0107,0.0131 c 0.29277,0.14647 0.54033,0.4952 0.86676,0.46147 14.04779,-1.56472 14.4981,9.33133 13.39499,19.28188 z"
       id="path50-2-2" />
    <path
       inkscape:connector-curvature="0"
       style="display:inline;fill:#deecdb;fill-opacity:1;stroke-width:1.05530727"
       d="m 83.0808,132.49507 a 41.825794,41.825794 0 0 1 32.20135,-27.98364 c 0.0279,-0.008 0.12754,-0.049 0.25484,-0.10777 0.0785,-0.0489 0.17672,-0.0982 0.27443,-0.14712 -0.29438,-0.16671 -0.57867,-0.3139 -0.87299,-0.46113 a 0.00960331,0.00960331 0 0 1 -0.008,-0.008 c -0.25491,-0.23535 -0.51011,-0.47079 -0.77492,-0.69639 l -0.74546,0.0279 c 0,0 -26.198503,-4.148939 -30.327894,29.37635 z"
       id="path62-7-8" />
  </g>
  <g
     inkscape:groupmode="layer"
     id="layer2"
     inkscape:label="black"
     style="display:none"
     transform="translate(-33.631371,-67.405676)">
    <circle
       style="display:inline;fill:#f2f2f2;stroke-width:0.60479122"
       cx="102.23888"
       cy="136.0132"
       r="68.607521"
       id="circle8-3" />
    <circle
       style="display:inline;fill:#2f2e41;fill-opacity:1;stroke-width:0.60479122"
       cx="83.398994"
       cy="100.58322"
       r="9.6862211"
       id="circle26-7" />
    <circle
       style="display:inline;fill:#2f2e41;fill-opacity:1;stroke-width:0.60479122"
       cx="98.89695"
       cy="122.53867"
       r="24.538435"
       id="circle28-85" />
    <circle
       style="display:inline;fill:#9e616a;fill-opacity:1;stroke-width:0.60479122"
       cx="100.92747"
       cy="127.13075"
       r="19.940243"
       id="circle30-62" />
    <path
       inkscape:connector-curvature="0"
       style="display:inline;fill:#2f2e41;fill-opacity:1;stroke-width:0.60479122"
       d="m 114.46892,106.80445 a 22.840919,22.840919 0 0 0 -34.72627,19.93411 c 10.16058,2.55101 20.83492,4.50323 31.67048,0.61019 l 2.55885,-6.26269 1.50861,6.26732 c 3.29979,1.34875 6.60812,2.48992 9.91643,-0.0137 a 23.321857,23.321857 0 0 0 -10.9281,-20.53592 z"
       id="path32-46" />
    <path
       inkscape:connector-curvature="0"
       style="display:inline;fill:#2f2e41;fill-opacity:1;stroke-width:0.60479122"
       d="m 74.38051,74.28877 c -6.69799,-3.07112 -15.1021,-1.63005 -20.67919,3.18561 -5.57714,4.81569 -8.22854,12.6533 -7.15182,19.94273 1.09829,7.43632 5.6191,13.83996 9.78623,20.09616 4.1672,6.25615 8.2383,13.11155 8.23363,20.62852 a 20.448716,20.448716 0 0 1 -20.40809,20.4361 c 6.35432,2.73555 12.98657,5.52477 19.89714,5.20046 6.91062,-0.32424 14.15388,-4.76685 15.28115,-11.59258 0.81223,-4.91819 -1.60069,-9.71404 -3.61318,-14.27455 a 100.9717,100.9717 0 0 1 -7.0567,-23.22957 c -0.67213,-3.81765 -1.10979,-7.83114 0.13486,-11.50227 a 13.506614,13.506614 0 0 1 13.41777,-8.86347 l 2.28336,-2.05427 C 85.5214,84.96343 81.07853,77.35986 74.38051,74.28877 Z"
       id="path34-8" />
    <path
       inkscape:connector-curvature="0"
       style="display:inline;fill:#d5e9f1;fill-opacity:1;stroke-width:0.60479122"
       d="m 153.86085,181.91683 a 68.583503,68.583503 0 0 1 -95.98642,6.93695 l 5.88461,-16.42009 a 17.657901,17.657901 0 0 1 14.99883,-10.29956 l 3.74365,-0.22982 8.92672,-7.69901 c 0,0 24.05256,-0.85882 23.69575,-1.27004 l 14.5694,8.76341 -0.0115,-0.0606 5.72737,0.35077 a 17.650189,17.650189 0 0 1 14.99882,10.29956 z"
       id="path62-2" />
  </g>
</svg>
