<!-- Created with Inkscape (http://www.inkscape.org/) -->
<svg width="138mm" height="138mm" version="1.1" viewBox="0 0 138 138" xmlns="http://www.w3.org/2000/svg"><g transform="translate(-33.8 -67.5)" stroke-width=".607"><circle cx="103" cy="136" r="68.9" fill="none"/><circle cx="103" cy="112" r="27.5" fill="#ebdabc"/><circle cx="103" cy="118" r="24.5" fill="#f2d2c0"/><path d="m154 182a68.8 68.8 0 0 1-96.3 6.96l5.91-16.5a17.7 17.7 0 0 1 15.1-10.3l3.76-0.231 8.96-7.73s24.1-0.862 23.8-1.27l14.6 8.79-0.0114-0.0607 5.75 0.352a17.7 17.7 0 0 1 15.1 10.3z" fill="#d5e9f1"/><path d="m129 110a54.3 54.3 0 0 0 0.236-5.51 25.9 25.9 0 0 0-1.96-10.6 16.3 16.3 0 0 0-8.54-8.25 15.6 15.6 0 0 0-11.7 0.0091c-3.38-2.14-7.14-3.83-11.1-4.04-3.96-0.21-8.14 1.26-10.6 4.49a17.3 17.3 0 0 1-1.85 2.4c-1.96 1.81-4.94 1.55-7.54 1.18q1.75 1.5 3.51 3-2.12 0.554-4.24 1.11 2.48 1.5 4.95 3c-4.79 2.88-6.97 9.15-6.39 14.9 0.544 5.4 3.15 10.3 6.26 14.7 1.24-2.62 0.975-5.76 0.954-8.71a19.7 19.7 0 0 1 0.175-2.86c10.5 2.52 21.5 4.14 32.7 0.135l2.24-5.48c0.314 0.0323 0.628 0.0627 0.942 0.0961l1.3 5.39c2.94 1.2 5.89 2.25 8.83 1.15 0.143 0.832 0.23 1.68 0.296 2.5 0.253-0.976 0.472-1.96 0.67-2.95a8.72 8.72 0 0 0 1.12-0.713 24 24 0 0 0-0.29-4.9z" fill="#f2dba7"/></g></svg>
