<!-- Created with Inkscape (http://www.inkscape.org/) -->
<svg width="137mm" height="138mm" version="1.1" viewBox="0 0 137 138" xmlns="http://www.w3.org/2000/svg"><g transform="translate(-33.6 -67.4)"><circle cx="102" cy="136" r="68.6" fill="none" stroke-width=".605"/></g><g fill="#3f3d56"><path d="m90.8 86.8c4.38 8.73 9.29 17.2 14.7 25.3 0 0 1.64 5.79 5.59 7.2 3.95 1.41 6.73-4.28 2.36-6.58-4.37-2.31-4.69-14.4-5.3-20.5-3.28-32.2-29.6-32.5-17.4-5.47z" stroke-width=".699"/><path d="m42.6 108c-6.53-2.49-47.2-42-18.5-51 0 0 12 4.67 14.6 0.56 0.943-1.54 0.23-3.33-1.03-4.97-2.87-3.6-7.34-5.56-11.9-5.23-10.1 0.571-27.7 5.86-16.4 37.8 7.87 20.1 26.8 35 50.6 32.5 2.72-0.45-9.31-6.66-17.3-9.7z" stroke-width=".963"/><path d="m108 66.9c-4.27 29.2-19.6 44.3-43.7 50.6-23.3 6.05-37.9-11.6-31.9-29.8 2.92-8.92 10.4-21 28.4-26.7 16.7-5.29 24.3-5.59 27.6-15.2 1.9-5.54 24.1-8.76 19.7 21z" stroke-width=".598"/><path d="m98.9 19-5.22 4.93c-4.93 4.66-4.47 15.9-6.09 23.6-1.54 7.34-0.0656 6.73 10.1 6.87 7.35 0.996 10.2-2.69 12.9-2.64 2.15 0.0517 5.1-0.0928 6.63-1.6 1.62-1.75 3.05-3.67 4.26-5.72 0.654-1.06 0.754-2.37 0.269-3.51-1.49-3.42-2.76-6.93-3.82-10.5-1.24-4.75-9.16-8.14-9.16-8.14s-2.71-13.3-5.37-9.33c-1.36 2.11-4.47 6.05-4.47 6.05z" stroke-width=".963"/><path d="m84.7 119c2.48-0.605 3.05-2.4 2.23-3.94-0.819-1.55-2.21-3.09-7.31-1.06-12.5-1.08-27.6 1.88-26.3 3.86 1.26 1.98 20.1 0.897 31.4 1.14z" stroke-width=".779"/></g></svg>
