<?xml version="1.0" encoding="UTF-8" standalone="no"?>
<!-- Created with Inkscape (http://www.inkscape.org/) -->

<svg
   xmlns:dc="http://purl.org/dc/elements/1.1/"
   xmlns:cc="http://creativecommons.org/ns#"
   xmlns:rdf="http://www.w3.org/1999/02/22-rdf-syntax-ns#"
   xmlns:svg="http://www.w3.org/2000/svg"
   xmlns="http://www.w3.org/2000/svg"
   xmlns:sodipodi="http://sodipodi.sourceforge.net/DTD/sodipodi-0.dtd"
   xmlns:inkscape="http://www.inkscape.org/namespaces/inkscape"
   width="207mm"
   height="207mm"
   viewBox="0 0 207 207"
   version="1.1"
   id="svg5290"
   inkscape:version="0.92.4 (5da689c313, 2019-01-14)"
   sodipodi:docname="flow_female.svg"
   inkscape:export-filename="C:\Users\rapha\Documents\Maaind\Achmea\Avatar\flow_female.png"
   inkscape:export-xdpi="35.220001"
   inkscape:export-ydpi="35.220001">
  <defs
     id="defs5284" />
  <sodipodi:namedview
     id="base"
     pagecolor="#ffffff"
     bordercolor="#666666"
     borderopacity="1.0"
     inkscape:pageopacity="0.0"
     inkscape:pageshadow="2"
     inkscape:zoom="0.70956794"
     inkscape:cx="152.4129"
     inkscape:cy="264.16295"
     inkscape:document-units="mm"
     inkscape:current-layer="layer5"
     showgrid="false"
     inkscape:window-width="2560"
     inkscape:window-height="1017"
     inkscape:window-x="-8"
     inkscape:window-y="-8"
     inkscape:window-maximized="1" />
  <metadata
     id="metadata5287">
    <rdf:RDF>
      <cc:Work
         rdf:about="">
        <dc:format>image/svg+xml</dc:format>
        <dc:type
           rdf:resource="http://purl.org/dc/dcmitype/StillImage" />
        <dc:title></dc:title>
      </cc:Work>
    </rdf:RDF>
  </metadata>
  <g
     inkscape:groupmode="layer"
     id="layer9"
     inkscape:label="flower_old"
     style="display:none"
     transform="translate(-3.7892085,-32.208003)">
    <path
       inkscape:connector-curvature="0"
       style="display:inline;fill:#deecdb;fill-opacity:1;stroke-width:0.35415488"
       d="m 29.371998,172.62734 -9.5727,-1.08535 a 31.084215,31.084215 0 0 1 -2.66989,-14.71579 c 5.20353,7.33657 16.21182,7.21904 23.52693,12.45272 a 18.697212,18.697212 0 0 1 7.68219,14.26974 l 3.160927,6.05769 a 31.33064,31.33064 0 0 1 -24.877247,-8.32479 30.2636,30.2636 0 0 1 -4.77537,-5.90235 c 3.76689,-1.14066 7.52516,-2.75187 7.52516,-2.75187 z"
       id="path2"
       inkscape:export-xdpi="35.220001"
       inkscape:export-ydpi="35.220001" />
    <path
       inkscape:connector-curvature="0"
       style="display:inline;fill:#deecdb;fill-opacity:1;stroke-width:0.35415488"
       d="m 36.660508,158.84175 -8.08391,-5.24068 a 31.084204,31.084204 0 0 1 4.17327,-14.36197 c 1.38541,8.88723 11.29071,13.6915 15.50392,21.63828 a 18.697215,18.697215 0 0 1 0.51185,16.19814 l 0.12757,6.83159 a 31.330633,31.330633 0 0 1 -18.5535,-18.54581 30.263454,30.263454 0 0 1 -1.64183,-7.41257 c 3.88026,0.65902 7.96263,0.89302 7.96263,0.89302 z"
       id="path4"
       inkscape:export-xdpi="35.220001"
       inkscape:export-ydpi="35.220001" />
  </g>
  <g
     inkscape:groupmode="layer"
     id="layer5"
     inkscape:label="background"
     style="display:inline"
     transform="translate(-3.7892085,-32.208003)">
    <path
       inkscape:connector-curvature="0"
       style="fill:#f0f0f0;stroke-width:0.29941222"
       d="M 59.63117,138.2407 C 48.430754,127.69066 43.700229,116.68432 46.310637,107.24944 49.660614,95.141824 64.542908,86.770428 87.141526,84.281779 l 0.08347,0.694515 c -22.284028,2.453846 -36.939289,10.63735 -40.208122,22.451986 -2.540484,9.18199 2.121377,19.94789 13.12687,30.31448 z"
       id="path2-3"
       inkscape:export-xdpi="35.220001"
       inkscape:export-ydpi="35.220001" />
    <path
       inkscape:connector-curvature="0"
       style="fill:#f0f0f0;stroke-width:0.29941222"
       d="m 167.69633,175.69014 c -13.97882,0 -29.16929,-1.98764 -44.25775,-5.80973 -18.65886,-4.72647 -35.767035,-11.86058 -49.474946,-20.63132 l 0.405908,-0.58087 c 13.641921,8.72825 30.674308,15.82975 49.255968,20.53645 16.79198,4.2538 33.70987,6.22473 48.91852,5.70462 l 0.0264,0.69827 q -2.40924,0.0829 -4.87411,0.0826 z"
       id="path4-3"
       inkscape:export-xdpi="35.220001"
       inkscape:export-ydpi="35.220001" />
    <path
       inkscape:connector-curvature="0"
       style="fill:#f0f0f0;stroke-width:0.29941222"
       d="m 180.78764,169.53743 -0.23398,-0.6621 c 12.50213,-4.04459 20.32172,-10.55994 22.61342,-18.84229 2.91304,-10.52889 -3.41561,-22.74697 -17.8203,-34.40364 C 170.86861,103.91355 149.9908,94.19238 126.55844,88.256898 l 0.1869,-0.675741 c 23.53474,5.961573 44.51419,15.733073 59.07297,27.514643 14.63226,11.84062 21.04437,24.31177 18.05501,35.11607 -2.35734,8.51989 -10.34028,15.20247 -23.08568,19.32556 z"
       id="path6"
       inkscape:export-xdpi="35.220001"
       inkscape:export-ydpi="35.220001" />
    <path
       inkscape:connector-curvature="0"
       style="fill:#f0f0f0;stroke-width:0.29941222"
       d="m 150.39159,186.48108 q -4.24971,0 -8.64459,-0.18156 l 0.0314,-0.69828 c 21.8651,0.90578 41.15708,-1.59791 55.79397,-7.24178 l 0.27322,0.64844 c -12.76823,4.92275 -29.0423,7.47318 -47.45398,7.47318 z"
       id="path10"
       inkscape:export-xdpi="35.220001"
       inkscape:export-ydpi="35.220001" />
    <path
       inkscape:connector-curvature="0"
       style="fill:#f0f0f0;stroke-width:0.29941222"
       d="M 148.4368,85.956983 C 143.89693,84.542697 139.22722,83.225851 134.5575,82.042957 107.68511,75.236018 81.26924,72.81921 58.164664,75.055133 L 58.091204,74.3596 c 23.190729,-2.243273 49.696986,0.179347 76.653216,7.007605 4.6829,1.186304 9.36581,2.506913 13.91854,3.925295 z"
       id="path24-0"
       inkscape:export-xdpi="35.220001"
       inkscape:export-ydpi="35.220001" />
    <path
       inkscape:connector-curvature="0"
       style="fill:#ffffff;stroke-width:0.29941222"
       d="m 25.43394,123.45253 a 4.6596334,4.4584909 0 0 1 -0.836434,-5.71752 c 0.120419,-0.18031 0.418919,-0.01 0.298341,0.17081 a 4.3147047,4.1284518 0 0 0 0.789409,5.31697 c 0.167746,0.14155 -0.08454,0.37048 -0.251325,0.22974 z"
       id="path30"
       inkscape:export-xdpi="35.220001"
       inkscape:export-ydpi="35.220001" />
    <path
       inkscape:connector-curvature="0"
       style="fill:#ffffff;stroke-width:0.29941222"
       d="m 22.297926,132.07442 a 8.9810354,8.5933508 0 0 0 5.971113,-2.56467 c 0.156645,-0.15303 0.396563,0.0877 0.240106,0.24046 a 9.3416358,8.9383852 0 0 1 -6.219152,2.6567 c -0.223863,0.01 -0.214712,-0.32268 0.008,-0.33249 z"
       id="path32"
       inkscape:export-xdpi="35.220001"
       inkscape:export-ydpi="35.220001" />
    <path
       inkscape:connector-curvature="0"
       style="fill:#ffffff;stroke-width:0.29941222"
       d="m 32.915296,116.92613 a 2.6375673,2.5237114 0 0 0 2.265854,1.01697 c 0.223615,-0.0126 0.21423,0.31999 -0.008,0.33249 a 2.9556211,2.8280357 0 0 1 -2.509246,-1.11971 0.17963601,0.17188166 0 0 1 0.0057,-0.23512 0.17467426,0.16713409 0 0 1 0.245711,0.006 z"
       id="path34"
       inkscape:export-xdpi="35.220001"
       inkscape:export-ydpi="35.220001" />
    <path
       inkscape:connector-curvature="0"
       style="fill:#ffffff;stroke-width:0.29941222"
       d="m 35.647756,135.48894 a 4.6596334,4.4584909 0 0 1 2.929808,-5.04696 c 0.209609,-0.0746 0.340613,0.23355 0.130729,0.30825 a 4.3147079,4.1284548 0 0 0 -2.715306,4.70006 c 0.04489,0.20967 -0.30062,0.24711 -0.345242,0.0385 z"
       id="path40"
       inkscape:export-xdpi="35.220001"
       inkscape:export-ydpi="35.220001" />
    <path
       inkscape:connector-curvature="0"
       style="fill:#ffffff;stroke-width:0.29941222"
       d="m 27.718674,140.56643 a 8.9810354,8.5933508 0 0 0 6.381374,1.39208 c 0.221303,-0.0323 0.261479,0.29846 0.04028,0.33035 a 9.3416113,8.9383617 0 0 1 -6.637319,-1.4615 c -0.184958,-0.12109 0.03161,-0.38133 0.215551,-0.26092 z"
       id="path42"
       inkscape:export-xdpi="35.220001"
       inkscape:export-ydpi="35.220001" />
    <path
       inkscape:connector-curvature="0"
       style="fill:#ffffff;stroke-width:0.29941222"
       d="m 45.727815,134.58783 a 2.6375704,2.5237144 0 0 0 1.169237,2.11731 c 0.186469,0.11877 -0.0303,0.37891 -0.215551,0.26091 a 2.9556211,2.8280357 0 0 1 -1.29893,-2.33956 0.17963295,0.17187873 0 0 1 0.152417,-0.1845 0.17467121,0.16713117 0 0 1 0.192814,0.14584 z"
       id="path44"
       inkscape:export-xdpi="35.220001"
       inkscape:export-ydpi="35.220001" />
    <path
       inkscape:connector-curvature="0"
       style="fill:#deecdb;fill-opacity:1;stroke-width:0.29941222"
       d="m 195.19402,157.03792 c -2.96587,-6.9921 -9.64678,-12.91759 -17.51549,-13.42289 a 36.336045,34.767527 0 0 1 6.45569,23.05719 c -0.30479,3.1513 -0.98672,6.62593 0.86465,9.24848 1.15194,1.63185 3.12331,2.60084 5.13717,3.00644 2.01395,0.40555 4.09648,0.31099 6.1521,0.21453 l 0.46716,0.20458 c 1.2181,-7.45549 1.40458,-15.31624 -1.56128,-22.30833 z"
       id="path46"
       inkscape:export-xdpi="35.220001"
       inkscape:export-ydpi="35.220001" />
    <path
       inkscape:connector-curvature="0"
       style="fill:#ffffff;stroke-width:0.29941222"
       d="m 177.64531,143.77015 a 31.057551,29.716889 0 0 1 11.9821,14.24242 13.37443,12.797096 0 0 1 0.93702,3.90805 7.6708314,7.3397045 0 0 1 -0.92187,3.76081 c -0.58605,1.08615 -1.31696,2.13223 -1.61686,3.33579 a 4.6968816,4.4941312 0 0 0 0.77085,3.60063 c 0.92799,1.30544 2.29087,2.21398 3.65592,3.05813 1.51563,0.93727 3.10541,1.88784 4.06171,3.40042 0.11587,0.18326 0.4063,5.7e-4 0.29061,-0.18247 -1.66381,-2.63164 -5.01252,-3.51015 -7.11281,-5.72613 -0.98003,-1.03401 -1.64032,-2.3569 -1.39096,-3.77762 0.21808,-1.24235 0.97085,-2.3217 1.57416,-3.41655 a 8.1853746,7.8320364 0 0 0 1.04457,-3.64512 12.364355,11.830623 0 0 0 -0.77652,-3.9281 30.131357,28.830676 0 0 0 -4.49577,-7.91777 31.608219,30.243786 0 0 0 -7.84749,-7.01038 c -0.18663,-0.117 -0.34009,0.18166 -0.15467,0.2979 z"
       id="path48"
       inkscape:export-xdpi="35.220001"
       inkscape:export-ydpi="35.220001" />
    <path
       inkscape:connector-curvature="0"
       style="fill:#ffffff;stroke-width:0.29941222"
       d="m 188.99257,156.09166 a 4.6596334,4.4584909 0 0 0 2.16256,-5.3897 c -0.0748,-0.20167 -0.40583,-0.1 -0.33091,0.10206 a 4.3147079,4.1284548 0 0 1 -2.02236,5.00962 c -0.19678,0.10173 -0.005,0.37917 0.1907,0.27805 z"
       id="path50"
       inkscape:export-xdpi="35.220001"
       inkscape:export-ydpi="35.220001" />
    <path
       inkscape:connector-curvature="0"
       style="fill:#ffffff;stroke-width:0.29941222"
       d="m 190.01551,165.16815 a 8.9810354,8.5933508 0 0 1 -5.21274,-3.78716 c -0.11654,-0.18288 -0.40701,-1.9e-4 -0.2906,0.18246 a 9.3416297,8.9383793 0 0 0 5.4327,3.93034 c 0.21576,0.0579 0.28523,-0.26802 0.0707,-0.32564 z"
       id="path52"
       inkscape:export-xdpi="35.220001"
       inkscape:export-ydpi="35.220001" />
    <path
       inkscape:connector-curvature="0"
       style="fill:#ffffff;stroke-width:0.29941222"
       d="m 183.24231,148.11894 a 2.6375704,2.5237144 0 0 1 -2.44717,0.50179 c -0.21488,-0.0605 -0.28414,0.26552 -0.0707,0.32565 a 2.9556211,2.8280357 0 0 0 2.70853,-0.54939 0.17962989,0.1718758 0 0 0 0.05,-0.23025 0.17467121,0.16713117 0 0 0 -0.24066,-0.0478 z"
       id="path54"
       inkscape:export-xdpi="35.220001"
       inkscape:export-ydpi="35.220001" />
    <path
       inkscape:connector-curvature="0"
       style="fill:#deecdb;fill-opacity:1;stroke-width:0.29941222"
       d="m 159.32139,162.16903 c 0.13306,0.0414 0.26613,0.0829 0.40008,0.127 a 34.735217,33.235801 0 0 1 5.18747,2.10472 c 0.12994,0.0625 0.26064,0.12789 0.38844,0.1939 a 36.618814,35.038089 0 0 1 10.49971,8.09184 35.561821,34.026723 0 0 1 3.18607,4.17551 c 1.31162,2.02624 2.56526,4.32306 4.44455,5.77366 a 6.1013251,5.837949 0 0 0 0.61093,0.42455 l 12.41962,-3.18451 c 0.0244,-0.0208 0.0497,-0.039 0.0743,-0.0598 l 0.50196,-0.10549 c -0.0435,-0.0789 -0.0904,-0.15991 -0.13377,-0.23885 -0.025,-0.0459 -0.0528,-0.0911 -0.0779,-0.13698 -0.0176,-0.0303 -0.0353,-0.0608 -0.0493,-0.0891 -0.006,-0.01 -0.0118,-0.0203 -0.0168,-0.0277 -0.014,-0.0283 -0.0302,-0.0533 -0.0435,-0.0789 q -0.39087,-0.68003 -0.79308,-1.35716 c -6.1e-4,-0.002 -6.1e-4,-0.002 -0.005,-0.004 -2.05232,-3.43459 -4.42236,-6.73542 -7.24064,-9.58712 -0.0848,-0.0858 -0.17027,-0.1743 -0.26076,-0.25861 a 33.933492,32.468684 0 0 0 -4.14085,-3.51807 29.999551,28.70456 0 0 0 -2.5212,-1.61727 24.946164,23.869312 0 0 0 -7.24019,-2.77566 c -5.0847,-1.10818 -10.48321,-0.64805 -14.85872,1.94721 -0.11187,0.0665 -0.22117,0.13225 -0.3323,0.20143 z"
       id="path56"
       inkscape:export-xdpi="35.220001"
       inkscape:export-ydpi="35.220001" />
    <path
       inkscape:connector-curvature="0"
       style="fill:#ffffff;stroke-width:0.29941222"
       d="m 159.39156,162.3127 a 31.057542,29.71688 0 0 1 18.52882,4.46913 13.374412,12.797078 0 0 1 3.20722,2.58056 7.6708375,7.3397103 0 0 1 1.63035,3.53387 c 0.21553,1.20484 0.29016,2.46114 0.80801,3.59488 a 4.6968786,4.4941283 0 0 0 2.88111,2.43083 c 1.56237,0.50772 3.22223,0.44801 4.84332,0.33563 1.79992,-0.12476 3.66739,-0.28164 5.3827,0.37518 0.20783,0.0796 0.32474,-0.23364 0.11721,-0.31309 -2.98435,-1.14273 -6.2109,0.085 -9.28223,-0.47444 -1.43313,-0.26103 -2.79274,-0.9369 -3.4876,-2.21492 -0.60762,-1.11758 -0.68573,-2.41302 -0.89293,-3.63477 a 8.1853592,7.8320217 0 0 0 -1.45959,-3.51219 12.364266,11.830538 0 0 0 -3.0917,-2.68903 30.131272,28.830594 0 0 0 -8.57173,-3.73198 31.608249,30.243815 0 0 0 -10.67692,-1.07663 c -0.22263,0.0141 -0.15723,0.34096 0.064,0.32696 z"
       id="path58"
       inkscape:export-xdpi="35.220001"
       inkscape:export-ydpi="35.220001" />
    <path
       inkscape:connector-curvature="0"
       style="fill:#ffffff;stroke-width:0.29941222"
       d="m 176.20479,165.61382 a 4.6596334,4.4584909 0 0 0 -1.66468,-5.5492 c -0.18663,-0.11791 -0.38691,0.15403 -0.20002,0.27211 a 4.3147047,4.1284518 0 0 1 1.53749,5.16491 c -0.0931,0.19458 0.23464,0.30561 0.32724,0.11218 z"
       id="path60"
       inkscape:export-xdpi="35.220001"
       inkscape:export-ydpi="35.220001" />
    <path
       inkscape:connector-curvature="0"
       style="fill:#ffffff;stroke-width:0.29941222"
       d="m 182.73277,172.27158 a 8.9810354,8.5933508 0 0 1 -6.5451,-0.0209 c -0.20811,-0.0789 -0.32508,0.23431 -0.11721,0.3131 a 9.3416542,8.9384028 0 0 0 6.8108,0.009 c 0.20873,-0.078 0.0591,-0.37832 -0.14849,-0.3007 z"
       id="path62"
       inkscape:export-xdpi="35.220001"
       inkscape:export-ydpi="35.220001" />
    <path
       inkscape:connector-curvature="0"
       style="fill:#ffffff;stroke-width:0.29941222"
       d="m 166.59686,162.56064 a 2.6375919,2.5237349 0 0 1 -1.63821,1.81042 c -0.20967,0.0755 -0.0598,0.37569 0.1485,0.3007 a 2.9556211,2.8280357 0 0 0 1.81692,-1.99897 0.17962683,0.17187287 0 0 0 -0.10505,-0.21262 0.17466814,0.16712824 0 0 0 -0.22222,0.10051 z"
       id="path64"
       inkscape:export-xdpi="35.220001"
       inkscape:export-ydpi="35.220001" />
    <ellipse
       style="fill:#e6e6e6;fill-opacity:1;stroke-width:0.29941222"
       cx="137.6548"
       cy="178.05208"
       id="circle66"
       inkscape:export-xdpi="35.220001"
       inkscape:export-ydpi="35.220001"
       rx="2.921957"
       ry="2.7958248" />
    <ellipse
       style="fill:#e6e6e6;stroke-width:0.29941222"
       cx="160.17557"
       cy="138.37036"
       id="circle68"
       inkscape:export-xdpi="35.220001"
       inkscape:export-ydpi="35.220001"
       rx="2.921957"
       ry="2.7958248" />
    <ellipse
       style="fill:#e6e6e6;stroke-width:0.29941222"
       cx="124.7823"
       cy="62.576241"
       id="circle70"
       inkscape:export-xdpi="35.220001"
       inkscape:export-ydpi="35.220001"
       rx="2.921957"
       ry="2.7958248" />
    <path
       inkscape:connector-curvature="0"
       style="fill:#ffffff;stroke-width:0.29941222"
       d="m 95.218712,149.1854 a 77.796868,74.438609 0 0 0 16.574318,2.28892 20.752966,19.857122 0 0 0 2.5394,-0.0165 c 1.85766,-0.14949 3.44891,-0.70816 5.22105,-1.01345 0.85196,-0.14636 1.80093,-0.25337 2.65863,-0.41153 q -0.29727,-0.35289 -0.60523,-0.69714 c -1.84946,0.1495 -3.72768,0.63892 -5.59934,0.86632 -3.18164,0.38713 -6.7465,-0.0448 -9.15843,-1.11025 -1.17019,-0.51695 -2.06655,-1.16216 -3.23264,-1.68148 a 1.5065525,1.4415191 0 0 0 -0.50738,-0.14871 1.7655581,1.6893442 0 0 0 -0.95721,0.23762 c -1.95635,0.945 -4.796724,1.71296 -7.433156,1.29042 -0.196538,0.14715 0.176807,0.31474 0.499988,0.39579 z"
       id="path74-4"
       inkscape:export-xdpi="35.220001"
       inkscape:export-ydpi="35.220001" />
    <path
       inkscape:connector-curvature="0"
       style="fill:#ffffff;stroke-width:0.29941222"
       d="m 83.552117,152.51101 c -0.02409,-0.004 -0.04822,-0.008 -0.07231,-0.0115 a 1.9654972,1.8806525 0 0 0 0.284919,-0.20541 z"
       id="path76"
       inkscape:export-xdpi="35.220001"
       inkscape:export-ydpi="35.220001" />
    <path
       inkscape:connector-curvature="0"
       style="fill:#ffffff;stroke-width:0.29941222"
       d="m 67.769723,154.37542 q 1.65167,0.12629 3.32062,0.18806 a 20.918825,20.015821 0 0 0 2.539397,-0.0165 c 1.85767,-0.15029 3.448906,-0.70816 5.221054,-1.01347 1.624123,-0.27932 3.59775,-0.41387 4.628973,-1.0339 -2.665217,-0.44143 -5.426641,0.45715 -8.174916,0.79156 a 19.520439,18.6778 0 0 1 -6.661797,-0.31474 q -0.456401,0.68692 -0.873331,1.39901 z"
       id="path78-0"
       inkscape:export-xdpi="35.220001"
       inkscape:export-ydpi="35.220001" />
    <path
       inkscape:connector-curvature="0"
       style="fill:#ffffff;stroke-width:0.29941222"
       d="m 208.09264,81.634509 c 0.0241,-0.0044 0.0482,-0.0077 0.0723,-0.01151 a 1.9654972,1.8806525 0 0 1 -0.28491,-0.205393 z"
       id="path114"
       inkscape:export-xdpi="35.220001"
       inkscape:export-ydpi="35.220001" />
    <path
       inkscape:connector-curvature="0"
       style="fill:#ffffff;stroke-width:0.29941222"
       d="m 65.22173,60.443396 a 77.796868,74.438609 0 0 0 16.574321,2.288925 20.752966,19.857122 0 0 0 2.539395,-0.01649 c 1.85767,-0.149504 3.448906,-0.708156 5.221055,-1.013451 0.851947,-0.14636 1.800933,-0.253368 2.658636,-0.411528 Q 91.91786,60.937945 91.609895,60.593708 c -1.849455,0.149503 -3.727683,0.638916 -5.599335,0.866315 -3.181646,0.387131 -6.746502,-0.04483 -9.158434,-1.110241 -1.170188,-0.516953 -2.06655,-1.162168 -3.232633,-1.68149 a 1.5065525,1.4415191 0 0 0 -0.507384,-0.148707 1.7655581,1.6893442 0 0 0 -0.95721,0.237627 c -1.956351,0.944997 -4.796726,1.712961 -7.433158,1.290419 -0.196538,0.147146 0.176808,0.314737 0.499989,0.395787 z"
       id="path126"
       inkscape:export-xdpi="35.220001"
       inkscape:export-ydpi="35.220001" />
    <path
       inkscape:connector-curvature="0"
       style="fill:#ffffff;stroke-width:0.29941222"
       d="m 53.555135,63.769006 c -0.02409,-0.0044 -0.04822,-0.0077 -0.07232,-0.01151 a 1.9654972,1.8806525 0 0 0 0.28492,-0.205404 z"
       id="path128"
       inkscape:export-xdpi="35.220001"
       inkscape:export-ydpi="35.220001" />
    <path
       inkscape:connector-curvature="0"
       style="fill:#ffffff;stroke-width:0.29941222"
       d="m 37.77274,65.633419 q 1.651671,0.126291 3.32062,0.188058 a 20.918825,20.015821 0 0 0 2.539397,-0.01649 c 1.85767,-0.15029 3.448907,-0.708156 5.221054,-1.013451 1.624124,-0.279337 3.59775,-0.413885 4.628973,-1.033917 -2.665217,-0.441427 -5.42664,0.457156 -8.174915,0.791563 a 19.520439,18.6778 0 0 1 -6.661798,-0.314737 q -0.456401,0.686914 -0.873331,1.39901 z"
       id="path130"
       inkscape:export-xdpi="35.220001"
       inkscape:export-ydpi="35.220001" />
  </g>
  <g
     inkscape:groupmode="layer"
     id="layer8"
     inkscape:label="flower"
     style="display:inline"
     transform="translate(-3.7892085,-32.208003)">
    <path
       inkscape:connector-curvature="0"
       style="fill:#deecdb;fill-opacity:1;stroke-width:0.29941222"
       d="M 28.143859,152.35894 C 22.1636,147.43955 18.424563,139.49119 20.433278,132.19411 a 36.336043,34.767524 0 0 0 20.780685,13.2072 c 3.218711,0.72851 6.877987,1.21809 8.885386,3.73337 1.249077,1.56504 1.580272,3.66184 1.339834,5.61749 -0.240504,1.95574 -0.998258,3.81419 -1.749313,5.64763 l 0.05358,0.4889 c -7.773482,-1.2728 -15.619412,-3.61038 -21.599671,-8.52976 z"
       id="path26" />
    <path
       inkscape:connector-curvature="0"
       style="fill:#ffffff;stroke-width:0.29941222"
       d="m 20.597521,132.21344 a 31.057535,29.716873 0 0 0 10.286914,15.40807 13.374369,12.797037 0 0 0 3.572317,2.09598 7.6708161,7.3396898 0 0 0 4.019243,0.36325 c 1.262772,-0.18515 2.532054,-0.51438 3.819873,-0.4025 a 4.6968816,4.4941312 0 0 1 3.320799,1.84727 c 0.997178,1.25787 1.462527,2.78356 1.863408,4.29068 0.445099,1.67338 0.879712,3.41824 2.073048,4.76784 0.14459,0.16353 -0.129043,0.36862 -0.273418,0.20535 -2.076195,-2.34806 -1.878525,-5.66508 -3.403817,-8.27645 -0.711733,-1.21851 -1.811561,-2.23916 -3.298382,-2.46607 -1.300151,-0.1984 -2.609346,0.14008 -3.886246,0.33809 a 8.1853838,7.8320451 0 0 1 -3.94378,-0.21507 12.364419,11.830684 0 0 1 -3.643361,-1.95684 30.131393,28.83071 0 0 1 -6.409326,-6.60201 31.608273,30.243838 0 0 1 -4.441659,-9.35224 c -0.05635,-0.20656 0.288386,-0.25051 0.344461,-0.0448 z"
       id="path28" />
    <path
       inkscape:connector-curvature="0"
       style="fill:#ffffff;stroke-width:0.29941222"
       d="m 29.184122,146.43323 a 4.6596334,4.4584909 0 0 1 -6.0284,0.24246 c -0.175894,-0.13214 0.03045,-0.39988 0.206591,-0.26756 a 4.3147047,4.1284518 0 0 0 5.607189,-0.23651 c 0.163491,-0.14602 0.377177,0.11641 0.21462,0.26162 z"
       id="path30-9" />
    <path
       inkscape:connector-curvature="0"
       style="fill:#ffffff;stroke-width:0.29941222"
       d="m 37.848645,150.25529 a 8.9810354,8.5933508 0 0 0 -2.089105,-5.93501 c -0.143973,-0.164 0.12961,-0.36916 0.273419,-0.20536 a 9.3416358,8.9383852 0 0 1 2.160776,6.18014 c -0.01145,0.21415 -0.356447,0.17322 -0.34509,-0.0397 z"
       id="path32-4" />
    <path
       inkscape:connector-curvature="0"
       style="fill:#ffffff;stroke-width:0.29941222"
       d="m 23.120404,138.67604 a 2.6375673,2.5237114 0 0 0 1.277436,-2.05929 c 0.0086,-0.21417 0.353605,-0.17302 0.34509,0.0397 a 2.9556211,2.8280357 0 0 1 -1.407907,2.28111 0.17963601,0.17188166 0 0 1 -0.244019,-0.0281 0.17467426,0.16713409 0 0 1 0.02935,-0.23348 z"
       id="path34-7" />
    <path
       inkscape:connector-curvature="0"
       style="fill:#deecdb;fill-opacity:1;stroke-width:0.29941222"
       d="m 44.665841,121.46306 c -9.17e-4,0.13388 -0.003,0.26777 -0.0016,0.40331 a 34.735282,33.235863 0 0 0 0.430605,5.37558 c 0.02052,0.13781 0.04356,0.27715 0.06816,0.41409 a 36.618893,35.038164 0 0 0 4.667145,12.10236 35.561668,34.026577 0 0 0 3.120061,4.22091 c 1.588831,1.8356 3.464174,3.70495 4.301799,5.8718 a 6.1003333,5.837 0 0 1 0.22574,0.68943 l -7.114889,10.24759 c -0.0284,0.0155 -0.05447,0.0327 -0.08284,0.0484 l -0.264522,0.42159 c -0.06429,-0.0646 -0.129609,-0.1329 -0.193948,-0.19749 -0.03751,-0.0373 -0.07343,-0.0769 -0.110829,-0.11425 -0.02443,-0.0256 -0.04888,-0.0512 -0.07255,-0.073 -0.0082,-0.008 -0.01629,-0.0172 -0.02198,-0.0241 -0.02368,-0.0218 -0.0432,-0.0444 -0.06428,-0.0645 q -0.548974,-0.57139 -1.09144,-1.1521 c -0.0024,-0.002 -0.0024,-0.002 -0.0036,-0.006 -2.747681,-2.95646 -5.261554,-6.1584 -7.187588,-9.62362 -0.05787,-0.10427 -0.118314,-0.20998 -0.173003,-0.31894 a 33.933542,32.468732 0 0 1 -2.16435,-4.87711 29.999431,28.704445 0 0 1 -0.798015,-2.80217 24.946048,23.869202 0 0 1 -0.440619,-7.45109 c 0.523741,-4.9646 2.701042,-9.71365 6.667075,-12.85413 0.101563,-0.0803 0.201509,-0.15838 0.305465,-0.23708 z"
       id="path36" />
    <path
       inkscape:connector-curvature="0"
       style="fill:#ffffff;stroke-width:0.29941222"
       d="m 44.785783,121.57249 a 31.057559,29.716897 0 0 0 -1.481725,18.22857 13.374534,12.797195 0 0 0 1.53344,3.73147 7.6708437,7.3397162 0 0 0 2.980582,2.60543 c 1.124733,0.57966 2.34536,1.04796 3.303229,1.87914 a 4.6968693,4.4941195 0 0 1 1.489111,3.38797 c 0.0047,1.5788 -0.583757,3.06505 -1.212011,4.49934 -0.697547,1.59251 -1.448457,3.23606 -1.344846,5.00109 0.01217,0.21387 -0.334984,0.22 -0.347515,0.007 -0.180265,-3.07085 2.064737,-5.60544 2.490031,-8.56914 0.19844,-1.38293 -0.03748,-2.83145 -1.081843,-3.86916 -0.913258,-0.9074 -2.171558,-1.39136 -3.315664,-1.96886 a 8.1853715,7.8320334 0 0 1 -3.013566,-2.44364 12.364444,11.830708 0 0 1 -1.677713,-3.66131 30.131357,28.830676 0 0 1 -0.96328,-8.96361 31.608249,30.243815 0 0 1 2.33831,-10.026 c 0.085,-0.1974 0.387852,-0.0341 0.303478,0.16227 z"
       id="path38" />
    <path
       inkscape:connector-curvature="0"
       style="fill:#ffffff;stroke-width:0.29941222"
       d="m 42.694162,137.87275 a 4.6596334,4.4584909 0 0 1 -4.9659,-3.27924 c -0.05728,-0.20684 0.275945,-0.30174 0.333307,-0.0946 a 4.3147079,4.1284548 0 0 0 4.625841,3.04135 c 0.22245,-0.0224 0.227916,0.31024 0.0066,0.33252 z"
       id="path40-3" />
    <path
       inkscape:connector-curvature="0"
       style="fill:#ffffff;stroke-width:0.29941222"
       d="m 47.207336,145.91591 a 8.9810354,8.5933508 0 0 0 2.066458,-5.94226 c -0.01218,-0.21388 0.33577,-0.22008 0.347529,-0.007 a 9.3416113,8.9383617 0 0 1 -2.163478,6.17929 c -0.143864,0.1644 -0.393593,-0.0671 -0.2505,-0.23057 z"
       id="path42-2" />
    <path
       inkscape:connector-curvature="0"
       style="fill:#ffffff;stroke-width:0.29941222"
       d="m 42.733702,128.1859 a 2.6375704,2.5237144 0 0 0 2.315713,-0.90832 c 0.141623,-0.16607 0.391213,0.0657 0.250511,0.23057 a 2.9556211,2.8280357 0 0 1 -2.559475,1.01027 0.17963295,0.17187873 0 0 1 -0.177141,-0.16302 0.17467121,0.16713117 0 0 1 0.170392,-0.16949 z"
       id="path44-0" />
  </g>
  <g
     inkscape:groupmode="layer"
     id="layer6"
     inkscape:label="avatar"
     style="display:inline"
     transform="translate(-3.7892085,-32.208003)">
    <ellipse
       style="display:inline;fill:#f2f2f2;stroke-width:0.17503323"
       cx="167.94881"
       cy="97.028664"
       id="circle2"
       inkscape:export-xdpi="35.220001"
       inkscape:export-ydpi="35.220001"
       rx="20.298723"
       ry="19.422487" />
    <ellipse
       style="display:inline;fill:#ebdabc;fill-opacity:1;stroke-width:0.17503323"
       cx="168.13014"
       cy="90.093315"
       id="circle4"
       inkscape:export-xdpi="35.220001"
       inkscape:export-ydpi="35.220001"
       rx="8.0944767"
       ry="7.7450619" />
    <ellipse
       style="display:inline;fill:#f2d2c0;fill-opacity:1;stroke-width:0.17503323"
       cx="168.13345"
       cy="91.936821"
       id="circle42"
       inkscape:export-xdpi="35.220001"
       inkscape:export-ydpi="35.220001"
       rx="7.231144"
       ry="6.9189968" />
    <path
       inkscape:connector-curvature="0"
       style="display:inline;fill:#d5e9f1;stroke-width:0.17503323"
       d="m 183.12155,109.79058 a 20.291618,19.415689 0 0 1 -28.39918,1.96383 l 1.74107,-4.64847 a 5.2243958,4.9988742 0 0 1 4.43763,-2.91576 l 1.10762,-0.065 2.64111,-2.17955 c 0,0 7.11634,-0.24312 7.01078,-0.35954 l 4.31061,2.48086 -0.002,-0.017 1.69454,0.0993 a 5.2221123,4.9966893 0 0 1 4.43766,2.91577 z"
       id="path60-7"
       inkscape:export-xdpi="35.220001"
       inkscape:export-ydpi="35.220001" />
    <path
       inkscape:connector-curvature="0"
       style="display:inline;fill:#ebdabc;fill-opacity:1;stroke-width:0.17503323"
       d="m 175.76217,89.510183 a 16.0009,15.310189 0 0 0 0.0696,-1.554115 7.6453152,7.3152897 0 0 0 -0.57669,-2.995371 4.8104085,4.6027575 0 0 0 -2.517,-2.326614 4.5925213,4.3942758 0 0 0 -3.44324,0.0022 c -0.99667,-0.602517 -2.10408,-1.080159 -3.27031,-1.139325 -1.16625,-0.05922 -2.3993,0.354827 -3.11799,1.266125 a 5.0890721,4.869392 0 0 1 -0.54474,0.677158 c -0.57771,0.511902 -1.45568,0.438058 -2.22355,0.333386 q 0.51661,0.423657 1.0335,0.847328 -0.62536,0.156319 -1.25083,0.31263 0.72983,0.423513 1.45952,0.84703 c -1.4124,0.811161 -2.05438,2.581628 -1.88479,4.189585 0.16042,1.522361 0.92857,2.914464 1.8468,4.151787 0.3663,-0.739619 0.28738,-1.624628 0.28133,-2.457651 a 5.8131724,5.5622351 0 0 1 0.0515,-0.808065 c 3.10323,0.711772 6.34574,1.168571 9.63405,0.03819 l 0.65989,-1.545352 c 0.0927,0.0089 0.18526,0.01771 0.27782,0.02712 l 0.38232,1.519704 c 0.86677,0.338976 1.73535,0.635249 2.60428,0.323921 0.0422,0.234739 0.0678,0.474289 0.0872,0.704522 0.0745,-0.275393 0.13928,-0.552848 0.19762,-0.831399 a 2.5693127,2.4584031 0 0 0 0.329,-0.201095 7.0702498,6.7650482 0 0 0 -0.0855,-1.382289 z"
       id="path78-7"
       inkscape:export-xdpi="35.220001"
       inkscape:export-ydpi="35.220001" />
  </g>
  <g
     inkscape:groupmode="layer"
     id="layer4"
     inkscape:label="mellow"
     style="display:inline"
     transform="translate(-3.7892085,-32.208003)">
    <ellipse
       style="fill:#ffffff;stroke-width:0.40077472"
       cx="-82.417183"
       cy="171.67316"
       id="circle6"
       transform="scale(-1,1)"
       inkscape:export-xdpi="35.220001"
       inkscape:export-ydpi="35.220001"
       rx="33.559284"
       ry="32.11063" />
    <path
       inkscape:connector-curvature="0"
       style="fill:#f0f0f0;fill-opacity:1;stroke-width:0.40077472"
       d="m 82.417147,204.17456 a 33.968967,32.502628 0 1 0 -33.968956,-32.50283 34.007711,32.539699 0 0 0 33.968956,32.50283 z m 0,-64.2212 a 33.149536,31.718569 0 1 1 -33.149525,31.71837 33.18687,31.754291 0 0 1 33.149525,-31.71837 z"
       id="path8"
       inkscape:export-xdpi="35.220001"
       inkscape:export-ydpi="35.220001" />
    <polygon
       transform="matrix(-0.40971539,0,0,0.3920292,358.09554,-38.211623)"
       style="fill:#f2d2c0;fill-opacity:1"
       points="624.647,595.377 630.005,640.052 618.645,641.317 607.882,597.245 "
       id="polygon12"
       inkscape:export-xdpi="35.220001"
       inkscape:export-ydpi="35.220001" />
    <path
       inkscape:connector-curvature="0"
       style="fill:#2f2e41;stroke-width:0.40077472"
       d="m 69.309796,135.03114 c 0.144519,-0.1378 0.301192,-0.27174 0.457235,-0.39913 a 42.456966,40.624225 0 0 1 3.759406,-2.66386 c 1.474749,-0.9401 3.13401,-1.89966 5.010965,-2.89039 q 1.362624,-0.72011 2.88011,-1.47031 0.760226,-0.37598 1.564191,-0.75738 a 0.79019759,0.75608712 0 0 1 0.07034,-0.035 l 0.155127,-0.0754 11.294997,8.92124 0.802371,0.60321 -2.080668,2.45483 c 0,0 0.181147,1.95188 0.176873,1.95282 l 2.065461,4.93155 0.02276,0.01 7.358576,3.21361 7.58308,3.31242 4.07282,1.78014 a 7.8245029,7.4867424 0 0 1 4.10606,4.2451 8.1339077,7.7827911 0 0 1 -0.26793,6.01094 c -0.0912,0.19056 -0.19344,0.38144 -0.30203,0.5651 l -1.69238,10.18175 a 64.048489,61.283706 0 0 1 -5.83072,17.52759 l -2.58487,9.53095 -0.39273,-0.18857 -5.84612,-2.80196 -1.54455,-0.7386 -0.29159,-6.40386 c -0.03313,-0.72984 -0.03793,-1.46379 -0.01087,-2.19624 a 29.502377,28.228847 0 0 1 0.35869,-3.57818 l 3.35185,-19.97034 q -0.89218,-0.34801 -1.76029,-0.69927 -4.023872,-1.61103 -7.619174,-3.25698 c -7.795321,-3.56484 -14.145832,-7.26558 -19.334403,-11.27429 q -2.187033,-1.68643 -4.102821,-3.45261 -0.704144,-0.6453 -1.370814,-1.30319 c -0.105739,-0.1015 -0.208872,-0.20143 -0.310344,-0.3039 a 7.9191145,7.5772699 0 0 1 -1.965204,-7.00599 8.0800833,7.7312902 0 0 1 2.21655,-3.77577 z"
       id="path14"
       inkscape:export-xdpi="35.220001"
       inkscape:export-ydpi="35.220001" />
    <path
       inkscape:connector-curvature="0"
       style="fill:#2f2e41;stroke-width:0.40077472"
       d="m 100.35175,209.68236 5.03821,0.53297 0.79057,0.0828 -0.51446,2.86269 5.85505,5.47281 a 1.8967447,1.8148679 0 0 1 -1.64464,3.08812 l -8.31477,-1.36277 -0.92498,-3.0664 -1.066926,2.73982 -3.13198,-0.51279 2.68876,-9.96576 z"
       id="path16"
       inkscape:export-xdpi="35.220001"
       inkscape:export-ydpi="35.220001" />
    <path
       inkscape:connector-curvature="0"
       style="fill:#f2d2c0;fill-opacity:1;stroke-width:0.40077472"
       d="m 95.557004,110.55206 -4.314043,-4.37745 6.085422,-12.739995 0.905178,-4.474845 a 3.5361389,3.3834943 0 0 1 5.772969,-1.925982 v 0 a 3.5361347,3.3834903 0 0 1 0.45998,4.682552 l -3.36004,4.018724 z"
       id="path18"
       inkscape:export-xdpi="35.220001"
       inkscape:export-ydpi="35.220001" />
    <path
       inkscape:connector-curvature="0"
       style="fill:#deecdb;fill-opacity:1;stroke-width:0.40077472"
       d="m 91.242961,104.21447 4.916591,4.70435 -0.94084,6.87823 a 5.7166196,5.4698502 0 0 1 -4.121937,3.65808 v 0 a 5.7166278,5.469858 0 0 1 -6.226081,-2.50689 L 73.811852,98.811183 a 5.8353674,5.583472 0 0 1 1.881556,-7.589665 v 0 a 5.8354084,5.5835112 0 0 1 8.359184,2.254032 l 6.749925,13.76182 z"
       id="path20"
       inkscape:export-xdpi="35.220001"
       inkscape:export-ydpi="35.220001" />
    <path
       inkscape:connector-curvature="0"
       style="fill:#f2d2c0;fill-opacity:1;stroke-width:0.40077472"
       d="m 96.195834,173.63367 c 0.254021,0.24742 0.508816,0.49189 0.766601,0.73715 0.512579,0.48972 1.032606,0.97502 1.554105,1.45455 0.262243,0.24016 0.527522,0.48099 0.790494,0.71825 l -0.0016,0.009 0.01734,0.007 0.0046,0.004 0.437367,0.21612 1.088429,-1.53393 0.50197,-0.70637 0.70957,-1.00086 1.29978,-1.83052 6.84359,-9.63852 -6.13748,-3.0314 -0.48334,0.89997 -0.003,-7.9e-4 -0.23906,0.44596 -4.488373,8.32123 -0.91653,1.70145 -0.0288,0.0514 -0.550579,1.01582 -0.475276,0.88042 -0.529845,0.98398 z"
       id="path22"
       inkscape:export-xdpi="35.220001"
       inkscape:export-ydpi="35.220001" />
    <path
       inkscape:connector-curvature="0"
       style="fill:#2f2e41;stroke-width:0.40077472"
       d="m 97.464019,170.50958 4.272351,2.61004 0.67075,0.40889 -1.78458,2.34979 2.72164,7.3862 a 1.8967447,1.8148679 0 0 1 -2.90243,2.07371 l -6.827503,-4.74087 0.587745,-3.14161 -2.223302,2.00579 -2.571992,-1.78531 7.017869,-7.80028 z"
       id="path24"
       inkscape:export-xdpi="35.220001"
       inkscape:export-ydpi="35.220001" />
    <path
       inkscape:connector-curvature="0"
       style="fill:#2f2e41;stroke-width:0.40077472"
       d="m 66.657957,142.99622 c 0.425137,0.65324 0.859584,1.3035 1.297124,1.94782 q 1.219589,1.79933 2.504278,3.54525 c 0,0.002 0.0032,0.002 0.0062,0.007 a 8.7612967,8.3830976 0 0 0 1.644688,1.14909 c 0.02483,0.0178 0.05274,0.0296 0.07758,0.0446 a 6.0634641,5.8017224 0 0 0 1.384019,0.53149 c 0.173777,0.0415 0.350659,0.0831 0.524436,0.12476 0.626828,0.14254 1.247464,0.26427 1.865025,0.37116 1.09852,0.18706 2.184636,0.32068 3.264539,0.4038 0.08689,0.009 0.173776,0.0148 0.260676,0.0207 4.440657,0.31178 8.763405,-0.19003 13.275421,-1.0125 2.228102,-0.40382 4.502724,-0.8878 6.858055,-1.38961 0.769572,-0.16626 1.542272,-0.32958 2.324282,-0.49287 0.059,-0.0119 0.12109,-0.0267 0.1831,-0.0386 1.11714,-0.23456 2.25289,-0.46616 3.41658,-0.6948 1.46474,-0.28802 0.71392,-0.30476 2.28413,-0.56903 0,0 -3.62282,3.52008 -4.22484,5.04628 -0.6703,1.87655 -1.20093,3.36117 -0.0807,6.45214 l -3.47907,6.53492 12.09494,1.9624 c 6.66594,-12.49814 11.9934,-20.72801 9.61352,-25.57521 -0.009,-0.22567 -0.0279,-0.45431 -0.059,-0.67997 a 8.1298228,7.7788825 0 0 0 -3.09388,-5.23771 7.8292228,7.4912585 0 0 0 -5.83089,-1.52617 l -2.37394,0.29396 -18.411193,-0.85587 -0.723042,-2.82078 -0.133437,-0.0475 -4.242063,-1.48759 -14.671859,-5.14568 -0.03724,-0.0118 -0.965087,-0.33851 -0.114809,0.17815 c -0.03413,0.0535 -0.06827,0.10694 -0.09931,0.16035 a 28.760074,27.518587 0 0 0 -2.31809,5.14864 84.472604,80.826173 0 0 0 -2.435991,8.89879 q -0.04187,0.19597 -0.07448,0.3563 l -0.0093,0.0327 c -0.0093,0.0505 -0.01556,0.0831 -0.01863,0.092 -0.338264,1.34802 -0.102431,2.99298 0.518216,4.6231 z"
       id="path74"
       inkscape:export-xdpi="35.220001"
       inkscape:export-ydpi="35.220001" />
    <line
       style="fill:#2f2e41;stroke-width:0.40077472"
       x1="105.25228"
       y1="177.79402"
       x2="105.54396"
       y2="177.79402"
       id="line76"
       inkscape:export-xdpi="35.220001"
       inkscape:export-ydpi="35.220001" />
    <path
       inkscape:connector-curvature="0"
       style="fill:#deecdb;fill-opacity:1;stroke-width:0.40077472"
       d="m 69.753385,88.13133 0.106052,-5.62708 9.317398,-1.037376 0.97727,4.751757 9.792442,8.805049 c 6.962287,8.14418 1.903052,13.76064 1.600189,14.59587 l -0.861031,10.26972 -0.541643,3.56817 2.114875,9.76493 -26.693822,5.47911 c -0.854618,-6.75125 0.09707,-13.02418 5.669916,-18.07344 l -2.815995,-8.38371 v 0 a 17.991262,17.214633 0 0 1 -2.618834,-7.22157 l -0.101273,-0.87666 c -2.488432,-7.418469 -1.014358,-9.915973 4.054463,-16.01477 z"
       id="path78"
       inkscape:export-xdpi="35.220001"
       inkscape:export-ydpi="35.220001" />
    <path
       inkscape:connector-curvature="0"
       style="fill:#cf5c1b;fill-opacity:1;stroke-width:0.40025589"
       d="m 56.71176,70.529048 c -0.0069,0.145294 -0.0093,0.290602 -0.0093,0.432955 a 10.403762,9.9546628 0 0 0 13.630153,9.447659 l 1.912179,-0.596041 c 0.01551,-0.0055 0.03408,-0.0089 0.04957,-0.01483 l 3.151866,-0.984512 a 2.1553657,2.0623249 0 0 0 -0.0062,-0.382501 c 4.701435,-1.921587 -1.797511,-8.234832 -3.412193,-12.976468 -0.251031,-0.738377 8.380146,-0.186816 7.971055,-0.818447 0.08989,-0.04455 0.179755,-0.08899 0.263441,-0.133445 a 12.773217,12.221835 0 0 0 -14.1074,-5.260538 c -0.06818,0.01481 -0.139466,0.0356 -0.207639,0.0534 -6.123957,0.145308 -9.34088,4.228629 -9.34088,9.53071 a 15.197873,14.541826 0 0 0 0.105369,1.702117 z"
       id="path80"
       inkscape:export-xdpi="35.220001"
       inkscape:export-ydpi="35.220001" />
    <path
       inkscape:connector-curvature="0"
       style="fill:#f2d2c0;fill-opacity:1;stroke-width:0.40077472"
       d="m 61.993875,72.634539 a 9.9973994,9.5658414 0 0 0 12.602028,6.125489 q 0.428235,-0.133597 0.837868,-0.302848 a 9.9929094,9.5615453 0 0 0 5.56401,-11.752146 9.8929466,9.4658976 0 0 0 -0.999235,-2.060638 9.9940646,9.5626505 0 0 0 -18.004671,7.990143 z"
       id="path82"
       inkscape:export-xdpi="35.220001"
       inkscape:export-ydpi="35.220001" />
    <path
       inkscape:connector-curvature="0"
       style="fill:#cf5c1b;fill-opacity:1;stroke-width:0.40077472"
       d="m 72.236262,79.839944 a 0.34561953,0.33070017 0 0 0 0.04917,-0.01572 l 3.154808,-0.983991 c 0.0082,-0.129365 5.801571,3.540005 5.785183,3.41064 -0.09014,-0.991829 -6.616904,-5.829448 -7.592028,-6.954564 a 6.0469567,5.7859276 0 0 1 2.654956,-9.18911 0.48393533,0.46304529 0 0 0 0.08194,-0.02745 c 0.610472,-0.203862 1.196364,-0.411635 1.745384,-0.619409 0.270413,-1.078078 0.409715,-0.721336 1.061162,-1.634756 -0.118819,0.8311 0.983317,1.458346 0.999706,2.29728 0.225344,-0.09796 0.438395,-0.199936 0.643254,-0.30186 0.09014,-0.04705 0.176178,-0.09022 0.262216,-0.133298 a 4.350358,4.162566 0 0 0 1.610184,-1.230958 C 81.11479,59.819071 75.079683,56.106572 70.23275,57.623718 l -1.831425,0.568434 a 9.1915306,8.7947596 0 0 0 -5.338591,4.34758 10.348181,9.9014811 0 0 0 -3.105627,3.720337 c -4.007034,7.703337 3.732485,16.206401 12.279151,13.579819 z"
       id="path84"
       inkscape:export-xdpi="35.220001"
       inkscape:export-ydpi="35.220001" />
    <ellipse
       style="fill:#cf5c1b;fill-opacity:1;stroke-width:0.40077472"
       cx="-58.983784"
       cy="62.791805"
       id="circle86"
       transform="scale(-1,1)"
       inkscape:export-xdpi="35.220001"
       inkscape:export-ydpi="35.220001"
       rx="4.3444581"
       ry="4.1569209" />
    <path
       inkscape:connector-curvature="0"
       style="fill:#cf5c1b;fill-opacity:1;stroke-width:0.40077472"
       d="M 3.7892085,71.270239 C 10.770648,89.22019 32.382854,94.83799 43.769402,90.126725 c 1.601993,-0.729173 3.175294,-1.642594 4.207753,-3.022535 1.372548,-1.8386 1.601992,-4.265245 1.266022,-6.499809 -0.33597,-2.238469 -1.175889,-4.37501 -1.76178,-6.562526 -0.58588,-2.187508 -0.917755,-4.527915 -0.229433,-6.687978 0.684226,-2.163994 2.605784,-4.088846 4.961646,-4.257423 1.073459,-0.07837 2.151014,0.203866 3.224461,0.109809 1.07346,-0.09796 2.237051,-0.784044 2.261636,-1.815077 l -1.028388,-1.599467 c -0.434305,-2.799076 -1.925664,-5.574633 -4.482281,-6.997687 -2.552532,-1.426986 -6.223585,-1.121193 -8.046819,1.105519 -1.53642,1.87389 -1.479062,4.476948 -1.983011,6.809507 -1.171794,5.417813 -5.699147,9.777151 -10.959882,12.074431 C 25.934472,75.076851 20.01001,75.559043 14.22478,75.464953 12.241757,75.429641 10.22596,75.327747 8.341261,74.727943 6.4525125,74.12422 4.6907087,72.96384 3.7893589,71.270283 Z"
       id="path88"
       inkscape:export-xdpi="35.220001"
       inkscape:export-ydpi="35.220001"
       sodipodi:nodetypes="cccccccccccccccccc" />
    <path
       inkscape:connector-curvature="0"
       style="fill:#3f3d56;stroke-width:0.40077472"
       d="m 102.31855,96.253232 1.70134,-19.41385 a 2.6303728,2.5168274 0 0 0 -2.39875,-2.715329 l -4.422059,-0.354782 a 2.6303728,2.5168274 0 0 0 -2.837837,2.295188 l -1.701341,19.41385 a 2.6303728,2.5168274 0 0 0 2.398753,2.715336 l 4.422061,0.354775 a 2.6303728,2.5168274 0 0 0 2.837833,-2.295188 z"
       id="path90"
       inkscape:export-xdpi="35.220001"
       inkscape:export-ydpi="35.220001" />
    <path
       inkscape:connector-curvature="0"
       style="fill:#d5e9f1;stroke-width:0.40077472"
       d="m 101.01694,75.072711 a 1.4175497,1.3563583 0 0 1 1.29265,1.463258 l -1.70134,19.413861 a 1.4175415,1.3563504 0 0 1 -1.529269,1.236836 l -4.42206,-0.354772 a 1.4175374,1.3563465 0 0 1 -1.292653,-1.463261 l 1.70134,-19.413861 a 1.4175374,1.3563465 0 0 1 1.529267,-1.236847 z"
       id="path92"
       inkscape:export-xdpi="35.220001"
       inkscape:export-ydpi="35.220001" />
    <path
       inkscape:connector-curvature="0"
       style="fill:#f2d2c0;fill-opacity:1;stroke-width:0.40077472"
       d="m 93.56104,102.91453 -4.305203,-1.57203 2.500422,-9.154746 0.438094,-4.538564 a 3.5361347,3.3834903 0 0 1 5.545536,-2.462975 v 0 a 3.5361347,3.3834903 0 0 1 0.941848,4.616046 L 95.753652,94.1193 Z"
       id="path94"
       inkscape:export-xdpi="35.220001"
       inkscape:export-ydpi="35.220001" />
    <path
       inkscape:connector-curvature="0"
       style="fill:#deecdb;fill-opacity:1;stroke-width:0.40077472"
       d="m 89.085953,99.707383 5.740283,2.096017 -2.857317,12.83678 a 5.7166236,5.4698539 0 0 1 -3.723518,4.03028 v 0 A 5.7166278,5.469858 0 0 1 81.790679,116.7652 L 68.910949,99.763863 a 5.8353633,5.583468 0 0 1 1.087649,-7.73055 v 0 a 5.835351,5.5834563 0 0 1 8.551216,1.451756 l 8.139615,13.055441 z"
       id="path96"
       inkscape:export-xdpi="35.220001"
       inkscape:export-ydpi="35.220001" />
    <path
       inkscape:connector-curvature="0"
       style="opacity:0.2;stroke-width:0.40077472"
       d="m 93.754622,106.61771 -2.901478,11.27442 -0.601944,0.70101 a 4.6905406,4.4880639 0 0 1 -7.643749,-0.53593 l -9.195441,-14.62906 8.290527,10.97649 a 4.6905448,4.4880679 0 0 0 7.926965,-0.49288 z"
       id="path98"
       inkscape:export-xdpi="35.220001"
       inkscape:export-ydpi="35.220001" />
  </g>
  <g
     inkscape:groupmode="layer"
     id="layer7"
     inkscape:label="band"
     transform="translate(-3.7892085,-32.208003)">
    <path
       inkscape:connector-curvature="0"
       style="display:inline;fill:#deecdb;fill-opacity:1;stroke-width:0.40818337"
       d="M 57.381575,74.677591 C 56.90956,68.910516 58.912384,62.724559 64.721741,60.047631 68.073003,58.7481 63.80567,59.387105 63.03226,59.638945 62.579761,59.494623 53.53512,62.752399 57.381575,74.677591 Z"
       id="path62-7-8"
       sodipodi:nodetypes="cccc" />
    <path
       inkscape:connector-curvature="0"
       style="display:inline;fill:#ffffff;stroke-width:0.29941222"
       d="m 18.859303,142.55983 a 31.057542,29.71688 0 0 1 18.943085,2.40019 13.374412,12.797078 0 0 1 3.496155,2.21045 7.6708375,7.3397103 0 0 1 2.044346,3.33098 c 0.358935,1.17312 0.584095,2.41287 1.234804,3.48209 a 4.6968786,4.4941283 0 0 0 3.154206,2.0976 c 1.613033,0.33241 3.254698,0.0904 4.851521,-0.19965 1.772967,-0.32203 3.609187,-0.68339 5.392068,-0.21972 0.216022,0.0562 0.294495,-0.26783 0.07879,-0.32391 -3.101913,-0.80669 -6.159461,0.76801 -9.277655,0.5503 -1.455,-0.10151 -2.886838,-0.62331 -3.73072,-1.81637 -0.737933,-1.0433 -0.971258,-2.32154 -1.323951,-3.51238 a 8.1853592,7.8320217 0 0 0 -1.872117,-3.32823 12.364266,11.830538 0 0 0 -3.394435,-2.33091 30.131272,28.830594 0 0 0 -8.963473,-2.76382 31.608249,30.243815 0 0 0 -10.735478,0.10561 c -0.219463,0.0385 -0.115202,0.356 0.102858,0.31774 z"
       id="path58-4"
       inkscape:export-xdpi="35.220001"
       inkscape:export-ydpi="35.220001" />
  </g>
</svg>
