<?xml version="1.0" encoding="UTF-8" standalone="no"?>
<!-- Created with Inkscape (http://www.inkscape.org/) -->

<svg
   xmlns:dc="http://purl.org/dc/elements/1.1/"
   xmlns:cc="http://creativecommons.org/ns#"
   xmlns:rdf="http://www.w3.org/1999/02/22-rdf-syntax-ns#"
   xmlns:svg="http://www.w3.org/2000/svg"
   xmlns="http://www.w3.org/2000/svg"
   xmlns:sodipodi="http://sodipodi.sourceforge.net/DTD/sodipodi-0.dtd"
   xmlns:inkscape="http://www.inkscape.org/namespaces/inkscape"
   width="164.347mm"
   height="130.44427mm"
   viewBox="0 0 164.347 130.44428"
   version="1.1"
   id="svg5290"
   inkscape:version="0.92.4 (5da689c313, 2019-01-14)"
   sodipodi:docname="flow_cat.svg"
   inkscape:export-filename="C:\Users\rapha\Documents\Maaind\Achmea\Avatar\flow_cat.png"
   inkscape:export-xdpi="35.220001"
   inkscape:export-ydpi="35.220001">
  <defs
     id="defs5284" />
  <sodipodi:namedview
     id="base"
     pagecolor="#ffffff"
     bordercolor="#666666"
     borderopacity="1.0"
     inkscape:pageopacity="0.0"
     inkscape:pageshadow="2"
     inkscape:zoom="1.0034806"
     inkscape:cx="193.27938"
     inkscape:cy="329.22788"
     inkscape:document-units="mm"
     inkscape:current-layer="layer1"
     showgrid="false"
     inkscape:window-width="1718"
     inkscape:window-height="1080"
     inkscape:window-x="860"
     inkscape:window-y="24"
     inkscape:window-maximized="0" />
  <metadata
     id="metadata5287">
    <rdf:RDF>
      <cc:Work
         rdf:about="">
        <dc:format>image/svg+xml</dc:format>
        <dc:type
           rdf:resource="http://purl.org/dc/dcmitype/StillImage" />
        <dc:title></dc:title>
      </cc:Work>
    </rdf:RDF>
  </metadata>
  <g
     inkscape:groupmode="layer"
     id="layer5"
     inkscape:label="background"
     style="display:inline"
     transform="translate(-17.70349,-92.88823)">
    <path
       inkscape:connector-curvature="0"
       style="display:inline;fill:#f0f0f0;stroke-width:0.26458332"
       d="M 52.058581,163.76858 C 42.377025,154.23779 38.287995,144.29478 40.544412,135.77141 43.440107,124.83347 56.30425,117.2708 75.838326,115.02257 l 0.07215,0.62742 c -19.262146,2.21679 -31.930044,9.60972 -34.755599,20.28298 -2.195975,8.29491 1.833703,18.02071 11.346768,27.38578 z"
       id="path2-3"
       inkscape:export-xdpi="35.220001"
       inkscape:export-ydpi="35.220001" />
    <path
       inkscape:connector-curvature="0"
       style="display:inline;fill:#f0f0f0;stroke-width:0.26458332"
       d="m 145.46929,197.6 c -12.08318,0 -25.21371,-1.79562 -38.25606,-5.24845 -16.128578,-4.26984 -30.916759,-10.71472 -42.765775,-18.63811 l 0.350864,-0.52475 c 11.791974,7.885 26.51464,14.30042 42.576491,18.5524 14.51486,3.84284 29.13856,5.62336 42.2848,5.15349 l 0.0228,0.63081 q -2.08253,0.0749 -4.21314,0.0746 z"
       id="path4-3"
       inkscape:export-xdpi="35.220001"
       inkscape:export-ydpi="35.220001" />
    <path
       inkscape:connector-curvature="0"
       style="display:inline;fill:#f0f0f0;stroke-width:0.26458332"
       d="m 156.78532,192.0417 -0.20225,-0.59813 c 10.80675,-3.65384 17.56595,-9.53973 19.54687,-17.02192 2.51801,-9.51168 -2.95242,-20.54936 -15.40373,-31.07987 -12.51482,-10.58398 -30.56144,-19.36603 -50.8162,-24.72811 l 0.16156,-0.61046 c 20.34325,5.38565 38.47773,14.21317 51.06223,24.85652 12.64801,10.69669 18.19059,21.96299 15.60661,31.72347 -2.03766,7.69678 -8.93806,13.73375 -19.95509,17.4585 z"
       id="path6"
       inkscape:export-xdpi="35.220001"
       inkscape:export-ydpi="35.220001" />
    <path
       inkscape:connector-curvature="0"
       style="display:inline;fill:#f0f0f0;stroke-width:0.26458332"
       d="m 128.6276,204.27998 q -3.67342,0 -7.47232,-0.16402 l 0.0271,-0.63082 c 18.90003,0.81827 35.57587,-1.44353 48.22789,-6.54214 l 0.23617,0.58579 c -11.03676,4.44716 -25.10395,6.75119 -41.01887,6.75119 z"
       id="path10"
       inkscape:export-xdpi="35.220001"
       inkscape:export-ydpi="35.220001" />
    <path
       inkscape:connector-curvature="0"
       style="display:inline;fill:#f0f0f0;stroke-width:0.26458332"
       d="m 128.8215,116.53594 c -3.92423,-1.27766 -7.96069,-2.46729 -11.99716,-3.53591 -23.228297,-6.14935 -46.061974,-8.33268 -66.033396,-6.31276 l -0.0635,-0.62834 c 20.045892,-2.02656 42.957705,0.16202 66.258466,6.33063 4.04786,1.0717 8.09574,2.26473 12.03108,3.54609 z"
       id="path24-0"
       inkscape:export-xdpi="35.220001"
       inkscape:export-ydpi="35.220001" />
    <path
       inkscape:connector-curvature="0"
       style="display:inline;fill:#ffffff;stroke-width:0.26458332"
       d="m 31.327498,161.28267 a 4.0277521,4.0277521 0 0 1 2.532504,-4.55937 c 0.181184,-0.0674 0.294423,0.21099 0.113001,0.27847 a 3.7296011,3.7296011 0 0 0 -2.34709,4.24598 c 0.0388,0.18942 -0.259854,0.22324 -0.298425,0.0348 z"
       id="path40"
       inkscape:export-xdpi="35.220001"
       inkscape:export-ydpi="35.220001" />
    <path
       inkscape:connector-curvature="0"
       style="display:inline;fill:#ffffff;stroke-width:0.26458332"
       d="m 24.473659,165.86962 a 7.7631396,7.7631396 0 0 0 5.516012,1.25759 c 0.191292,-0.0292 0.22602,0.26962 0.03482,0.29843 a 8.0748187,8.0748187 0 0 1 -5.737249,-1.3203 c -0.159876,-0.10939 0.02732,-0.34449 0.186321,-0.23571 z"
       id="path42"
       inkscape:export-xdpi="35.220001"
       inkscape:export-ydpi="35.220001" />
    <path
       inkscape:connector-curvature="0"
       style="display:inline;fill:#ffffff;stroke-width:0.26458332"
       d="m 40.040625,160.46862 a 2.2798961,2.2798961 0 0 0 1.01068,1.91275 c 0.161182,0.1073 -0.02619,0.3423 -0.186321,0.2357 a 2.5548167,2.5548167 0 0 1 -1.122785,-2.11353 0.15527337,0.15527337 0 0 1 0.131748,-0.16667 0.15098448,0.15098448 0 0 1 0.166667,0.13175 z"
       id="path44"
       inkscape:export-xdpi="35.220001"
       inkscape:export-ydpi="35.220001" />
    <path
       inkscape:connector-curvature="0"
       style="display:inline;fill:#deecdb;fill-opacity:1;stroke-width:0.26458332"
       d="m 167.35448,177.68135 c -2.56367,-6.31659 -8.3386,-11.66961 -15.14025,-12.12609 a 31.408605,31.408605 0 0 1 5.58025,20.82961 c -0.26346,2.84685 -0.85292,5.98579 0.74739,8.35498 0.99573,1.47419 2.69977,2.34957 4.44053,2.71598 1.74085,0.36637 3.54097,0.28095 5.31783,0.19381 l 0.40381,0.18481 c 1.05292,-6.73521 1.21411,-13.83652 -1.34956,-20.1531 z"
       id="path46"
       inkscape:export-xdpi="35.220001"
       inkscape:export-ydpi="35.220001" />
    <path
       inkscape:connector-curvature="0"
       style="display:inline;fill:#ffffff;stroke-width:0.26458332"
       d="m 152.18551,165.69539 a 26.845914,26.845914 0 0 1 10.35724,12.86645 11.560757,11.560757 0 0 1 0.80995,3.53049 6.6306091,6.6306091 0 0 1 -0.79686,3.39747 c -0.50657,0.98122 -1.13837,1.92624 -1.3976,3.01352 a 4.0599492,4.0599492 0 0 0 0.66632,3.25277 c 0.80215,1.17932 1.98021,2.00008 3.16015,2.76268 1.3101,0.84672 2.68429,1.70545 3.51091,3.0719 0.10016,0.16556 0.3512,5.2e-4 0.2512,-0.16484 -1.43818,-2.37739 -4.33278,-3.17103 -6.14826,-5.17292 -0.84713,-0.93412 -1.41788,-2.1292 -1.20233,-3.41266 0.1885,-1.12233 0.83919,-2.0974 1.36069,-3.08648 a 7.0753764,7.0753764 0 0 0 0.90292,-3.29296 10.687656,10.687656 0 0 0 -0.67122,-3.5486 26.045319,26.045319 0 0 0 -3.88611,-7.15283 27.321907,27.321907 0 0 0 -6.78331,-6.3331 c -0.16132,-0.1057 -0.29397,0.16411 -0.1337,0.26912 z"
       id="path48"
       inkscape:export-xdpi="35.220001"
       inkscape:export-ydpi="35.220001" />
    <path
       inkscape:connector-curvature="0"
       style="display:inline;fill:#ffffff;stroke-width:0.26458332"
       d="m 161.994,176.82651 a 4.0277521,4.0277521 0 0 0 1.8693,-4.869 c -0.0647,-0.18218 -0.3508,-0.0903 -0.28604,0.0922 a 3.7296011,3.7296011 0 0 1 -1.74811,4.52564 c -0.1701,0.0919 -0.004,0.34254 0.16484,0.25119 z"
       id="path50"
       inkscape:export-xdpi="35.220001"
       inkscape:export-ydpi="35.220001" />
    <path
       inkscape:connector-curvature="0"
       style="display:inline;fill:#ffffff;stroke-width:0.26458332"
       d="m 162.87822,185.02611 a 7.7631396,7.7631396 0 0 1 -4.50585,-3.42128 c -0.10074,-0.16521 -0.35182,-1.7e-4 -0.2512,0.16483 a 8.0748346,8.0748346 0 0 0 4.69599,3.55063 c 0.1865,0.0523 0.24655,-0.24213 0.0611,-0.29418 z"
       id="path52"
       inkscape:export-xdpi="35.220001"
       inkscape:export-ydpi="35.220001" />
    <path
       inkscape:connector-curvature="0"
       style="display:inline;fill:#ffffff;stroke-width:0.26458332"
       d="m 157.02352,169.62404 a 2.2798961,2.2798961 0 0 1 -2.11532,0.45331 c -0.18574,-0.0547 -0.24561,0.23987 -0.0611,0.29419 a 2.5548167,2.5548167 0 0 0 2.34123,-0.49631 0.15527073,0.15527073 0 0 0 0.0432,-0.20801 0.15098448,0.15098448 0 0 0 -0.20802,-0.0432 z"
       id="path54"
       inkscape:export-xdpi="35.220001"
       inkscape:export-ydpi="35.220001" />
    <path
       inkscape:connector-curvature="0"
       style="display:inline;fill:#deecdb;fill-opacity:1;stroke-width:0.26458332"
       d="m 136.34645,182.31674 c 0.11502,0.0374 0.23004,0.0749 0.34583,0.11473 a 30.024861,30.024861 0 0 1 4.48401,1.90138 c 0.11232,0.0565 0.22529,0.11553 0.33576,0.17517 a 31.653028,31.653028 0 0 1 9.07587,7.31008 30.739371,30.739371 0 0 1 2.75402,3.77211 c 1.13375,1.83048 2.21739,3.9054 3.84183,5.21586 a 5.2739396,5.2739396 0 0 0 0.52809,0.38353 l 10.73542,-2.87685 c 0.0211,-0.0188 0.043,-0.0352 0.0642,-0.054 l 0.43389,-0.0953 c -0.0376,-0.0713 -0.0781,-0.14446 -0.11563,-0.21578 -0.0216,-0.0415 -0.0456,-0.0823 -0.0673,-0.12374 -0.0152,-0.0274 -0.0305,-0.0549 -0.0426,-0.0805 -0.005,-0.009 -0.0102,-0.0183 -0.0145,-0.025 -0.0121,-0.0256 -0.0261,-0.0482 -0.0376,-0.0713 q -0.33787,-0.61433 -0.68553,-1.22604 c -5.3e-4,-0.002 -5.3e-4,-0.002 -0.004,-0.004 -1.77401,-3.10277 -3.82265,-6.08471 -6.25875,-8.6609 -0.0733,-0.0775 -0.14718,-0.15746 -0.2254,-0.23363 a 29.331856,29.331856 0 0 0 -3.57932,-3.17818 25.931387,25.931387 0 0 0 -2.17931,-1.46103 21.563277,21.563277 0 0 0 -6.25836,-2.5075 c -4.39518,-1.00112 -9.06161,-0.58544 -12.84377,1.75909 -0.0967,0.0601 -0.19118,0.11947 -0.28724,0.18197 z"
       id="path56"
       inkscape:export-xdpi="35.220001"
       inkscape:export-ydpi="35.220001" />
    <path
       inkscape:connector-curvature="0"
       style="display:inline;fill:#ffffff;stroke-width:0.26458332"
       d="m 136.40711,182.44653 a 26.845906,26.845906 0 0 1 16.01617,4.03736 11.560741,11.560741 0 0 1 2.7723,2.33125 6.6306144,6.6306144 0 0 1 1.40926,3.19246 c 0.1863,1.08844 0.25081,2.22337 0.69844,3.24758 a 4.0599466,4.0599466 0 0 0 2.49041,2.19598 c 1.3505,0.45867 2.78527,0.40473 4.18653,0.30321 1.55583,-0.11271 3.17006,-0.25443 4.65276,0.33893 0.17965,0.0719 0.2807,-0.21107 0.10132,-0.28284 -2.57965,-1.03233 -5.36866,0.0768 -8.02349,-0.42861 -1.23879,-0.23581 -2.41403,-0.84638 -3.01466,-2.00093 -0.52522,-1.00961 -0.59274,-2.1799 -0.77184,-3.28361 a 7.0753631,7.0753631 0 0 0 -1.26166,-3.17288 10.687579,10.687579 0 0 0 -2.67244,-2.42924 26.045245,26.045245 0 0 0 -7.40934,-3.37143 27.321933,27.321933 0 0 0 -9.22905,-0.97261 c -0.19244,0.0127 -0.13591,0.30802 0.0553,0.29537 z"
       id="path58"
       inkscape:export-xdpi="35.220001"
       inkscape:export-ydpi="35.220001" />
    <path
       inkscape:connector-curvature="0"
       style="display:inline;fill:#ffffff;stroke-width:0.26458332"
       d="m 150.94034,185.42872 a 4.0277521,4.0277521 0 0 0 -1.43894,-5.01308 c -0.16132,-0.10652 -0.33444,0.13915 -0.1729,0.24582 a 3.7295984,3.7295984 0 0 1 1.329,4.66592 c -0.0805,0.17578 0.20282,0.27609 0.28286,0.10134 z"
       id="path60"
       inkscape:export-xdpi="35.220001"
       inkscape:export-ydpi="35.220001" />
    <path
       inkscape:connector-curvature="0"
       style="display:inline;fill:#ffffff;stroke-width:0.26458332"
       d="m 156.58307,191.44327 a 7.7631396,7.7631396 0 0 1 -5.65753,-0.0189 c -0.17989,-0.0713 -0.281,0.21168 -0.10132,0.28285 a 8.0748558,8.0748558 0 0 0 5.88721,0.008 c 0.18042,-0.0705 0.0511,-0.34177 -0.12836,-0.27165 z"
       id="path62"
       inkscape:export-xdpi="35.220001"
       inkscape:export-ydpi="35.220001" />
    <path
       inkscape:connector-curvature="0"
       style="display:inline;fill:#ffffff;stroke-width:0.26458332"
       d="m 142.63531,182.67051 a 2.2799146,2.2799146 0 0 1 -1.41605,1.63552 c -0.18124,0.0682 -0.0517,0.33939 0.12836,0.27165 a 2.5548167,2.5548167 0 0 0 1.57053,-1.80585 0.15526808,0.15526808 0 0 0 -0.0908,-0.19208 0.15098183,0.15098183 0 0 0 -0.19209,0.0908 z"
       id="path64"
       inkscape:export-xdpi="35.220001"
       inkscape:export-ydpi="35.220001" />
    <circle
       style="display:inline;fill:#e6e6e6;fill-opacity:1;stroke-width:0.26458332"
       cx="117.6178"
       cy="196.66449"
       r="2.5257177"
       id="circle66"
       inkscape:export-xdpi="35.220001"
       inkscape:export-ydpi="35.220001" />
    <circle
       style="display:inline;fill:#e6e6e6;stroke-width:0.26458332"
       cx="138.9684"
       cy="163.88504"
       r="2.5257177"
       id="circle68"
       inkscape:export-xdpi="35.220001"
       inkscape:export-ydpi="35.220001" />
    <circle
       style="display:inline;fill:#e6e6e6;stroke-width:0.26458332"
       cx="108.37473"
       cy="95.413948"
       r="2.5257177"
       id="circle70"
       inkscape:export-xdpi="35.220001"
       inkscape:export-ydpi="35.220001" />
    <path
       inkscape:connector-curvature="0"
       style="display:inline;fill:#ffffff;stroke-width:0.26458332"
       d="m 72.735668,176.66022 c -0.02082,-0.004 -0.04168,-0.007 -0.0625,-0.0104 a 1.698961,1.698961 0 0 0 0.246282,-0.18556 z"
       id="path76"
       inkscape:export-xdpi="35.220001"
       inkscape:export-ydpi="35.220001" />
    <path
       inkscape:connector-curvature="0"
       style="display:inline;fill:#ffffff;stroke-width:0.26458332"
       d="m 180.38756,112.63104 c 0.0208,-0.004 0.0417,-0.007 0.0625,-0.0104 a 1.698961,1.698961 0 0 1 -0.24628,-0.18555 z"
       id="path114"
       inkscape:export-xdpi="35.220001"
       inkscape:export-ydpi="35.220001" />
    <path
       inkscape:connector-curvature="0"
       style="display:inline;fill:#deecdb;fill-opacity:1;stroke-width:0.26458332"
       d="m 24.841186,176.52284 c -5.169291,-4.44412 -8.401287,-11.62458 -6.664969,-18.21668 a 31.408603,31.408603 0 0 0 17.962668,11.93124 c 2.78223,0.65812 5.945281,1.10041 7.680461,3.37268 1.079693,1.41384 1.365976,3.30807 1.158143,5.07478 -0.20789,1.7668 -0.862887,3.4457 -1.512093,5.10201 l 0.04631,0.44167 c -6.71934,-1.14984 -13.501303,-3.26158 -18.670594,-7.7057 z"
       id="path26" />
    <path
       inkscape:connector-curvature="0"
       style="display:inline;fill:#ffffff;stroke-width:0.26458332"
       d="m 18.318188,158.32362 a 26.8459,26.8459 0 0 0 8.891931,13.91948 11.560704,11.560704 0 0 0 3.087884,1.89349 6.6305959,6.6305959 0 0 0 3.474203,0.32815 c 1.091531,-0.16726 2.188689,-0.46468 3.30187,-0.36361 a 4.0599492,4.0599492 0 0 1 2.870474,1.6688 c 0.861953,1.13635 1.264197,2.51464 1.610716,3.87616 0.38474,1.51171 0.760416,3.088 1.791927,4.30721 0.124982,0.14773 -0.111544,0.33301 -0.236341,0.18551 -1.794647,-2.12121 -1.623783,-5.11777 -2.942234,-7.47685 -0.615216,-1.10079 -1.565899,-2.02284 -2.851096,-2.22782 -1.123841,-0.17924 -2.255499,0.12654 -3.359242,0.30542 a 7.0753843,7.0753843 0 0 1 -3.408974,-0.19429 10.687711,10.687711 0 0 1 -3.149294,-1.76779 26.04535,26.04535 0 0 1 -5.540173,-5.96418 27.321954,27.321954 0 0 1 -3.839337,-8.44871 c -0.04871,-0.18661 0.249279,-0.22631 0.29775,-0.0405 z"
       id="path28" />
    <path
       inkscape:connector-curvature="0"
       style="display:inline;fill:#ffffff;stroke-width:0.26458332"
       d="m 25.740381,171.16962 a 4.0277521,4.0277521 0 0 1 -5.210904,0.21904 c -0.152041,-0.11938 0.02632,-0.36125 0.178576,-0.24171 a 3.7295984,3.7295984 0 0 0 4.846812,-0.21366 c 0.141321,-0.13192 0.326029,0.10516 0.185516,0.23634 z"
       id="path30-9" />
    <path
       inkscape:connector-curvature="0"
       style="display:inline;fill:#ffffff;stroke-width:0.26458332"
       d="m 33.22993,174.62243 a 7.7631396,7.7631396 0 0 0 -1.805807,-5.36162 c -0.124449,-0.14816 0.112034,-0.3335 0.236341,-0.18552 a 8.0748399,8.0748399 0 0 1 1.867759,5.58307 c -0.0099,0.19346 -0.30811,0.15648 -0.298293,-0.0359 z"
       id="path32-4" />
    <path
       inkscape:connector-curvature="0"
       style="display:inline;fill:#ffffff;stroke-width:0.26458332"
       d="m 20.498949,164.16186 a 2.2798934,2.2798934 0 0 0 1.104206,-1.86034 c 0.0074,-0.19348 0.305653,-0.1563 0.298293,0.0359 a 2.5548167,2.5548167 0 0 1 -1.216984,2.06073 0.15527602,0.15527602 0 0 1 -0.210928,-0.0254 0.15098712,0.15098712 0 0 1 0.02537,-0.21093 z"
       id="path34-7" />
    <path
       inkscape:connector-curvature="0"
       style="display:inline;fill:#deecdb;fill-opacity:1;stroke-width:0.26458332"
       d="m 39.122663,148.61184 c -7.93e-4,0.12095 -0.0026,0.2419 -0.0014,0.36435 a 30.024917,30.024917 0 0 0 0.372212,4.85624 c 0.01774,0.12449 0.03765,0.25037 0.05892,0.37408 a 31.653096,31.653096 0 0 0 4.034245,10.93314 30.739239,30.739239 0 0 0 2.696957,3.81313 c 1.373374,1.65826 2.994406,3.34701 3.718443,5.30452 a 5.2730823,5.2730823 0 0 1 0.195128,0.62282 l -6.150057,9.25756 c -0.02455,0.014 -0.04708,0.0295 -0.07161,0.0437 l -0.228651,0.38086 c -0.05557,-0.0584 -0.112033,-0.12006 -0.167647,-0.17841 -0.03242,-0.0337 -0.06347,-0.0695 -0.0958,-0.10321 -0.02112,-0.0231 -0.04225,-0.0463 -0.06271,-0.066 -0.0071,-0.007 -0.01408,-0.0155 -0.019,-0.0218 -0.02047,-0.0197 -0.03734,-0.0401 -0.05556,-0.0583 q -0.474529,-0.51619 -0.943433,-1.04079 c -0.0021,-0.002 -0.0021,-0.002 -0.0031,-0.005 -2.375075,-2.67083 -4.548048,-5.56343 -6.212897,-8.69387 -0.05002,-0.0942 -0.10227,-0.1897 -0.149543,-0.28813 a 29.331899,29.331899 0 0 1 -1.870848,-4.40593 25.931283,25.931283 0 0 1 -0.689798,-2.53145 21.563177,21.563177 0 0 1 -0.380868,-6.73123 c 0.452718,-4.48497 2.334761,-8.77521 5.76297,-11.61228 0.08779,-0.0725 0.174183,-0.14308 0.264042,-0.21418 z"
       id="path36" />
    <path
       inkscape:connector-curvature="0"
       style="display:inline;fill:#ffffff;stroke-width:0.26458332"
       d="m 39.22634,148.7107 a 26.845921,26.845921 0 0 0 -1.280792,16.46749 11.560847,11.560847 0 0 0 1.325494,3.37097 6.6306197,6.6306197 0 0 0 2.576393,2.35372 c 0.97221,0.52366 2.027311,0.94671 2.855286,1.69759 a 4.0599386,4.0599386 0 0 1 1.287176,3.06066 c 0.0041,1.42627 -0.504595,2.76893 -1.047653,4.06465 -0.602954,1.43866 -1.252035,2.92342 -1.162475,4.51793 0.01052,0.19321 -0.289557,0.19875 -0.300389,0.006 -0.15582,-2.77417 1.784743,-5.06389 2.152364,-7.74127 0.17153,-1.24932 -0.0324,-2.5579 -0.935137,-3.49535 -0.789413,-0.81974 -1.877078,-1.25694 -2.866035,-1.77865 a 7.0753737,7.0753737 0 0 1 -2.604904,-2.20756 10.687733,10.687733 0 0 1 -1.450202,-3.30759 26.045319,26.045319 0 0 1 -0.832652,-8.09762 27.321933,27.321933 0 0 1 2.021217,-9.05738 c 0.07347,-0.17833 0.335257,-0.0308 0.262324,0.14659 z"
       id="path38" />
    <path
       inkscape:connector-curvature="0"
       style="display:inline;fill:#ffffff;stroke-width:0.26458332"
       d="m 37.418358,163.43618 a 4.0277521,4.0277521 0 0 1 -4.292486,-2.96243 c -0.04951,-0.18686 0.238524,-0.27259 0.288108,-0.0855 a 3.7296011,3.7296011 0 0 0 3.998542,2.74752 c 0.192284,-0.0202 0.197009,0.28027 0.0057,0.3004 z"
       id="path40-3" />
    <path
       inkscape:connector-curvature="0"
       style="display:inline;fill:#ffffff;stroke-width:0.26458332"
       d="m 41.319512,170.70228 a 7.7631396,7.7631396 0 0 0 1.786231,-5.36817 c -0.01053,-0.19322 0.290237,-0.19882 0.300401,-0.006 a 8.0748187,8.0748187 0 0 1 -1.870094,5.5823 c -0.124355,0.14852 -0.340219,-0.0606 -0.21653,-0.20829 z"
       id="path42-2" />
    <path
       inkscape:connector-curvature="0"
       style="display:inline;fill:#ffffff;stroke-width:0.26458332"
       d="m 37.452536,154.68518 a 2.2798961,2.2798961 0 0 0 2.001685,-0.82056 c 0.122418,-0.15003 0.338162,0.0593 0.21654,0.20829 a 2.5548167,2.5548167 0 0 1 -2.212391,0.91267 0.15527337,0.15527337 0 0 1 -0.153119,-0.14727 0.15098448,0.15098448 0 0 1 0.147285,-0.15312 z"
       id="path44-0" />
    <path
       inkscape:connector-curvature="0"
       style="display:inline;fill:#f0f0f0;fill-opacity:1;stroke-width:0.35415488"
       d="m 71.754608,223.33251 a 29.36252,29.36252 0 1 0 -29.36251,-29.3627 29.39601,29.39601 0 0 0 29.36251,29.3627 z m 0,-58.01673 a 28.65421,28.65421 0 1 1 -28.6542,28.65403 28.686481,28.686481 0 0 1 28.6542,-28.65403 z"
       id="path8"
       inkscape:export-xdpi="35.220001"
       inkscape:export-ydpi="35.220001" />
  </g>
  <g
     inkscape:groupmode="layer"
     id="layer6"
     inkscape:label="avatar"
     style="display:inline"
     transform="translate(-17.70349,-92.88823)" />
  <g
     inkscape:groupmode="layer"
     id="layer1"
     inkscape:label="flow"
     style="display:inline"
     transform="translate(-13.914282,-7.0961663)">
    <path
       inkscape:connector-curvature="0"
       style="display:inline;fill:#3f3d56;stroke-width:0.40075535"
       d="m 83.142236,86.116327 c 2.507898,5.00523 5.322342,9.850911 8.427271,14.509363 0,0 0.941124,3.3165 3.204985,4.12687 2.263863,0.81037 3.856726,-2.45038 1.35062,-3.77311 C 93.618991,99.656709 93.439631,92.708531 93.087375,89.250626 91.208243,70.804144 76.123034,70.599043 83.142236,86.116327 Z"
       id="path48-7-9"
       sodipodi:nodetypes="ccscsc" />
    <path
       inkscape:connector-curvature="0"
       style="display:inline;fill:#3f3d56;stroke-width:0.55182177"
       d="M 55.55871,98.389732 C 51.816431,96.964708 28.516211,74.347308 44.928462,69.17479 c 0,0 6.903754,2.673834 8.344415,0.320706 0.54025,-0.882408 0.13154,-1.909077 -0.590386,-2.847692 -1.647153,-2.065416 -4.206446,-3.186273 -6.841382,-2.996231 -5.761296,0.327089 -15.8538,3.361236 -9.412232,21.69013 4.512086,11.515491 15.366328,20.058697 29.027935,18.605137 1.561088,-0.25787 -5.333783,-3.81905 -9.898102,-5.557108 z"
       id="path48-7-64"
       sodipodi:nodetypes="sccccccs" />
    <path
       inkscape:connector-curvature="0"
       style="display:inline;fill:#3f3d56;stroke-width:0.3426584"
       d="m 93.080961,74.67206 c -2.446232,16.754451 -11.234812,25.38774 -25.070986,28.97912 -13.358551,3.46742 -21.7131,-6.638921 -18.301874,-17.059811 1.67273,-5.109991 5.947276,-12.018522 16.258819,-15.288762 9.565981,-3.033792 13.916247,-3.20154 15.801001,-8.691219 1.09047,-3.176179 13.806665,-5.018379 11.31304,12.060672 z"
       id="path48-7-84"
       sodipodi:nodetypes="ssssss" />
    <path
       inkscape:connector-curvature="0"
       style="display:inline;fill:#3f3d56;stroke-width:0.55182177"
       d="m 87.808055,47.267959 -2.99143,2.826778 c -2.827752,2.672123 -2.562691,9.101105 -3.488726,13.519482 -0.881295,4.204914 -0.0376,3.858884 5.780802,3.939055 4.2098,0.570586 5.853962,-1.542879 7.379084,-1.515245 1.231132,0.02961 2.923376,-0.05318 3.800061,-0.917988 0.927361,-1.003123 1.746264,-2.10131 2.443114,-3.27633 0.37455,-0.606312 0.43202,-1.356574 0.15419,-2.012858 -0.85166,-1.959466 -1.582675,-3.969175 -2.188947,-6.017885 -0.713046,-2.721885 -5.249728,-4.665882 -5.249728,-4.665882 0,0 -1.555833,-7.647276 -3.078694,-5.3465 -0.778575,1.209105 -2.559726,3.467373 -2.559726,3.467373 z"
       id="path48-7-6"
       sodipodi:nodetypes="cssccccccccc" />
    <path
       sodipodi:nodetypes="cscscc"
       id="path48-7-8-2"
       d="m 79.668288,104.58556 c 1.421366,-0.34646 1.749896,-1.37422 1.280701,-2.26015 -0.469191,-0.88593 -1.263973,-1.7717 -4.191155,-0.60591 -7.188199,-0.61814 -15.818291,1.08023 -15.094575,2.21401 0.723716,1.13379 11.545508,0.51411 18.005033,0.65203 z"
       style="display:inline;fill:#3f3d56;stroke-width:0.44670808"
       inkscape:connector-curvature="0" />
  </g>
</svg>
