<?xml version="1.0" encoding="UTF-8" standalone="no"?>
<!-- Created with Inkscape (http://www.inkscape.org/) -->

<svg
   xmlns:dc="http://purl.org/dc/elements/1.1/"
   xmlns:cc="http://creativecommons.org/ns#"
   xmlns:rdf="http://www.w3.org/1999/02/22-rdf-syntax-ns#"
   xmlns:svg="http://www.w3.org/2000/svg"
   xmlns="http://www.w3.org/2000/svg"
   xmlns:sodipodi="http://sodipodi.sourceforge.net/DTD/sodipodi-0.dtd"
   xmlns:inkscape="http://www.inkscape.org/namespaces/inkscape"
   width="164.347mm"
   height="147.8723mm"
   viewBox="0 0 164.347 147.8723"
   version="1.1"
   id="svg5290"
   inkscape:version="0.92.1 r15371"
   sodipodi:docname="flow_male.svg"
   inkscape:export-filename="C:\Users\rapha\Documents\Maaind\Achmea\Avatar\flow_male.png"
   inkscape:export-xdpi="35.220001"
   inkscape:export-ydpi="35.220001">
  <defs
     id="defs5284" />
  <sodipodi:namedview
     id="base"
     pagecolor="#ffffff"
     bordercolor="#666666"
     borderopacity="1.0"
     inkscape:pageopacity="0.0"
     inkscape:pageshadow="2"
     inkscape:zoom="1.4191359"
     inkscape:cx="309.73271"
     inkscape:cy="296.04506"
     inkscape:document-units="mm"
     inkscape:current-layer="layer3"
     showgrid="false"
     inkscape:window-width="1718"
     inkscape:window-height="1368"
     inkscape:window-x="1713"
     inkscape:window-y="0"
     inkscape:window-maximized="0" />
  <metadata
     id="metadata5287">
    <rdf:RDF>
      <cc:Work
         rdf:about="">
        <dc:format>image/svg+xml</dc:format>
        <dc:type
           rdf:resource="http://purl.org/dc/dcmitype/StillImage" />
        <dc:title></dc:title>
      </cc:Work>
    </rdf:RDF>
  </metadata>
  <g
     inkscape:groupmode="layer"
     id="layer5"
     inkscape:label="background"
     style="display:inline"
     transform="translate(-17.70349,-91.748513)">
    <path
       inkscape:connector-curvature="0"
       style="display:inline;fill:#f0f0f0;stroke-width:0.26458332"
       d="M 52.058581,163.76858 C 42.377025,154.23779 38.287995,144.29478 40.544412,135.77141 43.440107,124.83347 56.30425,117.2708 75.838326,115.02257 l 0.07215,0.62742 c -19.262146,2.21679 -31.930044,9.60972 -34.755599,20.28298 -2.195975,8.29491 1.833703,18.02071 11.346768,27.38578 z"
       id="path2-3"
       inkscape:export-xdpi="35.220001"
       inkscape:export-ydpi="35.220001" />
    <path
       inkscape:connector-curvature="0"
       style="display:inline;fill:#f0f0f0;stroke-width:0.26458332"
       d="m 145.46929,197.6 c -12.08318,0 -25.21371,-1.79562 -38.25606,-5.24845 -16.128578,-4.26984 -30.916759,-10.71472 -42.765775,-18.63811 l 0.350864,-0.52475 c 11.791974,7.885 26.51464,14.30042 42.576491,18.5524 14.51486,3.84284 29.13856,5.62336 42.2848,5.15349 l 0.0228,0.63081 q -2.08253,0.0749 -4.21314,0.0746 z"
       id="path4-3"
       inkscape:export-xdpi="35.220001"
       inkscape:export-ydpi="35.220001" />
    <path
       inkscape:connector-curvature="0"
       style="display:inline;fill:#f0f0f0;stroke-width:0.26458332"
       d="m 156.78532,192.0417 -0.20225,-0.59813 c 10.80675,-3.65384 17.56595,-9.53973 19.54687,-17.02192 2.51801,-9.51168 -2.95242,-20.54936 -15.40373,-31.07987 -12.51482,-10.58398 -30.56144,-19.36603 -50.8162,-24.72811 l 0.16156,-0.61046 c 20.34325,5.38565 38.47773,14.21317 51.06223,24.85652 12.64801,10.69669 18.19059,21.96299 15.60661,31.72347 -2.03766,7.69678 -8.93806,13.73375 -19.95509,17.4585 z"
       id="path6"
       inkscape:export-xdpi="35.220001"
       inkscape:export-ydpi="35.220001" />
    <path
       inkscape:connector-curvature="0"
       style="display:inline;fill:#f0f0f0;stroke-width:0.26458332"
       d="m 141.03165,214.51911 q -3.67342,0 -7.47232,-0.16402 l 0.0271,-0.63082 c 18.90003,0.81827 35.57587,-1.44353 48.22789,-6.54214 l 0.23617,0.58579 c -11.03676,4.44716 -25.10395,6.75119 -41.01887,6.75119 z"
       id="path10"
       inkscape:export-xdpi="35.220001"
       inkscape:export-ydpi="35.220001" />
    <path
       inkscape:connector-curvature="0"
       style="display:inline;fill:#f0f0f0;stroke-width:0.26458332"
       d="m 128.8215,116.53594 c -3.92423,-1.27766 -7.96069,-2.46729 -11.99716,-3.53591 -23.228297,-6.14935 -46.061974,-8.33268 -66.033396,-6.31276 l -0.0635,-0.62834 c 20.045892,-2.02656 42.957705,0.16202 66.258466,6.33063 4.04786,1.0717 8.09574,2.26473 12.03108,3.54609 z"
       id="path24-0"
       inkscape:export-xdpi="35.220001"
       inkscape:export-ydpi="35.220001" />
    <path
       inkscape:connector-curvature="0"
       style="display:inline;fill:#ffffff;stroke-width:0.26458332"
       d="m 22.498752,150.40911 a 4.0277521,4.0277521 0 0 1 -0.723007,-5.16515 c 0.104089,-0.16289 0.36211,-0.009 0.257883,0.15431 a 3.7295984,3.7295984 0 0 0 0.68236,4.80329 c 0.144998,0.12788 -0.07308,0.33469 -0.217244,0.20755 z"
       id="path30"
       inkscape:export-xdpi="35.220001"
       inkscape:export-ydpi="35.220001" />
    <path
       inkscape:connector-curvature="0"
       style="display:inline;fill:#ffffff;stroke-width:0.26458332"
       d="m 19.788005,158.19803 a 7.7631396,7.7631396 0 0 0 5.161385,-2.3169 c 0.135403,-0.13824 0.342786,0.0792 0.207546,0.21723 a 8.0748399,8.0748399 0 0 1 -5.375788,2.40004 c -0.193506,0.009 -0.185596,-0.29151 0.0069,-0.30037 z"
       id="path32"
       inkscape:export-xdpi="35.220001"
       inkscape:export-ydpi="35.220001" />
    <path
       inkscape:connector-curvature="0"
       style="display:inline;fill:#ffffff;stroke-width:0.26458332"
       d="m 28.96558,144.51323 a 2.2798934,2.2798934 0 0 0 1.958587,0.91872 c 0.193291,-0.0114 0.185179,0.28907 -0.0069,0.30037 a 2.5548167,2.5548167 0 0 1 -2.168974,-1.01154 0.15527602,0.15527602 0 0 1 0.0049,-0.2124 0.15098712,0.15098712 0 0 1 0.21239,0.005 z"
       id="path34"
       inkscape:export-xdpi="35.220001"
       inkscape:export-ydpi="35.220001" />
    <path
       inkscape:connector-curvature="0"
       style="display:inline;fill:#ffffff;stroke-width:0.26458332"
       d="m 31.327498,161.28267 a 4.0277521,4.0277521 0 0 1 2.532504,-4.55937 c 0.181184,-0.0674 0.294423,0.21099 0.113001,0.27847 a 3.7296011,3.7296011 0 0 0 -2.34709,4.24598 c 0.0388,0.18942 -0.259854,0.22324 -0.298425,0.0348 z"
       id="path40"
       inkscape:export-xdpi="35.220001"
       inkscape:export-ydpi="35.220001" />
    <path
       inkscape:connector-curvature="0"
       style="display:inline;fill:#ffffff;stroke-width:0.26458332"
       d="m 24.473659,165.86962 a 7.7631396,7.7631396 0 0 0 5.516012,1.25759 c 0.191292,-0.0292 0.22602,0.26962 0.03482,0.29843 a 8.0748187,8.0748187 0 0 1 -5.737249,-1.3203 c -0.159876,-0.10939 0.02732,-0.34449 0.186321,-0.23571 z"
       id="path42"
       inkscape:export-xdpi="35.220001"
       inkscape:export-ydpi="35.220001" />
    <path
       inkscape:connector-curvature="0"
       style="display:inline;fill:#ffffff;stroke-width:0.26458332"
       d="m 40.040625,160.46862 a 2.2798961,2.2798961 0 0 0 1.01068,1.91275 c 0.161182,0.1073 -0.02619,0.3423 -0.186321,0.2357 a 2.5548167,2.5548167 0 0 1 -1.122785,-2.11353 0.15527337,0.15527337 0 0 1 0.131748,-0.16667 0.15098448,0.15098448 0 0 1 0.166667,0.13175 z"
       id="path44"
       inkscape:export-xdpi="35.220001"
       inkscape:export-ydpi="35.220001" />
    <path
       inkscape:connector-curvature="0"
       style="display:inline;fill:#deecdb;fill-opacity:1;stroke-width:0.26458332"
       d="m 179.75853,187.92048 c -2.56367,-6.31659 -8.3386,-11.66961 -15.14025,-12.12609 a 31.408605,31.408605 0 0 1 5.58025,20.82961 c -0.26346,2.84685 -0.85292,5.98579 0.74739,8.35498 0.99573,1.47419 2.69977,2.34957 4.44053,2.71598 1.74085,0.36637 3.54097,0.28095 5.31783,0.19381 l 0.40381,0.18481 c 1.05292,-6.73521 1.21411,-13.83652 -1.34956,-20.1531 z"
       id="path46"
       inkscape:export-xdpi="35.220001"
       inkscape:export-ydpi="35.220001" />
    <path
       inkscape:connector-curvature="0"
       style="display:inline;fill:#ffffff;stroke-width:0.26458332"
       d="m 164.58956,175.93452 a 26.845914,26.845914 0 0 1 10.35724,12.86645 11.560757,11.560757 0 0 1 0.80995,3.53049 6.6306091,6.6306091 0 0 1 -0.79686,3.39747 c -0.50657,0.98122 -1.13837,1.92624 -1.3976,3.01352 a 4.0599492,4.0599492 0 0 0 0.66632,3.25277 c 0.80215,1.17932 1.98021,2.00008 3.16015,2.76268 1.3101,0.84672 2.68429,1.70545 3.51091,3.0719 0.10016,0.16556 0.3512,5.2e-4 0.2512,-0.16484 -1.43818,-2.37739 -4.33278,-3.17103 -6.14826,-5.17292 -0.84713,-0.93412 -1.41788,-2.1292 -1.20233,-3.41266 0.1885,-1.12233 0.83919,-2.0974 1.36069,-3.08648 a 7.0753764,7.0753764 0 0 0 0.90292,-3.29296 10.687656,10.687656 0 0 0 -0.67122,-3.5486 26.045319,26.045319 0 0 0 -3.88611,-7.15283 27.321907,27.321907 0 0 0 -6.78331,-6.3331 c -0.16132,-0.1057 -0.29397,0.16411 -0.1337,0.26912 z"
       id="path48"
       inkscape:export-xdpi="35.220001"
       inkscape:export-ydpi="35.220001" />
    <path
       inkscape:connector-curvature="0"
       style="display:inline;fill:#ffffff;stroke-width:0.26458332"
       d="m 174.39805,187.06564 a 4.0277521,4.0277521 0 0 0 1.8693,-4.869 c -0.0647,-0.18218 -0.3508,-0.0903 -0.28604,0.0922 a 3.7296011,3.7296011 0 0 1 -1.74811,4.52564 c -0.1701,0.0919 -0.004,0.34254 0.16484,0.25119 z"
       id="path50"
       inkscape:export-xdpi="35.220001"
       inkscape:export-ydpi="35.220001" />
    <path
       inkscape:connector-curvature="0"
       style="display:inline;fill:#ffffff;stroke-width:0.26458332"
       d="m 175.28227,195.26524 a 7.7631396,7.7631396 0 0 1 -4.50585,-3.42128 c -0.10074,-0.16521 -0.35182,-1.7e-4 -0.2512,0.16483 a 8.0748346,8.0748346 0 0 0 4.69599,3.55063 c 0.1865,0.0523 0.24655,-0.24213 0.0611,-0.29418 z"
       id="path52"
       inkscape:export-xdpi="35.220001"
       inkscape:export-ydpi="35.220001" />
    <path
       inkscape:connector-curvature="0"
       style="display:inline;fill:#ffffff;stroke-width:0.26458332"
       d="m 169.42757,179.86317 a 2.2798961,2.2798961 0 0 1 -2.11532,0.45331 c -0.18574,-0.0547 -0.24561,0.23987 -0.0611,0.29419 a 2.5548167,2.5548167 0 0 0 2.34123,-0.49631 0.15527073,0.15527073 0 0 0 0.0432,-0.20801 0.15098448,0.15098448 0 0 0 -0.20802,-0.0432 z"
       id="path54"
       inkscape:export-xdpi="35.220001"
       inkscape:export-ydpi="35.220001" />
    <path
       inkscape:connector-curvature="0"
       style="display:inline;fill:#deecdb;fill-opacity:1;stroke-width:0.26458332"
       d="m 148.7505,192.55587 c 0.11502,0.0374 0.23004,0.0749 0.34583,0.11473 a 30.024861,30.024861 0 0 1 4.48401,1.90138 c 0.11232,0.0565 0.22529,0.11553 0.33576,0.17517 a 31.653028,31.653028 0 0 1 9.07587,7.31008 30.739371,30.739371 0 0 1 2.75402,3.77211 c 1.13375,1.83048 2.21739,3.9054 3.84183,5.21586 a 5.2739396,5.2739396 0 0 0 0.52809,0.38353 l 10.73542,-2.87685 c 0.0211,-0.0188 0.043,-0.0352 0.0642,-0.054 l 0.43389,-0.0953 c -0.0376,-0.0713 -0.0781,-0.14446 -0.11563,-0.21578 -0.0216,-0.0415 -0.0456,-0.0823 -0.0673,-0.12374 -0.0152,-0.0274 -0.0305,-0.0549 -0.0426,-0.0805 -0.005,-0.009 -0.0102,-0.0183 -0.0145,-0.025 -0.0121,-0.0256 -0.0261,-0.0482 -0.0376,-0.0713 q -0.33787,-0.61433 -0.68553,-1.22604 c -5.3e-4,-0.002 -5.3e-4,-0.002 -0.004,-0.004 -1.77401,-3.10277 -3.82265,-6.08471 -6.25875,-8.6609 -0.0733,-0.0775 -0.14718,-0.15746 -0.2254,-0.23363 a 29.331856,29.331856 0 0 0 -3.57932,-3.17818 25.931387,25.931387 0 0 0 -2.17931,-1.46103 21.563277,21.563277 0 0 0 -6.25836,-2.5075 c -4.39518,-1.00112 -9.06161,-0.58544 -12.84377,1.75909 -0.0967,0.0601 -0.19118,0.11947 -0.28724,0.18197 z"
       id="path56"
       inkscape:export-xdpi="35.220001"
       inkscape:export-ydpi="35.220001" />
    <path
       inkscape:connector-curvature="0"
       style="display:inline;fill:#ffffff;stroke-width:0.26458332"
       d="m 148.81116,192.68566 a 26.845906,26.845906 0 0 1 16.01617,4.03736 11.560741,11.560741 0 0 1 2.7723,2.33125 6.6306144,6.6306144 0 0 1 1.40926,3.19246 c 0.1863,1.08844 0.25081,2.22337 0.69844,3.24758 a 4.0599466,4.0599466 0 0 0 2.49041,2.19598 c 1.3505,0.45867 2.78527,0.40473 4.18653,0.30321 1.55583,-0.11271 3.17006,-0.25443 4.65276,0.33893 0.17965,0.0719 0.2807,-0.21107 0.10132,-0.28284 -2.57965,-1.03233 -5.36866,0.0768 -8.02349,-0.42861 -1.23879,-0.23581 -2.41403,-0.84638 -3.01466,-2.00093 -0.52522,-1.00961 -0.59274,-2.1799 -0.77184,-3.28361 a 7.0753631,7.0753631 0 0 0 -1.26166,-3.17288 10.687579,10.687579 0 0 0 -2.67244,-2.42924 26.045245,26.045245 0 0 0 -7.40934,-3.37143 27.321933,27.321933 0 0 0 -9.22905,-0.97261 c -0.19244,0.0127 -0.13591,0.30802 0.0553,0.29537 z"
       id="path58"
       inkscape:export-xdpi="35.220001"
       inkscape:export-ydpi="35.220001" />
    <path
       inkscape:connector-curvature="0"
       style="display:inline;fill:#ffffff;stroke-width:0.26458332"
       d="m 163.34439,195.66785 a 4.0277521,4.0277521 0 0 0 -1.43894,-5.01308 c -0.16132,-0.10652 -0.33444,0.13915 -0.1729,0.24582 a 3.7295984,3.7295984 0 0 1 1.329,4.66592 c -0.0805,0.17578 0.20282,0.27609 0.28286,0.10134 z"
       id="path60"
       inkscape:export-xdpi="35.220001"
       inkscape:export-ydpi="35.220001" />
    <path
       inkscape:connector-curvature="0"
       style="display:inline;fill:#ffffff;stroke-width:0.26458332"
       d="m 168.98712,201.6824 a 7.7631396,7.7631396 0 0 1 -5.65753,-0.0189 c -0.17989,-0.0713 -0.281,0.21168 -0.10132,0.28285 a 8.0748558,8.0748558 0 0 0 5.88721,0.008 c 0.18042,-0.0705 0.0511,-0.34177 -0.12836,-0.27165 z"
       id="path62"
       inkscape:export-xdpi="35.220001"
       inkscape:export-ydpi="35.220001" />
    <path
       inkscape:connector-curvature="0"
       style="display:inline;fill:#ffffff;stroke-width:0.26458332"
       d="m 155.03936,192.90964 a 2.2799146,2.2799146 0 0 1 -1.41605,1.63552 c -0.18124,0.0682 -0.0517,0.33939 0.12836,0.27165 a 2.5548167,2.5548167 0 0 0 1.57053,-1.80585 0.15526808,0.15526808 0 0 0 -0.0908,-0.19208 0.15098183,0.15098183 0 0 0 -0.19209,0.0908 z"
       id="path64"
       inkscape:export-xdpi="35.220001"
       inkscape:export-ydpi="35.220001" />
    <circle
       style="display:inline;fill:#e6e6e6;fill-opacity:1;stroke-width:0.26458332"
       cx="130.02185"
       cy="206.90363"
       r="2.5257177"
       id="circle66"
       inkscape:export-xdpi="35.220001"
       inkscape:export-ydpi="35.220001" />
    <circle
       style="display:inline;fill:#e6e6e6;stroke-width:0.26458332"
       cx="138.9684"
       cy="163.88504"
       r="2.5257177"
       id="circle68"
       inkscape:export-xdpi="35.220001"
       inkscape:export-ydpi="35.220001" />
    <circle
       style="display:inline;fill:#e6e6e6;stroke-width:0.26458332"
       cx="108.37473"
       cy="95.413948"
       r="2.5257177"
       id="circle70"
       inkscape:export-xdpi="35.220001"
       inkscape:export-ydpi="35.220001" />
    <path
       inkscape:connector-curvature="0"
       style="display:inline;fill:#ffffff;stroke-width:0.26458332"
       d="m 82.820185,173.6559 a 67.247029,67.247029 0 0 0 14.32672,2.06779 17.938708,17.938708 0 0 0 2.195033,-0.0149 c 1.605752,-0.13505 2.981212,-0.63974 4.513042,-0.91554 0.73642,-0.13222 1.55671,-0.22889 2.2981,-0.37177 q -0.25696,-0.3188 -0.52316,-0.62979 c -1.59866,0.13506 -3.22218,0.57719 -4.84003,0.78262 -2.750186,0.34973 -5.831621,-0.0405 -7.916477,-1.00298 -1.011502,-0.46701 -1.786311,-1.04989 -2.794265,-1.51903 a 1.3022527,1.3022527 0 0 0 -0.438578,-0.13435 1.5261352,1.5261352 0 0 0 -0.827405,0.21467 c -1.691056,0.8537 -4.146254,1.54747 -6.425166,1.16575 -0.169886,0.13293 0.152831,0.28433 0.432186,0.35755 z"
       id="path74-4"
       inkscape:export-xdpi="35.220001"
       inkscape:export-ydpi="35.220001" />
    <path
       inkscape:connector-curvature="0"
       style="display:inline;fill:#ffffff;stroke-width:0.26458332"
       d="m 72.735668,176.66022 c -0.02082,-0.004 -0.04168,-0.007 -0.0625,-0.0104 a 1.698961,1.698961 0 0 0 0.246282,-0.18556 z"
       id="path76"
       inkscape:export-xdpi="35.220001"
       inkscape:export-ydpi="35.220001" />
    <path
       inkscape:connector-curvature="0"
       style="display:inline;fill:#ffffff;stroke-width:0.26458332"
       d="m 59.093485,178.34451 q 1.427691,0.11409 2.870319,0.16989 a 18.082075,18.082075 0 0 0 2.195036,-0.0149 c 1.605756,-0.13577 2.981208,-0.63974 4.51304,-0.91555 1.403879,-0.25234 3.109868,-0.37389 4.001249,-0.93402 -2.303793,-0.39878 -4.690748,0.41299 -7.066336,0.71509 a 16.873321,16.873321 0 0 1 -5.758407,-0.28433 q -0.39451,0.62055 -0.754901,1.26385 z"
       id="path78-0"
       inkscape:export-xdpi="35.220001"
       inkscape:export-ydpi="35.220001" />
    <path
       inkscape:connector-curvature="0"
       style="display:inline;fill:#ffffff;stroke-width:0.26458332"
       d="m 180.38756,112.63104 c 0.0208,-0.004 0.0417,-0.007 0.0625,-0.0104 a 1.698961,1.698961 0 0 1 -0.24628,-0.18555 z"
       id="path114"
       inkscape:export-xdpi="35.220001"
       inkscape:export-ydpi="35.220001" />
    <path
       inkscape:connector-curvature="0"
       style="display:inline;fill:#ffffff;stroke-width:0.26458332"
       d="m 56.891019,93.48715 a 67.247029,67.247029 0 0 0 14.326719,2.06779 17.938708,17.938708 0 0 0 2.195034,-0.0149 c 1.605756,-0.13506 2.981208,-0.63974 4.51304,-0.91554 0.736417,-0.13222 1.556713,-0.22889 2.298105,-0.37177 q -0.256964,-0.31881 -0.523166,-0.62979 c -1.598655,0.13506 -3.222181,0.57719 -4.840023,0.78262 -2.750191,0.34973 -5.831626,-0.0405 -7.916482,-1.00298 -1.011502,-0.46701 -1.78631,-1.04989 -2.794264,-1.51904 a 1.3022527,1.3022527 0 0 0 -0.438579,-0.13434 1.5261352,1.5261352 0 0 0 -0.827405,0.21467 c -1.691055,0.8537 -4.146254,1.54747 -6.425166,1.16575 -0.169886,0.13293 0.152832,0.28433 0.432187,0.35755 z"
       id="path126"
       inkscape:export-xdpi="35.220001"
       inkscape:export-ydpi="35.220001" />
    <path
       inkscape:connector-curvature="0"
       style="display:inline;fill:#ffffff;stroke-width:0.26458332"
       d="m 46.806502,96.49147 c -0.02082,-0.004 -0.04168,-0.007 -0.06251,-0.0104 a 1.698961,1.698961 0 0 0 0.246282,-0.18556 z"
       id="path128"
       inkscape:export-xdpi="35.220001"
       inkscape:export-ydpi="35.220001" />
    <path
       inkscape:connector-curvature="0"
       style="display:inline;fill:#f0f0f0;fill-opacity:1;stroke-width:0.35415488"
       d="m 71.754608,223.33251 a 29.36252,29.36252 0 1 0 -29.36251,-29.3627 29.39601,29.39601 0 0 0 29.36251,29.3627 z m 0,-58.01673 a 28.65421,28.65421 0 1 1 -28.6542,28.65403 28.686481,28.686481 0 0 1 28.6542,-28.65403 z"
       id="path8"
       inkscape:export-xdpi="35.220001"
       inkscape:export-ydpi="35.220001" />
    <path
       inkscape:connector-curvature="0"
       style="display:inline;fill:#deecdb;fill-opacity:1;stroke-width:0.26458332"
       d="m 24.841186,176.52284 c -5.169291,-4.44412 -8.401287,-11.62458 -6.664969,-18.21668 a 31.408603,31.408603 0 0 0 17.962668,11.93124 c 2.78223,0.65812 5.945281,1.10041 7.680461,3.37268 1.079693,1.41384 1.365976,3.30807 1.158143,5.07478 -0.20789,1.7668 -0.862887,3.4457 -1.512093,5.10201 l 0.04631,0.44167 c -6.71934,-1.14984 -13.501303,-3.26158 -18.670594,-7.7057 z"
       id="path26" />
    <path
       inkscape:connector-curvature="0"
       style="display:inline;fill:#ffffff;stroke-width:0.26458332"
       d="m 18.318188,158.32362 a 26.8459,26.8459 0 0 0 8.891931,13.91948 11.560704,11.560704 0 0 0 3.087884,1.89349 6.6305959,6.6305959 0 0 0 3.474203,0.32815 c 1.091531,-0.16726 2.188689,-0.46468 3.30187,-0.36361 a 4.0599492,4.0599492 0 0 1 2.870474,1.6688 c 0.861953,1.13635 1.264197,2.51464 1.610716,3.87616 0.38474,1.51171 0.760416,3.088 1.791927,4.30721 0.124982,0.14773 -0.111544,0.33301 -0.236341,0.18551 -1.794647,-2.12121 -1.623783,-5.11777 -2.942234,-7.47685 -0.615216,-1.10079 -1.565899,-2.02284 -2.851096,-2.22782 -1.123841,-0.17924 -2.255499,0.12654 -3.359242,0.30542 a 7.0753843,7.0753843 0 0 1 -3.408974,-0.19429 10.687711,10.687711 0 0 1 -3.149294,-1.76779 26.04535,26.04535 0 0 1 -5.540173,-5.96418 27.321954,27.321954 0 0 1 -3.839337,-8.44871 c -0.04871,-0.18661 0.249279,-0.22631 0.29775,-0.0405 z"
       id="path28" />
    <path
       inkscape:connector-curvature="0"
       style="display:inline;fill:#ffffff;stroke-width:0.26458332"
       d="m 25.740381,171.16962 a 4.0277521,4.0277521 0 0 1 -5.210904,0.21904 c -0.152041,-0.11938 0.02632,-0.36125 0.178576,-0.24171 a 3.7295984,3.7295984 0 0 0 4.846812,-0.21366 c 0.141321,-0.13192 0.326029,0.10516 0.185516,0.23634 z"
       id="path30-9" />
    <path
       inkscape:connector-curvature="0"
       style="display:inline;fill:#ffffff;stroke-width:0.26458332"
       d="m 33.22993,174.62243 a 7.7631396,7.7631396 0 0 0 -1.805807,-5.36162 c -0.124449,-0.14816 0.112034,-0.3335 0.236341,-0.18552 a 8.0748399,8.0748399 0 0 1 1.867759,5.58307 c -0.0099,0.19346 -0.30811,0.15648 -0.298293,-0.0359 z"
       id="path32-4" />
    <path
       inkscape:connector-curvature="0"
       style="display:inline;fill:#ffffff;stroke-width:0.26458332"
       d="m 20.498949,164.16186 a 2.2798934,2.2798934 0 0 0 1.104206,-1.86034 c 0.0074,-0.19348 0.305653,-0.1563 0.298293,0.0359 a 2.5548167,2.5548167 0 0 1 -1.216984,2.06073 0.15527602,0.15527602 0 0 1 -0.210928,-0.0254 0.15098712,0.15098712 0 0 1 0.02537,-0.21093 z"
       id="path34-7" />
    <path
       inkscape:connector-curvature="0"
       style="display:inline;fill:#deecdb;fill-opacity:1;stroke-width:0.26458332"
       d="m 39.122663,148.61184 c -7.93e-4,0.12095 -0.0026,0.2419 -0.0014,0.36435 a 30.024917,30.024917 0 0 0 0.372212,4.85624 c 0.01774,0.12449 0.03765,0.25037 0.05892,0.37408 a 31.653096,31.653096 0 0 0 4.034245,10.93314 30.739239,30.739239 0 0 0 2.696957,3.81313 c 1.373374,1.65826 2.994406,3.34701 3.718443,5.30452 a 5.2730823,5.2730823 0 0 1 0.195128,0.62282 l -6.150057,9.25756 c -0.02455,0.014 -0.04708,0.0295 -0.07161,0.0437 l -0.228651,0.38086 c -0.05557,-0.0584 -0.112033,-0.12006 -0.167647,-0.17841 -0.03242,-0.0337 -0.06347,-0.0695 -0.0958,-0.10321 -0.02112,-0.0231 -0.04225,-0.0463 -0.06271,-0.066 -0.0071,-0.007 -0.01408,-0.0155 -0.019,-0.0218 -0.02047,-0.0197 -0.03734,-0.0401 -0.05556,-0.0583 q -0.474529,-0.51619 -0.943433,-1.04079 c -0.0021,-0.002 -0.0021,-0.002 -0.0031,-0.005 -2.375075,-2.67083 -4.548048,-5.56343 -6.212897,-8.69387 -0.05002,-0.0942 -0.10227,-0.1897 -0.149543,-0.28813 a 29.331899,29.331899 0 0 1 -1.870848,-4.40593 25.931283,25.931283 0 0 1 -0.689798,-2.53145 21.563177,21.563177 0 0 1 -0.380868,-6.73123 c 0.452718,-4.48497 2.334761,-8.77521 5.76297,-11.61228 0.08779,-0.0725 0.174183,-0.14308 0.264042,-0.21418 z"
       id="path36" />
    <path
       inkscape:connector-curvature="0"
       style="display:inline;fill:#ffffff;stroke-width:0.26458332"
       d="m 39.22634,148.7107 a 26.845921,26.845921 0 0 0 -1.280792,16.46749 11.560847,11.560847 0 0 0 1.325494,3.37097 6.6306197,6.6306197 0 0 0 2.576393,2.35372 c 0.97221,0.52366 2.027311,0.94671 2.855286,1.69759 a 4.0599386,4.0599386 0 0 1 1.287176,3.06066 c 0.0041,1.42627 -0.504595,2.76893 -1.047653,4.06465 -0.602954,1.43866 -1.252035,2.92342 -1.162475,4.51793 0.01052,0.19321 -0.289557,0.19875 -0.300389,0.006 -0.15582,-2.77417 1.784743,-5.06389 2.152364,-7.74127 0.17153,-1.24932 -0.0324,-2.5579 -0.935137,-3.49535 -0.789413,-0.81974 -1.877078,-1.25694 -2.866035,-1.77865 a 7.0753737,7.0753737 0 0 1 -2.604904,-2.20756 10.687733,10.687733 0 0 1 -1.450202,-3.30759 26.045319,26.045319 0 0 1 -0.832652,-8.09762 27.321933,27.321933 0 0 1 2.021217,-9.05738 c 0.07347,-0.17833 0.335257,-0.0308 0.262324,0.14659 z"
       id="path38" />
    <path
       inkscape:connector-curvature="0"
       style="display:inline;fill:#ffffff;stroke-width:0.26458332"
       d="m 37.418358,163.43618 a 4.0277521,4.0277521 0 0 1 -4.292486,-2.96243 c -0.04951,-0.18686 0.238524,-0.27259 0.288108,-0.0855 a 3.7296011,3.7296011 0 0 0 3.998542,2.74752 c 0.192284,-0.0202 0.197009,0.28027 0.0057,0.3004 z"
       id="path40-3" />
    <path
       inkscape:connector-curvature="0"
       style="display:inline;fill:#ffffff;stroke-width:0.26458332"
       d="m 41.319512,170.70228 a 7.7631396,7.7631396 0 0 0 1.786231,-5.36817 c -0.01053,-0.19322 0.290237,-0.19882 0.300401,-0.006 a 8.0748187,8.0748187 0 0 1 -1.870094,5.5823 c -0.124355,0.14852 -0.340219,-0.0606 -0.21653,-0.20829 z"
       id="path42-2" />
    <path
       inkscape:connector-curvature="0"
       style="display:inline;fill:#ffffff;stroke-width:0.26458332"
       d="m 37.452536,154.68518 a 2.2798961,2.2798961 0 0 0 2.001685,-0.82056 c 0.122418,-0.15003 0.338162,0.0593 0.21654,0.20829 a 2.5548167,2.5548167 0 0 1 -2.212391,0.91267 0.15527337,0.15527337 0 0 1 -0.153119,-0.14727 0.15098448,0.15098448 0 0 1 0.147285,-0.15312 z"
       id="path44-0" />
  </g>
  <g
     inkscape:groupmode="layer"
     id="layer1"
     inkscape:label="avatar"
     style="display:inline"
     transform="translate(-17.70349,-91.748513)">
    <g
       id="g4791">
      <circle
         id="circle8"
         r="17.325695"
         cy="126.24296"
         cx="145.84488"
         style="display:inline;fill:#f2f2f2;stroke-width:0.15273003" />
      <path
         id="path62-8"
         d="m 158.88115,137.83517 a 17.31963,17.31963 0 0 1 -24.23979,1.75181 l 1.48606,-4.14662 a 4.459211,4.459211 0 0 1 3.78771,-2.60099 l 0.9454,-0.058 2.25429,-1.94426 c 0,0 6.07408,-0.21688 5.98397,-0.32072 l 3.67926,2.21305 -0.003,-0.0153 1.44635,0.0886 a 4.4572635,4.4572635 0 0 1 3.78771,2.60099 z"
         style="display:inline;fill:#deecdb;fill-opacity:1;stroke-width:0.15273003"
         inkscape:connector-curvature="0" />
      <circle
         id="circle26"
         r="2.446095"
         cy="117.29571"
         cx="141.08717"
         style="display:inline;fill:#cf5c1b;fill-opacity:1;stroke-width:0.15273003" />
      <path
         id="path34-6"
         d="m 138.8097,110.65548 c -1.69147,-0.77556 -3.81379,-0.41164 -5.22219,0.80447 -1.40841,1.21612 -2.07798,3.19538 -1.80607,5.03621 0.27735,1.87792 1.41901,3.49505 2.47135,5.07495 1.05236,1.57989 2.08044,3.3111 2.07927,5.20939 a 5.1639852,5.1639852 0 0 1 -5.15373,5.1608 c 1.60468,0.69082 3.27954,1.39519 5.02469,1.31329 1.74517,-0.0819 3.57433,-1.20379 3.85901,-2.92751 0.20511,-1.24201 -0.40423,-2.45312 -0.91245,-3.60481 a 25.498734,25.498734 0 0 1 -1.78206,-5.86624 c -0.16973,-0.96408 -0.28026,-1.97762 0.0341,-2.90471 a 3.4108721,3.4108721 0 0 1 3.38844,-2.23832 l 0.57662,-0.51877 c 0.25651,-1.84304 -0.86547,-3.7632 -2.55694,-4.53875 z"
         style="display:inline;fill:#cf5c1b;fill-opacity:1;stroke-width:0.15273003"
         inkscape:connector-curvature="0" />
      <path
         id="path38-1-7"
         d="m 138.29102,122.58528 a 6.1924268,6.1924268 0 1 0 10.65099,-4.29509 l -0.0297,-0.0297 c -0.0496,-0.0521 -0.0991,-0.10405 -0.15111,-0.1536 a 0.00242516,0.00242516 0 0 1 -0.002,-0.002 c -0.0644,-0.0594 -0.12881,-0.11889 -0.19569,-0.17586 -1.08986,-0.9561 -2.62167,-1.99387 -4.18464,-1.99387 -3.42069,0 -6.08736,3.22989 -6.08736,6.65059 z"
         style="display:inline;fill:#cf5c1b;fill-opacity:1;stroke-width:0.26650041"
         inkscape:connector-curvature="0" />
      <circle
         r="5.1926174"
         id="circle46-8-1"
         cy="124.01802"
         cx="146.29991"
         style="display:inline;fill:#f2d2c0;fill-opacity:1;stroke-width:0.26650041" />
      <path
         id="path50-2-2"
         d="m 152.65404,123.09229 a 17.70312,17.70312 0 0 1 -1.88181,1.03753 10.828399,10.828399 0 0 1 -2.05233,0.74194 7.0934174,7.0934174 0 0 0 -0.73906,-1.25925 4.5795697,4.5795697 0 0 1 0.006,1.40705 7.3307229,7.3307229 0 0 1 -3.49923,-0.28709 l -0.97785,-1.64017 -0.0739,1.83062 c -0.81013,0.14782 -1.61743,0.28711 -2.42755,0.43208 -0.0484,0.006 -0.0966,0.017 -0.14212,0.0256 -0.50316,-2.26837 0.21034,-4.76701 1.7965,-6.27924 a 5.7151014,5.7151014 0 0 1 6.00353,-1.16547 c 0.12793,0.0512 0.25867,0.10802 0.38374,0.16772 a 0.00278759,0.00278759 0 0 0 0.003,0.003 c 0.0739,0.037 0.13645,0.12505 0.21889,0.11653 3.54753,-0.39514 3.66125,2.35647 3.38268,4.86932 z"
         style="display:inline;fill:#cf5c1b;fill-opacity:1;stroke-width:0.26650041"
         inkscape:connector-curvature="0" />
      <path
         id="path62-7-8-6"
         d="m 141.00681,125.35451 a 10.562413,10.562413 0 0 1 8.13192,-7.0668 c 0.007,-0.002 0.0322,-0.0124 0.0644,-0.0272 0.0198,-0.0123 0.0446,-0.0248 0.0693,-0.0372 -0.0743,-0.0421 -0.14613,-0.0793 -0.22046,-0.11645 a 0.00242516,0.00242516 0 0 1 -0.002,-0.002 c -0.0644,-0.0594 -0.12882,-0.11889 -0.19569,-0.17586 l -0.18826,0.007 c 0,0 -6.61599,-1.04774 -7.6588,7.41852 z"
         style="display:inline;fill:#deecdb;fill-opacity:1;stroke-width:0.26650041"
         inkscape:connector-curvature="0" />
    </g>
  </g>
  <g
     inkscape:groupmode="layer"
     id="layer3"
     inkscape:label="flow"
     style="display:inline"
     transform="translate(-17.70349,-91.748513)">
    <path
       inkscape:connector-curvature="0"
       style="display:inline;fill:#f2d2c0;fill-opacity:1;stroke-width:0.37770537"
       d="m 83.606454,117.46838 -5.503355,10.68848 5.433976,3.11507 c 0,0 3.727756,-12.00602 3.83752,-12.46163 a 2.9987504,2.9987504 0 1 0 -3.768141,-1.3419 z"
       id="path14-5" />
    <path
       inkscape:connector-curvature="0"
       style="display:inline;fill:#deecdb;fill-opacity:1;stroke-width:0.37770537"
       d="m 55.363346,118.92222 c 2.454912,9.09534 11.278699,14.87206 18.605974,21.79769 a 6.8729349,6.8729349 0 0 0 8.943745,-4.81964 l 2.469629,-9.66475 -6.276885,-0.1678 -2.597652,2.82314 -8.405016,-5.98932 z"
       id="path16-4" />
    <polygon
       transform="matrix(0.37770538,0,0,0.37770538,26.130691,54.796587)"
       style="display:inline;fill:#f2d2c0;fill-opacity:1"
       points="120.487,469.559 142.805,432.873 127.94,426.167 110.415,465.016 "
       id="polygon50" />
    <path
       inkscape:connector-curvature="0"
       style="display:inline;fill:#2f2e41;stroke-width:0.37770537"
       d="m 65.910627,234.34337 11.69817,5.27745 0.06681,-0.14794 a 4.9954332,4.9954332 0 0 0 -2.498908,-6.60742 l -2.72e-4,-1.3e-4 -1.405392,-2.58515 -4.718303,-0.17743 -1.021168,-0.46069 z"
       id="path52-6" />
    <polygon
       transform="matrix(0.37770538,0,0,0.37770538,26.130691,54.796587)"
       style="display:inline;fill:#f2d2c0;fill-opacity:1"
       points="245.796,412.139 239.34,369.685 223.639,374.093 235.159,415.125 "
       id="polygon54" />
    <path
       inkscape:connector-curvature="0"
       style="display:inline;fill:#2f2e41;stroke-width:0.37770537"
       d="m 115.98655,215.82292 12.35587,-3.46868 -0.0438,-0.15626 a 4.9954332,4.9954332 0 0 0 -6.1592,-3.45929 l -3e-4,7e-5 -2.73761,-1.07874 -3.73033,2.89451 -1.07859,0.30279 z"
       id="path56-7" />
    <path
       inkscape:connector-curvature="0"
       style="display:inline;fill:#2f2e41;stroke-width:0.37770537"
       d="m 54.140709,164.73766 c 0.102783,2.97257 6.424693,10.99244 9.749567,12.14233 0.565166,0.19573 0.895458,0.30336 0.895458,0.30336 l 1.157227,-0.34985 14.013952,-4.2399 c 2.453898,1.44348 9.774035,2.17746 15.780372,2.54443 4.780585,0.29114 7.445305,2.79052 7.445305,2.79052 1.41035,10.72607 5.47628,18.54562 10.1651,28.15614 l 5.6271,-0.97864 -5.31601,-35.79818 a 3.9878134,3.9878134 0 0 0 -2.93538,-3.27224 L 72.482629,156.03278 c 0,0 -2.108931,-0.38167 -6.556799,1.76397 -7.322578,3.53284 -11.858512,4.77815 -11.785121,6.94091 z"
       id="path58-1" />
    <path
       inkscape:connector-curvature="0"
       style="display:inline;fill:#2f2e41;stroke-width:0.37770537"
       d="m 61.447798,164.16258 c -1.28248,2.68364 0.618057,12.71723 3.035295,15.2734 l 0.641626,0.43642 0.216973,0.11306 c 1.450046,4.90475 17.010804,19.25053 17.010804,19.25053 -5.256146,6.69587 -9.940231,14.86474 -12.030289,24.0172 l 6.077657,2.22074 17.107962,-25.53975 a 3.9877908,3.9877908 0 0 0 -0.04939,-4.51063 l -6.979368,-9.94172 -11.372546,-22.02882 c -8.126387,-0.25067 -12.724434,-1.24236 -13.658764,0.70957 z"
       id="path60-1" />
    <path
       inkscape:connector-curvature="0"
       style="display:inline;fill:#deecdb;fill-opacity:1;stroke-width:0.37770537"
       d="m 54.369373,165.90633 c -0.01884,0 -0.464267,-1.16605 -0.473317,-1.16868 -0.151463,-0.0423 -2.201922,-0.24465 -1.740795,-3.63938 l 0.589977,-3.73609 -0.575959,-3.29891 -0.968791,-0.96879 1.557012,-1.55685 -0.954201,-7.06155 -0.366352,-14.13842 c -0.919469,-4.85649 -0.679341,-9.29828 3.774837,-11.43724 l 5.106467,-4.7364 5.810648,-0.0703 6.592302,3.90813 3.193981,6.36746 1.238841,17.25651 0.924994,2.15837 -0.07923,0.0717 c -0.0057,0.006 -0.622354,0.56283 -0.899184,0.86926 -0.134047,0.19044 0.117487,1.6126 0.42815,2.82014 l 0.398372,2.98078 -1.003938,0.71751 1.305279,1.54184 3.558491,6.01481 -0.213204,-0.053 c -0.240185,-0.0598 -2.478023,3.29926 -27.039927,7.03454 -0.113347,0.0173 -0.117345,0.12463 -0.164439,0.12463 z"
       id="path62-1" />
    <path
       inkscape:connector-curvature="0"
       style="display:inline;fill:#3f3d56;stroke-width:0.37770537"
       d="m 82.494351,128.5595 -2.033328,-1.06099 a 1.3594712,1.3594712 0 0 1 -0.575716,-1.83215 l 4.86821,-9.32959 a 1.3594674,1.3594674 0 0 1 1.832143,-0.57572 l 2.033328,1.061 a 1.3594674,1.3594674 0 0 1 0.57573,1.83215 l -4.868209,9.32959 a 1.3594674,1.3594674 0 0 1 -1.832158,0.57571 z"
       id="path64-3" />
    <path
       inkscape:connector-curvature="0"
       style="display:inline;fill:#d5e9f1;stroke-width:0.37770537"
       d="m 86.099452,116.11274 a 0.73263891,0.73263891 0 0 0 -0.987335,0.31025 l -4.868195,9.32959 a 0.73263891,0.73263891 0 0 0 0.310249,0.98732 l 2.033328,1.061 a 0.73263136,0.73263136 0 0 0 0.98732,-0.31025 l 4.86821,-9.32959 a 0.73263136,0.73263136 0 0 0 -0.310249,-0.98732 z"
       id="path66" />
    <circle
       style="display:inline;fill:#f2d2c0;fill-opacity:1;stroke-width:0.37770537"
       cx="64.532875"
       cy="104.51215"
       r="8.3079386"
       id="circle68-2" />
    <path
       inkscape:connector-curvature="0"
       style="display:inline;fill:#f2d2c0;fill-opacity:1;stroke-width:0.37770537"
       d="m 82.470411,126.31269 -7.942962,9.0244 4.510652,4.34578 c 0,0 6.542123,-10.73505 6.759639,-11.15017 a 2.9987504,2.9987504 0 1 0 -3.327329,-2.22001 z"
       id="path76-3" />
    <path
       inkscape:connector-curvature="0"
       style="display:inline;fill:#deecdb;fill-opacity:1;stroke-width:0.37770537"
       d="m 54.724975,120.83755 c 0.163569,9.41939 7.312914,17.1729 12.730787,25.67582 a 6.8729386,6.8729386 0 0 0 9.848867,-2.49391 l 4.751179,-8.77111 -6.046593,-1.69292 -3.207515,2.10471 -6.691359,-7.85759 z"
       id="path78-70" />
    <path
       inkscape:connector-curvature="0"
       style="display:inline;fill:#f2dba7;fill-opacity:1;stroke-width:0.43344319"
       d="m 58.439961,111.1031 c 0.421862,-0.2829 0.438212,-0.93027 0.296801,-1.45553 -0.203128,-0.50372 -0.330001,-1.03491 -0.376433,-1.57606 0.06042,-1.46402 2.076803,-2.05129 2.191996,-3.50815 0.07085,-0.89598 -0.104517,-2.16179 0.755585,-2.00997 0,0 1.122333,-1.35242 1.658945,-1.44649 1.942759,-0.54615 2.955279,-0.28448 5.027459,0.13101 l 0.302289,-0.79411 1.535654,1.01325 c 0.08386,-0.49282 0.76601,-0.54225 1.211839,-0.30571 0.445825,0.23652 0.831776,0.64496 1.318269,0.72385 1.497841,-0.0841 1.271793,-0.20132 1.347367,-1.52202 -0.11548,-0.817409 -0.482458,-1.578626 -1.050038,-2.17808 -1.29148,-1.59962 -2.858168,-2.955825 -4.626327,-4.004786 l 0.426149,-0.767861 -0.912597,0.366484 -0.100128,-0.918348 -0.889082,0.499703 -0.01262,-0.827133 c -0.951889,1.093031 -2.609606,1.055369 -4.064744,1.153923 -2.432735,0.112617 -4.76971,0.981491 -6.685137,2.485493 -1.933357,1.578479 -3.114002,3.897065 -3.253364,6.389065 -0.08262,1.93024 0.582806,4.27954 2.008012,5.71088 1.295461,1.30103 3.214831,0.51149 3.890144,2.84058 z"
       id="path68"
       sodipodi:nodetypes="ccccscccccccccccccccccccc" />
  </g>
</svg>
