<?xml version="1.0" encoding="UTF-8" standalone="no"?>
<!-- Created with Inkscape (http://www.inkscape.org/) -->

<svg
   xmlns:dc="http://purl.org/dc/elements/1.1/"
   xmlns:cc="http://creativecommons.org/ns#"
   xmlns:rdf="http://www.w3.org/1999/02/22-rdf-syntax-ns#"
   xmlns:svg="http://www.w3.org/2000/svg"
   xmlns="http://www.w3.org/2000/svg"
   xmlns:sodipodi="http://sodipodi.sourceforge.net/DTD/sodipodi-0.dtd"
   xmlns:inkscape="http://www.inkscape.org/namespaces/inkscape"
   width="178.26128mm"
   height="153.41594mm"
   viewBox="0 0 178.26128 153.41594"
   version="1.1"
   id="svg5290"
   inkscape:version="0.92.4 (5da689c313, 2019-01-14)"
   sodipodi:docname="flow_female.svg"
   inkscape:export-filename="C:\Users\rapha\Documents\Maaind\Achmea\Avatar\flow_female.png"
   inkscape:export-xdpi="35.220001"
   inkscape:export-ydpi="35.220001">
  <defs
     id="defs5284" />
  <sodipodi:namedview
     id="base"
     pagecolor="#ffffff"
     bordercolor="#666666"
     borderopacity="1.0"
     inkscape:pageopacity="0.0"
     inkscape:pageshadow="2"
     inkscape:zoom="0.70956795"
     inkscape:cx="-72.450622"
     inkscape:cy="206.13745"
     inkscape:document-units="mm"
     inkscape:current-layer="layer6"
     showgrid="false"
     inkscape:window-width="1718"
     inkscape:window-height="1080"
     inkscape:window-x="324"
     inkscape:window-y="1080"
     inkscape:window-maximized="0" />
  <metadata
     id="metadata5287">
    <rdf:RDF>
      <cc:Work
         rdf:about="">
        <dc:format>image/svg+xml</dc:format>
        <dc:type
           rdf:resource="http://purl.org/dc/dcmitype/StillImage" />
        <dc:title></dc:title>
      </cc:Work>
    </rdf:RDF>
  </metadata>
  <g
     inkscape:groupmode="layer"
     id="layer5"
     inkscape:label="background"
     style="display:inline"
     transform="translate(-3.7892085,-85.792064)">
    <path
       inkscape:connector-curvature="0"
       style="display:inline;fill:#f0f0f0;stroke-width:0.26458332"
       d="M 52.058581,163.76858 C 42.377025,154.23779 38.287995,144.29478 40.544412,135.77141 43.440107,124.83347 56.30425,117.2708 75.838326,115.02257 l 0.07215,0.62742 c -19.262146,2.21679 -31.930044,9.60972 -34.755599,20.28298 -2.195975,8.29491 1.833703,18.02071 11.346768,27.38578 z"
       id="path2-3"
       inkscape:export-xdpi="35.220001"
       inkscape:export-ydpi="35.220001" />
    <path
       inkscape:connector-curvature="0"
       style="display:inline;fill:#f0f0f0;stroke-width:0.26458332"
       d="m 145.46929,197.6 c -12.08318,0 -25.21371,-1.79562 -38.25606,-5.24845 -16.128578,-4.26984 -30.916759,-10.71472 -42.765775,-18.63811 l 0.350864,-0.52475 c 11.791974,7.885 26.51464,14.30042 42.576491,18.5524 14.51486,3.84284 29.13856,5.62336 42.2848,5.15349 l 0.0228,0.63081 q -2.08253,0.0749 -4.21314,0.0746 z"
       id="path4-3"
       inkscape:export-xdpi="35.220001"
       inkscape:export-ydpi="35.220001" />
    <path
       inkscape:connector-curvature="0"
       style="display:inline;fill:#f0f0f0;stroke-width:0.26458332"
       d="m 156.78532,192.0417 -0.20225,-0.59813 c 10.80675,-3.65384 17.56595,-9.53973 19.54687,-17.02192 2.51801,-9.51168 -2.95242,-20.54936 -15.40373,-31.07987 -12.51482,-10.58398 -30.56144,-19.36603 -50.8162,-24.72811 l 0.16156,-0.61046 c 20.34325,5.38565 38.47773,14.21317 51.06223,24.85652 12.64801,10.69669 18.19059,21.96299 15.60661,31.72347 -2.03766,7.69678 -8.93806,13.73375 -19.95509,17.4585 z"
       id="path6"
       inkscape:export-xdpi="35.220001"
       inkscape:export-ydpi="35.220001" />
    <path
       inkscape:connector-curvature="0"
       style="display:inline;fill:#f0f0f0;stroke-width:0.26458332"
       d="m 128.33157,203.93571 q -3.67342,0 -7.47232,-0.16402 l 0.0271,-0.63082 c 18.90003,0.81827 35.57587,-1.44353 48.22789,-6.54214 l 0.23617,0.58579 c -11.03676,4.44716 -25.10395,6.75119 -41.01887,6.75119 z"
       id="path10"
       inkscape:export-xdpi="35.220001"
       inkscape:export-ydpi="35.220001" />
    <path
       inkscape:connector-curvature="0"
       style="display:inline;fill:#f0f0f0;stroke-width:0.26458332"
       d="m 128.8215,116.53594 c -3.92423,-1.27766 -7.96069,-2.46729 -11.99716,-3.53591 -23.228297,-6.14935 -46.061974,-8.33268 -66.033396,-6.31276 l -0.0635,-0.62834 c 20.045892,-2.02656 42.957705,0.16202 66.258466,6.33063 4.04786,1.0717 8.09574,2.26473 12.03108,3.54609 z"
       id="path24-0"
       inkscape:export-xdpi="35.220001"
       inkscape:export-ydpi="35.220001" />
    <path
       inkscape:connector-curvature="0"
       style="display:inline;fill:#ffffff;stroke-width:0.26458332"
       d="m 31.327498,161.28267 a 4.0277521,4.0277521 0 0 1 2.532504,-4.55937 c 0.181184,-0.0674 0.294423,0.21099 0.113001,0.27847 a 3.7296011,3.7296011 0 0 0 -2.34709,4.24598 c 0.0388,0.18942 -0.259854,0.22324 -0.298425,0.0348 z"
       id="path40"
       inkscape:export-xdpi="35.220001"
       inkscape:export-ydpi="35.220001" />
    <path
       inkscape:connector-curvature="0"
       style="display:inline;fill:#ffffff;stroke-width:0.26458332"
       d="m 24.473659,165.86962 a 7.7631396,7.7631396 0 0 0 5.516012,1.25759 c 0.191292,-0.0292 0.22602,0.26962 0.03482,0.29843 a 8.0748187,8.0748187 0 0 1 -5.737249,-1.3203 c -0.159876,-0.10939 0.02732,-0.34449 0.186321,-0.23571 z"
       id="path42"
       inkscape:export-xdpi="35.220001"
       inkscape:export-ydpi="35.220001" />
    <path
       inkscape:connector-curvature="0"
       style="display:inline;fill:#ffffff;stroke-width:0.26458332"
       d="m 40.040625,160.46862 a 2.2798961,2.2798961 0 0 0 1.01068,1.91275 c 0.161182,0.1073 -0.02619,0.3423 -0.186321,0.2357 a 2.5548167,2.5548167 0 0 1 -1.122785,-2.11353 0.15527337,0.15527337 0 0 1 0.131748,-0.16667 0.15098448,0.15098448 0 0 1 0.166667,0.13175 z"
       id="path44"
       inkscape:export-xdpi="35.220001"
       inkscape:export-ydpi="35.220001" />
    <path
       inkscape:connector-curvature="0"
       style="display:inline;fill:#deecdb;fill-opacity:1;stroke-width:0.26458332"
       d="m 167.05845,177.33708 c -2.56367,-6.31659 -8.3386,-11.66961 -15.14025,-12.12609 a 31.408605,31.408605 0 0 1 5.58025,20.82961 c -0.26346,2.84685 -0.85292,5.98579 0.74739,8.35498 0.99573,1.47419 2.69977,2.34957 4.44053,2.71598 1.74085,0.36637 3.54097,0.28095 5.31783,0.19381 l 0.40381,0.18481 c 1.05292,-6.73521 1.21411,-13.83652 -1.34956,-20.1531 z"
       id="path46"
       inkscape:export-xdpi="35.220001"
       inkscape:export-ydpi="35.220001" />
    <path
       inkscape:connector-curvature="0"
       style="display:inline;fill:#ffffff;stroke-width:0.26458332"
       d="m 151.88948,165.35112 a 26.845914,26.845914 0 0 1 10.35724,12.86645 11.560757,11.560757 0 0 1 0.80995,3.53049 6.6306091,6.6306091 0 0 1 -0.79686,3.39747 c -0.50657,0.98122 -1.13837,1.92624 -1.3976,3.01352 a 4.0599492,4.0599492 0 0 0 0.66632,3.25277 c 0.80215,1.17932 1.98021,2.00008 3.16015,2.76268 1.3101,0.84672 2.68429,1.70545 3.51091,3.0719 0.10016,0.16556 0.3512,5.2e-4 0.2512,-0.16484 -1.43818,-2.37739 -4.33278,-3.17103 -6.14826,-5.17292 -0.84713,-0.93412 -1.41788,-2.1292 -1.20233,-3.41266 0.1885,-1.12233 0.83919,-2.0974 1.36069,-3.08648 a 7.0753764,7.0753764 0 0 0 0.90292,-3.29296 10.687656,10.687656 0 0 0 -0.67122,-3.5486 26.045319,26.045319 0 0 0 -3.88611,-7.15283 27.321907,27.321907 0 0 0 -6.78331,-6.3331 c -0.16132,-0.1057 -0.29397,0.16411 -0.1337,0.26912 z"
       id="path48"
       inkscape:export-xdpi="35.220001"
       inkscape:export-ydpi="35.220001" />
    <path
       inkscape:connector-curvature="0"
       style="display:inline;fill:#ffffff;stroke-width:0.26458332"
       d="m 161.69797,176.48224 a 4.0277521,4.0277521 0 0 0 1.8693,-4.869 c -0.0647,-0.18218 -0.3508,-0.0903 -0.28604,0.0922 a 3.7296011,3.7296011 0 0 1 -1.74811,4.52564 c -0.1701,0.0919 -0.004,0.34254 0.16484,0.25119 z"
       id="path50"
       inkscape:export-xdpi="35.220001"
       inkscape:export-ydpi="35.220001" />
    <path
       inkscape:connector-curvature="0"
       style="display:inline;fill:#ffffff;stroke-width:0.26458332"
       d="m 162.58219,184.68184 a 7.7631396,7.7631396 0 0 1 -4.50585,-3.42128 c -0.10074,-0.16521 -0.35182,-1.7e-4 -0.2512,0.16483 a 8.0748346,8.0748346 0 0 0 4.69599,3.55063 c 0.1865,0.0523 0.24655,-0.24213 0.0611,-0.29418 z"
       id="path52"
       inkscape:export-xdpi="35.220001"
       inkscape:export-ydpi="35.220001" />
    <path
       inkscape:connector-curvature="0"
       style="display:inline;fill:#ffffff;stroke-width:0.26458332"
       d="m 156.72749,169.27977 a 2.2798961,2.2798961 0 0 1 -2.11532,0.45331 c -0.18574,-0.0547 -0.24561,0.23987 -0.0611,0.29419 a 2.5548167,2.5548167 0 0 0 2.34123,-0.49631 0.15527073,0.15527073 0 0 0 0.0432,-0.20801 0.15098448,0.15098448 0 0 0 -0.20802,-0.0432 z"
       id="path54"
       inkscape:export-xdpi="35.220001"
       inkscape:export-ydpi="35.220001" />
    <path
       inkscape:connector-curvature="0"
       style="display:inline;fill:#deecdb;fill-opacity:1;stroke-width:0.26458332"
       d="m 136.05042,181.97247 c 0.11502,0.0374 0.23004,0.0749 0.34583,0.11473 a 30.024861,30.024861 0 0 1 4.48401,1.90138 c 0.11232,0.0565 0.22529,0.11553 0.33576,0.17517 a 31.653028,31.653028 0 0 1 9.07587,7.31008 30.739371,30.739371 0 0 1 2.75402,3.77211 c 1.13375,1.83048 2.21739,3.9054 3.84183,5.21586 a 5.2739396,5.2739396 0 0 0 0.52809,0.38353 l 10.73542,-2.87685 c 0.0211,-0.0188 0.043,-0.0352 0.0642,-0.054 l 0.43389,-0.0953 c -0.0376,-0.0713 -0.0781,-0.14446 -0.11563,-0.21578 -0.0216,-0.0415 -0.0456,-0.0823 -0.0673,-0.12374 -0.0152,-0.0274 -0.0305,-0.0549 -0.0426,-0.0805 -0.005,-0.009 -0.0102,-0.0183 -0.0145,-0.025 -0.0121,-0.0256 -0.0261,-0.0482 -0.0376,-0.0713 q -0.33787,-0.61433 -0.68553,-1.22604 c -5.3e-4,-0.002 -5.3e-4,-0.002 -0.004,-0.004 -1.77401,-3.10277 -3.82265,-6.08471 -6.25875,-8.6609 -0.0733,-0.0775 -0.14718,-0.15746 -0.2254,-0.23363 a 29.331856,29.331856 0 0 0 -3.57932,-3.17818 25.931387,25.931387 0 0 0 -2.17931,-1.46103 21.563277,21.563277 0 0 0 -6.25836,-2.5075 c -4.39518,-1.00112 -9.06161,-0.58544 -12.84377,1.75909 -0.0967,0.0601 -0.19118,0.11947 -0.28724,0.18197 z"
       id="path56"
       inkscape:export-xdpi="35.220001"
       inkscape:export-ydpi="35.220001" />
    <path
       inkscape:connector-curvature="0"
       style="display:inline;fill:#ffffff;stroke-width:0.26458332"
       d="m 136.11108,182.10226 a 26.845906,26.845906 0 0 1 16.01617,4.03736 11.560741,11.560741 0 0 1 2.7723,2.33125 6.6306144,6.6306144 0 0 1 1.40926,3.19246 c 0.1863,1.08844 0.25081,2.22337 0.69844,3.24758 a 4.0599466,4.0599466 0 0 0 2.49041,2.19598 c 1.3505,0.45867 2.78527,0.40473 4.18653,0.30321 1.55583,-0.11271 3.17006,-0.25443 4.65276,0.33893 0.17965,0.0719 0.2807,-0.21107 0.10132,-0.28284 -2.57965,-1.03233 -5.36866,0.0768 -8.02349,-0.42861 -1.23879,-0.23581 -2.41403,-0.84638 -3.01466,-2.00093 -0.52522,-1.00961 -0.59274,-2.1799 -0.77184,-3.28361 a 7.0753631,7.0753631 0 0 0 -1.26166,-3.17288 10.687579,10.687579 0 0 0 -2.67244,-2.42924 26.045245,26.045245 0 0 0 -7.40934,-3.37143 27.321933,27.321933 0 0 0 -9.22905,-0.97261 c -0.19244,0.0127 -0.13591,0.30802 0.0553,0.29537 z"
       id="path58"
       inkscape:export-xdpi="35.220001"
       inkscape:export-ydpi="35.220001" />
    <path
       inkscape:connector-curvature="0"
       style="display:inline;fill:#ffffff;stroke-width:0.26458332"
       d="m 150.64431,185.08445 a 4.0277521,4.0277521 0 0 0 -1.43894,-5.01308 c -0.16132,-0.10652 -0.33444,0.13915 -0.1729,0.24582 a 3.7295984,3.7295984 0 0 1 1.329,4.66592 c -0.0805,0.17578 0.20282,0.27609 0.28286,0.10134 z"
       id="path60"
       inkscape:export-xdpi="35.220001"
       inkscape:export-ydpi="35.220001" />
    <path
       inkscape:connector-curvature="0"
       style="display:inline;fill:#ffffff;stroke-width:0.26458332"
       d="m 156.28704,191.099 a 7.7631396,7.7631396 0 0 1 -5.65753,-0.0189 c -0.17989,-0.0713 -0.281,0.21168 -0.10132,0.28285 a 8.0748558,8.0748558 0 0 0 5.88721,0.008 c 0.18042,-0.0705 0.0511,-0.34177 -0.12836,-0.27165 z"
       id="path62"
       inkscape:export-xdpi="35.220001"
       inkscape:export-ydpi="35.220001" />
    <path
       inkscape:connector-curvature="0"
       style="display:inline;fill:#ffffff;stroke-width:0.26458332"
       d="m 142.33928,182.32624 a 2.2799146,2.2799146 0 0 1 -1.41605,1.63552 c -0.18124,0.0682 -0.0517,0.33939 0.12836,0.27165 a 2.5548167,2.5548167 0 0 0 1.57053,-1.80585 0.15526808,0.15526808 0 0 0 -0.0908,-0.19208 0.15098183,0.15098183 0 0 0 -0.19209,0.0908 z"
       id="path64"
       inkscape:export-xdpi="35.220001"
       inkscape:export-ydpi="35.220001" />
    <circle
       style="display:inline;fill:#e6e6e6;fill-opacity:1;stroke-width:0.26458332"
       cx="117.3219"
       cy="196.32043"
       r="2.5257177"
       id="circle66"
       inkscape:export-xdpi="35.220001"
       inkscape:export-ydpi="35.220001" />
    <circle
       style="display:inline;fill:#e6e6e6;stroke-width:0.26458332"
       cx="138.9684"
       cy="163.88504"
       r="2.5257177"
       id="circle68"
       inkscape:export-xdpi="35.220001"
       inkscape:export-ydpi="35.220001" />
    <circle
       style="display:inline;fill:#e6e6e6;stroke-width:0.26458332"
       cx="108.37473"
       cy="95.413948"
       r="2.5257177"
       id="circle70"
       inkscape:export-xdpi="35.220001"
       inkscape:export-ydpi="35.220001" />
    <path
       inkscape:connector-curvature="0"
       style="display:inline;fill:#ffffff;stroke-width:0.26458332"
       d="m 72.735668,176.66022 c -0.02082,-0.004 -0.04168,-0.007 -0.0625,-0.0104 a 1.698961,1.698961 0 0 0 0.246282,-0.18556 z"
       id="path76"
       inkscape:export-xdpi="35.220001"
       inkscape:export-ydpi="35.220001" />
    <path
       inkscape:connector-curvature="0"
       style="display:inline;fill:#ffffff;stroke-width:0.26458332"
       d="m 180.38756,112.63104 c 0.0208,-0.004 0.0417,-0.007 0.0625,-0.0104 a 1.698961,1.698961 0 0 1 -0.24628,-0.18555 z"
       id="path114"
       inkscape:export-xdpi="35.220001"
       inkscape:export-ydpi="35.220001" />
    <path
       inkscape:connector-curvature="0"
       style="display:inline;fill:#deecdb;fill-opacity:1;stroke-width:0.26458332"
       d="m 24.841186,176.52284 c -5.169291,-4.44412 -8.401287,-11.62458 -6.664969,-18.21668 a 31.408603,31.408603 0 0 0 17.962668,11.93124 c 2.78223,0.65812 5.945281,1.10041 7.680461,3.37268 1.079693,1.41384 1.365976,3.30807 1.158143,5.07478 -0.20789,1.7668 -0.862887,3.4457 -1.512093,5.10201 l 0.04631,0.44167 c -6.71934,-1.14984 -13.501303,-3.26158 -18.670594,-7.7057 z"
       id="path26" />
    <path
       inkscape:connector-curvature="0"
       style="display:inline;fill:#ffffff;stroke-width:0.26458332"
       d="m 18.318188,158.32362 a 26.8459,26.8459 0 0 0 8.891931,13.91948 11.560704,11.560704 0 0 0 3.087884,1.89349 6.6305959,6.6305959 0 0 0 3.474203,0.32815 c 1.091531,-0.16726 2.188689,-0.46468 3.30187,-0.36361 a 4.0599492,4.0599492 0 0 1 2.870474,1.6688 c 0.861953,1.13635 1.264197,2.51464 1.610716,3.87616 0.38474,1.51171 0.760416,3.088 1.791927,4.30721 0.124982,0.14773 -0.111544,0.33301 -0.236341,0.18551 -1.794647,-2.12121 -1.623783,-5.11777 -2.942234,-7.47685 -0.615216,-1.10079 -1.565899,-2.02284 -2.851096,-2.22782 -1.123841,-0.17924 -2.255499,0.12654 -3.359242,0.30542 a 7.0753843,7.0753843 0 0 1 -3.408974,-0.19429 10.687711,10.687711 0 0 1 -3.149294,-1.76779 26.04535,26.04535 0 0 1 -5.540173,-5.96418 27.321954,27.321954 0 0 1 -3.839337,-8.44871 c -0.04871,-0.18661 0.249279,-0.22631 0.29775,-0.0405 z"
       id="path28" />
    <path
       inkscape:connector-curvature="0"
       style="display:inline;fill:#ffffff;stroke-width:0.26458332"
       d="m 25.740381,171.16962 a 4.0277521,4.0277521 0 0 1 -5.210904,0.21904 c -0.152041,-0.11938 0.02632,-0.36125 0.178576,-0.24171 a 3.7295984,3.7295984 0 0 0 4.846812,-0.21366 c 0.141321,-0.13192 0.326029,0.10516 0.185516,0.23634 z"
       id="path30-9" />
    <path
       inkscape:connector-curvature="0"
       style="display:inline;fill:#ffffff;stroke-width:0.26458332"
       d="m 33.22993,174.62243 a 7.7631396,7.7631396 0 0 0 -1.805807,-5.36162 c -0.124449,-0.14816 0.112034,-0.3335 0.236341,-0.18552 a 8.0748399,8.0748399 0 0 1 1.867759,5.58307 c -0.0099,0.19346 -0.30811,0.15648 -0.298293,-0.0359 z"
       id="path32-4" />
    <path
       inkscape:connector-curvature="0"
       style="display:inline;fill:#ffffff;stroke-width:0.26458332"
       d="m 20.498949,164.16186 a 2.2798934,2.2798934 0 0 0 1.104206,-1.86034 c 0.0074,-0.19348 0.305653,-0.1563 0.298293,0.0359 a 2.5548167,2.5548167 0 0 1 -1.216984,2.06073 0.15527602,0.15527602 0 0 1 -0.210928,-0.0254 0.15098712,0.15098712 0 0 1 0.02537,-0.21093 z"
       id="path34-7" />
    <path
       inkscape:connector-curvature="0"
       style="display:inline;fill:#deecdb;fill-opacity:1;stroke-width:0.26458332"
       d="m 39.122663,148.61184 c -7.93e-4,0.12095 -0.0026,0.2419 -0.0014,0.36435 a 30.024917,30.024917 0 0 0 0.372212,4.85624 c 0.01774,0.12449 0.03765,0.25037 0.05892,0.37408 a 31.653096,31.653096 0 0 0 4.034245,10.93314 30.739239,30.739239 0 0 0 2.696957,3.81313 c 1.373374,1.65826 2.994406,3.34701 3.718443,5.30452 a 5.2730823,5.2730823 0 0 1 0.195128,0.62282 l -6.150057,9.25756 c -0.02455,0.014 -0.04708,0.0295 -0.07161,0.0437 l -0.228651,0.38086 c -0.05557,-0.0584 -0.112033,-0.12006 -0.167647,-0.17841 -0.03242,-0.0337 -0.06347,-0.0695 -0.0958,-0.10321 -0.02112,-0.0231 -0.04225,-0.0463 -0.06271,-0.066 -0.0071,-0.007 -0.01408,-0.0155 -0.019,-0.0218 -0.02047,-0.0197 -0.03734,-0.0401 -0.05556,-0.0583 q -0.474529,-0.51619 -0.943433,-1.04079 c -0.0021,-0.002 -0.0021,-0.002 -0.0031,-0.005 -2.375075,-2.67083 -4.548048,-5.56343 -6.212897,-8.69387 -0.05002,-0.0942 -0.10227,-0.1897 -0.149543,-0.28813 a 29.331899,29.331899 0 0 1 -1.870848,-4.40593 25.931283,25.931283 0 0 1 -0.689798,-2.53145 21.563177,21.563177 0 0 1 -0.380868,-6.73123 c 0.452718,-4.48497 2.334761,-8.77521 5.76297,-11.61228 0.08779,-0.0725 0.174183,-0.14308 0.264042,-0.21418 z"
       id="path36" />
    <path
       inkscape:connector-curvature="0"
       style="display:inline;fill:#ffffff;stroke-width:0.26458332"
       d="m 39.22634,148.7107 a 26.845921,26.845921 0 0 0 -1.280792,16.46749 11.560847,11.560847 0 0 0 1.325494,3.37097 6.6306197,6.6306197 0 0 0 2.576393,2.35372 c 0.97221,0.52366 2.027311,0.94671 2.855286,1.69759 a 4.0599386,4.0599386 0 0 1 1.287176,3.06066 c 0.0041,1.42627 -0.504595,2.76893 -1.047653,4.06465 -0.602954,1.43866 -1.252035,2.92342 -1.162475,4.51793 0.01052,0.19321 -0.289557,0.19875 -0.300389,0.006 -0.15582,-2.77417 1.784743,-5.06389 2.152364,-7.74127 0.17153,-1.24932 -0.0324,-2.5579 -0.935137,-3.49535 -0.789413,-0.81974 -1.877078,-1.25694 -2.866035,-1.77865 a 7.0753737,7.0753737 0 0 1 -2.604904,-2.20756 10.687733,10.687733 0 0 1 -1.450202,-3.30759 26.045319,26.045319 0 0 1 -0.832652,-8.09762 27.321933,27.321933 0 0 1 2.021217,-9.05738 c 0.07347,-0.17833 0.335257,-0.0308 0.262324,0.14659 z"
       id="path38" />
    <path
       inkscape:connector-curvature="0"
       style="display:inline;fill:#ffffff;stroke-width:0.26458332"
       d="m 37.418358,163.43618 a 4.0277521,4.0277521 0 0 1 -4.292486,-2.96243 c -0.04951,-0.18686 0.238524,-0.27259 0.288108,-0.0855 a 3.7296011,3.7296011 0 0 0 3.998542,2.74752 c 0.192284,-0.0202 0.197009,0.28027 0.0057,0.3004 z"
       id="path40-3" />
    <path
       inkscape:connector-curvature="0"
       style="display:inline;fill:#ffffff;stroke-width:0.26458332"
       d="m 41.319512,170.70228 a 7.7631396,7.7631396 0 0 0 1.786231,-5.36817 c -0.01053,-0.19322 0.290237,-0.19882 0.300401,-0.006 a 8.0748187,8.0748187 0 0 1 -1.870094,5.5823 c -0.124355,0.14852 -0.340219,-0.0606 -0.21653,-0.20829 z"
       id="path42-2" />
    <path
       inkscape:connector-curvature="0"
       style="display:inline;fill:#ffffff;stroke-width:0.26458332"
       d="m 37.452536,154.68518 a 2.2798961,2.2798961 0 0 0 2.001685,-0.82056 c 0.122418,-0.15003 0.338162,0.0593 0.21654,0.20829 a 2.5548167,2.5548167 0 0 1 -2.212391,0.91267 0.15527337,0.15527337 0 0 1 -0.153119,-0.14727 0.15098448,0.15098448 0 0 1 0.147285,-0.15312 z"
       id="path44-0" />
    <path
       inkscape:connector-curvature="0"
       style="display:inline;fill:#f0f0f0;fill-opacity:1;stroke-width:0.35415488"
       d="m 71.754608,223.33251 a 29.36252,29.36252 0 1 0 -29.36251,-29.3627 29.39601,29.39601 0 0 0 29.36251,29.3627 z m 0,-58.01673 a 28.65421,28.65421 0 1 1 -28.6542,28.65403 28.686481,28.686481 0 0 1 28.6542,-28.65403 z"
       id="path8"
       inkscape:export-xdpi="35.220001"
       inkscape:export-ydpi="35.220001" />
  </g>
  <g
     inkscape:groupmode="layer"
     id="layer6"
     inkscape:label="avatar"
     style="display:inline"
     transform="translate(-3.7892085,-85.792064)">
    <circle
       style="display:inline;fill:#f2f2f2;stroke-width:0.15467261"
       cx="145.68753"
       cy="126.53786"
       r="17.546064"
       id="circle2"
       inkscape:export-xdpi="35.220001"
       inkscape:export-ydpi="35.220001" />
    <circle
       style="display:inline;fill:#ebdabc;fill-opacity:1;stroke-width:0.15467261"
       cx="145.84428"
       cy="120.27254"
       r="6.9968047"
       id="circle4"
       inkscape:export-xdpi="35.220001"
       inkscape:export-ydpi="35.220001" />
    <circle
       style="display:inline;fill:#f2d2c0;fill-opacity:1;stroke-width:0.15467261"
       cx="145.84714"
       cy="121.93795"
       r="6.2505465"
       id="circle42"
       inkscape:export-xdpi="35.220001"
       inkscape:export-ydpi="35.220001" />
    <path
       inkscape:connector-curvature="0"
       style="display:inline;fill:#d5e9f1;stroke-width:0.15467261"
       d="m 158.80274,138.06705 a 17.539922,17.539922 0 0 1 -24.54804,1.7741 l 1.50497,-4.19937 a 4.5159285,4.5159285 0 0 1 3.83585,-2.63407 l 0.95742,-0.0587 2.28296,-1.96899 c 0,0 6.15131,-0.21963 6.06006,-0.32481 l 3.72606,2.2412 -0.002,-0.0154 1.46475,0.0897 a 4.5139547,4.5139547 0 0 1 3.83588,2.63408 z"
       id="path60-7"
       inkscape:export-xdpi="35.220001"
       inkscape:export-ydpi="35.220001" />
    <path
       inkscape:connector-curvature="0"
       style="display:inline;fill:#f2dba7;fill-opacity:1;stroke-width:0.15467261"
       d="m 152.44135,119.74588 a 13.831058,13.831058 0 0 0 0.0602,-1.40398 6.6085531,6.6085531 0 0 0 -0.49849,-2.706 4.158081,4.158081 0 0 0 -2.17567,-2.10185 3.9697409,3.9697409 0 0 0 -2.97631,0.002 c -0.86152,-0.54431 -1.81875,-0.97581 -2.82683,-1.02926 -1.0081,-0.0535 -2.07394,0.32055 -2.69517,1.14381 a 4.3989557,4.3989557 0 0 1 -0.47087,0.61174 c -0.49937,0.46245 -1.25828,0.39574 -1.92202,0.30118 q 0.44655,0.38273 0.89335,0.76547 -0.54056,0.14122 -1.08121,0.28243 0.63086,0.3826 1.2616,0.7652 c -1.22087,0.7328 -1.77579,2.33223 -1.6292,3.78485 0.13867,1.37529 0.80265,2.63291 1.59636,3.7507 0.31663,-0.66817 0.24841,-1.46768 0.24318,-2.22023 a 5.0248626,5.0248626 0 0 1 0.0445,-0.73 c 2.68241,0.64301 5.48521,1.05568 8.3276,0.0345 l 0.5704,-1.39606 c 0.0801,0.008 0.16014,0.016 0.24015,0.0245 l 0.33047,1.37289 c 0.74923,0.30623 1.50003,0.57388 2.25112,0.29263 0.0365,0.21206 0.0586,0.42847 0.0754,0.63646 0.0644,-0.24879 0.12039,-0.49944 0.17082,-0.75108 a 2.2208946,2.2208946 0 0 0 0.28438,-0.18167 6.1114709,6.1114709 0 0 0 -0.0739,-1.24875 z"
       id="path78-7"
       inkscape:export-xdpi="35.220001"
       inkscape:export-ydpi="35.220001" />
  </g>
  <g
     inkscape:groupmode="layer"
     id="layer4"
     inkscape:label="mellow"
     style="display:inline"
     transform="translate(-3.7892085,-85.792064)">
    <circle
       style="display:inline;fill:#ffffff;stroke-width:0.35415488"
       cx="-71.754639"
       cy="193.97043"
       r="29.008392"
       id="circle6"
       transform="scale(-1,1)"
       inkscape:export-xdpi="35.220001"
       inkscape:export-ydpi="35.220001" />
    <polygon
       transform="matrix(-0.3541549,0,0,0.3541549,310.04894,4.3632713)"
       style="display:inline;fill:#f2d2c0;fill-opacity:1"
       points="630.005,640.052 618.645,641.317 607.882,597.245 624.647,595.377 "
       id="polygon12"
       inkscape:export-xdpi="35.220001"
       inkscape:export-ydpi="35.220001" />
    <path
       inkscape:connector-curvature="0"
       style="display:inline;fill:#2f2e41;stroke-width:0.35415488"
       d="m 60.424713,160.8691 c 0.124921,-0.12449 0.260348,-0.24549 0.39523,-0.36057 a 36.699483,36.699483 0 0 1 3.249602,-2.4065 c 1.274762,-0.84928 2.709015,-1.71614 4.331441,-2.61115 q 1.177842,-0.65054 2.489545,-1.32826 0.657134,-0.33966 1.352075,-0.68421 a 0.68304087,0.68304087 0 0 1 0.0608,-0.0316 l 0.134091,-0.0681 9.76331,8.05935 0.693564,0.54493 -1.798514,2.21767 c 0,0 0.156582,1.76331 0.152888,1.76416 l 1.785369,4.45511 0.01967,0.009 6.360694,2.90314 6.554755,2.99241 3.520516,1.60816 a 6.7634416,6.7634416 0 0 1 3.549251,3.83497 7.0308888,7.0308888 0 0 1 -0.2316,5.43022 c -0.0788,0.17215 -0.16721,0.34459 -0.26107,0.51051 l -1.46288,9.19808 a 55.363033,55.363033 0 0 1 -5.040036,15.83423 l -2.234342,8.61016 -0.339466,-0.17035 -5.053343,-2.53126 -1.335099,-0.66725 -0.252046,-5.78517 c -0.02864,-0.65933 -0.03279,-1.32238 -0.0094,-1.98406 a 25.501633,25.501633 0 0 1 0.310046,-3.23249 l 2.897319,-18.04099 q -0.771199,-0.31439 -1.521583,-0.63171 -3.478205,-1.45539 -6.585957,-2.94232 C 75.181326,182.14477 69.691992,178.80156 65.20703,175.18014 q -1.890455,-1.52351 -3.546448,-3.11905 -0.608657,-0.58296 -1.184921,-1.17729 c -0.0914,-0.0917 -0.180548,-0.18197 -0.268259,-0.27454 a 6.8452231,6.8452231 0 0 1 -1.698708,-6.32914 6.9843634,6.9843634 0 0 1 1.915969,-3.41099 z"
       id="path14"
       inkscape:export-xdpi="35.220001"
       inkscape:export-ydpi="35.220001" />
    <path
       inkscape:connector-curvature="0"
       style="display:inline;fill:#2f2e41;stroke-width:0.35415488"
       d="m 87.257144,228.3082 4.354988,0.48148 0.683364,0.0748 -0.444689,2.58612 5.061053,4.94408 a 1.6395319,1.6395319 0 0 1 -1.421608,2.78977 l -7.187228,-1.23111 -0.799548,-2.77015 -0.92224,2.47512 -2.70726,-0.46325 2.324144,-9.00296 z"
       id="path16"
       inkscape:export-xdpi="35.220001"
       inkscape:export-ydpi="35.220001" />
    <path
       inkscape:connector-curvature="0"
       style="display:inline;fill:#f2d2c0;fill-opacity:1;stroke-width:0.35415488"
       d="m 83.112602,138.75496 -3.729026,-3.95454 5.260193,-11.50923 0.782429,-4.04255 a 3.0566119,3.0566119 0 0 1 4.990111,-1.73992 v 0 a 3.0566083,3.0566083 0 0 1 0.397599,4.23019 l -2.904387,3.63049 z"
       id="path18"
       inkscape:export-xdpi="35.220001"
       inkscape:export-ydpi="35.220001" />
    <path
       inkscape:connector-curvature="0"
       style="display:inline;fill:#deecdb;fill-opacity:1;stroke-width:0.35415488"
       d="m 79.383576,133.02965 4.249864,4.24986 -0.813255,6.21372 a 4.9414031,4.9414031 0 0 1 -3.562971,3.30467 v 0 a 4.9414102,4.9414102 0 0 1 -5.381778,-2.2647 l -9.55918,-16.38485 a 5.0440478,5.0440478 0 0 1 1.626403,-6.85646 v 0 a 5.0440832,5.0440832 0 0 1 7.225616,2.03628 l 5.834584,12.43234 z"
       id="path20"
       inkscape:export-xdpi="35.220001"
       inkscape:export-ydpi="35.220001" />
    <path
       inkscape:connector-curvature="0"
       style="display:inline;fill:#f2d2c0;fill-opacity:1;stroke-width:0.35415488"
       d="m 83.664802,195.7422 c 0.219574,0.22352 0.439817,0.44437 0.662644,0.66594 0.44307,0.4424 0.892577,0.88082 1.343357,1.31402 0.226681,0.21696 0.455986,0.43452 0.683297,0.64886 l -0.0014,0.008 0.01499,0.006 0.004,0.004 0.378057,0.19524 0.940831,-1.38574 0.4339,-0.63813 0.613346,-0.90416 1.123515,-1.65367 5.915549,-8.70734 -5.305189,-2.73853 -0.417798,0.81302 -0.0026,-7.1e-4 -0.206644,0.40287 -3.879713,7.51731 -0.792241,1.53707 -0.02489,0.0464 -0.475917,0.91768 -0.410825,0.79536 -0.457994,0.88892 z"
       id="path22"
       inkscape:export-xdpi="35.220001"
       inkscape:export-ydpi="35.220001" />
    <path
       inkscape:connector-curvature="0"
       style="display:inline;fill:#2f2e41;stroke-width:0.35415488"
       d="m 84.761012,192.91993 3.692987,2.35789 0.579788,0.36938 -1.542572,2.12278 2.352561,6.67261 a 1.6395319,1.6395319 0 0 1 -2.508835,1.87337 l -5.901643,-4.28285 0.508042,-2.8381 -1.921806,1.81201 -2.22321,-1.61283 6.066193,-7.04669 z"
       id="path24"
       inkscape:export-xdpi="35.220001"
       inkscape:export-ydpi="35.220001" />
    <path
       inkscape:connector-curvature="0"
       style="display:inline;fill:#2f2e41;stroke-width:0.35415488"
       d="m 58.132483,168.06466 c 0.367485,0.59013 0.743018,1.17757 1.121224,1.75964 q 1.054204,1.6255 2.164679,3.20274 c 0,0.002 0.0028,0.002 0.0054,0.006 a 7.5731991,7.5731991 0 0 0 1.421656,1.03808 c 0.02146,0.0161 0.04559,0.0267 0.06706,0.0403 a 5.2412129,5.2412129 0 0 0 1.196335,0.48014 c 0.150212,0.0375 0.303107,0.0751 0.453319,0.11271 0.541825,0.12877 1.078298,0.23874 1.612113,0.3353 0.949553,0.16899 1.888383,0.2897 2.821843,0.36479 0.07511,0.008 0.150211,0.0134 0.225327,0.0187 3.83847,0.28166 7.575021,-0.17167 11.475174,-0.91468 1.925955,-0.36481 3.892121,-0.80203 5.928051,-1.25536 0.665213,-0.1502 1.33313,-0.29774 2.009092,-0.44526 0.051,-0.0107 0.104674,-0.0241 0.158269,-0.0349 0.965648,-0.2119 1.947386,-0.42113 2.95327,-0.62768 1.26611,-0.26019 0.617107,-0.27531 1.974384,-0.51405 0,0 -3.131537,3.18 -3.65192,4.55875 -0.5794,1.69526 -1.038077,3.03645 -0.06974,5.82879 l -3.007281,5.90358 10.454774,1.77281 c 5.761988,-11.29068 10.367008,-18.72546 8.309858,-23.10437 -0.008,-0.20386 -0.0241,-0.41041 -0.051,-0.61427 a 7.0273578,7.0273578 0 0 0 -2.67433,-4.73169 6.7675214,6.7675214 0 0 0 -5.040174,-1.37873 l -2.05202,0.26556 -15.914496,-0.77318 -0.624992,-2.54826 -0.115342,-0.0429 -3.666808,-1.34387 -12.682244,-4.64855 -0.03219,-0.0107 -0.834214,-0.3058 -0.09924,0.16094 c -0.0295,0.0483 -0.05901,0.0966 -0.08584,0.14485 a 24.859992,24.859992 0 0 0 -2.003739,4.65123 73.017485,73.017485 0 0 0 -2.105653,8.03907 q -0.03619,0.17704 -0.06438,0.32188 l -0.008,0.0295 c -0.008,0.0456 -0.01345,0.0751 -0.0161,0.0831 -0.292393,1.21779 -0.08854,2.70383 0.447942,4.17646 z"
       id="path74"
       inkscape:export-xdpi="35.220001"
       inkscape:export-ydpi="35.220001" />
    <line
       style="display:inline;fill:#2f2e41;stroke-width:0.35415488"
       x1="91.493126"
       y1="199.49995"
       x2="91.745255"
       y2="199.49995"
       id="line76"
       inkscape:export-xdpi="35.220001"
       inkscape:export-ydpi="35.220001" />
    <path
       inkscape:connector-curvature="0"
       style="display:inline;fill:#deecdb;fill-opacity:1;stroke-width:0.35415488"
       d="m 60.808148,118.50023 0.09167,-5.08347 8.053889,-0.93716 0.844745,4.29271 8.464513,7.95443 c 6.018149,7.35741 1.644984,12.43127 1.383192,13.1858 l -0.744269,9.27756 -0.468192,3.22344 1.828082,8.82153 -23.07394,4.94977 c -0.738725,-6.099 0.08391,-11.7659 4.901033,-16.32735 l -2.434125,-7.57375 v 0 a 15.551512,15.551512 0 0 1 -2.2637,-6.52389 l -0.08754,-0.79196 c -2.150982,-6.70181 -0.876803,-8.95804 3.504648,-14.46766 z"
       id="path78"
       inkscape:export-xdpi="35.220001"
       inkscape:export-ydpi="35.220001" />
    <path
       inkscape:connector-curvature="0"
       style="display:inline;fill:#cf5c1b;fill-opacity:1;stroke-width:0.35369641"
       d="m 49.535065,102.59843 c -0.006,0.13126 -0.008,0.26253 -0.008,0.39113 a 8.992934,8.992934 0 0 0 11.781802,8.53496 l 1.652873,-0.53846 c 0.01341,-0.005 0.02946,-0.008 0.04285,-0.0134 l 2.724449,-0.8894 a 1.8630819,1.8630819 0 0 0 -0.0054,-0.34555 c 4.063885,-1.73595 -1.553755,-7.4393 -2.949474,-11.722854 -0.216989,-0.667042 7.243735,-0.168768 6.89012,-0.739376 0.0777,-0.04025 0.155379,-0.08039 0.227717,-0.120553 A 11.041073,11.041073 0 0 0 57.697671,92.402614 c -0.05893,0.01338 -0.120553,0.03216 -0.179482,0.04824 -5.293502,0.13127 -8.074186,3.820098 -8.074186,8.609946 a 13.136927,13.136927 0 0 0 0.09108,1.53768 z"
       id="path80"
       inkscape:export-xdpi="35.220001"
       inkscape:export-ydpi="35.220001" />
    <path
       inkscape:connector-curvature="0"
       style="display:inline;fill:#f2d2c0;fill-opacity:1;stroke-width:0.35415488"
       d="m 54.100885,104.50052 a 8.641677,8.641677 0 0 0 10.893099,5.53373 q 0.370163,-0.12069 0.724247,-0.27359 a 8.6377959,8.6377959 0 0 0 4.809488,-10.616814 8.5513888,8.5513888 0 0 0 -0.863731,-1.861558 8.6387944,8.6387944 0 0 0 -15.563103,7.218232 z"
       id="path82"
       inkscape:export-xdpi="35.220001"
       inkscape:export-ydpi="35.220001" />
    <path
       inkscape:connector-curvature="0"
       style="display:inline;fill:#cf5c1b;fill-opacity:1;stroke-width:0.35415488"
       d="m 62.954328,111.00984 a 0.29875093,0.29875093 0 0 0 0.0425,-0.0142 l 2.726993,-0.88893 c 0.0071,-0.11687 5.014834,3.19802 5.000668,3.08115 -0.07792,-0.89601 -5.719602,-5.26629 -6.562492,-6.28271 a 5.226944,5.226944 0 0 1 2.294924,-8.301381 0.41831007,0.41831007 0 0 0 0.07083,-0.0248 c 0.527687,-0.184167 1.034128,-0.371867 1.508696,-0.559567 0.233743,-0.973924 0.354155,-0.651647 0.917261,-1.476821 -0.102706,0.750807 0.849972,1.317454 0.864138,2.075338 0.194786,-0.0885 0.378946,-0.18062 0.556024,-0.272697 0.07792,-0.0425 0.152287,-0.0815 0.226658,-0.12042 a 3.7604168,3.7604168 0 0 0 1.391831,-1.112034 C 70.628861,92.923142 65.41216,89.56931 61.222507,90.939884 l -1.58307,0.513517 a 7.9450901,7.9450901 0 0 0 -4.614638,3.927556 8.9448902,8.9448902 0 0 0 -2.684481,3.360912 c -3.46365,6.959141 3.226332,14.640761 10.614006,12.267921 z"
       id="path84"
       inkscape:export-xdpi="35.220001"
       inkscape:export-ydpi="35.220001" />
    <circle
       style="display:inline;fill:#cf5c1b;fill-opacity:1;stroke-width:0.35415488"
       cx="-51.498985"
       cy="95.608688"
       r="3.755317"
       id="circle86"
       transform="scale(-1,1)"
       inkscape:export-xdpi="35.220001"
       inkscape:export-ydpi="35.220001" />
    <path
       inkscape:connector-curvature="0"
       style="display:inline;fill:#cf5c1b;fill-opacity:1;stroke-width:0.35415488"
       d="m 3.7892085,103.26802 c 6.034704,16.21588 24.7161325,21.29097 34.5585795,17.03484 1.38475,-0.65873 2.7447,-1.48391 3.63715,-2.73054 1.18642,-1.66098 1.38475,-3.8532 1.09434,-5.87189 -0.29041,-2.02222 -1.01643,-3.95236 -1.52287,-5.92855 -0.50643,-1.97618 -0.7933,-4.09049 -0.19832,-6.041877 0.59144,-1.954928 2.25242,-3.693819 4.28881,-3.846109 0.92789,-0.0708 1.85932,0.18417 2.7872,0.0992 0.92789,-0.0885 1.93369,-0.708297 1.954941,-1.639721 l -0.888931,-1.444941 c -0.37541,-2.528655 -1.66453,-5.036063 -3.87445,-6.321634 -2.20639,-1.289124 -5.37962,-1.012874 -6.95561,0.998714 -1.32807,1.692851 -1.27849,4.044426 -1.7141,6.151634 -1.01289,4.894393 -4.9263,8.832584 -9.47364,10.907934 -4.5509,2.07181 -9.67196,2.50742 -14.67267,2.42242 -1.71411,-0.0319 -3.4565495,-0.12395 -5.0856695,-0.66581 -1.63262,-0.5454 -3.15551,-1.59368 -3.93463,-3.12363 z"
       id="path88"
       inkscape:export-xdpi="35.220001"
       inkscape:export-ydpi="35.220001"
       sodipodi:nodetypes="cccccccccccccccccc" />
    <path
       inkscape:connector-curvature="0"
       style="display:inline;fill:#3f3d56;stroke-width:0.35415488"
       d="m 88.957235,125.83751 1.470626,-17.53836 a 2.2736745,2.2736745 0 0 0 -2.073463,-2.45301 l -3.822397,-0.32051 a 2.2736745,2.2736745 0 0 0 -2.453005,2.07346 l -1.470626,17.53836 a 2.2736745,2.2736745 0 0 0 2.073464,2.45302 l 3.822396,0.3205 a 2.2736745,2.2736745 0 0 0 2.453005,-2.07346 z"
       id="path90"
       inkscape:export-xdpi="35.220001"
       inkscape:export-ydpi="35.220001" />
    <path
       inkscape:connector-curvature="0"
       style="display:inline;fill:#d5e9f1;stroke-width:0.35415488"
       d="m 87.832127,106.70315 a 1.2253193,1.2253193 0 0 1 1.117358,1.3219 l -1.470625,17.53837 a 1.2253122,1.2253122 0 0 1 -1.321887,1.11735 l -3.822396,-0.3205 a 1.2253087,1.2253087 0 0 1 -1.117359,-1.3219 L 82.687843,107.5 a 1.2253087,1.2253087 0 0 1 1.321887,-1.11736 z"
       id="path92"
       inkscape:export-xdpi="35.220001"
       inkscape:export-ydpi="35.220001" />
    <path
       inkscape:connector-curvature="0"
       style="display:inline;fill:#f2d2c0;fill-opacity:1;stroke-width:0.35415488"
       d="m 81.387306,131.85529 -3.721385,-1.42016 2.161346,-8.27035 0.378685,-4.10011 a 3.0566083,3.0566083 0 0 1 4.79352,-2.22504 v 0 a 3.0566083,3.0566083 0 0 1 0.814126,4.17011 l -2.531015,3.89999 z"
       id="path94"
       inkscape:export-xdpi="35.220001"
       inkscape:export-ydpi="35.220001" />
    <path
       inkscape:connector-curvature="0"
       style="display:inline;fill:#deecdb;fill-opacity:1;stroke-width:0.35415488"
       d="m 77.519074,128.95797 4.961858,1.89353 -2.469844,11.59663 a 4.9414065,4.9414065 0 0 1 -3.218581,3.64091 v 0 a 4.9414102,4.9414102 0 0 1 -5.579413,-1.72119 L 60.079952,129.00899 a 5.0440442,5.0440442 0 0 1 0.940156,-6.98373 v 0 a 5.0440336,5.0440336 0 0 1 7.391607,1.31151 l 7.035822,11.7942 z"
       id="path96"
       inkscape:export-xdpi="35.220001"
       inkscape:export-ydpi="35.220001" />
    <path
       inkscape:connector-curvature="0"
       style="display:inline;opacity:0.2;stroke-width:0.35415488"
       d="m 81.554637,135.20071 -2.508016,10.18519 -0.520316,0.63329 a 4.0544681,4.0544681 0 0 1 -6.607199,-0.48416 l -7.94847,-13.21574 7.166269,9.91605 a 4.0544717,4.0544717 0 0 0 6.852009,-0.44526 z"
       id="path98"
       inkscape:export-xdpi="35.220001"
       inkscape:export-ydpi="35.220001" />
    <path
       inkscape:connector-curvature="0"
       style="display:inline;fill:#deecdb;fill-opacity:1;stroke-width:0.36070174"
       d="m 50.114048,106.3462 c -0.408006,-5.20994 1.32322,-10.798272 6.344784,-13.21658 2.896806,-1.173982 -0.791845,-0.596712 -1.460374,-0.369202 -0.391137,-0.130379 -8.209257,2.81266 -4.88441,13.585782 z"
       id="path62-7-8"
       sodipodi:nodetypes="cccc" />
  </g>
</svg>
