<!-- Created with Inkscape (http://www.inkscape.org/) -->
<svg width="135mm" height="164mm" version="1.1" viewBox="0 0 135 164" xmlns="http://www.w3.org/2000/svg"><g transform="translate(-31.3 -64.6)" stroke-width=".504"><ellipse transform="rotate(-21.2)" cx="-2.26" cy="122" rx="3.81" ry="2.65" fill="#e6e6e6"/><ellipse transform="rotate(-21.2)" cx="21.9" cy="128" rx="3.81" ry="2.65" fill="#3f3d56"/><ellipse transform="rotate(-21.2)" cx="-11.9" cy="141" rx="3.81" ry="2.65" fill="#fbe1db"/><ellipse transform="rotate(-13.3)" cx="-1.21" cy="149" rx="1.67" ry="2.41" fill="#e6e6e6"/><ellipse transform="rotate(-13.3)" cx="-4.97" cy="164" rx="1.67" ry="2.41" fill="#3f3d56"/><ellipse transform="rotate(-13.3)" cx="23.6" cy="138" rx="1.67" ry="2.41" fill="#e6e6e6"/><g fill="#3f3d56"><ellipse transform="rotate(-13.3)" cx="11.7" cy="132" rx="1.67" ry="2.41"/><ellipse transform="rotate(-13.3)" cx="28.4" cy="121" rx="1.67" ry="2.41"/><ellipse transform="rotate(-49.6)" cx="-129" cy="188" rx="2.65" ry="3.81"/></g><ellipse transform="rotate(-49.6)" cx="-123" cy="163" rx="2.65" ry="3.81" fill="#fbe1db"/><ellipse transform="rotate(-49.6)" cx="-110" cy="197" rx="2.65" ry="3.81" fill="#fbe1db"/><ellipse transform="rotate(-41.8)" cx="-74.2" cy="219" rx="2.41" ry="1.67" fill="#e6e6e6"/><ellipse transform="rotate(-41.8)" cx="-58.9" cy="223" rx="2.41" ry="1.67" fill="#3f3d56"/><ellipse transform="rotate(-41.8)" cx="-85.6" cy="194" rx="2.41" ry="1.67" fill="#e6e6e6"/><ellipse transform="rotate(-41.8)" cx="-91.7" cy="206" rx="2.41" ry="1.67" fill="#fbe1db"/><ellipse transform="rotate(-41.8)" cx="-103" cy="189" rx="2.41" ry="1.67" fill="#3f3d56"/><ellipse transform="rotate(-26.2)" cx="103" cy="150" rx="2.65" ry="3.81" fill="#e6e6e6"/><ellipse transform="rotate(-26.2)" cx="96.9" cy="174" rx="2.65" ry="3.81" fill="#3f3d56"/><ellipse transform="rotate(-26.2)" cx="84" cy="140" rx="2.65" ry="3.81" fill="#fbe1db"/><ellipse transform="rotate(-18.3)" cx="94.7" cy="119" rx="2.41" ry="1.67" fill="#e6e6e6"/><ellipse transform="rotate(-18.3)" cx="106" cy="144" rx="2.41" ry="1.67" fill="#e6e6e6"/><ellipse transform="rotate(-18.3)" cx="112" cy="132" rx="2.41" ry="1.67" fill="#fbe1db"/><ellipse transform="rotate(-18.3)" cx="123" cy="148" rx="2.41" ry="1.67" fill="#3f3d56"/></g><g transform="translate(3.11e-6 -19.2)"><g stroke-width=".181"><path d="m176 53.1a0.959 0.959 0 0 1-0.958-0.958 0.137 0.137 0 0 1 0.274 0 0.685 0.685 0 0 0 1.37 0 0.137 0.137 0 0 1 0.274 0 0.959 0.959 0 0 1-0.958 0.958z" fill="#fff"/><ellipse cx="177" cy="50.5" rx="1.1" ry=".421" fill="#fff"/><circle cx="182" cy="52.1" r="1.12" fill="#deecdb"/><circle cx="172" cy="52.1" r="1.12" fill="#deecdb"/></g><g fill="#3f3d56"><path d="m72 26.6s-12.2 0.241-15.2 0.985c-9.3 2.29-6.81 33.2 9.9 29.9 30.2 6.67 15.5-43.7 10.7-37.7-1.64 2.38-5.43 6.85-5.43 6.85z" stroke-width="1.14"/><path d="m64.6 26.8c6.9 8.4-15.6 15.2-11.9 4.55 0 0 2.61-15.3 6.07-11 1.77 2.25 5.8 6.45 5.8 6.45z" stroke-width="1.12"/><g stroke-width="1.29"><path d="m90.1 103c3.63-13.7 4.68-8.37 13.2-26.4 3.58-7.58 5.53-19.1 1.53-25.7-4-6.54-13.9-0.426-10.3 8 3.64 8.43-8.47 17.2-10.6 28.8-5.35 29.8-0.32 39.4 6.1 15.3z"/><path d="m41.4 93.7c-2.29-9.36-4.44-8.22-9.58-27.5 0 0-2.73-11.4 1.9-17.5 4.63-6.12 13.9 0.932 9.42 8.96-4.46 8.03 13.5 21.1 14.4 32.8 2.36 30.1-10.8 39.9-13.4 22.1 0 0-1.2-12.7-2.71-18.9z"/><path d="m61.5 132c2.61 16 3.67 7.36 14.5 33.5 0 0 1.15 11.5 7.67 16.2 6.52 4.71 13.1-4.21 6.11-10.8-6.99-6.58 0.713-58.2 1.14-70 0.956-26.5-32.5 12.4-29.4 31z"/><path d="m66 129c-1.52 16.1-4.92 17.3-8.47 35.6 0 0-0.375 11.5-6.56 16.6-6.19 5.06-13.4-3.5-6.83-10.4 6.53-6.94-6.76-37.6-4.51-49.2 5.77-29.6 28.1-11.3 26.4 7.44z"/></g><path d="m22.3 94s11.2-1.78 10.9-5.5c-0.141-1.39-1.35-2.34-2.8-2.98-3.25-1.37-6.69-1.03-9.19 0.913-5.53 4.14-13.3 14.3 7.35 31.8 5.74 4.78 11.4 9.45 18.2 11.5 0.839-10.5-27.9-26.1-24.4-35.7z" stroke-width=".717"/><path d="m57.4 56.2c-26.1 86.4-23.4 77.9 5.5 85.3 21.5 4.59 26.8-38.6 23.1-59-1.42-7.97-4.24-17.7-8.58-28.2-19.9-9.4-18.3-4.1-20.1 1.82z" stroke-width=".675"/></g></g></svg>
