<?xml version="1.0" encoding="UTF-8" standalone="no"?>
<!-- Created with Inkscape (http://www.inkscape.org/) -->

<svg
   xmlns:dc="http://purl.org/dc/elements/1.1/"
   xmlns:cc="http://creativecommons.org/ns#"
   xmlns:rdf="http://www.w3.org/1999/02/22-rdf-syntax-ns#"
   xmlns:svg="http://www.w3.org/2000/svg"
   xmlns="http://www.w3.org/2000/svg"
   xmlns:sodipodi="http://sodipodi.sourceforge.net/DTD/sodipodi-0.dtd"
   xmlns:inkscape="http://www.inkscape.org/namespaces/inkscape"
   width="135.33229mm"
   height="163.79839mm"
   viewBox="0 0 135.33229 163.79839"
   version="1.1"
   id="svg5290"
   inkscape:version="0.92.1 r15371"
   sodipodi:docname="gogogo_cat.svg"
   inkscape:export-filename="C:\Users\rapha\Documents\Maaind\Achmea\Avatar\gogogo_cat.png"
   inkscape:export-xdpi="35.220001"
   inkscape:export-ydpi="35.220001">
  <defs
     id="defs5284" />
  <sodipodi:namedview
     id="base"
     pagecolor="#ffffff"
     bordercolor="#666666"
     borderopacity="1.0"
     inkscape:pageopacity="0.0"
     inkscape:pageshadow="2"
     inkscape:zoom="1.0516678"
     inkscape:cx="184.71842"
     inkscape:cy="289.34109"
     inkscape:document-units="mm"
     inkscape:current-layer="layer6"
     showgrid="false"
     inkscape:window-width="1718"
     inkscape:window-height="1368"
     inkscape:window-x="1713"
     inkscape:window-y="0"
     inkscape:window-maximized="0" />
  <metadata
     id="metadata5287">
    <rdf:RDF>
      <cc:Work
         rdf:about="">
        <dc:format>image/svg+xml</dc:format>
        <dc:type
           rdf:resource="http://purl.org/dc/dcmitype/StillImage" />
        <dc:title></dc:title>
      </cc:Work>
    </rdf:RDF>
  </metadata>
  <g
     inkscape:groupmode="layer"
     id="layer2"
     inkscape:label="background"
     style="display:inline"
     transform="translate(-31.295297,-64.608181)">
    <ellipse
       style="fill:#e6e6e6;stroke-width:0.50369769"
       cx="-2.264569"
       cy="122.31077"
       rx="3.8062725"
       ry="2.6478434"
       transform="rotate(-21.16137)"
       id="ellipse14" />
    <ellipse
       style="fill:#3f3d56;stroke-width:0.50369769"
       cx="21.89699"
       cy="128.2684"
       rx="3.8062725"
       ry="2.6478384"
       transform="rotate(-21.16137)"
       id="ellipse16" />
    <ellipse
       style="fill:#fbe1db;fill-opacity:1;stroke-width:0.50369769"
       cx="-11.862981"
       cy="141.17661"
       rx="3.8062725"
       ry="2.6478434"
       transform="rotate(-21.16137)"
       id="ellipse18" />
    <ellipse
       style="fill:#e6e6e6;stroke-width:0.50369769"
       cx="-1.2089658"
       cy="149.08664"
       rx="1.673435"
       ry="2.4055645"
       transform="rotate(-13.31636)"
       id="ellipse20" />
    <ellipse
       style="fill:#3f3d56;stroke-width:0.50369769"
       cx="-4.9742064"
       cy="164.35669"
       rx="1.673435"
       ry="2.4055645"
       transform="rotate(-13.31636)"
       id="ellipse22" />
    <ellipse
       style="fill:#e6e6e6;stroke-width:0.50369769"
       cx="23.609505"
       cy="137.64845"
       rx="1.673435"
       ry="2.4055645"
       transform="rotate(-13.31636)"
       id="ellipse24" />
    <ellipse
       style="fill:#3f3d56;fill-opacity:1;stroke-width:0.50369769"
       cx="11.686287"
       cy="131.58224"
       rx="1.673435"
       ry="2.4055645"
       transform="rotate(-13.31636)"
       id="ellipse26" />
    <ellipse
       style="fill:#3f3d56;stroke-width:0.50369769"
       cx="28.430244"
       cy="120.66357"
       rx="1.673435"
       ry="2.4055645"
       transform="rotate(-13.31636)"
       id="ellipse28" />
    <ellipse
       style="fill:#3f3d56;fill-opacity:1;stroke-width:0.50369769"
       cx="-128.6358"
       cy="187.66125"
       rx="2.6478434"
       ry="3.8062725"
       transform="rotate(-49.59538)"
       id="ellipse30" />
    <ellipse
       style="fill:#fbe1db;fill-opacity:1;stroke-width:0.50369769"
       cx="-122.67818"
       cy="163.49969"
       rx="2.6478384"
       ry="3.8062725"
       transform="rotate(-49.59538)"
       id="ellipse32" />
    <ellipse
       style="fill:#fbe1db;fill-opacity:1;stroke-width:0.50369769"
       cx="-109.76991"
       cy="197.25967"
       rx="2.6478434"
       ry="3.8062725"
       transform="rotate(-49.59538)"
       id="ellipse34" />
    <ellipse
       style="fill:#e6e6e6;stroke-width:0.50369769"
       cx="-74.205612"
       cy="219.12303"
       rx="2.4055645"
       ry="1.673435"
       transform="rotate(-41.75038)"
       id="ellipse36" />
    <ellipse
       style="fill:#3f3d56;stroke-width:0.50369769"
       cx="-58.935524"
       cy="222.88823"
       rx="2.4055645"
       ry="1.673435"
       transform="rotate(-41.75038)"
       id="ellipse38" />
    <ellipse
       style="fill:#e6e6e6;stroke-width:0.50369769"
       cx="-85.643768"
       cy="194.30455"
       rx="2.4055645"
       ry="1.673435"
       transform="rotate(-41.75038)"
       id="ellipse40" />
    <ellipse
       style="fill:#fbe1db;fill-opacity:1;stroke-width:0.50369769"
       cx="-91.709961"
       cy="206.22778"
       rx="2.4055645"
       ry="1.673435"
       transform="rotate(-41.75038)"
       id="ellipse42" />
    <ellipse
       style="fill:#3f3d56;fill-opacity:1;stroke-width:0.50369769"
       cx="-102.62859"
       cy="189.48381"
       rx="2.4055645"
       ry="1.673435"
       transform="rotate(-41.75038)"
       id="ellipse44" />
    <ellipse
       style="fill:#e6e6e6;stroke-width:0.50369769"
       cx="102.8183"
       cy="149.86198"
       rx="2.6478434"
       ry="3.8062725"
       transform="rotate(-26.18799)"
       id="ellipse46" />
    <ellipse
       style="fill:#3f3d56;stroke-width:0.50369769"
       cx="96.860703"
       cy="174.02357"
       rx="2.6478384"
       ry="3.8062725"
       transform="rotate(-26.18799)"
       id="ellipse48" />
    <ellipse
       style="fill:#fbe1db;fill-opacity:1;stroke-width:0.50369769"
       cx="83.952545"
       cy="140.26335"
       rx="2.6478434"
       ry="3.8062725"
       transform="rotate(-26.18799)"
       id="ellipse50" />
    <ellipse
       style="fill:#e6e6e6;stroke-width:0.50369769"
       cx="94.699516"
       cy="118.76494"
       rx="2.4055645"
       ry="1.673435"
       transform="rotate(-18.34298)"
       id="ellipse52" />
    <ellipse
       style="fill:#3f3d56;stroke-width:0.50369769"
       cx="79.42942"
       cy="114.99973"
       rx="2.4055645"
       ry="1.673435"
       transform="rotate(-18.34298)"
       id="ellipse54" />
    <ellipse
       style="fill:#e6e6e6;stroke-width:0.50369769"
       cx="106.13757"
       cy="143.58321"
       rx="2.4055645"
       ry="1.673435"
       transform="rotate(-18.34298)"
       id="ellipse56" />
    <ellipse
       style="fill:#fbe1db;fill-opacity:1;stroke-width:0.50369769"
       cx="112.20377"
       cy="131.66011"
       rx="2.4055645"
       ry="1.673435"
       transform="rotate(-18.34298)"
       id="ellipse58" />
    <ellipse
       style="fill:#3f3d56;stroke-width:0.50369769"
       cx="123.12245"
       cy="148.40388"
       rx="2.4055645"
       ry="1.673435"
       transform="rotate(-18.34298)"
       id="ellipse60" />
  </g>
  <g
     inkscape:groupmode="layer"
     id="layer6"
     inkscape:label="gogogo"
     style="display:inline"
     transform="translate(3.1050814e-6,-19.235394)">
    <path
       inkscape:connector-curvature="0"
       style="display:inline;fill:#ffffff;stroke-width:0.18053506"
       d="m 176.47713,53.129877 a 0.95939038,0.95939038 0 0 1 -0.95831,-0.958306 0.13690206,0.13690206 0 0 1 0.2738,0 0.68451031,0.68451031 0 0 0 1.36902,0 0.13690155,0.13690155 0 0 1 0.2738,0 0.95938679,0.95938679 0 0 1 -0.95831,0.958306 z"
       id="path36-6-6" />
    <ellipse
       style="display:inline;fill:#ffffff;stroke-width:0.18053506"
       cx="176.54562"
       cy="50.460297"
       rx="1.0952106"
       ry="0.42123523"
       id="ellipse38-0" />
    <circle
       style="display:inline;fill:#deecdb;fill-opacity:1;stroke-width:0.18053506"
       cx="181.8847"
       cy="52.0742"
       id="circle48-7"
       r="1.1187471" />
    <circle
       style="display:inline;fill:#deecdb;fill-opacity:1;stroke-width:0.18053506"
       cx="171.77475"
       cy="52.0742"
       id="circle50-2"
       r="1.1187471" />
    <path
       inkscape:connector-curvature="0"
       style="display:inline;fill:#3f3d56;stroke-width:1.14153922"
       d="m 71.995158,26.578464 c 0,0 -12.188602,0.241222 -15.208387,0.984617 -9.296051,2.288455 -6.808719,33.242571 9.902972,29.895158 30.155661,6.670374 15.47544,-43.676246 10.733179,-37.734255 -1.640578,2.383529 -5.427764,6.854467 -5.427764,6.854467 z"
       id="path48-7-6-7"
       sodipodi:nodetypes="cscccc" />
    <path
       inkscape:connector-curvature="0"
       style="display:inline;fill:#3f3d56;stroke-width:1.12284756"
       d="m 64.591235,26.774459 c 6.898456,8.404188 -15.570198,15.205129 -11.867832,4.545107 0,0 2.608822,-15.280941 6.072385,-10.992594 1.772923,2.254851 5.795447,6.447487 5.795447,6.447487 z"
       id="path48-7-6-0"
       sodipodi:nodetypes="cccc" />
    <path
       sodipodi:nodetypes="ssscss"
       id="path48-7-8-6"
       d="m 90.119093,103.12578 c 3.632489,-13.65828 4.678532,-8.371835 13.193387,-26.405044 3.58078,-7.583531 5.53149,-19.138548 1.529,-25.677617 -4.00246,-6.539222 -13.907094,-0.426206 -10.263904,8.003158 3.643215,8.429252 -8.467756,17.18027 -10.554499,28.791453 -5.347973,29.75748 -0.31958,39.41096 6.096016,15.28805 z"
       style="display:inline;fill:#3f3d56;stroke-width:1.28548813"
       inkscape:connector-curvature="0" />
    <path
       sodipodi:nodetypes="scscsss"
       id="path48-7-8-6-3"
       d="m 41.42288,93.738957 c -2.286747,-9.358183 -4.435885,-8.219967 -9.576499,-27.501888 0,0 -2.732549,-11.370879 1.901436,-17.486716 4.633925,-6.116005 13.884625,0.931642 9.42033,8.963246 -4.464298,8.03149 13.45944,21.062037 14.381992,32.817943 2.364421,30.128398 -10.849209,39.889268 -13.413147,22.070208 0,0 -1.196797,-12.653409 -2.714112,-18.862793 z"
       style="display:inline;fill:#3f3d56;stroke-width:1.28548813"
       inkscape:connector-curvature="0" />
    <path
       sodipodi:nodetypes="scscss"
       id="path48-7-8-6-7"
       d="m 61.469246,131.92793 c 2.609016,16.02204 3.669733,7.36003 14.512159,33.53157 0,0 1.154984,11.48344 7.672991,16.1976 6.518004,4.7143 13.103057,-4.21353 6.109624,-10.79277 -6.993402,-6.57912 0.712983,-58.24007 1.136123,-69.96721 0.956039,-26.496213 -32.459628,12.431 -29.430897,31.03081 z"
       style="display:inline;fill:#3f3d56;stroke-width:1.28548813"
       inkscape:connector-curvature="0" />
    <path
       sodipodi:nodetypes="scscss"
       id="path48-7-8-6-7-7"
       d="m 66.007703,129.32619 c -1.519064,16.13363 -4.915779,17.3018 -8.467583,35.5989 0,0 -0.375094,11.52479 -6.561876,16.58238 -6.186767,5.05776 -13.364446,-3.49805 -6.829435,-10.44299 6.534994,-6.9448 -6.762274,-37.62129 -4.508942,-49.18068 5.774841,-29.624724 28.131253,-11.287 26.367836,7.44239 z"
       style="display:inline;fill:#3f3d56;stroke-width:1.28548813"
       inkscape:connector-curvature="0" />
    <path
       sodipodi:nodetypes="ccccccc"
       id="path48-7-7"
       d="m 22.283491,94.014459 c 0,0 11.246132,-1.779214 10.87039,-5.498138 -0.140894,-1.394581 -1.345992,-2.341789 -2.79733,-2.98111 -3.252365,-1.368556 -6.688993,-1.026964 -9.186663,0.913065 -5.529661,4.137415 -13.3108835,14.293934 7.345185,31.761654 5.737738,4.78497 11.434205,9.44687 18.182825,11.47603 C 47.536835,119.1812 18.782724,103.57414 22.283491,94.014459 Z"
       style="display:inline;fill:#3f3d56;stroke-width:0.71742982"
       inkscape:connector-curvature="0" />
    <path
       sodipodi:nodetypes="scscs"
       id="path48-7-78"
       d="M 57.43903,56.232907 C 31.330816,142.63449 33.990952,134.09847 62.941973,141.54847 84.471656,146.14228 89.720862,102.9662 86.075912,82.565791 84.652749,74.600487 81.837846,64.912331 77.493128,54.408436 57.628781,45.01342 59.229577,50.30734 57.43903,56.232907 Z"
       style="display:inline;fill:#3f3d56;stroke-width:0.67527056"
       inkscape:connector-curvature="0" />
    <path
       inkscape:connector-curvature="0"
       style="display:inline;fill:#ffffff;stroke-width:0.33425626"
       d="m 69.098953,49.97955 a 1.7762879,1.7762879 0 0 1 -1.774289,-1.774285 0.25346987,0.25346987 0 0 1 0.506933,0 1.267346,1.267346 0 0 0 2.534689,0 0.25346987,0.25346987 0 0 1 0.506932,0 1.7762812,1.7762812 0 0 1 -1.774265,1.774285 z"
       id="path36" />
    <ellipse
       style="display:inline;fill:#fbe1db;fill-opacity:1;stroke-width:0.35811415"
       cx="69.114708"
       cy="45.267059"
       rx="2.1724882"
       ry="1.3750167"
       id="ellipse38-0-6-7" />
    <circle
       style="display:inline;fill:#fbe1db;fill-opacity:1;stroke-width:0.29952884"
       cx="76.614014"
       cy="45.608002"
       r="1.8561323"
       id="circle48" />
    <circle
       style="display:inline;fill:#fbe1db;fill-opacity:1;stroke-width:0.29952884"
       cx="61.302105"
       cy="45.608002"
       id="circle50"
       r="1.8561323" />
    <path
       inkscape:connector-curvature="0"
       style="display:inline;fill:#ffffff;stroke-width:0.22791152"
       d="m 58.161236,44.440568 a 4.2155538,4.2155538 0 0 1 6.470697,0 4.6854458,4.6854458 0 1 0 -6.624436,-0.153741 q 0.07498,0.07866 0.153663,0.153741 z"
       id="path40-8-1" />
    <path
       inkscape:connector-curvature="0"
       style="display:inline;fill:#ffffff;stroke-width:0.22791152"
       d="m 73.232626,44.440568 a 4.2155241,4.2155241 0 0 1 6.47071,0 4.6854412,4.6854412 0 1 0 -6.624436,-0.153763 v 0 0 q 0.07498,0.07866 0.153637,0.153763 z"
       id="path42-0-3" />
    <circle
       style="display:inline;fill:#3f3d56;stroke-width:0.22791152"
       cx="59.798283"
       cy="39.2281"
       id="circle44-94"
       r="1.6117446" />
    <circle
       style="display:inline;fill:#3f3d56;stroke-width:0.22791152"
       cx="74.869232"
       cy="39.2281"
       id="circle46-3"
       r="1.6117446" />
  </g>
</svg>
