<?xml version="1.0" encoding="UTF-8" standalone="no"?>
<!-- Created with Inkscape (http://www.inkscape.org/) -->

<svg
   xmlns:dc="http://purl.org/dc/elements/1.1/"
   xmlns:cc="http://creativecommons.org/ns#"
   xmlns:rdf="http://www.w3.org/1999/02/22-rdf-syntax-ns#"
   xmlns:svg="http://www.w3.org/2000/svg"
   xmlns="http://www.w3.org/2000/svg"
   xmlns:sodipodi="http://sodipodi.sourceforge.net/DTD/sodipodi-0.dtd"
   xmlns:inkscape="http://www.inkscape.org/namespaces/inkscape"
   width="212.96869mm"
   height="212.96869mm"
   viewBox="0 0 212.96868 212.96869"
   version="1.1"
   id="svg5290"
   inkscape:version="0.92.4 (5da689c313, 2019-01-14)"
   sodipodi:docname="gogogo_female.svg"
   inkscape:export-filename="C:\Users\rapha\Documents\Maaind\Achmea\Avatar\gogogo_female.png"
   inkscape:export-xdpi="35.220001"
   inkscape:export-ydpi="35.220001">
  <defs
     id="defs5284" />
  <sodipodi:namedview
     id="base"
     pagecolor="#ffffff"
     bordercolor="#666666"
     borderopacity="1.0"
     inkscape:pageopacity="0.0"
     inkscape:pageshadow="2"
     inkscape:zoom="0.74364143"
     inkscape:cx="93.300542"
     inkscape:cy="295.68183"
     inkscape:document-units="mm"
     inkscape:current-layer="layer2"
     showgrid="false"
     inkscape:window-width="1718"
     inkscape:window-height="1080"
     inkscape:window-x="276"
     inkscape:window-y="111"
     inkscape:window-maximized="0" />
  <metadata
     id="metadata5287">
    <rdf:RDF>
      <cc:Work
         rdf:about="">
        <dc:format>image/svg+xml</dc:format>
        <dc:type
           rdf:resource="http://purl.org/dc/dcmitype/StillImage" />
        <dc:title></dc:title>
      </cc:Work>
    </rdf:RDF>
  </metadata>
  <g
     inkscape:groupmode="layer"
     id="layer2"
     inkscape:label="background"
     style="display:inline"
     transform="translate(-31.2953,-45.372785)">
    <ellipse
       style="fill:#e6e6e6;stroke-width:0.50369769"
       cx="40.700413"
       cy="124.18909"
       rx="3.8062725"
       ry="2.6478434"
       transform="rotate(-21.16137)"
       id="ellipse14" />
    <ellipse
       style="fill:#3f3d56;stroke-width:0.50369769"
       cx="64.861984"
       cy="130.14673"
       rx="3.8062725"
       ry="2.6478384"
       transform="rotate(-21.16137)"
       id="ellipse16" />
    <ellipse
       style="fill:#fbe1db;fill-opacity:1;stroke-width:0.50369769"
       cx="31.101978"
       cy="143.05492"
       rx="3.8062725"
       ry="2.6478434"
       transform="rotate(-21.16137)"
       id="ellipse18" />
    <ellipse
       style="fill:#e6e6e6;stroke-width:0.50369769"
       cx="41.610233"
       cy="145.08356"
       rx="1.673435"
       ry="2.4055645"
       transform="rotate(-13.31636)"
       id="ellipse20" />
    <ellipse
       style="fill:#3f3d56;stroke-width:0.50369769"
       cx="37.844997"
       cy="160.35361"
       rx="1.673435"
       ry="2.4055645"
       transform="rotate(-13.31636)"
       id="ellipse22" />
    <ellipse
       style="fill:#e6e6e6;stroke-width:0.50369769"
       cx="66.42868"
       cy="133.64514"
       rx="1.673435"
       ry="2.4055645"
       transform="rotate(-13.31636)"
       id="ellipse24" />
    <ellipse
       style="fill:#3f3d56;fill-opacity:1;stroke-width:0.50369769"
       cx="54.505463"
       cy="127.5786"
       rx="1.673435"
       ry="2.4055645"
       transform="rotate(-13.31636)"
       id="ellipse26" />
    <ellipse
       style="fill:#3f3d56;stroke-width:0.50369769"
       cx="71.24942"
       cy="116.65992"
       rx="1.673435"
       ry="2.4055645"
       transform="rotate(-13.31636)"
       id="ellipse28" />
    <ellipse
       style="fill:#3f3d56;fill-opacity:1;stroke-width:0.50369769"
       cx="-91.748322"
       cy="209.77066"
       rx="2.6478434"
       ry="3.8062725"
       transform="rotate(-49.59538)"
       id="ellipse30" />
    <ellipse
       style="fill:#fbe1db;fill-opacity:1;stroke-width:0.50369769"
       cx="-85.790695"
       cy="185.6091"
       rx="2.6478384"
       ry="3.8062725"
       transform="rotate(-49.59538)"
       id="ellipse32" />
    <ellipse
       style="fill:#fbe1db;fill-opacity:1;stroke-width:0.50369769"
       cx="-72.882462"
       cy="219.36908"
       rx="2.6478434"
       ry="3.8062725"
       transform="rotate(-49.59538)"
       id="ellipse34" />
    <ellipse
       style="fill:#e6e6e6;stroke-width:0.50369769"
       cx="-34.64558"
       cy="235.99106"
       rx="2.4055645"
       ry="1.673435"
       transform="rotate(-41.75038)"
       id="ellipse36" />
    <ellipse
       style="fill:#3f3d56;stroke-width:0.50369769"
       cx="-19.375484"
       cy="239.75626"
       rx="2.4055645"
       ry="1.673435"
       transform="rotate(-41.75038)"
       id="ellipse38" />
    <ellipse
       style="fill:#e6e6e6;stroke-width:0.50369769"
       cx="-46.083847"
       cy="211.17258"
       rx="2.4055645"
       ry="1.673435"
       transform="rotate(-41.75038)"
       id="ellipse40" />
    <ellipse
       style="fill:#fbe1db;fill-opacity:1;stroke-width:0.50369769"
       cx="-52.150097"
       cy="223.09581"
       rx="2.4055645"
       ry="1.673435"
       transform="rotate(-41.75038)"
       id="ellipse42" />
    <ellipse
       style="fill:#3f3d56;fill-opacity:1;stroke-width:0.50369769"
       cx="-63.068844"
       cy="206.35184"
       rx="2.4055645"
       ry="1.673435"
       transform="rotate(-41.75038)"
       id="ellipse44" />
    <ellipse
       style="fill:#e6e6e6;stroke-width:0.50369769"
       cx="145.45337"
       cy="155.49805"
       rx="2.6478434"
       ry="3.8062725"
       transform="rotate(-26.18799)"
       id="ellipse46" />
    <ellipse
       style="fill:#3f3d56;stroke-width:0.50369769"
       cx="139.49567"
       cy="179.65964"
       rx="2.6478384"
       ry="3.8062725"
       transform="rotate(-26.18799)"
       id="ellipse48" />
    <ellipse
       style="fill:#fbe1db;fill-opacity:1;stroke-width:0.50369769"
       cx="126.58727"
       cy="145.89941"
       rx="2.6478434"
       ry="3.8062725"
       transform="rotate(-26.18799)"
       id="ellipse50" />
    <ellipse
       style="fill:#e6e6e6;stroke-width:0.50369769"
       cx="137.70485"
       cy="118.52894"
       rx="2.4055645"
       ry="1.673435"
       transform="rotate(-18.34298)"
       id="ellipse52" />
    <ellipse
       style="fill:#3f3d56;stroke-width:0.50369769"
       cx="122.43488"
       cy="114.76373"
       rx="2.4055645"
       ry="1.673435"
       transform="rotate(-18.34298)"
       id="ellipse54" />
    <ellipse
       style="fill:#e6e6e6;stroke-width:0.50369769"
       cx="149.14279"
       cy="143.34724"
       rx="2.4055645"
       ry="1.673435"
       transform="rotate(-18.34298)"
       id="ellipse56" />
    <ellipse
       style="fill:#fbe1db;fill-opacity:1;stroke-width:0.50369769"
       cx="155.20892"
       cy="131.42412"
       rx="2.4055645"
       ry="1.673435"
       transform="rotate(-18.34298)"
       id="ellipse58" />
    <ellipse
       style="fill:#3f3d56;stroke-width:0.50369769"
       cx="166.12747"
       cy="148.16792"
       rx="2.4055645"
       ry="1.673435"
       transform="rotate(-18.34298)"
       id="ellipse60" />
  </g>
  <g
     inkscape:groupmode="layer"
     id="layer3"
     inkscape:label="gogogo"
     style="display:inline"
     transform="translate(-31.2953,-45.372785)">
    <path
       inkscape:connector-curvature="0"
       style="display:inline;fill:#cf5c1b;fill-opacity:1;stroke-width:0.38710576"
       d="m 121.37423,54.421653 c -4.28718,-1.965714 -9.66639,-1.043341 -13.23611,2.039 -3.56975,3.082352 -5.26683,8.098939 -4.57766,12.76464 0.70299,4.759734 3.59662,8.858479 6.26386,12.862856 2.6673,4.004341 5.27308,8.392245 5.2701,13.203602 a 13.088509,13.088509 0 0 1 -13.06259,13.080459 c 4.0672,1.75093 8.3123,3.53621 12.73554,3.32862 4.42328,-0.20752 9.05946,-3.05108 9.78099,-7.41999 0.51988,-3.14797 -1.02456,-6.217639 -2.31268,-9.136669 A 64.628462,64.628462 0 0 1 117.7189,80.275725 c -0.43021,-2.443542 -0.71034,-5.01244 0.0863,-7.362202 a 8.6451123,8.6451123 0 0 1 8.58829,-5.6732 l 1.46151,-1.314859 c 0.65014,-4.671326 -2.1936,-9.538109 -6.48079,-11.503811 z"
       id="path34" />
    <circle
       style="display:inline;fill:#cf5c1b;fill-opacity:1;stroke-width:0.30605856"
       cx="127.35764"
       cy="68.683052"
       r="4.9017754"
       id="circle26" />
    <path
       inkscape:connector-curvature="0"
       style="display:inline;fill:#2f2e41;stroke-width:0.48489404"
       d="m 133.18058,67.713221 a 5.8261911,5.8261911 0 0 0 -0.47585,-0.53274 c 0.0414,-0.0568 0.0828,-0.11894 0.12407,-0.17576 z"
       id="path30-5" />
    <polygon
       transform="matrix(0.48489404,0,0,0.48489404,89.358829,-40.646496)"
       style="display:inline;fill:#9e616a;fill-opacity:1"
       points="48.53,540.646 19.519,578.195 29.254,585.716 62.898,551.747 "
       id="polygon34-7" />
    <path
       inkscape:connector-curvature="0"
       style="display:inline;fill:#2f2e41;stroke-width:0.48489404"
       d="m 99.024296,236.15316 7.805854,5.32026 -2.47025,3.19691 3.30832,10.38093 a 2.5235923,2.5235923 0 0 1 -3.9475,2.76341 l -8.88343,-6.86415 0.912257,-4.34537 -3.041288,2.70026 -3.34941,-2.58808 z"
       id="path36-58" />
    <path
       inkscape:connector-curvature="0"
       style="display:inline;fill:#9e616a;fill-opacity:1;stroke-width:0.48489404"
       d="m 186.99237,71.115971 a 4.1271126,4.1271126 0 0 1 -4.46929,4.48042 l -27.90003,25.190809 -4.80126,-7.582999 28.93456,-22.37731 a 4.1494662,4.1494662 0 0 1 8.23602,0.28906 z"
       id="path40-1" />
    <path
       inkscape:connector-curvature="0"
       style="display:inline;fill:#fbe1db;fill-opacity:1;stroke-width:0.48489404"
       d="m 142.69901,108.39078 c 0,0 1.03809,1.91727 4.58403,-1.04317 2.83883,-2.37004 16.43931,-12.659309 19.36934,-16.875629 a 3.2421909,3.2421909 0 0 0 3.81717,-1.10838 l -8.02802,-7.03079 c -2.402,0.27652 -2.35051,1.89011 -2.10037,2.80624 l -6.05567,2.74366 -15.63765,9.99353 3.2762,9.141999 z"
       id="path42-6" />
    <polygon
       transform="matrix(0.48489404,0,0,0.48489404,89.358829,-40.646496)"
       style="display:inline;fill:#9e616a;fill-opacity:1"
       points="115.845,333.432 78.761,343.789 77.555,349.532 76.531,370.716 121.615,373.194 120.215,340.612 "
       id="polygon44-3" />
    <circle
       style="display:inline;fill:#9e616a;fill-opacity:1;stroke-width:0.48489404"
       cx="136.81448"
       cy="79.508873"
       id="circle46-9"
       r="9.4478989" />
    <path
       inkscape:connector-curvature="0"
       style="display:inline;fill:#fbe1db;fill-opacity:1;stroke-width:0.48489404"
       d="m 120.04109,114.35702 -0.0581,-7.85349 a 12.498707,12.498707 0 0 1 9.67938,-12.182469 l 0.0357,-0.009 1.86822,-2.51721 7.59022,0.75928 1.3912,2.84325 5.49997,3.27493 2.11755,6.807259 a 8.0502596,8.0502596 0 0 1 3.47871,5.39145 c 0.71894,4.59219 -2.49636,9.18704 -2.87882,9.71389 l -0.98543,5.5499 -21.43733,3.78244 -0.17411,0.022 z"
       id="path48-6" />
    <path
       inkscape:connector-curvature="0"
       style="display:inline;fill:#2f2e41;stroke-width:0.48489404"
       d="m 148.37607,77.824541 a 32.210597,32.210597 0 0 1 -3.42392,1.88777 19.702132,19.702132 0 0 1 -3.73419,1.34995 12.906381,12.906381 0 0 0 -1.34474,-2.2912 8.3324679,8.3324679 0 0 1 0.011,2.56011 13.338155,13.338155 0 0 1 -6.36682,-0.52235 l -1.77919,-2.98427 -0.13451,3.33079 c -1.47403,0.26896 -2.94291,0.52238 -4.41693,0.78616 -0.088,0.011 -0.17576,0.031 -0.25859,0.0465 -0.9155,-4.12726 0.38271,-8.67351 3.26873,-11.42501 a 10.398553,10.398553 0 0 1 10.9234,-2.12055 c 0.23275,0.0931 0.47065,0.19654 0.69821,0.30516 a 0.00507199,0.00507199 0 0 0 0.005,0.006 c 0.13453,0.0673 0.24828,0.22755 0.39827,0.21204 6.45469,-0.71896 6.6616,4.28757 6.15474,8.85966 z"
       id="path50-3" />
    <polygon
       transform="matrix(0.48489404,0,0,0.48489404,89.358829,-40.646496)"
       style="display:inline;fill:#9e616a;fill-opacity:1"
       points="118.233,515.464 89.297,553.071 99.047,560.572 132.623,526.535 "
       id="polygon52-60" />
    <path
       inkscape:connector-curvature="0"
       style="display:inline;fill:#2f2e41;stroke-width:0.48489404"
       d="m 133.2809,224.29988 7.81659,5.30446 -2.46378,3.2019 3.32924,10.37423 a 2.5235923,2.5235923 0 0 1 -3.94189,2.77133 l -8.8973,-6.84621 0.90348,-4.34721 -3.03586,2.70642 -3.35465,-2.5813 z"
       id="path54-0" />
    <path
       inkscape:connector-curvature="0"
       style="display:inline;fill:#2f2e41;stroke-width:0.48489404"
       d="m 117.31728,207.39102 -2.2e-4,-0.0616 2.24066,-3.86116 -2.28798,-5.02614 -0.0687,-12.91308 0.37089,-1.9385 a 16.307816,16.307816 0 0 0 -0.42283,-7.83515 v 0 l -0.0418,-7.86016 c -0.0805,-1.96904 2.96999,-3.70083 2.25866,-5.34238 -6.72369,-15.51611 6.86592,-27.35279 6.95772,-27.44779 l 0.27772,-0.28873 1.50676,1.14123 1.43412,0.002 19.35308,3.52644 0.13965,0.26055 c 0.76119,1.42774 2.23021,6.34896 2.31736,8.57596 0.96452,1.11658 11.95119,13.82985 12.92782,14.71315 6.59982,5.97155 10.37845,15.8553 12.04342,21.21549 a 8.5121647,8.5121647 0 0 1 -1.45767,7.82744 l -24.98497,27.3668 -6.72364,-6.20645 13.51912,-24.63508 -0.97486,-2.49944 a 7.6821763,7.6821763 0 0 1 -4.47888,-2.60198 l -2.73753,-3.24951 a 6.0752762,6.0752762 0 0 1 -1.3866,-3.16007 l -1.66013,-0.19981 -5.94669,-6.2435 -4.12569,37.36211 -1.12166,2.95146 -19.53344,22.96386 -8.27531,-5.17203 z"
       id="path56-8" />
    <path
       inkscape:connector-curvature="0"
       style="display:inline;fill:#9e616a;fill-opacity:1;stroke-width:0.48489404"
       d="m 114.33419,46.962481 a 4.1271079,4.1271079 0 0 0 1.27209,6.19924 l -6.21124,18.38815 5.07182,19.48661 8.17832,-3.69729 -5.04665,-14.6982 3.77571,-21.39434 a 4.1494662,4.1494662 0 0 0 -7.04005,-4.28417 z"
       id="path58-3" />
    <path
       inkscape:connector-curvature="0"
       style="display:inline;fill:#fbe1db;fill-opacity:1;stroke-width:0.48489404"
       d="m 121.82026,107.09233 c 0,0 -1.92086,1.03145 -3.25675,-3.39047 -1.06948,-3.54008 -8.34775,-22.761049 -8.4789,-27.893789 a 3.2422005,3.2422005 0 0 1 -2.58021,-3.02358 l 10.57085,-1.46286 c 1.85492,1.55092 0.92522,2.87079 0.21282,3.49876 l 3.60036,6.09846 7.5253,16.46382 -6.19177,8.988729 z"
       id="path60-2" />
    <path
       inkscape:connector-curvature="0"
       style="display:inline;fill:#fbe1db;fill-opacity:1;stroke-width:0.48489404"
       d="m 127.18401,81.940621 a 19.218174,19.218174 0 0 1 14.796,-12.85796 c 0.0128,-0.004 0.0586,-0.0225 0.1171,-0.0495 0.0361,-0.0225 0.0812,-0.0451 0.12609,-0.0676 -0.13525,-0.0766 -0.26588,-0.14423 -0.40113,-0.21188 a 0.00441254,0.00441254 0 0 1 -0.004,-0.004 c -0.11712,-0.10814 -0.23437,-0.21633 -0.35606,-0.31998 l -0.34253,0.0128 c 0,0 -12.03776,-1.90636 -13.93516,13.49789 z"
       id="path62-6" />
    <path
       inkscape:connector-curvature="0"
       style="display:inline;fill:#2f2e41;stroke-width:0.48489407"
       d="m 133.18057,67.713221 a 5.8261911,5.8261911 0 0 0 -0.47585,-0.53274 c 0.0414,-0.0568 0.0828,-0.11894 0.12407,-0.17576 z"
       id="path30-4-9" />
    <polygon
       transform="matrix(0.48489404,0,0,0.48489404,89.358808,-40.646493)"
       style="display:inline;fill:#f2d2c0;fill-opacity:1"
       points="19.519,578.195 29.254,585.716 62.898,551.747 48.53,540.646 "
       id="polygon34-3-6" />
    <path
       inkscape:connector-curvature="0"
       style="display:inline;fill:#2f2e41;stroke-width:0.48489407"
       d="m 99.024276,236.15318 7.805854,5.32026 -2.47025,3.19691 3.30832,10.38091 a 2.5235923,2.5235923 0 0 1 -3.9475,2.76342 l -8.88343,-6.86416 0.912257,-4.34536 -3.041298,2.70025 -3.3494,-2.58807 z"
       id="path36-5-5" />
    <path
       inkscape:connector-curvature="0"
       style="display:inline;fill:#cf5c1b;fill-opacity:1;stroke-width:0.48489407"
       d="m 122.24263,76.902031 a 11.267041,11.267041 0 1 0 19.37943,-7.81486 l -0.0541,-0.0541 c -0.0902,-0.0948 -0.18034,-0.18932 -0.27494,-0.27948 a 0.00441254,0.00441254 0 0 1 -0.004,-0.004 c -0.11711,-0.10813 -0.23436,-0.21631 -0.35605,-0.31997 -1.983,-1.73961 -4.77011,-3.62782 -7.61394,-3.62782 -6.22394,0 -11.07592,5.87673 -11.07592,12.10066 z"
       id="path38-1-7" />
    <path
       inkscape:connector-curvature="0"
       style="display:inline;fill:#f2d2c0;fill-opacity:1;stroke-width:0.48489407"
       d="m 186.99235,71.115971 a 4.1271126,4.1271126 0 0 1 -4.46928,4.48042 l -27.90003,25.190809 -4.80127,-7.582999 28.93457,-22.37731 a 4.1494662,4.1494662 0 0 1 8.23601,0.28906 z"
       id="path40-4-4" />
    <path
       inkscape:connector-curvature="0"
       style="display:inline;fill:#fbe1db;fill-opacity:1;stroke-width:0.48489407"
       d="m 142.699,108.39078 c 0,0 1.03809,1.91727 4.58403,-1.04317 2.83882,-2.37004 16.4393,-12.659309 19.36934,-16.875629 a 3.2421909,3.2421909 0 0 0 3.81715,-1.10838 l -8.028,-7.03079 c -2.40201,0.27652 -2.35053,1.89011 -2.10037,2.80624 l -6.05567,2.74366 -15.63765,9.99353 3.2762,9.141999 z"
       id="path42-8-2" />
    <polygon
       transform="matrix(0.48489404,0,0,0.48489404,89.358808,-40.646493)"
       style="display:inline;fill:#f2d2c0;fill-opacity:1"
       points="120.215,340.612 115.845,333.432 78.761,343.789 77.555,349.532 76.531,370.716 121.615,373.194 "
       id="polygon44-1-1" />
    <circle
       style="display:inline;fill:#f2d2c0;fill-opacity:1;stroke-width:0.48489407"
       cx="136.81442"
       cy="79.508873"
       id="circle46-8-1"
       r="9.4478989" />
    <path
       inkscape:connector-curvature="0"
       style="display:inline;fill:#fbe1db;fill-opacity:1;stroke-width:0.48489407"
       d="m 120.04108,114.35702 -0.0581,-7.85349 a 12.498707,12.498707 0 0 1 9.67937,-12.182469 l 0.0357,-0.009 1.86822,-2.51721 7.59022,0.75928 1.39119,2.84326 5.49997,3.27493 2.11755,6.807249 a 8.0502596,8.0502596 0 0 1 3.47871,5.39145 c 0.71894,4.59219 -2.49634,9.18704 -2.87882,9.71389 l -0.98542,5.5499 -21.43733,3.78244 -0.17411,0.022 z"
       id="path48-9-6" />
    <path
       inkscape:connector-curvature="0"
       style="display:inline;fill:#cf5c1b;fill-opacity:1;stroke-width:0.48489407"
       d="m 148.37604,77.824531 a 32.210597,32.210597 0 0 1 -3.42392,1.88778 19.702132,19.702132 0 0 1 -3.73419,1.34995 12.906381,12.906381 0 0 0 -1.34473,-2.2912 8.3324679,8.3324679 0 0 1 0.011,2.56011 13.338155,13.338155 0 0 1 -6.36682,-0.52235 l -1.77918,-2.98427 -0.13452,3.33079 c -1.47403,0.26896 -2.94291,0.52239 -4.41693,0.78616 -0.088,0.011 -0.17576,0.031 -0.25859,0.0465 -0.91549,-4.12727 0.38271,-8.67352 3.26873,-11.42501 a 10.398553,10.398553 0 0 1 10.9234,-2.12055 c 0.23276,0.0931 0.47065,0.19654 0.69821,0.30516 a 0.00507199,0.00507199 0 0 0 0.005,0.006 c 0.13452,0.0673 0.24827,0.22754 0.39826,0.21204 6.4547,-0.71896 6.6616,4.28757 6.15475,8.85966 z"
       id="path50-2-2" />
    <polygon
       transform="matrix(0.48489404,0,0,0.48489404,89.358808,-40.646493)"
       style="display:inline;fill:#f2d2c0;fill-opacity:1"
       points="89.297,553.071 99.047,560.572 132.623,526.535 118.233,515.464 "
       id="polygon52-6-7" />
    <path
       inkscape:connector-curvature="0"
       style="display:inline;fill:#2f2e41;stroke-width:0.48489407"
       d="m 133.28088,224.29988 7.8166,5.30447 -2.46379,3.2019 3.32925,10.37422 a 2.5235923,2.5235923 0 0 1 -3.9419,2.77135 l -8.8973,-6.84622 0.90348,-4.34721 -3.03585,2.70643 -3.35466,-2.58131 z"
       id="path54-6-0" />
    <path
       inkscape:connector-curvature="0"
       style="display:inline;fill:#2f2e41;stroke-width:0.48489407"
       d="m 117.31727,207.39104 -2.2e-4,-0.0616 2.24066,-3.86116 -2.28798,-5.02615 -0.0687,-12.91308 0.37088,-1.93849 a 16.307816,16.307816 0 0 0 -0.42283,-7.83516 v 0 l -0.0418,-7.86016 c -0.0805,-1.96904 2.97,-3.70084 2.25866,-5.34237 -6.72369,-15.51612 6.86591,-27.35281 6.95771,-27.44781 l 0.27774,-0.28873 1.50675,1.14123 1.43411,0.002 19.35309,3.52644 0.13965,0.26055 c 0.76119,1.42774 2.23021,6.34896 2.31735,8.57596 0.96452,1.11658 11.9512,13.82985 12.92783,14.71315 6.59982,5.97155 10.37844,15.8553 12.04341,21.21549 a 8.5121647,8.5121647 0 0 1 -1.45766,7.82744 l -24.98497,27.3668 -6.72365,-6.20645 13.51913,-24.63508 -0.97486,-2.49944 a 7.6821763,7.6821763 0 0 1 -4.47888,-2.60198 l -2.73753,-3.24951 a 6.0752762,6.0752762 0 0 1 -1.3866,-3.16007 l -1.66013,-0.19981 -5.94668,-6.2435 -4.1257,37.36211 -1.12166,2.95146 -19.53345,22.96386 -8.27531,-5.17203 z"
       id="path56-4-9" />
    <path
       inkscape:connector-curvature="0"
       style="display:inline;fill:#f2d2c0;fill-opacity:1;stroke-width:0.48489407"
       d="m 114.33417,46.962481 a 4.1271079,4.1271079 0 0 0 1.27209,6.19924 l -6.21124,18.38815 5.07182,19.48661 8.17831,-3.69729 -5.04664,-14.6982 3.77572,-21.39434 a 4.1494662,4.1494662 0 0 0 -7.04006,-4.28417 z"
       id="path58-4-2" />
    <path
       inkscape:connector-curvature="0"
       style="display:inline;fill:#fbe1db;fill-opacity:1;stroke-width:0.48489407"
       d="m 121.82023,107.09233 c 0,0 -1.92084,1.03145 -3.25674,-3.39047 -1.06948,-3.54008 -8.34775,-22.761049 -8.4789,-27.893789 a 3.2422005,3.2422005 0 0 1 -2.58021,-3.02358 l 10.57084,-1.46286 c 1.85493,1.55092 0.92523,2.87079 0.21284,3.49876 l 3.60035,6.09846 7.52529,16.46382 -6.19175,8.988729 z"
       id="path60-8-1" />
    <path
       inkscape:connector-curvature="0"
       style="display:inline;fill:#fbe1db;fill-opacity:1;stroke-width:0.48489407"
       d="m 127.184,81.940621 a 19.218174,19.218174 0 0 1 14.79599,-12.85796 c 0.0128,-0.004 0.0586,-0.0225 0.11709,-0.0495 0.0361,-0.0225 0.0812,-0.0451 0.1261,-0.0676 -0.13526,-0.0766 -0.26589,-0.14423 -0.40112,-0.21188 a 0.00441254,0.00441254 0 0 1 -0.004,-0.004 c -0.11713,-0.10814 -0.23439,-0.21632 -0.35607,-0.31998 l -0.34252,0.0128 c 0,0 -12.03778,-1.90636 -13.93517,13.49789 z"
       id="path62-7-8" />
  </g>
  <g
     inkscape:groupmode="layer"
     id="layer5"
     inkscape:label="background_1"
     style="display:none"
     transform="translate(-31.2953,-45.372785)" />
  <g
     inkscape:groupmode="layer"
     id="layer4"
     inkscape:label="mellow"
     style="display:none"
     transform="translate(-31.2953,-45.372785)">
    <path
       inkscape:connector-curvature="0"
       style="fill:#deecdb;fill-opacity:1;stroke-width:0.35415488"
       d="m 29.371998,202.79003 -9.5727,-1.08535 a 31.084215,31.084215 0 0 1 -2.66989,-14.71579 c 5.20353,7.33657 16.21182,7.21904 23.52693,12.45272 a 18.697212,18.697212 0 0 1 7.68219,14.26974 l 3.160927,6.05769 a 31.33064,31.33064 0 0 1 -24.877247,-8.32479 30.2636,30.2636 0 0 1 -4.77537,-5.90235 c 3.76689,-1.14066 7.52516,-2.75187 7.52516,-2.75187 z"
       id="path2" />
    <path
       inkscape:connector-curvature="0"
       style="fill:#deecdb;fill-opacity:1;stroke-width:0.35415488"
       d="m 36.660508,189.00444 -8.08391,-5.24068 a 31.084204,31.084204 0 0 1 4.17327,-14.36197 c 1.38541,8.88723 11.29071,13.6915 15.50392,21.63828 a 18.697215,18.697215 0 0 1 0.51185,16.19814 l 0.12757,6.83159 a 31.330633,31.330633 0 0 1 -18.5535,-18.54581 30.263454,30.263454 0 0 1 -1.64183,-7.41257 c 3.88026,0.65902 7.96263,0.89302 7.96263,0.89302 z"
       id="path4" />
    <circle
       style="fill:#ffffff;stroke-width:0.35415488"
       cx="-71.754639"
       cy="224.13252"
       r="29.008392"
       id="circle6"
       transform="scale(-1,1)" />
    <path
       inkscape:connector-curvature="0"
       style="fill:#3f3d56;stroke-width:0.35415488"
       d="m 71.754608,253.4952 a 29.36252,29.36252 0 1 0 -29.36251,-29.3627 29.39601,29.39601 0 0 0 29.36251,29.3627 z m 0,-58.01673 a 28.65421,28.65421 0 1 1 -28.6542,28.65403 28.686481,28.686481 0 0 1 28.6542,-28.65403 z"
       id="path8" />
    <polygon
       transform="matrix(-0.35415491,0,0,0.35415491,310.04894,34.525787)"
       style="fill:#ffb9b9;fill-opacity:1"
       points="618.645,641.317 607.882,597.245 624.647,595.377 630.005,640.052 "
       id="polygon12" />
    <path
       inkscape:connector-curvature="0"
       style="fill:#2f2e41;stroke-width:0.35415488"
       d="m 60.424713,191.03179 c 0.124921,-0.12449 0.260348,-0.24549 0.39523,-0.36057 a 36.699483,36.699483 0 0 1 3.249602,-2.4065 c 1.274762,-0.84928 2.709015,-1.71614 4.331441,-2.61115 q 1.177842,-0.65054 2.489545,-1.32826 0.657134,-0.33966 1.352075,-0.68421 a 0.68304087,0.68304087 0 0 1 0.0608,-0.0316 l 0.134091,-0.0681 9.76331,8.05935 0.693564,0.54493 -1.798514,2.21767 c 0,0 0.156582,1.76331 0.152888,1.76416 l 1.785369,4.45511 0.01967,0.009 6.360694,2.90314 6.554755,2.99241 3.520516,1.60816 a 6.7634416,6.7634416 0 0 1 3.549251,3.83497 7.0308888,7.0308888 0 0 1 -0.2316,5.43022 c -0.0788,0.17215 -0.16721,0.34459 -0.26107,0.51051 l -1.46288,9.19808 a 55.363033,55.363033 0 0 1 -5.040036,15.83423 l -2.234342,8.61016 -0.339466,-0.17035 -5.053343,-2.53126 -1.335099,-0.66725 -0.252046,-5.78517 c -0.02864,-0.65933 -0.03279,-1.32238 -0.0094,-1.98406 a 25.501633,25.501633 0 0 1 0.310046,-3.23249 l 2.897319,-18.04099 q -0.771199,-0.31439 -1.521583,-0.63171 -3.478205,-1.45539 -6.585957,-2.94232 C 75.181326,212.30746 69.691992,208.96425 65.20703,205.34283 q -1.890455,-1.52351 -3.546448,-3.11905 -0.608657,-0.58296 -1.184921,-1.17729 c -0.0914,-0.0917 -0.180548,-0.18197 -0.268259,-0.27454 a 6.8452231,6.8452231 0 0 1 -1.698708,-6.32914 6.9843634,6.9843634 0 0 1 1.915969,-3.41099 z"
       id="path14" />
    <path
       inkscape:connector-curvature="0"
       style="fill:#2f2e41;stroke-width:0.35415488"
       d="m 87.257144,258.47089 4.354988,0.48148 0.683364,0.0748 -0.444689,2.58612 5.061053,4.94408 a 1.6395319,1.6395319 0 0 1 -1.421608,2.78977 l -7.187228,-1.23111 -0.799548,-2.77015 -0.92224,2.47512 -2.70726,-0.46325 2.324144,-9.00296 z"
       id="path16" />
    <path
       inkscape:connector-curvature="0"
       style="fill:#ffb9b9;fill-opacity:1;stroke-width:0.35415488"
       d="m 83.112602,168.91765 -3.729026,-3.95454 5.260193,-11.50923 0.782429,-4.04255 a 3.0566119,3.0566119 0 0 1 4.990111,-1.73992 v 0 a 3.0566083,3.0566083 0 0 1 0.397599,4.23019 l -2.904387,3.63049 z"
       id="path18" />
    <path
       inkscape:connector-curvature="0"
       style="fill:#deecdb;fill-opacity:1;stroke-width:0.35415488"
       d="m 79.383576,163.19234 4.249864,4.24986 -0.813255,6.21372 a 4.9414031,4.9414031 0 0 1 -3.562971,3.30467 v 0 a 4.9414102,4.9414102 0 0 1 -5.381778,-2.2647 l -9.55918,-16.38485 a 5.0440478,5.0440478 0 0 1 1.626403,-6.85646 v 0 a 5.0440832,5.0440832 0 0 1 7.225616,2.03628 l 5.834584,12.43234 z"
       id="path20" />
    <path
       inkscape:connector-curvature="0"
       style="fill:#ffb9b9;fill-opacity:1;stroke-width:0.35415488"
       d="m 83.664802,225.90489 c 0.219574,0.22352 0.439817,0.44437 0.662644,0.66594 0.44307,0.4424 0.892577,0.88082 1.343357,1.31402 0.226681,0.21696 0.455986,0.43452 0.683297,0.64886 l -0.0014,0.008 0.01499,0.006 0.004,0.004 0.378057,0.19524 0.940831,-1.38574 0.4339,-0.63813 0.613346,-0.90416 1.123515,-1.65367 5.915549,-8.70734 -5.305189,-2.73853 -0.417798,0.81302 -0.0026,-7.1e-4 -0.206644,0.40287 -3.879713,7.51731 -0.792241,1.53707 -0.02489,0.0464 -0.475917,0.91768 -0.410825,0.79536 -0.457994,0.88892 z"
       id="path22" />
    <path
       inkscape:connector-curvature="0"
       style="fill:#2f2e41;stroke-width:0.35415488"
       d="m 84.761012,223.08262 3.692987,2.35789 0.579788,0.36938 -1.542572,2.12278 2.352561,6.67261 a 1.6395319,1.6395319 0 0 1 -2.508835,1.87337 l -5.901643,-4.28285 0.508042,-2.8381 -1.921806,1.81201 -2.22321,-1.61283 6.066193,-7.04669 z"
       id="path24" />
    <path
       inkscape:connector-curvature="0"
       style="fill:#2f2e41;stroke-width:0.35415488"
       d="m 58.132483,198.22735 c 0.367485,0.59013 0.743018,1.17757 1.121224,1.75964 q 1.054204,1.6255 2.164679,3.20274 c 0,0.002 0.0028,0.002 0.0054,0.006 a 7.5731991,7.5731991 0 0 0 1.421656,1.03808 c 0.02146,0.0161 0.04559,0.0267 0.06706,0.0403 a 5.2412129,5.2412129 0 0 0 1.196335,0.48014 c 0.150212,0.0375 0.303107,0.0751 0.453319,0.11271 0.541825,0.12877 1.078298,0.23874 1.612113,0.3353 0.949553,0.16899 1.888383,0.2897 2.821843,0.36479 0.07511,0.008 0.150211,0.0134 0.225327,0.0187 3.83847,0.28166 7.575021,-0.17167 11.475174,-0.91468 1.925955,-0.36481 3.892121,-0.80203 5.928051,-1.25536 0.665213,-0.1502 1.33313,-0.29774 2.009092,-0.44526 0.051,-0.0107 0.104674,-0.0241 0.158269,-0.0349 0.965648,-0.2119 1.947386,-0.42113 2.95327,-0.62768 1.26611,-0.26019 0.617107,-0.27531 1.974384,-0.51405 0,0 -3.131537,3.18 -3.65192,4.55875 -0.5794,1.69526 -1.038077,3.03645 -0.06974,5.82879 l -3.007281,5.90358 10.454774,1.77281 c 5.761988,-11.29068 10.367008,-18.72546 8.309858,-23.10437 -0.008,-0.20386 -0.0241,-0.41041 -0.051,-0.61427 a 7.0273578,7.0273578 0 0 0 -2.67433,-4.73169 6.7675214,6.7675214 0 0 0 -5.040174,-1.37873 l -2.05202,0.26556 -15.914496,-0.77318 -0.624992,-2.54826 -0.115342,-0.0429 -3.666808,-1.34387 -12.682244,-4.64855 -0.03219,-0.0107 -0.834214,-0.3058 -0.09924,0.16094 c -0.0295,0.0483 -0.05901,0.0966 -0.08584,0.14485 a 24.859992,24.859992 0 0 0 -2.003739,4.65123 73.017485,73.017485 0 0 0 -2.105653,8.03907 q -0.03619,0.17704 -0.06438,0.32188 l -0.008,0.0295 c -0.008,0.0456 -0.01345,0.0751 -0.0161,0.0831 -0.292393,1.21779 -0.08854,2.70383 0.447942,4.17646 z"
       id="path74" />
    <line
       style="fill:#2f2e41;stroke-width:0.35415488"
       x1="91.493126"
       y1="229.66205"
       x2="91.745255"
       y2="229.66205"
       id="line76" />
    <path
       inkscape:connector-curvature="0"
       style="fill:#deecdb;fill-opacity:1;stroke-width:0.35415488"
       d="m 60.808148,148.66292 0.09167,-5.08347 8.053889,-0.93716 0.844745,4.29271 8.464513,7.95443 c 6.018149,7.35741 1.644984,12.43127 1.383192,13.1858 l -0.744269,9.27756 -0.468192,3.22344 1.828082,8.82153 -23.07394,4.94977 c -0.738725,-6.099 0.08391,-11.7659 4.901033,-16.32735 l -2.434125,-7.57375 v 0 a 15.551512,15.551512 0 0 1 -2.2637,-6.52389 l -0.08754,-0.79196 c -2.150982,-6.70181 -0.876803,-8.95804 3.504648,-14.46766 z"
       id="path78" />
    <path
       inkscape:connector-curvature="0"
       style="fill:#cf5c1b;fill-opacity:1;stroke-width:0.35415488"
       d="m 49.508678,132.77483 c -0.006,0.13143 -0.008,0.26287 -0.008,0.39163 a 9.0045907,9.0045907 0 0 0 11.797073,8.54603 l 1.655016,-0.53916 c 0.01343,-0.005 0.0295,-0.008 0.04291,-0.0134 l 2.727981,-0.89055 a 1.8654968,1.8654968 0 0 0 -0.0054,-0.346 c 4.069153,-1.7382 -1.555769,-7.44894 -2.953297,-11.73806 -0.21727,-0.66791 7.253124,-0.16899 6.899051,-0.74034 0.0778,-0.0403 0.15558,-0.0805 0.228012,-0.12071 a 11.055385,11.055385 0 0 0 -12.210159,-4.75852 c -0.05901,0.0134 -0.12071,0.0322 -0.179715,0.0483 -5.300364,0.13144 -8.084652,3.82507 -8.084652,8.62115 a 13.153955,13.153955 0 0 0 0.0912,1.53968 z"
       id="path80" />
    <path
       inkscape:connector-curvature="0"
       style="fill:#ffb9b9;fill-opacity:1;stroke-width:0.35415488"
       d="m 54.100885,134.66321 a 8.641677,8.641677 0 0 0 10.893099,5.53373 q 0.370163,-0.12069 0.724247,-0.27359 a 8.6377959,8.6377959 0 0 0 4.809488,-10.61682 8.5513888,8.5513888 0 0 0 -0.863731,-1.86157 8.6387944,8.6387944 0 0 0 -15.563103,7.21825 z"
       id="path82" />
    <path
       inkscape:connector-curvature="0"
       style="fill:#cf5c1b;fill-opacity:1;stroke-width:0.35415488"
       d="m 62.954328,141.17253 a 0.29875093,0.29875093 0 0 0 0.0425,-0.0142 l 2.726993,-0.88893 c 0.0071,-0.11687 5.014834,3.19802 5.000668,3.08115 -0.07792,-0.89601 -5.719602,-5.26629 -6.562492,-6.28271 a 5.226944,5.226944 0 0 1 2.294924,-8.30139 0.41831007,0.41831007 0 0 0 0.07083,-0.0248 c 0.527687,-0.18417 1.034128,-0.37187 1.508696,-0.55957 0.233743,-0.97393 0.354155,-0.65165 0.917261,-1.47683 -0.102706,0.75081 0.849972,1.31746 0.864138,2.07535 0.194786,-0.0885 0.378946,-0.18062 0.556024,-0.2727 0.07792,-0.0425 0.152287,-0.0815 0.226658,-0.12042 a 3.7604168,3.7604168 0 0 0 1.391831,-1.11204 c -1.363498,-4.18965 -6.580199,-7.5435 -10.769852,-6.17292 l -1.58307,0.51352 a 7.9450901,7.9450901 0 0 0 -4.614638,3.92758 8.9448902,8.9448902 0 0 0 -2.684481,3.36093 c -3.46365,6.95915 3.226332,14.64077 10.614006,12.26793 z"
       id="path84" />
    <circle
       style="fill:#cf5c1b;fill-opacity:1;stroke-width:0.35415488"
       cx="-51.498985"
       cy="125.77116"
       r="3.755317"
       id="circle86"
       transform="scale(-1,1)" />
    <path
       inkscape:connector-curvature="0"
       style="fill:#cf5c1b;fill-opacity:1;stroke-width:0.35415488"
       d="m 3.7892085,133.43071 a 24.904701,24.904701 0 0 0 13.1462295,16.90382 c 0.42147,0.20895 0.84998,0.40373 1.28205,0.58435 a 8.4947134,8.4947134 0 0 1 1.44142,-4.92629 15.114513,15.114513 0 0 0 -0.0566,3.55572 14.959907,14.959907 0 0 0 0.33643,2.01513 24.962294,24.962294 0 0 0 8.62014,1.24309 8.3752539,8.3752539 0 0 1 1.37058,-3.62657 15.11451,15.11451 0 0 0 -0.0566,3.55572 24.402722,24.402722 0 0 0 8.47493,-2.27013 c 1.38475,-0.65873 2.7447,-1.48391 3.63715,-2.73054 1.18642,-1.66098 1.38475,-3.8532 1.09434,-5.87189 -0.29041,-2.02222 -1.01643,-3.95236 -1.52287,-5.92855 -0.50643,-1.97618 -0.7933,-4.09049 -0.19832,-6.04188 0.59144,-1.95494 2.25242,-3.69384 4.28881,-3.84613 0.92789,-0.0708 1.85932,0.18417 2.7872,0.0992 0.92789,-0.0885 1.93369,-0.7083 1.954941,-1.63973 l -0.888931,-1.44495 c -0.37541,-2.52867 -1.66453,-5.03609 -3.87445,-6.32167 -2.20639,-1.28913 -5.37962,-1.01288 -6.95561,0.99872 -1.32807,1.69286 -1.27849,4.04445 -1.7141,6.15167 -1.01289,4.89442 -4.9263,8.83262 -9.47364,10.90797 -4.5509,2.07181 -9.67196,2.50742 -14.67267,2.42242 -1.71411,-0.0319 -3.4565495,-0.12395 -5.0856695,-0.66581 -1.63262,-0.5454 -3.15551,-1.59368 -3.93463,-3.12363 z"
       id="path88" />
    <path
       inkscape:connector-curvature="0"
       style="fill:#3f3d56;stroke-width:0.35415488"
       d="m 88.957235,156.0002 1.470626,-17.53836 a 2.2736745,2.2736745 0 0 0 -2.073463,-2.45301 l -3.822397,-0.32051 a 2.2736745,2.2736745 0 0 0 -2.453005,2.07346 l -1.470626,17.53836 a 2.2736745,2.2736745 0 0 0 2.073464,2.45302 l 3.822396,0.3205 a 2.2736745,2.2736745 0 0 0 2.453005,-2.07346 z"
       id="path90" />
    <path
       inkscape:connector-curvature="0"
       style="fill:#d5e9f1;stroke-width:0.35415488"
       d="m 87.832127,136.86584 a 1.2253193,1.2253193 0 0 1 1.117358,1.3219 l -1.470625,17.53837 a 1.2253122,1.2253122 0 0 1 -1.321887,1.11735 l -3.822396,-0.3205 a 1.2253087,1.2253087 0 0 1 -1.117359,-1.3219 l 1.470625,-17.53837 a 1.2253087,1.2253087 0 0 1 1.321887,-1.11736 z"
       id="path92" />
    <path
       inkscape:connector-curvature="0"
       style="fill:#ffb9b9;fill-opacity:1;stroke-width:0.35415488"
       d="m 81.387306,162.01798 -3.721385,-1.42016 2.161346,-8.27035 0.378685,-4.10011 a 3.0566083,3.0566083 0 0 1 4.79352,-2.22504 v 0 a 3.0566083,3.0566083 0 0 1 0.814126,4.17011 l -2.531015,3.89999 z"
       id="path94" />
    <path
       inkscape:connector-curvature="0"
       style="fill:#deecdb;fill-opacity:1;stroke-width:0.35415488"
       d="m 77.519074,159.12066 4.961858,1.89353 -2.469844,11.59663 a 4.9414065,4.9414065 0 0 1 -3.218581,3.64091 v 0 a 4.9414102,4.9414102 0 0 1 -5.579413,-1.72119 L 60.079952,159.17168 a 5.0440442,5.0440442 0 0 1 0.940156,-6.98373 v 0 a 5.0440336,5.0440336 0 0 1 7.391607,1.31151 l 7.035822,11.7942 z"
       id="path96" />
    <path
       inkscape:connector-curvature="0"
       style="opacity:0.2;stroke-width:0.35415488"
       d="m 81.554637,165.3634 -2.508016,10.18519 -0.520316,0.63329 a 4.0544681,4.0544681 0 0 1 -6.607199,-0.48416 l -7.94847,-13.21574 7.166269,9.91605 a 4.0544717,4.0544717 0 0 0 6.852009,-0.44526 z"
       id="path98" />
  </g>
</svg>
