<?xml version="1.0" encoding="UTF-8" standalone="no"?>
<!-- Created with Inkscape (http://www.inkscape.org/) -->

<svg
   xmlns:dc="http://purl.org/dc/elements/1.1/"
   xmlns:cc="http://creativecommons.org/ns#"
   xmlns:rdf="http://www.w3.org/1999/02/22-rdf-syntax-ns#"
   xmlns:svg="http://www.w3.org/2000/svg"
   xmlns="http://www.w3.org/2000/svg"
   xmlns:sodipodi="http://sodipodi.sourceforge.net/DTD/sodipodi-0.dtd"
   xmlns:inkscape="http://www.inkscape.org/namespaces/inkscape"
   width="134.90689mm"
   height="209.58328mm"
   viewBox="0 0 134.90689 209.58328"
   version="1.1"
   id="svg5290"
   inkscape:version="0.92.1 r15371"
   sodipodi:docname="gogogo_male.svg"
   inkscape:export-filename="C:\Users\rapha\Documents\Maaind\Achmea\Avatar\gogogo_female.png"
   inkscape:export-xdpi="35.220001"
   inkscape:export-ydpi="35.220001">
  <defs
     id="defs5284" />
  <sodipodi:namedview
     id="base"
     pagecolor="#ffffff"
     bordercolor="#666666"
     borderopacity="1.0"
     inkscape:pageopacity="0.0"
     inkscape:pageshadow="2"
     inkscape:zoom="1.0516678"
     inkscape:cx="270.25731"
     inkscape:cy="406.4423"
     inkscape:document-units="mm"
     inkscape:current-layer="layer4"
     showgrid="false"
     inkscape:window-width="1718"
     inkscape:window-height="1368"
     inkscape:window-x="1713"
     inkscape:window-y="0"
     inkscape:window-maximized="0" />
  <metadata
     id="metadata5287">
    <rdf:RDF>
      <cc:Work
         rdf:about="">
        <dc:format>image/svg+xml</dc:format>
        <dc:type
           rdf:resource="http://purl.org/dc/dcmitype/StillImage" />
        <dc:title />
      </cc:Work>
    </rdf:RDF>
  </metadata>
  <g
     inkscape:groupmode="layer"
     id="layer2"
     inkscape:label="background"
     style="display:inline"
     transform="translate(-31.264707,-48.730973)">
    <ellipse
       style="fill:#e6e6e6;stroke-width:0.50369769"
       cx="-24.072571"
       cy="130.48985"
       rx="3.8062725"
       ry="2.6478434"
       transform="rotate(-31.446938)"
       id="ellipse14"
       inkscape:export-xdpi="35.220001"
       inkscape:export-ydpi="35.220001" />
    <ellipse
       style="fill:#3f3d56;stroke-width:0.50369769"
       cx="0.088990875"
       cy="136.44751"
       rx="3.8062725"
       ry="2.6478384"
       transform="rotate(-31.446938)"
       id="ellipse16"
       inkscape:export-xdpi="35.220001"
       inkscape:export-ydpi="35.220001" />
    <ellipse
       style="fill:#fbe1db;fill-opacity:1;stroke-width:0.50369769"
       cx="-33.671009"
       cy="149.3559"
       rx="3.8062725"
       ry="2.6478434"
       transform="rotate(-31.446938)"
       id="ellipse18"
       inkscape:export-xdpi="35.220001"
       inkscape:export-ydpi="35.220001" />
    <ellipse
       style="fill:#e6e6e6;stroke-width:0.50369769"
       cx="-21.696457"
       cy="160.16599"
       rx="1.673435"
       ry="2.4055645"
       transform="rotate(-23.601928)"
       id="ellipse20"
       inkscape:export-xdpi="35.220001"
       inkscape:export-ydpi="35.220001" />
    <ellipse
       style="fill:#3f3d56;stroke-width:0.50369769"
       cx="-25.461708"
       cy="175.43604"
       rx="1.673435"
       ry="2.4055645"
       transform="rotate(-23.601928)"
       id="ellipse22"
       inkscape:export-xdpi="35.220001"
       inkscape:export-ydpi="35.220001" />
    <ellipse
       style="fill:#e6e6e6;stroke-width:0.50369769"
       cx="3.1220152"
       cy="148.72778"
       rx="1.673435"
       ry="2.4055645"
       transform="rotate(-23.601928)"
       id="ellipse24"
       inkscape:export-xdpi="35.220001"
       inkscape:export-ydpi="35.220001" />
    <ellipse
       style="fill:#3f3d56;fill-opacity:1;stroke-width:0.50369769"
       cx="-8.8012066"
       cy="142.66158"
       rx="1.673435"
       ry="2.4055645"
       transform="rotate(-23.601928)"
       id="ellipse26"
       inkscape:export-xdpi="35.220001"
       inkscape:export-ydpi="35.220001" />
    <ellipse
       style="fill:#3f3d56;stroke-width:0.50369769"
       cx="7.9427667"
       cy="131.7429"
       rx="1.673435"
       ry="2.4055645"
       transform="rotate(-23.601928)"
       id="ellipse28"
       inkscape:export-xdpi="35.220001"
       inkscape:export-ydpi="35.220001" />
    <ellipse
       style="fill:#3f3d56;fill-opacity:1;stroke-width:0.50369769"
       cx="-153.6395"
       cy="180.08464"
       rx="2.6478434"
       ry="3.8062725"
       transform="rotate(-59.880948)"
       id="ellipse30"
       inkscape:export-xdpi="35.220001"
       inkscape:export-ydpi="35.220001" />
    <ellipse
       style="fill:#fbe1db;fill-opacity:1;stroke-width:0.50369769"
       cx="-147.68185"
       cy="155.92308"
       rx="2.6478384"
       ry="3.8062725"
       transform="rotate(-59.880948)"
       id="ellipse32"
       inkscape:export-xdpi="35.220001"
       inkscape:export-ydpi="35.220001" />
    <ellipse
       style="fill:#fbe1db;fill-opacity:1;stroke-width:0.50369769"
       cx="-134.77359"
       cy="189.68306"
       rx="2.6478434"
       ry="3.8062725"
       transform="rotate(-59.880948)"
       id="ellipse34"
       inkscape:export-xdpi="35.220001"
       inkscape:export-ydpi="35.220001" />
    <ellipse
       style="fill:#e6e6e6;stroke-width:0.50369769"
       cx="-100.00954"
       cy="215.0303"
       rx="2.4055645"
       ry="1.673435"
       transform="rotate(-52.035948)"
       id="ellipse36"
       inkscape:export-xdpi="35.220001"
       inkscape:export-ydpi="35.220001" />
    <ellipse
       style="fill:#3f3d56;stroke-width:0.50369769"
       cx="-84.739456"
       cy="218.7955"
       rx="2.4055645"
       ry="1.673435"
       transform="rotate(-52.035948)"
       id="ellipse38"
       inkscape:export-xdpi="35.220001"
       inkscape:export-ydpi="35.220001" />
    <ellipse
       style="fill:#e6e6e6;stroke-width:0.50369769"
       cx="-111.44769"
       cy="190.21182"
       rx="2.4055645"
       ry="1.673435"
       transform="rotate(-52.035948)"
       id="ellipse40"
       inkscape:export-xdpi="35.220001"
       inkscape:export-ydpi="35.220001" />
    <ellipse
       style="fill:#fbe1db;fill-opacity:1;stroke-width:0.50369769"
       cx="-117.51387"
       cy="202.13506"
       rx="2.4055645"
       ry="1.673435"
       transform="rotate(-52.035948)"
       id="ellipse42"
       inkscape:export-xdpi="35.220001"
       inkscape:export-ydpi="35.220001" />
    <ellipse
       style="fill:#3f3d56;fill-opacity:1;stroke-width:0.50369769"
       cx="-128.43242"
       cy="185.39108"
       rx="2.4055645"
       ry="1.673435"
       transform="rotate(-52.035948)"
       id="ellipse44"
       inkscape:export-xdpi="35.220001"
       inkscape:export-ydpi="35.220001" />
    <ellipse
       style="fill:#e6e6e6;stroke-width:0.50369769"
       cx="200.35565"
       cy="64.517769"
       rx="2.6478434"
       ry="3.8062725"
       transform="rotate(21.252166)"
       id="ellipse46"
       inkscape:export-xdpi="35.220001"
       inkscape:export-ydpi="35.220001" />
    <ellipse
       style="fill:#3f3d56;stroke-width:0.50369769"
       cx="194.39804"
       cy="88.679382"
       rx="2.6478384"
       ry="3.8062725"
       transform="rotate(21.252166)"
       id="ellipse48"
       inkscape:export-xdpi="35.220001"
       inkscape:export-ydpi="35.220001" />
    <ellipse
       style="fill:#fbe1db;fill-opacity:1;stroke-width:0.50369769"
       cx="181.48982"
       cy="54.919071"
       rx="2.6478434"
       ry="3.8062725"
       transform="rotate(21.252166)"
       id="ellipse50"
       inkscape:export-xdpi="35.220001"
       inkscape:export-ydpi="35.220001" />
    <ellipse
       style="fill:#e6e6e6;stroke-width:0.50369769"
       cx="179.67508"
       cy="20.906557"
       rx="2.4055645"
       ry="1.673435"
       transform="rotate(29.097176)"
       id="ellipse52"
       inkscape:export-xdpi="35.220001"
       inkscape:export-ydpi="35.220001" />
    <ellipse
       style="fill:#3f3d56;stroke-width:0.50369769"
       cx="174.28618"
       cy="29.205425"
       rx="2.4055645"
       ry="1.673435"
       transform="rotate(29.097176)"
       id="ellipse54"
       inkscape:export-xdpi="35.220001"
       inkscape:export-ydpi="35.220001" />
    <ellipse
       style="fill:#e6e6e6;stroke-width:0.50369769"
       cx="191.11317"
       cy="45.725109"
       rx="2.4055645"
       ry="1.673435"
       transform="rotate(29.097176)"
       id="ellipse56"
       inkscape:export-xdpi="35.220001"
       inkscape:export-ydpi="35.220001" />
    <ellipse
       style="fill:#fbe1db;fill-opacity:1;stroke-width:0.50369769"
       cx="197.17937"
       cy="33.801895"
       rx="2.4055645"
       ry="1.673435"
       transform="rotate(29.097176)"
       id="ellipse58"
       inkscape:export-xdpi="35.220001"
       inkscape:export-ydpi="35.220001" />
    <ellipse
       style="fill:#3f3d56;stroke-width:0.50369769"
       cx="208.09805"
       cy="50.545776"
       rx="2.4055645"
       ry="1.673435"
       transform="rotate(29.097176)"
       id="ellipse60"
       inkscape:export-xdpi="35.220001"
       inkscape:export-ydpi="35.220001" />
  </g>
  <g
     inkscape:groupmode="layer"
     id="layer4"
     inkscape:label="gogogo"
     style="display:inline"
     transform="translate(0.03059308,-3.3581857)">
    <polygon
       transform="matrix(-0.48222736,0,0,0.47757966,352.51472,-87.29182)"
       style="display:inline;fill:#f2d2c0;fill-opacity:1"
       points="503.386,569.293 521.539,569.294 521.537,616.734 509.237,616.733 "
       id="polygon6"
       inkscape:export-xdpi="35.220001"
       inkscape:export-ydpi="35.220001" />
    <path
       inkscape:connector-curvature="0"
       style="display:inline;fill:#2f2e41;stroke-width:0.47989786"
       d="m 99.502922,212.94147 19.124168,-4.7e-4 v -0.23956 a 7.4440667,7.3723208 0 0 0 -7.44368,-7.37181 h -4.6e-4 l -3.49331,-2.62465 -6.51768,2.62505 -1.669423,6e-5 z"
       id="path8"
       inkscape:export-xdpi="35.220001"
       inkscape:export-ydpi="35.220001" />
    <polygon
       transform="matrix(-0.48222736,0,0,0.47757966,352.51472,-87.29182)"
       style="display:inline;fill:#f2d2c0;fill-opacity:1"
       points="673.137,552.804 685.514,539.526 720.217,571.872 711.831,580.869 "
       id="polygon10"
       inkscape:export-xdpi="35.220001"
       inkscape:export-ydpi="35.220001" />
    <path
       inkscape:connector-curvature="0"
       style="display:inline;fill:#2f2e41;stroke-width:0.47989786"
       d="m -0.03059308,188.60879 13.03942508,13.85477 0.176966,-0.16336 a 7.4440667,7.3723208 0 0 0 0.370154,-10.41895 l -3.3e-4,-3.4e-4 -0.443019,-4.32033 -6.3827445,-2.93222 -1.1382607,-1.20942 z"
       id="path12"
       inkscape:export-xdpi="35.220001"
       inkscape:export-ydpi="35.220001" />
    <path
       inkscape:connector-curvature="0"
       style="display:inline;fill:#2f2e41;stroke-width:0.47989786"
       d="m 13.982515,173.08953 6.268947,12.98508 38.495811,-25.24251 5.60026,-7.55686 18.362647,-24.77801 7.464241,11.72973 5.193843,12.26186 v 0 a 13.647998,13.516459 0 0 1 6.112026,9.86405 l 0.23763,2.17086 -3.281947,29.21946 12.474217,3.79334 7.16421,-39.25233 -2.34193,-8.50564 -2.41113,-11.93951 -12.13948,-37.72878 H 68.696947 l -18.632061,39.27719 -1.362004,8.0032 -5.282836,6.00444 z"
       id="path14"
       inkscape:export-xdpi="35.220001"
       inkscape:export-ydpi="35.220001" />
    <path
       inkscape:connector-curvature="0"
       style="display:inline;fill:#fbe1db;fill-opacity:1;stroke-width:0.47989786"
       d="m 81.492416,38.382304 -5.468469,4.1239 -6.594938,2.007091 c 0,0 -2.726397,37.981118 -5.183049,40.414077 -2.456635,2.432957 -0.241038,2.498351 -0.734668,5.658916 -0.493631,3.160566 -1.693425,9.639362 -1.693425,9.639362 16.582376,8.69319 30.878123,8.92637 42.361253,-1.246127 a 2.8601774,2.832611 0 0 0 -1.56053,-3.197215 c -2.1372,-1.123091 1.97016,-6.364972 0.22358,-7.24141 -1.74662,-0.876442 0.71002,-8.479427 0.71002,-8.479427 l -1.61154,-15.863081 1.27318,-2.535739 -3.10707,-15.51589 -5.39135,-1.949957 -2.153635,-5.138881 z"
       id="path16"
       inkscape:export-xdpi="35.220001"
       inkscape:export-ydpi="35.220001" />
    <path
       inkscape:connector-curvature="0"
       style="display:inline;fill:#f2d2c0;fill-opacity:1;stroke-width:0.47989786"
       d="m 78.066708,105.88758 a 4.7404638,4.6947752 0 0 0 -5.404494,-4.81412 l -7.706793,-14.835371 -4.293697,7.555225 7.976755,12.929636 a 4.7661472,4.7202111 0 0 0 9.428193,-0.83537 z"
       id="path18"
       inkscape:export-xdpi="35.220001"
       inkscape:export-ydpi="35.220001" />
    <path
       inkscape:connector-curvature="0"
       style="display:inline;fill:#fbe1db;fill-opacity:1;stroke-width:0.47989786"
       d="m 65.087852,102.25847 -16.529975,-25.372575 0.05449,-0.116754 c 0.06234,-0.133753 3.80559,-8.140151 7.432565,-15.4735 0.55855,-1.12932 1.114331,-2.242678 1.653508,-3.308859 q 0.349027,-0.690217 0.687664,-1.351574 c 1.523358,-2.974289 2.854306,-5.432602 3.648774,-6.600347 a 13.991966,13.857112 0 0 1 7.414375,-5.570318 l 0.07655,-0.01949 0.0731,0.03013 a 7.1004748,7.0320405 0 0 1 4.225679,7.735608 50.294449,49.809711 0 0 1 -9.332508,20.896497 l -2.679756,3.498147 9.31255,20.051283 z"
       id="path20"
       inkscape:export-xdpi="35.220001"
       inkscape:export-ydpi="35.220001" />
    <path
       inkscape:connector-curvature="0"
       style="display:inline;fill:#f2d2c0;fill-opacity:1;stroke-width:0.47989786"
       d="m 121.9296,5.0013977 a 4.7404542,4.6947657 0 0 0 1.13748,7.1102053 l -3.44579,16.330884 8.13933,-3.191509 2.02437,-15.018793 a 4.7661472,4.7202111 0 0 0 -7.85535,-5.2307873 z"
       id="path22"
       inkscape:export-xdpi="35.220001"
       inkscape:export-ydpi="35.220001" />
    <path
       inkscape:connector-curvature="0"
       style="display:inline;fill:#fbe1db;fill-opacity:1;stroke-width:0.47989786"
       d="m 129.70461,15.914633 -3.29145,30.018999 -0.11662,0.05666 c -5.43948,2.79834 -9.90316,5.309272 -13.91844,6.603963 -5.59494,2.591224 -11.25239,5.110863 -13.50708,5.793592 -3.043862,0.955122 -6.326023,0.850471 -9.301547,-0.296578 l -0.07181,-0.03256 -0.03755,-0.06894 c -1.566017,-2.905378 -0.886177,-6.497966 1.635849,-8.644588 5.938237,-5.000149 12.968668,-8.564992 20.536398,-10.413167 l 4.30597,-1.046314 5.51479,-21.384207 z"
       id="path24"
       sodipodi:nodetypes="ccccccccccccc"
       inkscape:export-xdpi="35.220001"
       inkscape:export-ydpi="35.220001" />
    <ellipse
       style="display:inline;fill:#f2d2c0;fill-opacity:1;stroke-width:0.47989786"
       cx="-87.322884"
       cy="25.968958"
       id="circle26-7"
       transform="scale(-1,1)"
       rx="10.816736"
       ry="10.712484"
       inkscape:export-xdpi="35.220001"
       inkscape:export-ydpi="35.220001" />
    <path
       inkscape:connector-curvature="0"
       style="display:inline;fill:#f2dba7;fill-opacity:1;stroke-width:0.54495615"
       d="m 80.778156,35.900644 c 0.530395,-0.355682 0.550952,-1.169602 0.373159,-1.829996 -0.255387,-0.633314 -0.414901,-1.301164 -0.473279,-1.981538 0.07596,-1.840672 2.611107,-2.57903 2.755936,-4.4107 0.08907,-1.12649 -0.131406,-2.717958 0.949976,-2.527078 0,0 1.411078,-1.70036 2.085746,-1.818632 2.442577,-0.68666 3.71559,-0.35767 6.320885,0.164714 l 0.380059,-0.998412 1.930735,1.273932 c 0.105438,-0.61961 0.963083,-0.681756 1.523612,-0.384362 0.560523,0.29737 1.045769,0.810892 1.657423,0.910078 1.883192,-0.105739 1.598985,-0.253114 1.694005,-1.913594 -0.14519,-1.027705 -0.606579,-1.984762 -1.320182,-2.73844 -1.623742,-2.011158 -3.593495,-3.716277 -5.816552,-5.035106 l 0.535785,-0.965411 -1.147383,0.46077 -0.125888,-1.154612 -1.117818,0.628263 -0.01586,-1.039933 c -1.196783,1.374239 -3.280984,1.326887 -5.11049,1.450797 -3.058609,0.141589 -5.996824,1.234001 -8.405037,3.124941 -2.430755,1.984577 -3.915148,4.899671 -4.090364,8.032793 -0.103878,2.426838 0.732746,5.380548 2.524618,7.180132 1.628747,1.635748 4.041917,0.643082 4.89097,3.571382 z"
       id="path68"
       sodipodi:nodetypes="ccccscccccccccccccccccccc"
       inkscape:export-xdpi="35.220001"
       inkscape:export-ydpi="35.220001" />
  </g>
</svg>
