<?xml version="1.0" encoding="UTF-8" standalone="no"?>
<!-- Created with Inkscape (http://www.inkscape.org/) -->

<svg
   xmlns:dc="http://purl.org/dc/elements/1.1/"
   xmlns:cc="http://creativecommons.org/ns#"
   xmlns:rdf="http://www.w3.org/1999/02/22-rdf-syntax-ns#"
   xmlns:svg="http://www.w3.org/2000/svg"
   xmlns="http://www.w3.org/2000/svg"
   xmlns:sodipodi="http://sodipodi.sourceforge.net/DTD/sodipodi-0.dtd"
   xmlns:inkscape="http://www.inkscape.org/namespaces/inkscape"
   width="210mm"
   height="297mm"
   viewBox="0 0 210 297"
   version="1.1"
   id="svg4578"
   inkscape:version="0.92.1 r15371"
   sodipodi:docname="male_avatar.svg"
   inkscape:export-filename="C:\Users\rapha\Documents\Maaind\Achmea\Avatar\avatar_male.png"
   inkscape:export-xdpi="35.220001"
   inkscape:export-ydpi="35.220001">
  <defs
     id="defs4572" />
  <sodipodi:namedview
     id="base"
     pagecolor="#ffffff"
     bordercolor="#666666"
     borderopacity="1.0"
     inkscape:pageopacity="0.0"
     inkscape:pageshadow="2"
     inkscape:zoom="0.7153644"
     inkscape:cx="257.92411"
     inkscape:cy="492.65088"
     inkscape:document-units="mm"
     inkscape:current-layer="layer15"
     showgrid="false"
     inkscape:window-width="1718"
     inkscape:window-height="1368"
     inkscape:window-x="1713"
     inkscape:window-y="0"
     inkscape:window-maximized="0" />
  <metadata
     id="metadata4575">
    <rdf:RDF>
      <cc:Work
         rdf:about="">
        <dc:format>image/svg+xml</dc:format>
        <dc:type
           rdf:resource="http://purl.org/dc/dcmitype/StillImage" />
        <dc:title></dc:title>
      </cc:Work>
    </rdf:RDF>
  </metadata>
  <g
     inkscape:groupmode="layer"
     id="layer14"
     inkscape:label="female"
     style="display:none">
    <circle
       style="display:inline;fill:#f2f2f2;stroke-width:0.60479122"
       cx="102.23889"
       cy="136.0132"
       r="68.607521"
       id="circle8" />
    <path
       inkscape:connector-curvature="0"
       style="display:inline;fill:#deecdb;fill-opacity:1;stroke-width:0.60479122"
       d="m 153.86085,181.91684 a 68.583502,68.583502 0 0 1 -95.986414,6.93695 l 5.884605,-16.42009 a 17.657901,17.657901 0 0 1 14.998828,-10.29957 l 3.743657,-0.22982 8.926719,-7.69901 c 0,0 24.052555,-0.85882 23.695745,-1.27004 l 14.5694,8.76341 -0.0115,-0.0606 5.72737,0.35077 a 17.650189,17.650189 0 0 1 14.99882,10.29957 z"
       id="path62" />
    <circle
       style="display:inline;fill:#cf5c1b;fill-opacity:1;stroke-width:0.60479122"
       cx="83.398994"
       cy="100.58323"
       r="9.6862211"
       id="circle26" />
    <path
       inkscape:connector-curvature="0"
       style="display:inline;fill:#cf5c1b;fill-opacity:1;stroke-width:0.60479122"
       d="m 74.380516,74.288769 c -6.697994,-3.071119 -15.102103,-1.630044 -20.679197,3.185618 -5.577137,4.815685 -8.228536,12.653299 -7.15182,19.942725 1.098293,7.436318 5.619105,13.839958 9.786234,20.096158 4.167196,6.25615 8.238295,13.11155 8.233633,20.62852 a 20.448716,20.448716 0 0 1 -20.408097,20.4361 c 6.35432,2.73555 12.986572,5.52477 19.897147,5.20046 6.910619,-0.32424 14.153874,-4.76685 15.28115,-11.59258 0.812223,-4.91819 -1.600694,-9.71404 -3.613181,-14.27455 a 100.9717,100.9717 0 0 1 -7.056707,-23.22957 c -0.672124,-3.81765 -1.10979,-7.83114 0.134865,-11.50227 A 13.506614,13.506614 0 0 1 82.222312,94.315911 L 84.505668,92.26164 C 85.521398,84.963436 81.078531,77.359867 74.380516,74.288769 Z"
       id="path34" />
    <path
       inkscape:connector-curvature="0"
       style="display:inline;fill:#cf5c1b;fill-opacity:1;stroke-width:1.05530727"
       d="m 72.326616,121.52926 a 24.521212,24.521212 0 1 0 42.176544,-17.00801 l -0.11774,-0.11776 c -0.19632,-0.20631 -0.39249,-0.41203 -0.59837,-0.60824 a 0.00960331,0.00960331 0 0 1 -0.008,-0.008 c -0.25487,-0.23534 -0.51005,-0.47078 -0.77489,-0.69638 -4.31571,-3.786026 -10.38149,-7.895469 -16.570661,-7.895469 -13.545491,0 -24.105138,12.789929 -24.105138,26.335479 z"
       id="path38-1-7" />
    <circle
       style="display:inline;fill:#f2d2c0;fill-opacity:1;stroke-width:1.05530727"
       cx="104.0408"
       cy="127.20271"
       id="circle46-8-1"
       r="20.562094" />
    <path
       inkscape:connector-curvature="0"
       style="display:inline;fill:#cf5c1b;fill-opacity:1;stroke-width:1.05530727"
       d="m 129.20231,123.53695 a 70.102072,70.102072 0 0 1 -7.45172,4.1085 42.879065,42.879065 0 0 1 -8.12696,2.93799 28.089019,28.089019 0 0 0 -2.9266,-4.98649 18.134506,18.134506 0 0 1 0.024,5.57173 29.028717,29.028717 0 0 1 -13.8565,-1.13682 l -3.872128,-6.49487 -0.292765,7.24903 c -3.208008,0.58535 -6.404806,1.1369 -9.612794,1.71097 -0.19152,0.024 -0.382518,0.0674 -0.562786,0.10123 -1.992442,-8.98246 0.832916,-18.87676 7.113913,-24.86501 a 22.631065,22.631065 0 0 1 23.77322,-4.61509 c 0.50657,0.20261 1.02431,0.42773 1.51955,0.66413 a 0.01103851,0.01103851 0 0 0 0.0107,0.0131 c 0.29277,0.14647 0.54033,0.4952 0.86676,0.46147 14.04779,-1.56472 14.4981,9.33133 13.39499,19.28188 z"
       id="path50-2-2" />
    <path
       inkscape:connector-curvature="0"
       style="display:inline;fill:#deecdb;fill-opacity:1;stroke-width:1.05530727"
       d="m 83.0808,132.49507 a 41.825794,41.825794 0 0 1 32.20135,-27.98364 c 0.0279,-0.008 0.12754,-0.049 0.25484,-0.10777 0.0785,-0.0489 0.17672,-0.0982 0.27443,-0.14712 -0.29438,-0.16671 -0.57867,-0.3139 -0.87299,-0.46113 a 0.00960331,0.00960331 0 0 1 -0.008,-0.008 c -0.25491,-0.23535 -0.51011,-0.47079 -0.77492,-0.69639 l -0.74546,0.0279 c 0,0 -26.198503,-4.148939 -30.327894,29.37635 z"
       id="path62-7-8" />
  </g>
  <g
     inkscape:groupmode="layer"
     id="layer15"
     inkscape:label="male"
     style="display:inline">
    <circle
       style="fill:#f2f2f2;stroke-width:0.60695541"
       cx="102.65728"
       cy="136.3781"
       r="68.853035"
       id="circle2" />
    <circle
       style="fill:#ebdabc;fill-opacity:1;stroke-width:0.60695541"
       cx="103.27246"
       cy="111.79227"
       r="27.456373"
       id="circle4" />
    <circle
       style="fill:#f2d2c0;fill-opacity:1;stroke-width:0.60695541"
       cx="103.2836"
       cy="118.32753"
       r="24.527958"
       id="circle42" />
    <path
       inkscape:connector-curvature="0"
       style="fill:#d5e9f1;stroke-width:0.60695541"
       d="m 154.12353,181.62018 a 68.828938,68.828938 0 0 1 -96.329678,6.96178 l 5.905665,-16.47884 a 17.721091,17.721091 0 0 1 15.052411,-10.33645 l 3.757034,-0.23064 8.958614,-7.72655 c 0,0 24.138554,-0.86188 23.780464,-1.27459 l 14.62154,8.79478 -0.0114,-0.0607 5.74789,0.35204 a 17.713346,17.713346 0 0 1 15.05248,10.33644 z"
       id="path60" />
    <path
       inkscape:connector-curvature="0"
       style="fill:#ebdabc;fill-opacity:1;stroke-width:0.60695541"
       d="m 129.1606,109.72552 a 54.274873,54.274873 0 0 0 0.23629,-5.5094 25.932822,25.932822 0 0 0 -1.95613,-10.618697 16.316851,16.316851 0 0 0 -8.53762,-8.24791 15.57778,15.57778 0 0 0 -11.6794,0.0091 c -3.38074,-2.135947 -7.13701,-3.829222 -11.092876,-4.038985 -3.955881,-0.209672 -8.138382,1.257895 -10.576195,4.488495 a 17.262075,17.262075 0 0 1 -1.847753,2.400516 c -1.959582,1.814719 -4.937635,1.552949 -7.542258,1.181895 q 1.752335,1.501908 3.505609,3.003769 -2.121207,0.554186 -4.242778,1.108303 2.47556,1.501357 4.950676,3.002762 c -4.790855,2.875598 -6.968411,9.151982 -6.393182,14.852262 0.54416,5.39681 3.149676,10.33185 6.264347,14.71823 1.242468,-2.62199 0.97477,-5.7594 0.954249,-8.7125 a 19.718216,19.718216 0 0 1 0.174855,-2.86462 c 10.526153,2.52325 21.524686,4.14264 32.678556,0.13513 l 2.23838,-5.4783 c 0.31411,0.0323 0.62838,0.0627 0.94237,0.0961 l 1.29678,5.38736 c 2.94008,1.20171 5.88633,2.25199 8.8337,1.14836 0.14338,0.83212 0.22975,1.68134 0.29612,2.49756 0.25293,-0.97632 0.4724,-1.95991 0.67031,-2.94738 a 8.7150794,8.7150794 0 0 0 1.11593,-0.71287 23.982207,23.982207 0 0 0 -0.28998,-4.90027 z"
       id="path78" />
  </g>
</svg>
