<?xml version="1.0" encoding="UTF-8" standalone="no"?>
<!-- Created with Inkscape (http://www.inkscape.org/) -->

<svg
   xmlns:dc="http://purl.org/dc/elements/1.1/"
   xmlns:cc="http://creativecommons.org/ns#"
   xmlns:rdf="http://www.w3.org/1999/02/22-rdf-syntax-ns#"
   xmlns:svg="http://www.w3.org/2000/svg"
   xmlns="http://www.w3.org/2000/svg"
   xmlns:sodipodi="http://sodipodi.sourceforge.net/DTD/sodipodi-0.dtd"
   xmlns:inkscape="http://www.inkscape.org/namespaces/inkscape"
   width="212.5mm"
   height="212.5mm"
   viewBox="0 0 212.5 212.5"
   version="1.1"
   id="svg5290"
   sodipodi:docname="mellow_female.svg"
   inkscape:version="0.92.4 (5da689c313, 2019-01-14)"
   inkscape:export-filename="C:\Users\rapha\bitmap.png"
   inkscape:export-xdpi="35.220001"
   inkscape:export-ydpi="35.220001">
  <defs
     id="defs5284" />
  <sodipodi:namedview
     id="base"
     pagecolor="#ffffff"
     bordercolor="#666666"
     borderopacity="1.0"
     inkscape:pageopacity="0.0"
     inkscape:pageshadow="2"
     inkscape:zoom="0.62135887"
     inkscape:cx="-42.503806"
     inkscape:cy="280.55443"
     inkscape:document-units="mm"
     inkscape:current-layer="g1005"
     showgrid="false"
     inkscape:window-width="1718"
     inkscape:window-height="1080"
     inkscape:window-x="-7"
     inkscape:window-y="0"
     inkscape:window-maximized="0" />
  <metadata
     id="metadata5287">
    <rdf:RDF>
      <cc:Work
         rdf:about="">
        <dc:format>image/svg+xml</dc:format>
        <dc:type
           rdf:resource="http://purl.org/dc/dcmitype/StillImage" />
        <dc:title />
      </cc:Work>
    </rdf:RDF>
  </metadata>
  <g
     inkscape:groupmode="layer"
     id="layer13"
     inkscape:label="hair_old"
     style="display:none"
     transform="translate(-33.635418,-44.781213)">
    <circle
       style="fill:#2f2e41;stroke-width:0.48621342"
       cx="111.82581"
       cy="48.332283"
       r="5.0120482"
       id="circle28" />
    <path
       inkscape:connector-curvature="0"
       style="fill:#2f2e41;stroke-width:0.48621342"
       d="m 107.09466,50.155189 a 5.0127534,5.0127534 0 0 1 3.23912,-7.974829 5.0108619,5.0108619 0 1 0 0.62306,9.961717 4.9996742,4.9996742 0 0 1 -3.86218,-1.986888 z"
       id="path30-40" />
    <circle
       style="fill:#2f2e41;stroke-width:0.48621342"
       cx="106.63348"
       cy="66.067238"
       r="14.722901"
       id="circle32" />
  </g>
  <g
     inkscape:groupmode="layer"
     id="layer12"
     inkscape:label="hair"
     style="display:inline"
     transform="translate(-33.635418,-44.781213)">
    <circle
       style="fill:#cf5c1b;fill-opacity:1;stroke-width:0.44802049"
       cx="152.52094"
       cy="68.696243"
       r="14.784679"
       id="circle4" />
    <path
       inkscape:connector-curvature="0"
       style="fill:#cf5c1b;fill-opacity:1;stroke-width:0.44802049"
       d="m 152.46691,54.155025 a 33.818658,33.818658 0 0 1 12.30399,-7.956488 c 2.97431,-1.101869 6.21166,-1.782649 9.32116,-1.156903 3.1095,0.625745 6.05013,2.776862 6.91762,5.827751 0.70936,2.494739 -0.0232,5.180815 -1.12396,7.529232 -1.10084,2.348416 -2.57054,4.526115 -3.46078,6.962177 a 15.890361,15.890361 0 0 0 15.9894,21.308865 c -3.05522,0.409661 -5.87137,1.845414 -8.8577,2.609638 -2.98632,0.764222 -6.511,0.712408 -8.73023,-1.427017 -2.34805,-2.263595 -2.39505,-5.943977 -2.28153,-9.203455 q 0.25313,-7.268009 0.50627,-14.536029 c 0.086,-2.471025 0.1595,-5.021248 -0.73158,-7.327604 -0.89113,-2.306355 -3.00899,-4.325949 -5.48145,-4.304958 -1.87387,0.01591 -3.53241,1.151076 -5.03518,2.270567 -1.50276,1.119493 -3.09333,2.313906 -4.95984,2.480427 -1.86652,0.166519 -3.99767,-1.214784 -3.85801,-3.0835"
       id="path26-2" />
    <path
       inkscape:connector-curvature="0"
       style="fill:#cf5c1b;fill-opacity:1;stroke-width:0.48621342"
       d="m 138.95238,63.349887 a 14.720257,14.720257 0 0 1 19.06439,-7.433722 c -0.14856,-0.07432 -0.29618,-0.149874 -0.44829,-0.219698 a 14.722909,14.722909 0 0 0 -12.28623,26.760131 c 0.15212,0.06988 0.30566,0.132498 0.45883,0.196758 a 14.72027,14.72027 0 0 1 -6.7887,-19.303469 z"
       id="path34-3" />
  </g>
  <g
     inkscape:groupmode="layer"
     id="layer11"
     inkscape:label="mellow"
     transform="translate(-33.635418,-44.781213)">
    <polygon
       transform="matrix(0.48621341,0,0,0.48621341,-106.56186,6.0345475)"
       style="fill:#f2d2c0;fill-opacity:1"
       points="498.75,461.462 515.261,461.462 515.259,504.614 504.072,504.614 "
       id="polygon20" />
    <path
       inkscape:connector-curvature="0"
       style="fill:#2f2e41;stroke-width:0.48621342"
       d="m 145.35141,256.65771 -17.53955,-3.5e-4 v -0.22186 a 6.8272143,6.8272143 0 0 1 6.82685,-6.82672 h 3.6e-4 l 10.71259,3.6e-4 z"
       id="path22" />
    <polygon
       transform="matrix(0.48621341,0,0,0.48621341,-106.56186,6.0345475)"
       style="fill:#f2d2c0;fill-opacity:1"
       points="574.014,461.081 587.858,452.081 611.378,488.26 601.998,494.358 "
       id="polygon24" />
    <path
       inkscape:connector-curvature="0"
       style="fill:#2f2e41;stroke-width:0.48621342"
       d="m 194.73539,247.09785 -14.70518,9.55986 -0.12094,-0.18601 a 6.8272143,6.8272143 0 0 1 2.00241,-9.4446 l 3.5e-4,-2.4e-4 8.98144,-5.83879 z"
       id="path26" />
    <polygon
       transform="matrix(0.48621341,0,0,0.48621341,-106.56186,6.0345475)"
       style="fill:#2f2e41"
       points="469.539,483.105 483.103,386.805 499.57,278.086 569.908,282.368 591.609,394.944 620.092,479.035 573.977,488.53 529.218,320.345 527.861,481.749 "
       id="polygon36" />
    <circle
       style="fill:#f2d2c0;fill-opacity:1;stroke-width:0.48621342"
       cx="152.71724"
       cy="73.442284"
       r="9.8919916"
       id="circle38" />
    <path
       inkscape:connector-curvature="0"
       style="fill:#d5e9f1;stroke-width:0.48621342"
       d="m 161.9619,85.571978 -15.16773,0.38004 -10.55151,5.275741 1.31896,30.335431 -2.55723,23.23015 c 0,0 -0.95591,3.64076 5.6388,6.93808 2.11037,1.05519 4.82862,1.50257 7.54948,1.62308 a 24.45594,24.45594 0 0 0 15.49375,-4.89932 c 1.38308,-1.01357 2.91531,-1.69098 4.2107,-1.17282 3.29733,1.31892 3.9568,-2.63787 3.9568,-2.63787 l -3.9568,-19.12451 5.9352,-18.18563 -5.99464,-19.522152 z"
       id="path40-6" />
    <polygon
       transform="matrix(0.48621341,0,0,0.48621341,-106.56186,8.680381)"
       style="fill:#cf5c1b;fill-opacity:1"
       points="548.698,134.576 547.268,127.423 550.129,134.576 553.825,134.576 553.825,111.924 514.481,111.924 514.481,134.576 519.728,134.576 526.404,127.423 525.51,134.576 "
       id="polygon42" />
    <path
       inkscape:connector-curvature="0"
       style="fill:#d5e9f1;stroke-width:0.48621342"
       d="m 164.69521,70.699203 a 1.2064024,1.2064024 0 0 0 -1.1985,-1.091326 h -1.21061 v 7.979075 h 1.21061 a 1.2064024,1.2064024 0 0 0 1.1985,-1.091325 2.8424035,2.8424035 0 0 0 2.1032,-2.742856 v -0.310686 a 2.8424035,2.8424035 0 0 0 -2.1032,-2.742882 z"
       id="path44" />
    <path
       inkscape:connector-curvature="0"
       style="fill:#d5e9f1;stroke-width:0.48621342"
       d="m 142.81824,76.596452 h -1.33846 a 2.8436678,2.8436678 0 0 1 -2.8437,-2.843681 v -0.310686 a 2.8436678,2.8436678 0 0 1 2.8437,-2.84368 h 1.33846 v 5.99806 z"
       id="path46" />
    <path
       inkscape:connector-curvature="0"
       style="fill:#d5e9f1;stroke-width:0.48621342"
       d="m 143.14845,77.586952 h -1.21063 a 1.2106228,1.2106228 0 0 1 -1.21062,-1.210615 v 0 -5.557831 a 1.2106228,1.2106228 0 0 1 1.21062,-1.210629 h 1.21063 z"
       id="path48-0" />
    <path
       inkscape:connector-curvature="0"
       style="fill:#d5e9f1;stroke-width:0.48621342"
       d="m 164.04722,71.015884 h -0.88738 c 0,-6.267144 -4.6436,-11.365718 -10.35136,-11.365718 -5.70821,0 -10.35184,5.098561 -10.35184,11.365718 h -0.88738 c 0,-6.75634 5.04182,-12.253082 11.23922,-12.253082 6.19694,0 11.23874,5.496742 11.23874,12.253082 z"
       id="path50-20" />
    <path
       inkscape:connector-curvature="0"
       style="fill:#f2d2c0;fill-opacity:1;stroke-width:0.48621342"
       d="m 127.89642,160.8278 a 4.1604843,4.1604843 0 0 0 1.25159,-6.25563 l 4.56934,-8.3374 -4.38937,-4.01252 -6.28745,11.86465 a 4.1830348,4.1830348 0 0 0 4.85587,6.74088 z"
       id="path52" />
    <path
       inkscape:connector-curvature="0"
       style="fill:#d5e9f1;stroke-width:0.48621342"
       d="m 139.54002,91.227759 -1.77524,-0.86976 c 0,0 -4.15999,0.86976 -5.4789,3.507621 -1.31891,2.637853 -4.61624,29.67596 -4.61624,29.67596 l -2.63786,17.80558 c 0,0 -1.97841,0 -1.97841,1.97841 0,1.97841 -2.63787,7.25412 -0.65947,7.25412 1.97839,0 9.89202,0 11.21092,-1.31892 1.3189,-1.31893 3.95681,-6.59466 3.29735,-7.25412 -0.65948,-0.65948 -1.97842,-0.65946 -1.97842,-0.65946 l 1.8554,-17.85106 z"
       id="path54-8" />
    <path
       inkscape:connector-curvature="0"
       style="fill:#f2d2c0;fill-opacity:1;stroke-width:0.48621342"
       d="m 174.98245,154.63006 a 4.1604601,4.1604601 0 0 1 0.37216,-6.36873 l -2.31079,-9.22233 5.26189,-2.77117 3.08036,13.06956 a 4.1830301,4.1830301 0 0 1 -6.40362,5.29267 z"
       id="path56-3" />
    <path
       inkscape:connector-curvature="0"
       style="fill:#d5e9f1;stroke-width:0.48621342"
       d="m 168.36407,117.66157 1.85539,17.85103 c 0,0 -1.31891,0 -1.97839,0.65946 -0.65949,0.65947 1.97839,5.9352 3.29732,7.25413 1.31893,1.31892 9.23252,1.31893 11.21092,1.31893 1.97839,0 -0.65947,-5.27573 -0.65947,-7.25412 0,-1.97841 -1.97841,-1.97841 -1.97841,-1.97841 l -2.63784,-17.80558 c 0,0 -3.29734,-24.12083 -4.61627,-26.75868 -1.3189,-2.637878 -5.47888,-3.507638 -5.47888,-3.507638 l -1.7752,0.869787 z"
       id="path58-6" />
    <path
       inkscape:connector-curvature="0"
       style="fill:#3f3d56;stroke-width:0.48621342"
       d="m 132.19691,154.8252 -0.0851,0.054 -1.47945,-2.33189 a 1.5983391,1.5983391 0 0 0 -2.2059,-0.49336 l -4.94042,3.13443 a 1.5983487,1.5983487 0 0 0 -0.49336,2.2059 v 0 l 8.11636,12.79295 a 1.5983342,1.5983342 0 0 0 2.2059,0.49336 l 4.94044,-3.13442 a 1.5983487,1.5983487 0 0 0 0.49337,-2.2059 l -5.58384,-8.80118 0.0851,-0.054 z"
       id="path60-3" />
    <path
       inkscape:connector-curvature="0"
       style="fill:#d5e9f1;stroke-width:0.48621342"
       d="m 130.35102,152.73896 8.10445,12.77411 a 1.193688,1.193688 0 0 1 -0.36846,1.64742 l -4.96415,3.14945 a 1.1936977,1.1936977 0 0 1 -1.64739,-0.36847 l -8.10445,-12.7741 a 1.1936928,1.1936928 0 0 1 0.36847,-1.64741 l 0.60223,-0.38206 a 0.56741103,0.56741103 0 0 0 0.86194,0.37836 l 2.83032,-1.79566 a 0.567377,0.567377 0 0 0 0.0249,-0.94101 l 0.64479,-0.40909 a 1.1936977,1.1936977 0 0 1 1.64737,0.36846 z"
       id="path62-3" />
    <g
       id="g1005"
       transform="translate(-212.16617,22.757978)">
      <g
         transform="translate(-22.123157,-42.093062)"
         style="display:none"
         inkscape:label="hair_old"
         id="layer13-4">
        <circle
           id="circle28-9"
           r="5.0120482"
           cy="48.332283"
           cx="111.82581"
           style="fill:#2f2e41;stroke-width:0.48621342" />
        <path
           id="path30-40-0"
           d="m 107.09466,50.155189 a 5.0127534,5.0127534 0 0 1 3.23912,-7.974829 5.0108619,5.0108619 0 1 0 0.62306,9.961717 4.9996742,4.9996742 0 0 1 -3.86218,-1.986888 z"
           style="fill:#2f2e41;stroke-width:0.48621342"
           inkscape:connector-curvature="0" />
        <circle
           id="circle32-0"
           r="14.722901"
           cy="66.067238"
           cx="106.63348"
           style="fill:#2f2e41;stroke-width:0.48621342" />
      </g>
      <g
         transform="matrix(1.2316929,0,0,1.3527219,231.38554,-128.10148)"
         inkscape:label="flower_old"
         id="layer2">
        <path
           d="m 30.793691,219.71732 a 3.8037201,3.8037201 0 0 1 -3.673014,-0.64701 c -1.286479,-1.0798 -1.690314,-2.85865 -2.017999,-4.50596 l -0.970684,-4.87213 2.032233,1.39945 c 1.461538,1.00632 2.955882,2.04495 3.967897,3.50264 1.012019,1.45769 1.453674,3.44758 0.640651,5.02477"
           data-name="Path 461"
           id="fd60ad6d-234f-4794-b327-6c250fb58182-1691-8"
           style="fill:#d5e9f1;fill-opacity:1;stroke-width:0.16735832"
           inkscape:connector-curvature="0" />
        <path
           d="m 30.619973,225.61602 c 0.205683,-1.49835 0.417225,-3.01579 0.272965,-4.53022 -0.128195,-1.34488 -0.538395,-2.65849 -1.37385,-3.73561 a 6.214336,6.214336 0 0 0 -1.594419,-1.44479 c -0.159492,-0.10042 -0.306104,0.15212 -0.147444,0.2522 a 5.9077305,5.9077305 0 0 1 2.336829,2.81949 c 0.508765,1.29402 0.59044,2.70468 0.502075,4.07919 -0.05307,0.83127 -0.165351,1.65685 -0.278653,2.48192 a 0.15062249,0.15062249 0 0 0 0.102085,0.17975 0.14694062,0.14694062 0 0 0 0.17974,-0.10209 z"
           data-name="Path 462"
           id="bb4d4dd3-dbdc-44b5-88db-bf6307e476a1-1692-7"
           style="fill:#f2f2f2;stroke-width:0.16735832"
           inkscape:connector-curvature="0" />
        <path
           d="m 32.127639,226.08529 c 0,0 -2.134318,-5.25355 4.268477,-9.19366 z"
           data-name="Path 482"
           id="fe08dba1-9a00-49ac-809e-caf1a04d3592-1693-6"
           style="fill:#d5e9f1;fill-opacity:1;stroke-width:0.16735832"
           inkscape:connector-curvature="0" />
        <path
           d="m 29.502801,225.98972 c 0,0 -0.651023,-3.74447 -5.690185,-3.71234 z"
           data-name="Path 483"
           id="ae08b72c-0170-4ceb-bc44-c76ada017e82-1694-1"
           style="fill:#d5e9f1;fill-opacity:1;stroke-width:0.16735832"
           inkscape:connector-curvature="0" />
        <path
           id="path64-5"
           d="m 62.075638,225.99611 h -39.84909 a 0.1045919,0.1045919 0 0 1 0,-0.20917 h 39.84909 a 0.1045919,0.1045919 0 0 1 0,0.20917 z"
           style="fill:#e6e6e6;fill-opacity:1;stroke-width:0.10459085"
           inkscape:connector-curvature="0" />
      </g>
      <g
         transform="matrix(1.2316929,0,0,1.3527219,231.38554,-128.10148)"
         inkscape:label="flower_new"
         id="layer1">
        <path
           id="path72"
           d="m 65.460358,218.06283 a 1.1190156,1.1190156 0 0 1 -0.811002,-1.93954 l 0.07661,-0.30481 q -0.01512,-0.0366 -0.03053,-0.0732 a 3.0050428,3.0050428 0 0 0 -5.543141,0.0206 c -0.906611,2.18352 -2.060879,4.37079 -2.345086,6.6795 a 8.8900166,8.8900166 0 0 0 0.156065,3.05748 35.64202,35.64202 0 0 1 -3.242222,-14.80329 34.401498,34.401498 0 0 1 0.213368,-3.83778 q 0.176774,-1.56698 0.490489,-3.11163 a 36.054985,36.054985 0 0 1 7.150052,-15.28101 9.5952404,9.5952404 0 0 0 3.990651,-4.14035 7.3191708,7.3191708 0 0 0 0.665651,-2.00009 c -0.194272,0.0255 -0.391726,0.0414 -0.585998,0.0541 -0.06048,0.003 -0.124282,0.006 -0.184739,0.0101 l -0.0229,0.001 a 1.1086897,1.1086897 0 0 1 -0.910542,-1.80624 q 0.125866,-0.15484 0.251804,-0.30954 c 0.127451,-0.15927 0.257983,-0.31531 0.385361,-0.47455 a 0.55170239,0.55170239 0 0 0 0.04148,-0.0478 c 0.146546,-0.18148 0.293035,-0.35982 0.439552,-0.54138 a 3.205949,3.205949 0 0 0 -1.051026,-1.01595 c -1.468228,-0.8599 -3.493811,-0.26434 -4.554385,1.06375 -1.063742,1.32806 -1.26438,3.19125 -0.894961,4.85055 a 12.847816,12.847816 0 0 0 1.777191,3.96195 c -0.07964,0.10197 -0.162445,0.20067 -0.242069,0.3026 a 36.287799,36.287799 0 0 0 -3.787537,6.00035 15.08526,15.08526 0 0 0 -0.900591,-7.00678 c -0.86204,-2.07955 -2.477794,-3.83098 -3.900658,-5.62875 -1.709088,-2.15941 -5.213743,-1.217 -5.514842,1.52039 q -0.0043,0.0397 -0.0086,0.0795 0.317013,0.17886 0.620634,0.37965 a 1.5178636,1.5178636 0 0 1 -0.611978,2.76223 l -0.03096,0.004 a 15.102452,15.102452 0 0 0 0.398107,2.25809 15.549935,15.549935 0 0 0 7.742415,9.74573 c 0.124138,0.0636 0.245252,0.12744 0.369476,0.1879 a 37.039069,37.039069 0 0 0 -1.993741,9.38264 35.129963,35.129963 0 0 0 0.02549,5.67226 l -0.01008,-0.0668 a 9.2829054,9.2829054 0 0 0 -3.168963,-5.36014 c -2.43868,-2.0033 -5.884088,-2.74099 -8.514995,-4.35126 a 1.7421422,1.7421422 0 0 0 -2.668278,1.69483 q 0.0058,0.0352 0.01152,0.0703 a 10.196828,10.196828 0 0 1 1.143352,0.55097 q 0.317013,0.17888 0.620633,0.37964 a 1.5178827,1.5178827 0 0 1 -0.611964,2.76225 l -0.03096,0.004 c -0.02232,0.003 -0.04147,0.006 -0.06365,0.0101 a 15.115823,15.115823 0 0 0 2.780376,4.3537 15.56374,15.56374 0 0 0 11.287207,4.95249 h 0.0029 a 37.02845,37.02845 0 0 0 2.487399,7.26152 h 8.885782 c 0.03183,-0.0988 0.06048,-0.20067 0.08914,-0.2994 a 10.095854,10.095854 0 0 1 -2.458755,-0.14648 c 0.659286,-0.80896 1.318543,-1.62431 1.977814,-2.43326 a 0.55091365,0.55091365 0 0 0 0.04148,-0.0478 c 0.334409,-0.41402 0.672016,-0.82486 1.006426,-1.23889 l 1.73e-4,-3.8e-4 a 14.788308,14.788308 0 0 0 -0.433317,-3.76722 z"
           style="fill:#d5e9f1;fill-opacity:1;stroke-width:0.38103098"
           inkscape:connector-curvature="0" />
      </g>
    </g>
  </g>
</svg>
