<?xml version="1.0" encoding="UTF-8" standalone="no"?>
<!-- Created with Inkscape (http://www.inkscape.org/) -->

<svg
   xmlns:dc="http://purl.org/dc/elements/1.1/"
   xmlns:cc="http://creativecommons.org/ns#"
   xmlns:rdf="http://www.w3.org/1999/02/22-rdf-syntax-ns#"
   xmlns:svg="http://www.w3.org/2000/svg"
   xmlns="http://www.w3.org/2000/svg"
   xmlns:sodipodi="http://sodipodi.sourceforge.net/DTD/sodipodi-0.dtd"
   xmlns:inkscape="http://www.inkscape.org/namespaces/inkscape"
   width="138.94984mm"
   height="202.70424mm"
   viewBox="0 0 138.94985 202.70424"
   version="1.1"
   id="svg5290"
   sodipodi:docname="mellow_male.svg"
   inkscape:version="0.92.1 r15371"
   inkscape:export-filename="C:\Users\rapha\Documents\Maaind\Achmea\Avatar\mellow_male.png"
   inkscape:export-xdpi="35.220001"
   inkscape:export-ydpi="35.220001">
  <defs
     id="defs5284" />
  <sodipodi:namedview
     id="base"
     pagecolor="#ffffff"
     bordercolor="#666666"
     borderopacity="1.0"
     inkscape:pageopacity="0.0"
     inkscape:pageshadow="2"
     inkscape:zoom="1.1049875"
     inkscape:cx="270.60821"
     inkscape:cy="405.57479"
     inkscape:document-units="mm"
     inkscape:current-layer="g4670"
     showgrid="false"
     inkscape:window-width="1718"
     inkscape:window-height="1368"
     inkscape:window-x="1713"
     inkscape:window-y="0"
     inkscape:window-maximized="0" />
  <metadata
     id="metadata5287">
    <rdf:RDF>
      <cc:Work
         rdf:about="">
        <dc:format>image/svg+xml</dc:format>
        <dc:type
           rdf:resource="http://purl.org/dc/dcmitype/StillImage" />
        <dc:title />
      </cc:Work>
    </rdf:RDF>
  </metadata>
  <g
     inkscape:groupmode="layer"
     id="layer7"
     inkscape:label="background">
    <path
       transform="translate(-22.123157,-51.117807)"
       inkscape:connector-curvature="0"
       style="display:inline;fill:#d5e9f1;fill-opacity:1;stroke-width:0.16735832"
       id="fd60ad6d-234f-4794-b327-6c250fb58182-1691"
       data-name="Path 461"
       d="m 30.793691,219.71732 a 3.8037201,3.8037201 0 0 1 -3.673014,-0.64701 c -1.286479,-1.0798 -1.690314,-2.85865 -2.017999,-4.50596 l -0.970684,-4.87213 2.032233,1.39945 c 1.461538,1.00632 2.955882,2.04495 3.967897,3.50264 1.012019,1.45769 1.453674,3.44758 0.640651,5.02477" />
    <path
       transform="translate(-22.123157,-51.117807)"
       inkscape:connector-curvature="0"
       style="display:inline;fill:#f2f2f2;stroke-width:0.16735832"
       id="bb4d4dd3-dbdc-44b5-88db-bf6307e476a1-1692"
       data-name="Path 462"
       d="m 30.619973,225.61602 c 0.205683,-1.49835 0.417225,-3.01579 0.272965,-4.53022 -0.128195,-1.34488 -0.538395,-2.65849 -1.37385,-3.73561 a 6.214336,6.214336 0 0 0 -1.594419,-1.44479 c -0.159492,-0.10042 -0.306104,0.15212 -0.147444,0.2522 a 5.9077305,5.9077305 0 0 1 2.336829,2.81949 c 0.508765,1.29402 0.59044,2.70468 0.502075,4.07919 -0.05307,0.83127 -0.165351,1.65685 -0.278653,2.48192 a 0.15062249,0.15062249 0 0 0 0.102085,0.17975 0.14694062,0.14694062 0 0 0 0.17974,-0.10209 z" />
    <path
       transform="translate(-22.123157,-51.117807)"
       inkscape:connector-curvature="0"
       style="display:inline;fill:#d5e9f1;fill-opacity:1;stroke-width:0.16735832"
       id="fe08dba1-9a00-49ac-809e-caf1a04d3592-1693"
       data-name="Path 482"
       d="m 32.127639,226.08529 c 0,0 -2.134318,-5.25355 4.268477,-9.19366 z" />
    <path
       transform="translate(-22.123157,-51.117807)"
       inkscape:connector-curvature="0"
       style="display:inline;fill:#d5e9f1;fill-opacity:1;stroke-width:0.16735832"
       id="ae08b72c-0170-4ceb-bc44-c76ada017e82-1694"
       data-name="Path 483"
       d="m 29.502801,225.98972 c 0,0 -0.651023,-3.74447 -5.690185,-3.71234 z" />
    <path
       transform="translate(-22.123157,-51.117807)"
       inkscape:connector-curvature="0"
       style="display:inline;fill:#e6e6e6;fill-opacity:1;stroke-width:0.10459085"
       d="m 62.075638,225.99611 h -39.84909 a 0.1045919,0.1045919 0 0 1 0,-0.20917 h 39.84909 a 0.1045919,0.1045919 0 0 1 0,0.20917 z"
       id="path64" />
    <path
       transform="translate(-22.123157,-51.117807)"
       inkscape:connector-curvature="0"
       style="display:inline;fill:#d5e9f1;fill-opacity:1;stroke-width:0.38103098"
       d="m 65.460358,218.06283 a 1.1190156,1.1190156 0 0 1 -0.811002,-1.93954 l 0.07661,-0.30481 q -0.01512,-0.0366 -0.03053,-0.0732 a 3.0050428,3.0050428 0 0 0 -5.543141,0.0206 c -0.906611,2.18352 -2.060879,4.37079 -2.345086,6.6795 a 8.8900166,8.8900166 0 0 0 0.156065,3.05748 35.64202,35.64202 0 0 1 -3.242222,-14.80329 34.401498,34.401498 0 0 1 0.213368,-3.83778 q 0.176774,-1.56698 0.490489,-3.11163 a 36.054985,36.054985 0 0 1 7.150052,-15.28101 9.5952404,9.5952404 0 0 0 3.990651,-4.14035 7.3191708,7.3191708 0 0 0 0.665651,-2.00009 c -0.194272,0.0255 -0.391726,0.0414 -0.585998,0.0541 -0.06048,0.003 -0.124282,0.006 -0.184739,0.0101 l -0.0229,0.001 a 1.1086897,1.1086897 0 0 1 -0.910542,-1.80624 q 0.125866,-0.15484 0.251804,-0.30954 c 0.127451,-0.15927 0.257983,-0.31531 0.385361,-0.47455 a 0.55170239,0.55170239 0 0 0 0.04148,-0.0478 c 0.146546,-0.18148 0.293035,-0.35982 0.439552,-0.54138 a 3.205949,3.205949 0 0 0 -1.051026,-1.01595 c -1.468228,-0.8599 -3.493811,-0.26434 -4.554385,1.06375 -1.063742,1.32806 -1.26438,3.19125 -0.894961,4.85055 a 12.847816,12.847816 0 0 0 1.777191,3.96195 c -0.07964,0.10197 -0.162445,0.20067 -0.242069,0.3026 a 36.287799,36.287799 0 0 0 -3.787537,6.00035 15.08526,15.08526 0 0 0 -0.900591,-7.00678 c -0.86204,-2.07955 -2.477794,-3.83098 -3.900658,-5.62875 -1.709088,-2.15941 -5.213743,-1.217 -5.514842,1.52039 q -0.0043,0.0397 -0.0086,0.0795 0.317013,0.17886 0.620634,0.37965 a 1.5178636,1.5178636 0 0 1 -0.611978,2.76223 l -0.03096,0.004 a 15.102452,15.102452 0 0 0 0.398107,2.25809 15.549935,15.549935 0 0 0 7.742415,9.74573 c 0.124138,0.0636 0.245252,0.12744 0.369476,0.1879 a 37.039069,37.039069 0 0 0 -1.993741,9.38264 35.129963,35.129963 0 0 0 0.02549,5.67226 l -0.01008,-0.0668 a 9.2829054,9.2829054 0 0 0 -3.168963,-5.36014 c -2.43868,-2.0033 -5.884088,-2.74099 -8.514995,-4.35126 a 1.7421422,1.7421422 0 0 0 -2.668278,1.69483 q 0.0058,0.0352 0.01152,0.0703 a 10.196828,10.196828 0 0 1 1.143352,0.55097 q 0.317013,0.17888 0.620633,0.37964 a 1.5178827,1.5178827 0 0 1 -0.611964,2.76225 l -0.03096,0.004 c -0.02232,0.003 -0.04147,0.006 -0.06365,0.0101 a 15.115823,15.115823 0 0 0 2.780376,4.3537 15.56374,15.56374 0 0 0 11.287207,4.95249 h 0.0029 a 37.02845,37.02845 0 0 0 2.487399,7.26152 h 8.885782 c 0.03183,-0.0988 0.06048,-0.20067 0.08914,-0.2994 a 10.095854,10.095854 0 0 1 -2.458755,-0.14648 c 0.659286,-0.80896 1.318543,-1.62431 1.977814,-2.43326 a 0.55091365,0.55091365 0 0 0 0.04148,-0.0478 c 0.334409,-0.41402 0.672016,-0.82486 1.006426,-1.23889 l 1.73e-4,-3.8e-4 a 14.788308,14.788308 0 0 0 -0.433317,-3.76722 z"
       id="path72" />
  </g>
  <g
     inkscape:groupmode="layer"
     id="layer3"
     inkscape:label="mellow"
     style="display:inline"
     transform="translate(-4.8279201e-7,-9.0247461)">
    <polygon
       transform="matrix(-0.3801105,0,0,0.3801105,193.75649,-16.113668)"
       style="display:inline;fill:#f2d2c0;fill-opacity:1"
       points="187.51,534.385 187.512,586.351 200.985,586.351 207.395,534.384 "
       id="polygon2" />
    <path
       inkscape:connector-curvature="0"
       style="display:inline;fill:#2f2e41;stroke-width:0.38011047"
       d="m 123.7874,205.0926 -10.08548,-3.7e-4 h -3.6e-4 a 6.4275849,6.4275849 0 0 0 -6.42725,6.42713 v 0.20884 l 16.5128,7.8e-4 z"
       id="path4" />
    <polygon
       transform="matrix(-0.3801105,0,0,0.3801105,193.75649,-16.113668)"
       style="display:inline;fill:#f2d2c0;fill-opacity:1"
       points="276.51,534.385 276.512,586.351 289.985,586.351 296.395,534.384 "
       id="polygon6" />
    <path
       inkscape:connector-curvature="0"
       style="display:inline;fill:#2f2e41;stroke-width:0.38011047"
       d="m 89.957558,205.0926 -10.085467,-3.7e-4 h -3.78e-4 a 6.4275849,6.4275849 0 0 0 -6.427248,6.42713 v 0.20884 l 16.512805,7.8e-4 z"
       id="path8" />
    <polygon
       transform="matrix(-0.3801105,0,0,0.3801105,193.75649,-16.113668)"
       style="display:inline;fill:#2f2e41"
       points="274.453,575.082 298.002,575.082 298.002,342.166 186.038,308.658 176.231,575.082 211.132,575.082 233.439,379.759 "
       id="polygon12" />
    <path
       inkscape:connector-curvature="0"
       style="display:inline;fill:#d5e9f1;fill-opacity:1;stroke-width:0.38011047"
       d="m 122.10939,103.07449 c -12.41357,9.70812 -26.115809,14.60149 -41.626591,12.73648 6.550886,-23.000949 8.493952,-45.827718 2.17453,-68.342143 l 13.047138,-5.902279 14.665923,-0.931935 10.65926,3.135075 a 7.1273986,7.1273986 0 0 1 5.11282,6.977802 c -0.37636,19.200697 0.9002,37.169872 -4.03308,52.327 z"
       id="path16" />
    <path
       inkscape:connector-curvature="0"
       style="display:inline;fill:#f2d2c0;fill-opacity:1;stroke-width:0.38011047"
       d="m 114.83307,110.65854 a 3.9654838,3.9654838 0 0 1 4.68002,-3.8822 l 6.94293,-12.262988 2.86468,5.871648 -6.63527,11.29405 a 3.986979,3.986979 0 0 1 -7.85236,-1.0205 z"
       id="path40" />
    <path
       inkscape:connector-curvature="0"
       style="display:inline;fill:#f2d2c0;fill-opacity:1;stroke-width:0.38011047"
       d="m 73.945111,125.94587 a 3.9654951,3.9654951 0 0 1 2.263012,-5.64381 l 0.256641,-14.0897 6.038939,4.14211 -1.169523,12.74478 a 3.986979,3.986979 0 0 1 -7.389039,2.84662 z"
       id="path42" />
    <path
       inkscape:connector-curvature="0"
       style="display:inline;fill:#d5e9f1;fill-opacity:1;stroke-width:0.38011047"
       d="m 125.83712,108.97676 -4.97031,-4.65968 2.55075,-25.16235 -2.95114,-35.568985 v 0 c 6.41072,2.014802 13.29416,7.427119 14.42793,14.05067 l 4.0555,23.692851 z"
       id="path44-2" />
    <polygon
       transform="matrix(-0.3801105,0,0,0.3801105,193.75649,-16.113668)"
       points="181.371,260.849 186.275,215.083 175.65,257.58 191.759,317.884 "
       style="display:inline;opacity:0.2;isolation:isolate"
       id="polygon46" />
    <path
       inkscape:connector-curvature="0"
       style="display:inline;fill:#d5e9f1;fill-opacity:1;stroke-width:0.38011047"
       d="m 82.967982,117.67485 -8.076805,0.93194 1.891122,-59.975579 a 13.960276,13.960276 0 0 1 8.584007,-12.446438 l 2.882656,-1.201104 -0.776618,28.113479 z"
       id="path48" />
    <polygon
       transform="matrix(-0.3801105,0,0,0.3801105,193.75649,-16.113668)"
       points="277.823,237.749 283.509,237.114 291.71,328.176 "
       style="display:inline;opacity:0.2;isolation:isolate"
       id="polygon50" />
    <g
       style="display:inline"
       id="g4575"
       transform="translate(2.8068434,12.296179)">
      <path
         id="path60-3"
         d="m 103.52401,152.11534 -0.0851,0.054 -1.47945,-2.33189 a 1.5983391,1.5983391 0 0 0 -2.205902,-0.49336 l -4.94041,3.13443 a 1.5983487,1.5983487 0 0 0 -0.49336,2.2059 v 0 l 8.116352,12.79295 a 1.5983342,1.5983342 0 0 0 2.2059,0.49336 l 4.94042,-3.13442 a 1.5983487,1.5983487 0 0 0 0.49337,-2.2059 l -5.58382,-8.80118 0.0851,-0.054 z"
         style="display:inline;fill:#3f3d56;stroke-width:0.48621342"
         inkscape:connector-curvature="0"
         transform="translate(-22.123157,-42.093063)" />
      <path
         id="path62-3"
         d="m 101.67812,150.0291 8.10443,12.77411 a 1.193688,1.193688 0 0 1 -0.36846,1.64742 l -4.96413,3.14945 a 1.1936977,1.1936977 0 0 1 -1.64739,-0.36847 l -8.104442,-12.7741 a 1.1936928,1.1936928 0 0 1 0.36847,-1.64741 l 0.60222,-0.38206 a 0.56741103,0.56741103 0 0 0 0.86194,0.37836 l 2.83032,-1.79566 a 0.567377,0.567377 0 0 0 0.0249,-0.94101 l 0.644792,-0.40909 a 1.1936977,1.1936977 0 0 1 1.64737,0.36846 z"
         style="display:inline;fill:#d5e9f1;stroke-width:0.48621342"
         inkscape:connector-curvature="0"
         transform="translate(-22.123157,-42.093063)" />
    </g>
    <g
       style="display:inline"
       id="g4670"
       transform="matrix(0.95075359,0,0,0.95075359,27.864589,-0.34375365)">
      <circle
         id="circle42"
         r="12.315316"
         cy="28.445"
         cx="78.159195"
         style="display:inline;fill:#f2d2c0;fill-opacity:1;stroke-width:0.30474806" />
      <path
         id="path78"
         d="m 91.151855,24.125991 a 27.251034,27.251034 0 0 0 0.11864,-2.766231 13.020688,13.020688 0 0 0 -0.98216,-5.331574 8.1925766,8.1925766 0 0 0 -4.28668,-4.141218 7.8214942,7.8214942 0 0 0 -5.86414,0.0046 c -1.69745,-1.072444 -3.58345,-1.922625 -5.56966,-2.027946 -1.98621,-0.105275 -4.08622,0.63158 -5.31023,2.253642 a 8.6671669,8.6671669 0 0 1 -0.92774,1.205282 c -0.9839,0.911158 -2.47916,0.779725 -3.78692,0.593422 q 0.87984,0.754097 1.76014,1.508171 -1.06504,0.278253 -2.13027,0.556472 1.24296,0.75382 2.4857,1.507665 c -2.40545,1.443818 -3.49879,4.595146 -3.20997,7.457217 0.27322,2.709701 1.58143,5.18755 3.14528,7.38992 0.62384,-1.316483 0.48943,-2.891755 0.47913,-4.374485 a 9.9003781,9.9003781 0 0 1 0.0878,-1.438306 c 5.28511,1.266906 10.80739,2.07999 16.40767,0.06785 l 1.12388,-2.750616 c 0.15771,0.01622 0.3155,0.03148 0.47316,0.04825 l 0.6511,2.704956 c 1.47619,0.603371 2.95549,1.130708 4.43534,0.576584 0.072,0.417801 0.11536,0.844189 0.14868,1.254007 0.12699,-0.490203 0.23719,-0.984057 0.33656,-1.479859 a 4.3757804,4.3757804 0 0 0 0.5603,-0.357927 12.041298,12.041298 0 0 0 -0.1456,-2.460392 z"
         style="display:inline;fill:#f2dba7;fill-opacity:1;stroke-width:0.30474806"
         inkscape:connector-curvature="0" />
    </g>
    <g
       style="display:inline"
       id="g4581"
       transform="matrix(1.1273178,0,0,1.1166899,-12.733815,-5.5361127)">
      <path
         id="path44"
         d="m 136.02214,67.989339 a 1.2064024,1.2064024 0 0 0 -1.19849,-1.091326 h -1.21061 v 7.979075 h 1.21061 a 1.2064024,1.2064024 0 0 0 1.19849,-1.091325 2.8424035,2.8424035 0 0 0 2.10318,-2.742856 v -0.310686 a 2.8424035,2.8424035 0 0 0 -2.10318,-2.742882 z"
         style="display:inline;fill:#d5e9f1;stroke-width:0.48621342"
         inkscape:connector-curvature="0"
         transform="translate(-22.123157,-42.093063)" />
      <path
         id="path46"
         d="m 114.1453,73.886588 h -1.33846 a 2.8436678,2.8436678 0 0 1 -2.84368,-2.843681 v -0.310686 a 2.8436678,2.8436678 0 0 1 2.84368,-2.84368 h 1.33846 v 5.99806 z"
         style="display:inline;fill:#d5e9f1;stroke-width:0.48621342"
         inkscape:connector-curvature="0"
         transform="translate(-22.123157,-42.093063)" />
      <path
         id="path48-0"
         d="m 114.4755,74.877088 h -1.21062 a 1.2106228,1.2106228 0 0 1 -1.21061,-1.210615 v 0 -5.557831 a 1.2106228,1.2106228 0 0 1 1.21061,-1.210629 h 1.21062 z"
         style="display:inline;fill:#d5e9f1;stroke-width:0.48621342"
         inkscape:connector-curvature="0"
         transform="translate(-22.123157,-42.093063)" />
      <path
         id="path50-20"
         d="m 135.37415,68.30602 h -0.88737 c 0,-6.267144 -4.64358,-11.365718 -10.3513,-11.365718 -5.70818,0 -10.35178,5.098561 -10.35178,11.365718 h -0.88738 c 0,-6.75634 5.04179,-12.253082 11.23916,-12.253082 6.1969,0 11.23867,5.496742 11.23867,12.253082 z"
         style="display:inline;fill:#d5e9f1;stroke-width:0.48621342"
         inkscape:connector-curvature="0"
         transform="translate(-22.123157,-42.093063)" />
    </g>
  </g>
</svg>
