<!-- Created with Inkscape (http://www.inkscape.org/) -->
<svg width="144mm" height="117mm" version="1.1" viewBox="0 0 144 117" xmlns="http://www.w3.org/2000/svg"><g transform="translate(.00714 -80.4)" stroke-width=".157"><g fill="#f2f2f2"><circle cx="96.1" cy="96.9" r="7.01"/><path d="m112 93.6c-0.404-1.36-1.55-2.24-2.93-2.44a0.284 0.284 0 0 0-0.0472 0 0.372 0.372 0 0 0-0.0577-0.0131c-2.35-0.305-4.96 0.436-6.71 2.05l-0.0192 0.0177a3.56 3.56 0 0 1-3.37 0.816 3.12 3.12 0 0 0-0.987-0.109 3.46 3.46 0 0 0-3.1 2.5 0.401 0.401 0 0 0 0.181 0.444 1.75 1.75 0 0 0 0.732 0.373c0.58 0.123 1.17 0.236 1.75 0.339q1.72 0.299 3.45 0.486 1.15 0.122 2.3 0.194c1.59 0.0998 3.18 0.123 4.77 0.0735 0.788-0.0262 1.54-0.0525 2.26-0.399a3.36 3.36 0 0 0 1.3-1.13 3.82 3.82 0 0 0 0.478-3.19z"/><path d="m97.4 104a3.58 3.58 0 0 0-0.147-0.866c-0.407-1.36-1.55-2.24-2.94-2.44a0.253 0.253 0 0 0-0.0447 0 0.495 0.495 0 0 0-0.0604-0.0131 8.71 8.71 0 0 0-3.86 0.396 7.96 7.96 0 0 0-2.87 1.67 3.55 3.55 0 0 1-3.37 0.817 3.13 3.13 0 0 0-0.989-0.109 3.46 3.46 0 0 0-3.1 2.5 0.408 0.408 0 0 0 0.181 0.444 1.77 1.77 0 0 0 0.732 0.373c0.583 0.123 1.17 0.236 1.75 0.339q1.72 0.299 3.45 0.486a51.2 51.2 0 0 0 7.07 0.268c0.785-0.0263 1.54-0.0524 2.26-0.399a3.35 3.35 0 0 0 1.3-1.13 3.74 3.74 0 0 0 0.627-2.33z"/></g><g><circle cx="96.1" cy="96.9" r="7.01" fill="#e6e6e6"/><path d="m112 93.6c-0.404-1.36-1.55-2.24-2.93-2.44a0.284 0.284 0 0 0-0.0472 0 0.372 0.372 0 0 0-0.0577-0.0131c-2.35-0.305-4.96 0.436-6.71 2.05l-0.0192 0.0177a3.56 3.56 0 0 1-3.37 0.816 3.12 3.12 0 0 0-0.987-0.109 3.46 3.46 0 0 0-3.1 2.5 0.401 0.401 0 0 0 0.181 0.444 1.75 1.75 0 0 0 0.732 0.373c0.58 0.123 1.17 0.236 1.75 0.339q1.72 0.299 3.45 0.486 1.15 0.122 2.3 0.194c1.59 0.0998 3.18 0.123 4.77 0.0735 0.788-0.0262 1.54-0.0525 2.26-0.399a3.36 3.36 0 0 0 1.3-1.13 3.82 3.82 0 0 0 0.478-3.19z" fill="#d5e9f1"/><path d="m97.4 104a3.58 3.58 0 0 0-0.147-0.866c-0.407-1.36-1.55-2.24-2.94-2.44a0.253 0.253 0 0 0-0.0447 0 0.495 0.495 0 0 0-0.0604-0.0131 8.71 8.71 0 0 0-3.86 0.396 7.96 7.96 0 0 0-2.87 1.67 3.55 3.55 0 0 1-3.37 0.817 3.13 3.13 0 0 0-0.989-0.109 3.46 3.46 0 0 0-3.1 2.5 0.408 0.408 0 0 0 0.181 0.444 1.77 1.77 0 0 0 0.732 0.373c0.583 0.123 1.17 0.236 1.75 0.339q1.72 0.299 3.45 0.486a51.2 51.2 0 0 0 7.07 0.268c0.785-0.0263 1.54-0.0524 2.26-0.399a3.35 3.35 0 0 0 1.3-1.13 3.74 3.74 0 0 0 0.627-2.33z" fill="#d5e9f1"/></g></g><g transform="translate(.00714 -80.4)"><path d="m40.5 109a0.236 0.236 0 0 0 0-0.471 0.236 0.236 0 0 0 0 0.471z" fill="#d0cde1" stroke-width=".157"/><path d="m15 161a3.8 3.8 0 0 1-3.67-0.647c-1.29-1.08-1.69-2.86-2.02-4.51l-0.971-4.87 2.03 1.4c1.46 1.01 2.96 2.04 3.97 3.5 1.01 1.46 1.45 3.45 0.641 5.02" fill="#d5e9f1" stroke-width=".167" data-name="Path 461"/><path d="m14.8 167c0.206-1.5 0.417-3.02 0.273-4.53-0.128-1.34-0.538-2.66-1.37-3.74a6.21 6.21 0 0 0-1.59-1.44c-0.159-0.1-0.306 0.152-0.147 0.252a5.91 5.91 0 0 1 2.34 2.82c0.509 1.29 0.59 2.7 0.502 4.08-0.0531 0.831-0.165 1.66-0.279 2.48a0.151 0.151 0 0 0 0.102 0.18 0.147 0.147 0 0 0 0.18-0.102z" fill="#f2f2f2" stroke-width=".167" data-name="Path 462"/><g fill="#d5e9f1"><path d="m16.4 167s-2.13-5.25 4.27-9.19z" stroke-width=".167" data-name="Path 482"/><path d="m13.7 167s-0.651-3.74-5.69-3.71z" stroke-width=".167" data-name="Path 483"/><path d="m49.7 159a1.12 1.12 0 0 1-0.811-1.94l0.0766-0.305q-0.0151-0.0366-0.0305-0.0732a3.01 3.01 0 0 0-5.54 0.0206c-0.907 2.18-2.06 4.37-2.35 6.68a8.89 8.89 0 0 0 0.156 3.06 35.6 35.6 0 0 1-3.24-14.8 34.4 34.4 0 0 1 0.213-3.84q0.177-1.57 0.49-3.11a36.1 36.1 0 0 1 7.15-15.3 9.6 9.6 0 0 0 3.99-4.14 7.32 7.32 0 0 0 0.666-2c-0.194 0.0255-0.392 0.0414-0.586 0.0541-0.0605 3e-3 -0.124 6e-3 -0.185 0.0101l-0.0229 1e-3a1.11 1.11 0 0 1-0.911-1.81q0.126-0.155 0.252-0.31c0.127-0.159 0.258-0.315 0.385-0.475a0.552 0.552 0 0 0 0.0415-0.0478c0.147-0.181 0.293-0.36 0.44-0.541a3.21 3.21 0 0 0-1.05-1.02c-1.47-0.86-3.49-0.264-4.55 1.06-1.06 1.33-1.26 3.19-0.895 4.85a12.8 12.8 0 0 0 1.78 3.96c-0.0796 0.102-0.162 0.201-0.242 0.303a36.3 36.3 0 0 0-3.79 6 15.1 15.1 0 0 0-0.901-7.01c-0.862-2.08-2.48-3.83-3.9-5.63-1.71-2.16-5.21-1.22-5.51 1.52q-0.0043 0.0397-0.0086 0.0795 0.317 0.179 0.621 0.38a1.52 1.52 0 0 1-0.612 2.76l-0.031 4e-3a15.1 15.1 0 0 0 0.398 2.26 15.5 15.5 0 0 0 7.74 9.75c0.124 0.0636 0.245 0.127 0.369 0.188a37 37 0 0 0-1.99 9.38 35.1 35.1 0 0 0 0.0255 5.67l-0.0101-0.0668a9.28 9.28 0 0 0-3.17-5.36c-2.44-2-5.88-2.74-8.51-4.35a1.74 1.74 0 0 0-2.67 1.69q0.0058 0.0352 0.0115 0.0703a10.2 10.2 0 0 1 1.14 0.551q0.317 0.179 0.621 0.38a1.52 1.52 0 0 1-0.612 2.76l-0.031 4e-3c-0.0223 3e-3 -0.0415 6e-3 -0.0636 0.0101a15.1 15.1 0 0 0 2.78 4.35 15.6 15.6 0 0 0 11.3 4.95h0.0029a37 37 0 0 0 2.49 7.26h8.89c0.0318-0.0988 0.0605-0.201 0.0891-0.299a10.1 10.1 0 0 1-2.46-0.146c0.659-0.809 1.32-1.62 1.98-2.43a0.551 0.551 0 0 0 0.0415-0.0478c0.334-0.414 0.672-0.825 1.01-1.24l1.73e-4 -3.8e-4a14.8 14.8 0 0 0-0.433-3.77z" stroke-width=".381"/><path d="m121 157a5.85 5.85 0 0 1-5.65-0.995c-1.98-1.66-2.6-4.39-3.1-6.93l-1.49-7.49 3.12 2.15c2.25 1.55 4.54 3.14 6.1 5.38 1.56 2.24 2.23 5.3 0.985 7.72" stroke-width=".257" data-name="Path 461"/></g><g stroke-width=".257"><path d="m121 166c0.316-2.3 0.641-4.64 0.42-6.96-0.197-2.07-0.828-4.09-2.11-5.74a9.55 9.55 0 0 0-2.45-2.22c-0.245-0.154-0.47 0.234-0.227 0.388a9.08 9.08 0 0 1 3.59 4.33c0.782 1.99 0.908 4.16 0.772 6.27-0.0816 1.28-0.254 2.55-0.428 3.81a0.232 0.232 0 0 0 0.157 0.276 0.226 0.226 0 0 0 0.276-0.157z" fill="#f2f2f2" data-name="Path 462"/><path d="m123 167s-3.28-8.08 6.56-14.1z" fill="#d5e9f1" data-name="Path 482"/><path d="m119 167s-1-5.76-8.75-5.71z" fill="#d5e9f1" data-name="Path 483"/></g></g><g transform="translate(.00714 -80.4)"><path d="m136 180h-127a8.69 7.14 0 0 1 0-14.3h127a8.69 7.14 0 0 1 0 14.3z" fill="#e6e6e6" stroke-width=".292"/></g><g transform="translate(.00714 -80.4)"><g transform="matrix(1.69 0 0 1.69 -70.5 -142)" fill="#3f3d56"><path d="m101 168s-5.19 2.13-10 1.32c0 0-9.32-0.832-10.1-1.05-10.5-1.06-18.4 1.28-19.6 5.54-1.95 8 1.61 8.82 8.25 9.11 25.8 1.12 23.4-4.88 30.6-5.07 2.16-0.553 3.46-0.657 4.19-0.639 0.59 0.0177 1.16-0.205 1.59-0.617 0.447-0.478 0.843-1 1.18-1.56 0.181-0.29 0.211-0.649 0.0797-0.965-0.403-0.942-0.748-1.91-1.03-2.89-0.334-1.31-2.5-2.25-2.5-2.25s-0.724-3.67-1.46-2.57c-0.377 0.578-0.79 1.13-1.24 1.66z" stroke-width=".265"/><path d="m90.3 183c3.9 0.476 3.81 0.462 8.38 0.114 0 0 2.76 0.491 4.23-0.572 1.48-1.06-0.241-3.01-2.18-1.97-1.94 1.04-6.78-1.81-9.63-1.9-7.29-0.24-5.33 3.78-0.806 4.33z" stroke-width=".295"/><path d="m59.1 188s3.15-0.613 3.53 0.804c0.145 0.531-0.121 1.03-0.511 1.44-0.882 0.904-2.06 1.2-3.15 0.791-2.39-0.846-6.35-3.63-1.95-12.6 1.23-2.47 2.88-4.56 4.82-6.14 4.08 1.47-5.3 11.4-2.74 15.7z" stroke-width=".267"/></g></g></svg>
