<svg width="435" height="132" fill="none" version="1.1" viewBox="0 0 435 132" xmlns="http://www.w3.org/2000/svg"><path d="m104 58.3c-21-12.6-55.7-13.8-75.8-7.61-0.769 0.232-1.58 0.31-2.38 0.23-0.799-0.08-1.58-0.318-2.28-0.699s-1.33-0.897-1.84-1.52-0.884-1.34-1.11-2.11c-0.475-1.56-0.314-3.24 0.447-4.67s2.06-2.52 3.62-3c23-7.06 61.4-5.69 85.6 8.8 2.9 1.74 3.85 5.51 2.13 8.43-0.403 0.694-0.94 1.3-1.58 1.78-0.64 0.485-1.37 0.838-2.15 1.04-0.778 0.2-1.59 0.245-2.38 0.13-0.795-0.115-1.56-0.386-2.25-0.798zm-0.689 18.7c-0.345 0.573-0.8 1.07-1.34 1.47-0.54 0.395-1.15 0.68-1.8 0.837-0.65 0.157-1.33 0.183-1.99 0.078-0.662-0.106-1.3-0.342-1.86-0.693-17.5-10.9-44.3-14-65-7.67-0.642 0.193-1.32 0.258-1.98 0.19-0.667-0.067-1.31-0.266-1.9-0.584-0.59-0.318-1.11-0.749-1.53-1.27-0.422-0.52-0.737-1.12-0.926-1.76-0.392-1.3-0.256-2.7 0.378-3.89 0.635-1.2 1.72-2.1 3.01-2.5 23.7-7.25 53.2-3.74 73.3 8.74 2.39 1.48 3.14 4.64 1.67 7.05zm-7.98 17.9c-0.274 0.459-0.637 0.859-1.07 1.18-0.431 0.317-0.92 0.546-1.44 0.673-0.52 0.127-1.06 0.15-1.59 0.066-0.53-0.084-1.04-0.271-1.49-0.552-15.3-9.44-34.6-11.6-57.3-6.34-0.523 0.118-1.06 0.132-1.59 0.041s-1.03-0.286-1.49-0.573c-0.452-0.286-0.843-0.66-1.15-1.1-0.307-0.438-0.524-0.933-0.639-1.46-0.245-1.06-0.06-2.17 0.513-3.09 0.574-0.92 1.49-1.58 2.55-1.82 24.9-5.73 46.2-3.26 63.4 7.34 0.922 0.575 1.58 1.49 1.83 2.54 0.251 1.06 0.076 2.17-0.487 3.1zm-29.9-94.9c-36 0-65.2 29.5-65.2 65.8 0 36.3 29.2 65.8 65.2 65.8 36 0 65.2-29.5 65.2-65.8 0-36.3-29.2-65.8-65.2-65.8zm112 60.7c-11.3-2.71-13.3-4.61-13.3-8.61 0-3.77 3.53-6.31 8.76-6.31 5.08 0 10.1 1.93 15.4 5.9 0.16 0.121 0.358 0.165 0.556 0.138 0.098-0.016 0.191-0.05 0.274-0.102s0.155-0.12 0.212-0.201l5.5-7.82c0.109-0.155 0.155-0.345 0.13-0.533-0.026-0.187-0.121-0.358-0.267-0.479-6.28-5.09-13.4-7.56-21.6-7.56-12.2 0-20.7 7.36-20.7 17.9 0 11.3 7.33 15.3 20 18.4 10.8 2.5 12.6 4.6 12.6 8.35 0 4.15-3.68 6.74-9.6 6.74-6.58 0-11.9-2.23-17.9-7.48-0.073-0.065-0.159-0.115-0.252-0.146s-0.191-0.043-0.289-0.036c-0.098 8e-3 -0.193 0.035-0.28 0.081-0.087 0.045-0.164 0.108-0.226 0.184l-6.17 7.4c-0.125 0.147-0.188 0.338-0.175 0.531 0.014 0.193 0.102 0.374 0.247 0.503 6.98 6.29 15.6 9.6 24.8 9.6 13.1 0 21.6-7.22 21.6-18.4 0-9.45-5.6-14.7-19.3-18zm58.5 12.7c0 7.98-4.87 13.5-11.9 13.5-6.89 0-12.1-5.82-12.1-13.5 0-7.72 5.2-13.5 12.1-13.5 6.86 0 11.8 5.69 11.8 13.5zm-9.52-23.9c-5.68 0-10.3 2.26-14.2 6.89v-5.2c1e-3 -0.196-0.075-0.385-0.212-0.525-0.138-0.14-0.325-0.22-0.521-0.223h-10.1c-0.098 1e-3 -0.194 0.021-0.284 0.059s-0.172 0.093-0.241 0.162c-0.068 0.07-0.122 0.152-0.159 0.242-0.037 0.091-0.055 0.188-0.055 0.285v57.8c0 0.413 0.331 0.748 0.739 0.748h10.1c0.196-3e-3 0.383-0.083 0.521-0.223 0.137-0.14 0.213-0.329 0.212-0.525v-18.3c3.85 4.35 8.51 6.47 14.2 6.47 10.6 0 21.2-8.2 21.2-23.9 0-15.7-10.7-23.9-21.2-23.9zm48.6 37.5c-7.23 0-12.7-5.86-12.7-13.6 0-7.8 5.26-13.5 12.5-13.5 7.28 0 12.8 5.86 12.8 13.6 0 7.79-5.29 13.5-12.6 13.5zm0-37.5c-13.6 0-24.2 10.6-24.2 24 0 13.3 10.6 23.8 24.1 23.8 13.6 0 24.3-10.5 24.3-24 0-13.4-10.6-23.9-24.2-23.9zm53.2 0.929h-11.1v-11.4c1e-3 -0.098-0.017-0.195-0.053-0.285-0.037-0.091-0.091-0.174-0.16-0.243-0.068-0.07-0.15-0.125-0.241-0.163-0.09-0.038-0.187-0.057-0.285-0.057h-10.1c-0.196 3e-3 -0.382 0.082-0.52 0.221-0.137 0.139-0.214 0.326-0.214 0.522v11.4h-4.85c-0.097 1e-3 -0.194 0.021-0.284 0.059-0.089 0.038-0.171 0.093-0.239 0.163-0.068 0.069-0.122 0.152-0.158 0.242s-0.054 0.187-0.052 0.284v8.74c0 0.407 0.331 0.743 0.733 0.743h4.85v22.6c0 9.14 4.51 13.8 13.4 13.8 3.62 0 6.62-0.754 9.45-2.38 0.114-0.065 0.209-0.159 0.275-0.272 0.065-0.113 0.1-0.241 0.1-0.372v-8.33c0-0.127-0.033-0.251-0.094-0.362-0.062-0.11-0.151-0.203-0.258-0.27s-0.229-0.105-0.354-0.11c-0.126-6e-3 -0.251 0.02-0.363 0.077-1.95 0.99-3.82 1.44-5.92 1.44-3.24 0-4.69-1.48-4.69-4.8v-21h11.1c0.098-1e-3 0.194-0.021 0.284-0.059s0.172-0.093 0.241-0.162c0.068-0.07 0.122-0.152 0.159-0.242 0.037-0.091 0.055-0.187 0.055-0.285v-8.74c0-0.097-0.018-0.194-0.055-0.284s-0.091-0.172-0.16-0.241c-0.068-0.069-0.15-0.123-0.24-0.161-0.09-0.037-0.187-0.056-0.284-0.056zm38.7 0.044v-1.4c0-4.14 1.57-5.98 5.1-5.98 2.1 0 3.79 0.423 5.68 1.06 0.112 0.035 0.23 0.044 0.345 0.025s0.224-0.065 0.317-0.135c0.096-0.069 0.174-0.16 0.228-0.265 0.053-0.105 0.081-0.222 0.081-0.34v-8.57c1e-3 -0.159-0.049-0.315-0.144-0.444-0.094-0.129-0.227-0.224-0.38-0.271-2.71-0.833-5.54-1.24-8.38-1.21-9.32 0-14.2 5.29-14.2 15.3v2.16h-4.84c-0.197 1e-3 -0.385 0.08-0.523 0.219-0.138 0.14-0.216 0.328-0.216 0.524v8.79c0 0.412 0.331 0.748 0.739 0.748h4.85v34.9c0 0.412 0.325 0.742 0.733 0.742h10.1c0.402 0 0.733-0.33 0.733-0.742v-34.9h9.42l14.4 34.9c-1.64 3.67-3.25 4.4-5.45 4.4-1.78 0-3.65-0.539-5.57-1.6-0.089-0.048-0.186-0.077-0.287-0.087-0.1-9e-3 -0.202 2e-3 -0.298 0.032-0.096 0.034-0.184 0.087-0.259 0.156s-0.135 0.153-0.176 0.246l-3.42 7.56c-0.08 0.17-0.091 0.364-0.033 0.543s0.182 0.328 0.347 0.42c3.28 1.88 7 2.84 10.8 2.78 7.44 0 11.6-3.5 15.2-12.9l17.5-45.6c0.044-0.113 0.06-0.235 0.046-0.356-0.013-0.121-0.056-0.236-0.123-0.337-0.067-0.099-0.157-0.181-0.263-0.238-0.106-0.056-0.224-0.086-0.344-0.086h-10.5c-0.154 0-0.304 0.049-0.43 0.138-0.125 0.09-0.22 0.216-0.27 0.362l-10.8 31-11.8-31c-0.052-0.141-0.146-0.262-0.269-0.347-0.124-0.086-0.27-0.132-0.42-0.131h-17.2zm-22.4-0.044h-10.1c-0.196 3e-3 -0.383 0.083-0.521 0.223-0.137 0.14-0.213 0.329-0.212 0.525v44.4c0 0.412 0.331 0.742 0.739 0.742h10.1c0.403 0 0.734-0.33 0.734-0.742v-44.4c0-0.196-0.078-0.384-0.217-0.524-0.138-0.139-0.326-0.218-0.522-0.219zm-5-20.2c-1.93 0.012-3.77 0.786-5.13 2.15-1.36 1.37-2.11 3.22-2.1 5.14-5e-3 0.953 0.179 1.9 0.539 2.78 0.362 0.883 0.893 1.69 1.56 2.36 0.673 0.678 1.47 1.22 2.35 1.59 0.881 0.37 1.83 0.562 2.78 0.568 1.93-0.012 3.77-0.787 5.13-2.16 1.36-1.37 2.11-3.22 2.1-5.14 0-4.03-3.24-7.29-7.23-7.29zm88.8 24.6h-1.85v2.38h1.85c0.921 0 1.47-0.457 1.47-1.19 0-0.776-0.551-1.19-1.47-1.19zm1.2 3.39 2.01 2.84h-1.7l-1.8-2.6h-1.56v2.6h-1.42v-7.52h3.32c1.73 0 2.87 0.897 2.87 2.4 0.025 0.522-0.135 1.04-0.452 1.45-0.316 0.417-0.768 0.711-1.28 0.83zm-1.57-7.18c-3.64 0-6.39 2.92-6.39 6.48 0 3.56 2.73 6.44 6.35 6.44 3.64 0 6.4-2.92 6.4-6.48 0-3.56-2.74-6.44-6.36-6.44zm-0.038 13.6c-0.938-2e-3 -1.87-0.189-2.73-0.551-0.865-0.361-1.65-0.889-2.31-1.55-0.659-0.665-1.18-1.45-1.53-2.32-0.353-0.866-0.53-1.79-0.522-2.73 0-3.93 3.14-7.2 7.13-7.2 0.938 2e-3 1.87 0.189 2.73 0.551 0.865 0.361 1.65 0.889 2.31 1.55 0.659 0.665 1.18 1.45 1.53 2.32 0.353 0.866 0.53 1.79 0.522 2.73 0 3.93-3.14 7.2-7.13 7.2z" fill="#1ed760"/></svg>
