<?xml version="1.0" encoding="UTF-8" standalone="no"?>
<svg
   xmlns:dc="http://purl.org/dc/elements/1.1/"
   xmlns:cc="http://creativecommons.org/ns#"
   xmlns:rdf="http://www.w3.org/1999/02/22-rdf-syntax-ns#"
   xmlns:svg="http://www.w3.org/2000/svg"
   xmlns="http://www.w3.org/2000/svg"
   xmlns:sodipodi="http://sodipodi.sourceforge.net/DTD/sodipodi-0.dtd"
   xmlns:inkscape="http://www.inkscape.org/namespaces/inkscape"
   width="66"
   height="66"
   viewBox="0 0 132 132"
   version="1.1"
   id="svg12"
   sodipodi:docname="spotify-logos-small.svg"
   style="fill:none"
   inkscape:version="0.92.4 (5da689c313, 2019-01-14)">
  <path
     d="M 66,0 C 29.55,0 0,29.547 0,66 c 0,36.453 29.55,66 66,66 36.45,0 66,-29.547 66,-66 C 132,29.547 102.45,0 66,0 Z m 32.2,95.143 c -1.06,1.877 -3.01,2.933 -5.02,2.933 -0.94,0 -1.91,-0.235 -2.8,-0.73 -8.24,-4.62 -17.22,-7.45 -26.71,-8.411 -9.51,-0.953 -18.9,0.012 -27.92,2.892 -3.01,0.961 -6.25,-0.702 -7.21,-3.717 -0.97,-3.02 0.7,-6.249 3.72,-7.215 10.52,-3.361 21.49,-4.504 32.57,-3.378 11.06,1.126 21.54,4.426 31.16,9.818 2.77,1.542 3.76,5.04 2.21,7.808 z m 7.9,-20.047 c -1.02,1.963 -3.02,3.089 -5.09,3.089 -0.9,0 -1.8,-0.206 -2.65,-0.651 C 88.23,72.258 77.29,68.991 65.82,67.827 54.26,66.644 42.81,67.675 31.77,70.859 c -3.05,0.866 -6.23,-0.878 -7.1,-3.927 -0.88,-3.044 0.88,-6.224 3.92,-7.103 12.46,-3.593 25.38,-4.744 38.39,-3.424 12.92,1.316 25.26,4.996 36.69,10.952 2.8,1.465 3.9,4.929 2.43,7.739 z m 2.86,-16.678 c -0.86,0 -1.73,-0.194 -2.56,-0.602 C 94.38,51.822 81.45,48.089 67.96,46.72 54.45,45.338 41.01,46.406 28,49.88 c -3.06,0.812 -6.2,-1.003 -7.02,-4.068 -0.82,-3.061 1,-6.208 4.07,-7.025 14.35,-3.832 29.19,-4.999 44.08,-3.485 14.87,1.505 29.13,5.626 42.39,12.239 2.84,1.414 3.99,4.863 2.58,7.697 -1,2.017 -3.03,3.18 -5.14,3.18 z"
     id="path10"
     inkscape:connector-curvature="0"
     style="fill:#1ed760" />
</svg>
