<svg width="122" height="122" viewBox="0 0 122 122" fill="none" xmlns="http://www.w3.org/2000/svg">
<path d="M122 61C122 94.6894 94.6894 122 61 122C27.3106 122 0 94.6894 0 61C0 27.3106 27.3106 0 61 0C94.6894 0 122 27.3106 122 61Z" fill="#F7F7F7"/>
<path fill-rule="evenodd" clip-rule="evenodd" d="M54.6993 5.81283C55.0788 5.6468 55.521 5.81985 55.6871 6.19933L57.3581 10.0189C58.5909 12.8366 59.6079 15.7439 60.4003 18.7156L61.2187 21.7845L61.4166 22.3782C62.308 25.0524 62.0182 27.9798 60.6196 30.4272C59.4665 32.4451 59.2001 34.8502 59.8836 37.0715L60.2093 38.1299C60.5245 39.1545 60.9845 40.121 61.5928 40.9895C63.1351 43.1914 66.2295 47.4639 69.0486 50.4886C69.1958 50.6465 69.3684 50.8275 69.5593 51.0248C70.719 52.2229 71.2364 53.8723 71.0498 55.3591C70.8602 56.8706 69.9267 58.2519 68.1973 58.7235C68.1578 58.7343 68.1181 58.7448 68.0783 58.7549C66.6111 59.1292 65.2568 59.999 64.4079 61.1025C63.5708 62.1906 63.251 63.4596 63.7021 64.7359C64.3905 66.4811 63.4162 68.4405 61.6063 68.9432L57.516 70.0794C56.8254 70.2713 56.0895 70.5923 55.598 70.993C55.1101 71.3908 55.0086 71.7241 55.107 72.0455C55.1133 72.0661 55.1195 72.0773 55.1234 72.083C55.1995 72.1968 55.3934 72.3703 55.7757 72.5719C56.1425 72.7654 56.614 72.9493 57.1565 73.12C58.2401 73.4611 59.5234 73.7237 60.6307 73.9109C61.5062 74.0589 62.3766 74.4685 62.9888 75.0983C63.6167 75.7442 63.9905 76.6524 63.7266 77.6856C63.6134 78.1289 63.292 78.6211 63.024 79.0219C62.9601 79.1175 62.8958 79.2125 62.8316 79.3073C62.5926 79.6606 62.356 80.01 62.1527 80.3694C61.5832 81.3757 61.2436 82.1265 61.0381 82.9349C60.8316 83.7473 60.75 84.6594 60.75 85.9999C60.75 86.582 60.9016 87.0493 61.0834 87.6093C61.1306 87.7549 61.1799 87.9067 61.2291 88.0684C61.4607 88.8303 61.6404 89.7219 61.1914 90.7905C60.7297 91.8893 60.2431 92.6844 59.4776 93.238C58.7304 93.7783 57.803 94.0232 56.6354 94.2376C55.1452 94.5113 53.3762 94.4105 51.6591 94.3126C51.2572 94.2897 50.8581 94.2669 50.466 94.2492C49.572 94.2087 48.8054 94.1166 48.0403 94.0247C47.8545 94.0023 47.6688 93.98 47.4813 93.9585C46.5181 93.8477 45.4621 93.7499 44 93.7499C42.4068 93.7499 41.1984 94.1325 39.9594 95.0928C39.3132 95.5935 38.6047 96.612 37.9867 97.693C37.041 99.3475 36.4216 101.18 35.8359 103.083L34.7168 106.721C34.595 107.116 34.1753 107.339 33.7794 107.217C33.3835 107.095 33.1613 106.675 33.2831 106.279L34.4023 102.642C34.9904 100.731 35.6496 98.7591 36.6845 96.9486C37.3067 95.8601 38.1386 94.6061 39.0405 93.9071C40.5624 92.7277 42.1002 92.2499 44 92.2499C45.5378 92.2499 46.6545 92.3535 47.6527 92.4683C47.8545 92.4915 48.0496 92.5149 48.241 92.5379C48.9999 92.6289 49.7007 92.713 50.5339 92.7507C50.9773 92.7708 51.4113 92.7951 51.8349 92.8189C53.5364 92.9143 55.0691 93.0002 56.3645 92.7623C57.5175 92.5505 58.1473 92.3489 58.5986 92.0225C59.0317 91.7094 59.3848 91.2176 59.8085 90.2094C60.0569 89.6183 59.9866 89.1386 59.7939 88.5048C59.7612 88.3971 59.7232 88.2816 59.6827 88.1586C59.4931 87.5825 59.25 86.8439 59.25 85.9999C59.25 84.6068 59.3333 83.5526 59.5843 82.5653C59.8363 81.5739 60.2467 80.6916 60.8472 79.6305C61.0834 79.2133 61.3641 78.7989 61.6065 78.4411C61.6661 78.353 61.7234 78.2684 61.7771 78.1881C62.0835 77.7299 62.2361 77.46 62.2733 77.3143C62.383 76.885 62.2538 76.4942 61.9132 76.1438C61.557 75.7774 60.9935 75.4935 60.3807 75.3899C59.2465 75.1981 57.8857 74.9221 56.7062 74.5509C56.1171 74.3655 55.5524 74.15 55.0761 73.8988C54.6153 73.6558 54.1592 73.3396 53.8765 72.9169C53.7835 72.7778 53.7176 72.6312 53.6727 72.4846C53.3185 71.3274 53.9348 70.4136 54.6502 69.8303C55.3622 69.25 56.3152 68.8562 57.1145 68.6342L61.2049 67.498C62.159 67.2329 62.6714 66.1979 62.3036 65.2785L63 64.9999L62.2936 65.2522C61.6289 63.3908 62.1398 61.5907 63.219 60.1878C64.289 58.797 65.9421 57.7518 67.7075 57.3015C67.7283 57.2962 67.7489 57.2908 67.7694 57.2853C67.7805 57.2824 67.7916 57.2794 67.8026 57.2764C68.8554 56.9892 69.4351 56.1798 69.5615 55.1723C69.691 54.1401 69.3275 52.9421 68.4815 52.068C68.2864 51.8664 68.107 51.6783 67.9513 51.5113C65.055 48.4038 61.9096 44.0563 60.3642 41.85C59.6595 40.844 59.1334 39.7339 58.7756 38.5711L58.4499 37.5126C57.6445 34.8951 57.9585 32.0609 59.3172 29.683C60.5041 27.6061 60.75 25.1219 59.9936 22.8526L59.7812 22.2154L58.951 19.1021C58.1781 16.2038 57.1862 13.3683 55.9839 10.6201L54.3128 6.80056C54.1468 6.42107 54.3199 5.97885 54.6993 5.81283Z" fill="#566E88"/>
<path fill-rule="evenodd" clip-rule="evenodd" d="M75.793 59.2929C76.1835 58.9024 76.8166 58.9024 77.2072 59.2929L76.5001 60C77.2072 59.2929 77.2069 59.2926 77.2072 59.2929L77.2084 59.2941L77.21 59.2958L77.2147 59.3005L77.2294 59.3154C77.2415 59.3278 77.2582 59.345 77.2793 59.3671C77.3213 59.4111 77.3807 59.4743 77.4548 59.5558C77.6031 59.7189 77.8108 59.9559 78.0581 60.2608C78.552 60.87 79.2071 61.7547 79.862 62.868C81.1673 65.087 82.5001 68.2633 82.5001 72C82.5001 76.2218 81.1773 79.287 79.8321 81.3047C79.1618 82.3101 78.4887 83.0519 77.9763 83.5471C77.72 83.7949 77.5033 83.9816 77.3463 84.1094C77.2678 84.1733 77.2042 84.2226 77.1579 84.2575C77.1348 84.2749 77.116 84.2887 77.1018 84.299L77.0841 84.3118L77.0779 84.3162L77.0744 84.3186C77.074 84.3189 77.0735 84.3192 76.5001 83.5L77.0735 84.3192C76.6211 84.6359 75.9975 84.5259 75.6808 84.0735C75.3648 83.6221 75.4736 83.0004 75.9235 82.683C75.9236 82.6828 75.9233 82.6831 75.9235 82.683C75.9236 82.6829 75.9242 82.6824 75.9244 82.6823C75.9247 82.6821 75.9241 82.6825 75.9244 82.6823C75.9246 82.6822 75.9256 82.6815 75.9258 82.6813C75.9258 82.6813 75.9258 82.6813 75.9258 82.6813L75.927 82.6804C75.9318 82.677 75.941 82.6702 75.9545 82.66C75.9815 82.6397 76.0253 82.606 76.0835 82.5585C76.2 82.4637 76.3739 82.3145 76.5863 82.1091C77.0115 81.6981 77.5883 81.0649 78.168 80.1953C79.3229 78.463 80.5001 75.7782 80.5001 72C80.5001 68.7367 79.3328 65.913 78.1381 63.882C77.543 62.8703 76.9481 62.0675 76.5046 61.5204C76.2831 61.2473 76.1002 61.0389 75.975 60.9012C75.9124 60.8324 75.8643 60.7813 75.8332 60.7487C75.8176 60.7324 75.8063 60.7207 75.7994 60.7137L75.793 60.7071C75.7924 60.7066 75.7919 60.706 75.7919 60.7061C75.4018 60.3155 75.4026 59.6833 75.793 59.2929Z" fill="#566E88"/>
<path fill-rule="evenodd" clip-rule="evenodd" d="M84.7367 54.8541C85.0934 54.4325 85.7244 54.3799 86.146 54.7366L85.5001 55.5C86.146 54.7366 86.1464 54.737 86.1468 54.7373L86.1478 54.7381L86.1501 54.7401L86.1566 54.7456L86.1764 54.7628C86.1926 54.777 86.2149 54.7966 86.2427 54.8217C86.2984 54.8719 86.3765 54.944 86.4738 55.0378C86.6683 55.2256 86.9399 55.5008 87.2626 55.8634C87.9078 56.5881 88.7596 57.664 89.6091 59.0891C91.3101 61.9427 93.0001 66.1947 93.0001 71.8085C93.0001 77.8512 91.3172 82.0823 89.5968 84.8206C88.7391 86.1857 87.8769 87.1724 87.22 87.8241C86.8915 88.15 86.6141 88.3924 86.4138 88.5568C86.3137 88.639 86.2327 88.7018 86.1742 88.7458C86.145 88.7678 86.1214 88.7851 86.1037 88.7978L86.0819 88.8134L86.0744 88.8187L86.0716 88.8207L86.0704 88.8215C86.0698 88.8219 86.0693 88.8222 85.5001 88L86.0693 88.8222C85.6152 89.1366 84.9923 89.0233 84.6779 88.5692C84.3642 88.1162 84.4763 87.4949 84.9279 87.1799C84.9283 87.1797 84.9286 87.1794 84.929 87.1791C84.9293 87.1789 84.9297 87.1787 84.93 87.1785L84.9292 87.179L84.9337 87.1757C84.9407 87.1707 84.9536 87.1613 84.9719 87.1475C85.0087 87.1199 85.0674 87.0745 85.1449 87.0109C85.3001 86.8835 85.5305 86.683 85.8114 86.4043C86.3733 85.8469 87.136 84.9779 87.9033 83.7566C89.4329 81.322 91.0001 77.4573 91.0001 71.8085C91.0001 66.6139 89.4401 62.7116 87.8911 60.1131C87.1156 58.8121 86.3424 57.8375 85.7688 57.1932C85.4822 56.8712 85.2459 56.6324 85.085 56.4771C85.0046 56.3995 84.943 56.3428 84.9035 56.3071C84.8837 56.2893 84.8695 56.2768 84.8611 56.2695L84.8535 56.2629C84.4325 55.906 84.3801 55.2755 84.7367 54.8541Z" fill="#566E88"/>
<path fill-rule="evenodd" clip-rule="evenodd" d="M93.2333 50.358C93.5879 49.9346 94.2186 49.8787 94.642 50.2333L94 51C94.642 50.2333 94.6424 50.2336 94.6428 50.234L94.6438 50.2348L94.6464 50.237L94.6539 50.2433L94.6779 50.2639C94.6978 50.2811 94.7256 50.3054 94.7607 50.3367C94.8309 50.3992 94.9304 50.4898 95.0549 50.6084C95.3039 50.8456 95.6535 51.1948 96.0698 51.6552C96.9022 52.5757 98.0043 53.9431 99.1042 55.75C101.306 59.3667 103.5 64.7466 103.5 71.8085C103.5 78.8709 101.306 84.2226 99.1022 87.8118C98.0016 89.6046 96.8988 90.9579 96.0656 91.8677C95.6489 92.3228 95.299 92.6676 95.0496 92.9016C94.9249 93.0187 94.8253 93.1081 94.7549 93.1698C94.7198 93.2007 94.6919 93.2246 94.6718 93.2416L94.6477 93.262L94.6402 93.2683L94.6366 93.2713C94.6361 93.2716 94.6357 93.272 94 92.5L94.6357 93.272C94.2094 93.623 93.5792 93.5621 93.2281 93.1357C92.8774 92.7098 92.9379 92.0805 93.363 91.7292C93.3634 91.7288 93.3639 91.7285 93.3643 91.7281L93.377 91.7174C93.3891 91.7071 93.409 91.6901 93.436 91.6663C93.4902 91.6188 93.5732 91.5445 93.6809 91.4434C93.8964 91.2411 94.2105 90.9321 94.5907 90.517C95.3513 89.6864 96.3735 88.434 97.3978 86.7654C99.4444 83.4317 101.5 78.4376 101.5 71.8085C101.5 65.179 99.4441 60.1546 97.3959 56.79C96.3708 55.1061 95.3478 53.8386 94.5865 52.9967C94.206 52.576 93.8915 52.2623 93.6756 52.0567C93.5677 51.954 93.4846 51.8783 93.4302 51.8299C93.4031 51.8057 93.3832 51.7884 93.3709 51.7778L93.3585 51.7671C93.3583 51.767 93.3576 51.7664 93.3574 51.7662C93.3575 51.7663 93.3573 51.7661 93.3574 51.7662M93.2333 50.358C92.8789 50.7813 92.9345 51.4116 93.3574 51.7662Z" fill="#566E88"/>
</svg>
