<svg width="66" height="66" viewBox="0 0 66 66" fill="none" xmlns="http://www.w3.org/2000/svg">
<path fill-rule="evenodd" clip-rule="evenodd" d="M33 64.5C50.397 64.5 64.5 50.397 64.5 33C64.5 15.603 50.397 1.5 33 1.5C15.603 1.5 1.5 15.603 1.5 33C1.5 50.397 15.603 64.5 33 64.5ZM33 66C51.2254 66 66 51.2254 66 33C66 14.7746 51.2254 0 33 0C14.7746 0 0 14.7746 0 33C0 51.2254 14.7746 66 33 66Z" fill="#566E88"/>
<path fill-rule="evenodd" clip-rule="evenodd" d="M27.8145 5.29995C28.2011 5.15125 28.635 5.34412 28.7837 5.73072C29.0051 6.30622 29.2891 6.81991 29.6067 7.34228C29.7065 7.50634 29.8133 7.67696 29.923 7.85224C30.1493 8.21373 30.388 8.59508 30.6029 8.97969C31.2743 10.1812 31.8175 11.5827 31.7893 13.6457C31.7749 14.6984 31.4508 15.7328 31.1599 16.6615C31.0851 16.9003 31.0125 17.1322 30.9479 17.3555C30.6166 18.5006 30.4237 19.5882 30.7753 20.8185C31.0667 21.8386 31.5509 22.5694 31.84 22.941C31.949 23.0811 32.0567 23.2037 32.1792 23.3432C32.2429 23.4158 32.3107 23.493 32.3848 23.5796C33.015 24.3164 34.4455 25.9557 35.2184 26.6097C35.4484 26.8043 35.636 27.0204 35.7885 27.243C36.8299 28.7631 36.2255 30.9426 34.6179 31.773C34.6043 31.7801 34.5906 31.787 34.5767 31.7939C34.0445 32.0601 33.4316 32.196 32.9462 32.2691C32.6035 32.3207 32.3818 32.5567 32.3437 32.7853C32.3248 32.8984 32.3459 33.0099 32.3979 33.0999C32.4465 33.1841 32.495 33.267 32.5424 33.348C32.6853 33.5924 32.8181 33.8195 32.9158 34.0141C33.0487 34.2791 33.1774 34.5961 33.1743 34.9585C33.1709 35.3414 33.0234 35.6623 32.8295 35.9447C32.6444 36.2143 32.3805 36.5002 32.0685 36.8196C31.7453 37.1504 31.283 37.2756 30.948 37.3395C30.5819 37.4094 30.1708 37.4383 29.8131 37.4609C29.771 37.4635 29.7297 37.4661 29.6892 37.4686C29.363 37.4889 29.0857 37.5062 28.8545 37.5402C28.7273 37.5589 28.642 37.5791 28.5892 37.597C28.5853 37.5983 28.5818 37.5995 28.5786 37.6007C28.5613 37.6186 28.5443 37.6365 28.5276 37.6544C28.4685 37.7178 28.4433 37.7927 28.4538 37.8919C28.4654 38.0017 28.5242 38.1384 28.6422 38.2564C28.8482 38.4625 29.2081 38.561 29.6097 38.4669C29.9981 38.3761 30.4905 38.2961 30.965 38.3323C31.43 38.3678 32.0269 38.5298 32.3983 39.0755C32.8954 39.8059 32.6788 40.5639 32.397 41.0851C32.1538 41.5349 31.7801 41.9667 31.5031 42.2867C31.469 42.3261 31.4363 42.3638 31.4056 42.3996C31.2127 42.6244 31.0828 42.8581 31.0359 43.0929C30.9234 43.6555 30.9393 43.8554 30.9743 44.0302C30.9936 44.1266 31.0201 44.2206 31.0618 44.3682C31.0711 44.4011 31.0811 44.4366 31.0919 44.4754C31.1486 44.6776 31.2155 44.9284 31.2822 45.2617L31.2889 45.2953C31.4032 45.8665 31.5238 46.4689 31.4109 47.0443C31.283 47.6961 30.8915 48.2033 30.2812 48.6999C29.7158 49.16 29.2069 49.4281 28.6411 49.5892C28.1379 49.7325 27.6058 49.784 27.0325 49.8394C26.9968 49.8429 26.9609 49.8464 26.9249 49.8499C26.3088 49.9099 25.7072 49.8546 25.1531 49.7751C24.8987 49.7386 24.6454 49.6956 24.4041 49.6546L24.3396 49.6437C24.0751 49.5988 23.8246 49.5571 23.579 49.5244C22.5949 49.3938 21.8337 49.4328 21.1445 49.9497C20.341 50.5524 19.9404 50.9293 19.6968 51.2247C19.4756 51.4928 19.3672 51.7102 19.1864 52.0725C19.1741 52.0971 19.1616 52.1223 19.1486 52.1482C18.9823 52.4807 18.7952 53.0347 18.5507 53.7871C18.5299 53.8511 18.5088 53.9161 18.4874 53.9822C18.2653 54.667 18.0077 55.4613 17.7008 56.267C17.5534 56.654 17.12 56.8483 16.733 56.7008C16.3459 56.5534 16.1516 56.12 16.2991 55.733C16.5918 54.9646 16.8381 54.2054 17.0615 53.5165C17.0826 53.4516 17.1034 53.3872 17.1241 53.3236C17.3558 52.6105 17.5792 51.933 17.807 51.4774C17.8224 51.4464 17.8378 51.4155 17.8532 51.3844C18.0272 51.0345 18.206 50.6748 18.5396 50.2703C18.8953 49.8391 19.406 49.3786 20.2445 48.7497C21.4143 47.8724 22.6748 47.8913 23.7764 48.0375C24.0521 48.0741 24.3271 48.1201 24.5904 48.1648L24.6521 48.1753C24.897 48.2168 25.1317 48.2567 25.3661 48.2903C25.8742 48.3632 26.3386 48.3999 26.7795 48.3569L26.8123 48.3537C27.4559 48.2911 27.8614 48.2516 28.2303 48.1465C28.5742 48.0486 28.9044 47.8864 29.3345 47.5364C29.8029 47.1553 29.905 46.9286 29.939 46.7555C29.9857 46.5173 29.9434 46.2162 29.8113 45.5559C29.7548 45.2735 29.6986 45.0625 29.6475 44.8798C29.6397 44.8519 29.6316 44.8235 29.6234 44.7946C29.5811 44.6453 29.5353 44.4836 29.5034 44.3244C29.4152 43.8834 29.4312 43.4676 29.565 42.7987C29.6778 42.2345 29.9669 41.773 30.2671 41.4229C30.2996 41.3851 30.3317 41.3478 30.3634 41.311C30.6585 40.9683 30.9177 40.6673 31.0775 40.3717C31.2457 40.0604 31.1926 39.9699 31.1582 39.9195C31.155 39.9146 31.1452 39.9002 31.1031 39.8813C31.0549 39.8597 30.974 39.8374 30.8508 39.828C30.5978 39.8087 30.2769 39.8513 29.9516 39.9275C29.1682 40.1108 28.236 39.9715 27.5815 39.317C26.928 38.6635 26.6339 37.4868 27.4299 36.6321C27.4694 36.5897 27.5105 36.5469 27.5534 36.5041C27.7302 36.3273 27.9428 36.2322 28.1078 36.1763C28.2803 36.1179 28.4642 36.0815 28.6361 36.0562C28.9347 36.0123 29.2812 35.9909 29.5953 35.9715C29.637 35.9689 29.6782 35.9664 29.7185 35.9638C30.0858 35.9407 30.4065 35.9158 30.6667 35.8661C30.9214 35.8175 30.998 35.7652 30.9993 35.7671C30.9993 35.7671 30.9981 35.7687 30.9955 35.7714C31.3081 35.4514 31.4888 35.2472 31.5929 35.0956C31.6416 35.0247 31.6615 34.9822 31.6694 34.9611C31.6731 34.9512 31.6743 34.9455 31.6743 34.9455V34.9455C31.6743 34.9419 31.6731 34.8823 31.575 34.6866C31.5007 34.5385 31.4038 34.3728 31.2718 34.147C31.2199 34.0583 31.1626 33.9603 31.0991 33.8504C30.8676 33.4498 30.7898 32.9844 30.8641 32.5387C31.0273 31.5598 31.855 30.9165 32.7228 30.7858C33.1447 30.7223 33.5788 30.6159 33.9059 30.4523L33.9295 30.4403C34.7654 30.0086 35.064 28.8395 34.5511 28.0908C34.4671 27.9682 34.3677 27.8548 34.2495 27.7548C33.3637 27.0052 31.8466 25.2581 31.2449 24.5546C31.1976 24.4993 31.1443 24.4385 31.0877 24.3741C30.9498 24.2168 30.7925 24.0374 30.656 23.8619C30.2861 23.3865 29.6916 22.4856 29.333 21.2306C28.8654 19.594 29.1489 18.1766 29.5069 16.9387C29.593 16.6412 29.6801 16.361 29.7635 16.0929C30.0421 15.1974 30.2783 14.4378 30.2894 13.6252C30.3132 11.8833 29.8681 10.7399 29.2935 9.71134C29.0958 9.3575 28.893 9.03391 28.6794 8.6931C28.5647 8.51001 28.4469 8.32195 28.3251 8.12156C27.9886 7.56813 27.6519 6.96656 27.3837 6.26919C27.235 5.88259 27.4279 5.44864 27.8145 5.29995Z" fill="#566E88"/>
<path fill-rule="evenodd" clip-rule="evenodd" d="M52.8715 30.3704C52.2591 29.758 51.3174 29.6198 50.5549 30.0304C49.9196 30.3725 49.5234 31.0357 49.5234 31.7572V32.3546C49.5234 32.7688 49.1877 33.1046 48.7734 33.1046C48.3592 33.1046 48.0234 32.7688 48.0234 32.3546V31.7572C48.0234 30.4839 48.7226 29.3134 49.8437 28.7097C51.1895 27.985 52.8513 28.2289 53.9322 29.3098L54.1211 29.4987C54.6108 29.9884 54.9581 30.6018 55.126 31.2736L55.1373 31.3186C55.5264 32.8751 54.9448 34.5133 53.6612 35.476L53.4133 35.6619C52.6422 36.2402 51.7044 36.5528 50.7406 36.5528H38.6749C38.2607 36.5528 37.9249 36.2171 37.9249 35.8028C37.9249 35.3886 38.2607 35.0528 38.6749 35.0528H50.7406C51.3798 35.0528 52.0019 34.8455 52.5133 34.4619L52.7612 34.276C53.562 33.6754 53.9248 32.6534 53.6821 31.6824L53.6708 31.6374C53.5688 31.2294 53.3579 30.8568 53.0605 30.5594L52.8715 30.3704Z" fill="#566E88"/>
<path fill-rule="evenodd" clip-rule="evenodd" d="M57.1966 45.4323C56.5841 46.0447 55.6425 46.1829 54.8799 45.7723C54.2447 45.4303 53.8485 44.767 53.8485 44.0455V43.4482C53.8485 43.034 53.5127 42.6982 53.0985 42.6982C52.6843 42.6982 52.3485 43.034 52.3485 43.4482V44.0455C52.3485 45.3188 53.0477 46.4893 54.1688 47.093C55.5146 47.8177 57.1764 47.5738 58.2572 46.493L58.4462 46.304C58.9358 45.8144 59.2832 45.2009 59.4511 44.5291L59.4624 44.4842C59.8515 42.9276 59.2699 41.2894 57.9863 40.3267L57.7384 40.1408C56.9673 39.5625 56.0295 39.2499 55.0656 39.2499H43C42.5858 39.2499 42.25 39.5857 42.25 39.9999C42.25 40.4141 42.5858 40.7499 43 40.7499H55.0656C55.7049 40.7499 56.327 40.9572 56.8384 41.3408L57.0863 41.5267C57.8871 42.1273 58.2499 43.1493 58.0071 44.1204L57.9959 44.1653C57.8939 44.5733 57.6829 44.946 57.3855 45.2433L57.1966 45.4323Z" fill="#566E88"/>
</svg>
