<svg width="26" height="26" viewBox="0 0 26 26" fill="none" xmlns="http://www.w3.org/2000/svg">
<path fill-rule="evenodd" clip-rule="evenodd" d="M13 25C19.6274 25 25 19.6274 25 13C25 6.37258 19.6274 1 13 1C6.37258 1 1 6.37258 1 13C1 19.6274 6.37258 25 13 25ZM13 26C20.1797 26 26 20.1797 26 13C26 5.8203 20.1797 0 13 0C5.8203 0 0 5.8203 0 13C0 20.1797 5.8203 26 13 26Z" fill="#566E88"/>
<path d="M11.5523 16.0221C11.5523 15.6021 11.6003 15.2181 11.6963 14.8701C11.7923 14.5221 11.9483 14.2041 12.1643 13.9161C12.3803 13.6161 12.6743 13.3521 13.0463 13.1241C13.2503 13.0041 13.4903 12.8721 13.7663 12.7281C14.0423 12.5721 14.3063 12.3921 14.5583 12.1881C14.8103 11.9841 15.0203 11.7441 15.1883 11.4681C15.3683 11.1921 15.4583 10.8681 15.4583 10.4961C15.4583 10.1001 15.3623 9.77011 15.1703 9.50611C14.9783 9.23011 14.7323 9.02611 14.4323 8.89411C14.1443 8.75011 13.8263 8.67811 13.4783 8.67811C13.1063 8.67811 12.7643 8.75611 12.4523 8.91211C12.1403 9.06811 11.8703 9.26611 11.6423 9.50611C11.4143 9.74611 11.2223 9.99811 11.0663 10.2621L9.77026 9.38011C9.98626 8.88811 10.2863 8.46811 10.6703 8.12011C11.0543 7.77211 11.4923 7.50811 11.9843 7.32811C12.4763 7.14811 12.9923 7.05811 13.5323 7.05811C13.9763 7.05811 14.4143 7.13011 14.8463 7.27411C15.2903 7.40611 15.6863 7.61611 16.0343 7.90411C16.3823 8.19211 16.6583 8.55811 16.8623 9.00211C17.0783 9.43411 17.1863 9.95611 17.1863 10.5681C17.1863 10.9881 17.1323 11.3541 17.0243 11.6661C16.9283 11.9661 16.7843 12.2361 16.5923 12.4761C16.4003 12.7161 16.1783 12.9321 15.9263 13.1241C15.6743 13.3041 15.3983 13.4781 15.0983 13.6461C14.7983 13.8261 14.5043 14.0121 14.2163 14.2041C13.9283 14.3841 13.6883 14.6121 13.4963 14.8881C13.3043 15.1641 13.2083 15.5421 13.2083 16.0221H11.5523ZM11.6063 20.0001V17.7321H13.2443V20.0001H11.6063Z" fill="#566E88"/>
</svg>
