<svg width="66" height="66" viewBox="0 0 66 66" fill="none" xmlns="http://www.w3.org/2000/svg">
<path fill-rule="evenodd" clip-rule="evenodd" d="M33.484 10.5469C28.5389 10.234 23.6215 11.4922 19.4343 14.1417C15.2472 16.7912 12.0046 20.6964 10.1701 25.2992C8.3355 29.9021 8.00278 34.967 9.21945 39.7703C10.4361 44.5736 13.1399 48.8694 16.9445 52.0439C20.7491 55.2183 25.4597 57.109 30.4032 57.4457C35.3468 57.7824 40.2702 56.5479 44.4701 53.9185C48.6699 51.2892 51.9312 47.3997 53.7878 42.8057C55.6445 38.2117 56.0016 33.1484 54.808 28.3393C54.7083 27.9373 54.9533 27.5305 55.3553 27.4307C55.7573 27.331 56.1641 27.576 56.2639 27.978C57.5336 33.094 57.1538 38.4805 55.1786 43.3678C53.2034 48.255 49.7339 52.3928 45.266 55.1899C40.7981 57.9871 35.5604 59.3004 30.3013 58.9422C25.0422 58.5841 20.0309 56.5727 15.9835 53.1956C11.9361 49.8185 9.05971 45.2485 7.76538 40.1386C6.47104 35.0287 6.825 29.6405 8.77667 24.7438C10.7283 19.8472 14.1779 15.6927 18.6323 12.8741C23.0867 10.0555 28.318 8.71703 33.5788 9.04991C33.9921 9.07607 34.3061 9.43239 34.2799 9.84578C34.2537 10.2592 33.8974 10.5731 33.484 10.5469ZM35.0304 15.2893C30.9463 14.6278 26.758 15.3208 23.1046 17.2624C19.4513 19.204 16.5335 22.2877 14.7966 26.0427C13.0598 29.7977 12.5992 34.0179 13.4852 38.0592C14.3712 42.1005 16.5552 45.7409 19.7037 48.4249C22.8523 51.1088 26.7925 52.6889 30.9231 52.9239C35.0537 53.159 39.1478 52.0361 42.5805 49.7267C46.0132 47.4172 48.596 44.0481 49.9348 40.1334C51.2735 36.2187 51.2947 31.9735 49.995 28.0457C49.8649 27.6524 50.0782 27.2282 50.4715 27.0981C50.8647 26.9679 51.289 27.1812 51.4191 27.5745C52.8216 31.8132 52.7988 36.3943 51.3541 40.6188C49.9094 44.8433 47.1222 48.479 43.4178 50.9712C39.7134 53.4634 35.2954 54.6752 30.8379 54.4215C26.3804 54.1679 22.1284 52.4628 18.7307 49.5664C15.3329 46.6701 12.9762 42.7416 12.02 38.3805C11.0639 34.0194 11.5609 29.4652 13.4352 25.413C15.3095 21.3608 18.4582 18.0331 22.4007 15.9379C26.3432 13.8426 30.8629 13.0948 35.2702 13.8086C35.6791 13.8748 35.9569 14.26 35.8906 14.6688C35.8244 15.0777 35.4393 15.3555 35.0304 15.2893ZM37.9074 33.9998C37.9074 37.015 35.3281 39.5753 32 39.5753C28.6718 39.5753 26.0926 37.015 26.0926 33.9998C26.0926 30.9847 28.6718 28.4244 32 28.4244C35.3281 28.4244 37.9074 30.9847 37.9074 33.9998ZM39.4074 33.9998C39.4074 37.9075 36.091 41.0753 32 41.0753C27.909 41.0753 24.5926 37.9075 24.5926 33.9998C24.5926 30.0922 27.909 26.9244 32 26.9244C36.091 26.9244 39.4074 30.0922 39.4074 33.9998Z" fill="#566E88"/>
<path fill-rule="evenodd" clip-rule="evenodd" d="M52.4053 2.52015C52.5698 2.45286 52.75 2.57383 52.75 2.75153V6.75849L43.25 10.6448V6.43335C43.25 6.33184 43.3114 6.2404 43.4053 6.20196L52.4053 2.52015ZM52.75 15.1519V8.37915L43.25 12.2655V18.262V18.6677C43.722 19.3243 44 20.1297 44 21.0001C44 23.2092 42.2091 25.0001 40 25.0001C37.7909 25.0001 36 23.2092 36 21.0001C36 18.7909 37.7909 17.0001 40 17.0001C40.6276 17.0001 41.2214 17.1446 41.75 17.4022V11.762V6.43335C41.75 5.72275 42.1797 5.0827 42.8374 4.81364L51.8374 1.13183C52.9887 0.660841 54.25 1.50762 54.25 2.75153V7.262V15.762V16.4175C54.722 17.074 55 17.8795 55 18.7498C55 20.959 53.2091 22.7498 51 22.7498C48.7909 22.7498 47 20.959 47 18.7498C47 16.5407 48.7909 14.7498 51 14.7498C51.6276 14.7498 52.2214 14.8944 52.75 15.1519ZM51 21.2498C52.3807 21.2498 53.5 20.1305 53.5 18.7498C53.5 17.3691 52.3807 16.2498 51 16.2498C49.6193 16.2498 48.5 17.3691 48.5 18.7498C48.5 20.1305 49.6193 21.2498 51 21.2498ZM40 23.5001C41.3807 23.5001 42.5 22.3808 42.5 21.0001C42.5 19.6194 41.3807 18.5001 40 18.5001C38.6193 18.5001 37.5 19.6194 37.5 21.0001C37.5 22.3808 38.6193 23.5001 40 23.5001Z" fill="#566E88"/>
</svg>
