<svg xmlns="http://www.w3.org/2000/svg" enable-background="new 0 0 48 48" viewBox="0 0 48 48"><path d="M32.14,3.53C29.96,1.58,27.07,0.5,24,0.5c-6.39,0-11.59,4.73-11.59,10.55v7.23c-2.85,0.48-5.06,0.52-5.09,0.52c-0.82,0.01-1.48,0.68-1.48,1.5c0,19.71,17.42,27.03,17.6,27.1c0.18,0.07,0.37,0.11,0.57,0.11s0.38-0.04,0.57-0.11c0.18-0.07,17.59-7.39,17.59-27.1c0-0.82-0.66-1.49-1.48-1.5c-0.02,0-2.23-0.03-5.09-0.52v-7.23C35.59,8.2,34.36,5.53,32.14,3.53z M24,3.5c2.33,0,4.5,0.8,6.13,2.26c1.58,1.42,2.45,3.3,2.45,5.28v6.58c-0.37-0.1-0.73-0.2-1.08-0.31c-0.04-0.01-0.09-0.03-0.13-0.04c-0.43-0.14-0.85-0.29-1.25-0.44c-0.12-0.05-0.24-0.1-0.35-0.15c-0.27-0.11-0.55-0.22-0.8-0.34c-0.14-0.06-0.27-0.13-0.4-0.19c-0.23-0.11-0.45-0.23-0.66-0.34c-0.13-0.07-0.26-0.14-0.38-0.22c-0.2-0.12-0.4-0.24-0.59-0.37c-0.11-0.08-0.23-0.15-0.33-0.23c-0.19-0.14-0.37-0.28-0.55-0.43c-0.08-0.07-0.17-0.13-0.25-0.2c-0.25-0.22-0.48-0.44-0.69-0.67c-0.28-0.31-0.69-0.49-1.11-0.49h0c-0.42,0-0.83,0.18-1.11,0.49c-0.26,0.29-0.55,0.56-0.86,0.82c-0.1,0.08-0.2,0.16-0.3,0.23c-0.22,0.17-0.44,0.34-0.68,0.49c-0.12,0.08-0.24,0.16-0.36,0.23c-0.24,0.15-0.48,0.29-0.73,0.42c-0.12,0.06-0.23,0.13-0.35,0.19c-0.32,0.16-0.64,0.31-0.96,0.45c-0.05,0.02-0.11,0.05-0.16,0.07c-0.38,0.16-0.77,0.31-1.16,0.45c-0.11,0.04-0.22,0.07-0.33,0.11c-0.28,0.09-0.56,0.18-0.84,0.27c-0.13,0.04-0.27,0.08-0.4,0.11c-0.12,0.03-0.23,0.06-0.35,0.09v-6.58C15.41,6.89,19.27,3.5,24,3.5z M24,44.36c-2.77-1.32-14.43-7.72-15.13-22.64c1.26-0.09,3.19-0.29,5.34-0.73c4.22-0.86,7.51-2.28,9.79-4.22c0.28,0.24,0.58,0.47,0.9,0.7c2.21,1.58,5.18,2.76,8.89,3.52c0,0,0,0,0,0s0,0,0,0c2.15,0.44,4.08,0.64,5.34,0.73C38.42,36.64,26.77,43.04,24,44.36z" fill="#094a69" class="color000000 svgShape"></path><path d="M25.86,28.56c0-1.03-0.83-1.86-1.86-1.86s-1.86,0.83-1.86,1.86c0,0.93,0.68,1.69,1.57,1.83l-1.79,6.17h4.15l-1.79-6.17C25.18,30.25,25.86,29.49,25.86,28.56z" fill="#094a69" class="color000000 svgShape"></path></svg>