<svg xmlns="http://www.w3.org/2000/svg" enable-background="new 0 0 64 64" viewBox="0 0 64 64"><g display="none" fill="#094a69" class="color000000 svgShape"><path fill="#a7a9ac" stroke="#000000" stroke-linecap="round" stroke-linejoin="round" stroke-miterlimit="10" stroke-width="2" d="
		M24.063,47.783l-8.373,2.798c-2.55,0.852-4.269,3.239-4.269,5.927l0,5.492h41.158c0,0,0-2.841,0-5.493
		c0-2.688-1.719-5.075-4.269-5.927l-8.373-2.798L24.063,47.783z" class="colora7a9ac svgShape colorStroke000000 svgStroke"></path><path fill="#a7a9ac" stroke="#000000" stroke-linecap="round" stroke-linejoin="round" stroke-miterlimit="10" stroke-width="2" d="
		M37.11,46.838V39.23H26.89v7.609l-2.827,0.945c0.515,3.929,3.868,6.964,7.937,6.964c4.069,0,7.422-3.036,7.937-6.964L37.11,46.838z
		" class="colora7a9ac svgShape colorStroke000000 svgStroke"></path><circle cx="49.46" cy="9.267" r="7.267" fill="#a7a9ac" stroke="#000000" stroke-linecap="round" stroke-linejoin="round" stroke-miterlimit="10" stroke-width="2" class="colora7a9ac svgShape colorStroke000000 svgStroke"></circle><path fill="#a7a9ac" stroke="#000000" stroke-linecap="round" stroke-linejoin="round" stroke-miterlimit="10" stroke-width="2" d="
		M48.202,26.429H15.798l-1.746-7.269C11.95,10.412,18.58,2,27.577,2h8.846c8.997,0,15.627,8.412,13.526,17.16L48.202,26.429z" class="colora7a9ac svgShape colorStroke000000 svgStroke"></path><circle cx="16.728" cy="27.29" r="5.293" fill="#a7a9ac" stroke="#000000" stroke-linecap="round" stroke-linejoin="round" stroke-miterlimit="10" stroke-width="2" class="colora7a9ac svgShape colorStroke000000 svgStroke"></circle><circle cx="47.272" cy="27.29" r="5.293" fill="#a7a9ac" stroke="#000000" stroke-linecap="round" stroke-linejoin="round" stroke-miterlimit="10" stroke-width="2" class="colora7a9ac svgShape colorStroke000000 svgStroke"></circle><path fill="#a7a9ac" stroke="#000000" stroke-linecap="round" stroke-linejoin="round" stroke-miterlimit="10" stroke-width="2" d="
		M47.272,21.996l-8.436-10.017c-10.235-0.26-16.757,3.023-22.107,10.017v5.293c0,8.434,6.837,15.272,15.272,15.272h0
		c8.434,0,15.272-6.843,15.272-15.277L47.272,21.996z" class="colora7a9ac svgShape colorStroke000000 svgStroke"></path><path fill="none" stroke="#000000" stroke-linecap="round" stroke-linejoin="round" stroke-miterlimit="10" stroke-width="2" d="M21.978 20.511c.41-.69 1.402-1.177 2.565-1.177 1.164 0 2.156.488 2.565 1.177M42.022 20.511c-.41-.69-1.402-1.177-2.565-1.177s-2.156.488-2.565 1.177M21.978 24.525c.41.69 1.402 1.177 2.565 1.177 1.164 0 2.156-.488 2.565-1.177M42.022 24.525c-.41.69-1.402 1.177-2.565 1.177s-2.156-.488-2.565-1.177M5.301 39.562c3.451.336 6.653-.498 9.426-2.751M5.883 49.068c5.002-.546 9.478-3.778 12.041-7.106" class="colorStroke000000 svgStroke"></path><polyline fill="none" stroke="#000" stroke-linecap="round" stroke-linejoin="round" stroke-miterlimit="10" stroke-width="2" points="6.861 41.275 4.873 39.541 6.893 37.846"></polyline><polyline fill="none" stroke="#000" stroke-linecap="round" stroke-linejoin="round" stroke-miterlimit="10" stroke-width="2" points="7.053 50.534 4.873 49.049 6.678 47.125"></polyline><path fill="none" stroke="#000000" stroke-linecap="round" stroke-linejoin="round" stroke-miterlimit="10" stroke-width="2" d="M58.699 39.562c-3.451.336-6.653-.498-9.426-2.751M58.117 49.068c-5.002-.546-9.478-3.778-12.041-7.106" class="colorStroke000000 svgStroke"></path><polyline fill="none" stroke="#000" stroke-linecap="round" stroke-linejoin="round" stroke-miterlimit="10" stroke-width="2" points="57.139 41.275 59.127 39.541 57.107 37.846"></polyline><polyline fill="none" stroke="#000" stroke-linecap="round" stroke-linejoin="round" stroke-miterlimit="10" stroke-width="2" points="56.947 50.534 59.127 49.049 57.323 47.125"></polyline><circle cx="32" cy="29.935" r="2.585" fill="#a7a9ac" stroke="#000000" stroke-linecap="round" stroke-linejoin="round" stroke-miterlimit="10" stroke-width="2" class="colora7a9ac svgShape colorStroke000000 svgStroke"></circle></g><g display="none" fill="#094a69" class="color000000 svgShape"><path fill="#5295d8" d="M17.132 41.352c-1.978 2.568-5.473 5.44-9.71 6.434.357-.404.335-1.019-.06-1.39-.403-.378-1.036-.356-1.414.045l-1.805 1.924c-.2.214-.297.504-.265.794.032.291.189.553.432.717l2.18 1.484c.172.118.368.174.562.174.319 0 .634-.153.827-.438.293-.429.194-.997-.198-1.322 4.837-1.076 8.809-4.311 11.035-7.202.337-.438.256-1.065-.182-1.402C18.096 40.83 17.467 40.913 17.132 41.352zM6.204 42.028c.189.165.424.246.657.246.278 0 .556-.116.754-.343.339-.39.31-.961-.035-1.331 2.89-.161 5.5-1.163 7.777-3.014.429-.349.493-.979.146-1.407-.35-.429-.978-.493-1.407-.146-1.914 1.556-4.114 2.406-6.548 2.562.409-.357.462-.975.111-1.393-.353-.424-.983-.479-1.408-.123L4.23 38.775c-.224.188-.354.464-.357.756-.003.293.122.571.343.764L6.204 42.028zM56.42 40.601c-.345.37-.374.941-.035 1.331.198.227.476.343.754.343.233 0 .468-.081.657-.246l1.988-1.733c.221-.192.346-.471.343-.764-.003-.292-.134-.568-.357-.756l-2.021-1.695c-.424-.355-1.055-.301-1.408.123-.351.418-.298 1.036.111 1.393-2.436-.156-4.633-1.005-6.547-2.562-.429-.348-1.058-.283-1.407.146-.348.429-.283 1.059.146 1.407C50.921 39.437 53.53 40.44 56.42 40.601zM58.052 46.44c-.378-.4-1.01-.422-1.414-.045-.395.371-.417.986-.06 1.39-4.237-.994-7.732-3.866-9.71-6.434-.335-.438-.965-.521-1.402-.182-.438.337-.519.965-.182 1.402 2.226 2.89 6.198 6.125 11.035 7.202-.392.325-.492.893-.198 1.322.193.284.507.438.827.438.193 0 .39-.056.562-.174l2.18-1.484c.242-.164.399-.426.432-.717.032-.29-.064-.58-.265-.794L58.052 46.44z" class="color52d5d8 svgShape"></path><path fill="#cde3f9" d="M24.063,47.783l-8.373,2.798c-2.55,0.852-4.269,3.239-4.269,5.927l0,5.492h41.158
		c0,0,0-2.841,0-5.493c0-2.688-1.719-5.075-4.269-5.927l-8.373-2.798L24.063,47.783z" class="colorf9efcd svgShape"></path><path fill="#95d9fa" d="M37.111,46.838V39.23H26.89v7.609l-2.827,0.945c0.515,3.929,3.868,6.964,7.937,6.964
		c4.069,0,7.422-3.036,7.937-6.964L37.111,46.838z" class="colorfaad95 svgShape"></path><circle cx="49.46" cy="9.267" r="7.267" fill="#09427b" class="color46367d svgShape"></circle><path fill="#09427b" d="M48.202,26.429H15.798l-1.746-7.269C11.95,10.412,18.58,2,27.577,2h8.846
		c8.997,0,15.627,8.412,13.526,17.16L48.202,26.429z" class="color46367d svgShape"></path><circle cx="16.728" cy="27.29" r="5.293" fill="#95d9fa" class="colorfaad95 svgShape"></circle><circle cx="47.272" cy="27.29" r="5.293" fill="#95d9fa" class="colorfaad95 svgShape"></circle><path fill="#77cef7" d="M26.89,39.23v4.559c1.616,0.501,3.332,0.773,5.11,0.773c1.779,0,3.495-0.271,5.11-0.773
		V39.23H26.89z" class="colorf78177 svgShape"></path><path fill="#95d9fa" d="M47.272,21.996l-8.436-10.017c-10.235-0.26-16.757,3.023-22.107,10.017v5.293
		c0,8.434,6.837,15.272,15.272,15.272h0c8.434,0,15.272-6.843,15.272-15.277L47.272,21.996z" class="colorfaad95 svgShape"></path><path fill="#09427b" d="M27.109 21.511c-.342 0-.674-.175-.861-.489-.202-.342-.854-.688-1.705-.688s-1.503.346-1.706.688c-.281.473-.894.631-1.371.348-.475-.282-.63-.896-.348-1.371.611-1.027 1.924-1.665 3.425-1.665 1.503 0 2.815.639 3.426 1.666.281.476.125 1.089-.35 1.371C27.459 21.466 27.283 21.511 27.109 21.511zM36.891 21.511c-.174 0-.35-.045-.51-.14-.475-.282-.631-.896-.35-1.371.61-1.027 1.923-1.666 3.426-1.666 1.501 0 2.813.638 3.425 1.665.282.475.127 1.089-.348 1.371-.478.283-1.09.125-1.371-.348-.203-.343-.854-.688-1.706-.688s-1.503.346-1.705.688C37.564 21.336 37.232 21.511 36.891 21.511z" class="color46367d svgShape"></path><path fill="#77cef7" d="M24.543 26.702c-1.501 0-2.813-.639-3.425-1.666-.282-.475-.127-1.089.348-1.371.478-.284 1.09-.126 1.371.348.204.343.855.689 1.706.689.852 0 1.503-.346 1.705-.688.282-.475.896-.631 1.371-.35.475.282.631.896.35 1.371C27.358 26.063 26.046 26.702 24.543 26.702zM39.457 26.702c-1.503 0-2.815-.639-3.426-1.667-.281-.476-.125-1.089.35-1.371s1.088-.126 1.371.35c.202.343.854.688 1.705.688.851 0 1.502-.347 1.706-.689.281-.474.894-.632 1.371-.348.475.282.63.896.348 1.371C42.271 26.063 40.958 26.702 39.457 26.702zM16.728 30.83c-.552 0-1-.448-1-1v-5.08c0-.552.448-1 1-1s1 .448 1 1v5.08C17.728 30.382 17.281 30.83 16.728 30.83zM47.272 30.83c-.552 0-1-.448-1-1v-5.08c0-.552.448-1 1-1s1 .448 1 1v5.08C48.272 30.382 47.824 30.83 47.272 30.83z" class="colorf78177 svgShape"></path><circle cx="32" cy="29.935" r="2.585" fill="#77cef7" class="colorf78177 svgShape"></circle></g><g display="none" fill="#094a69" class="color000000 svgShape"><path fill="#5295d8" d="M18.534,41.17c0.438,0.337,0.519,0.965,0.182,1.402c-2.226,2.89-6.198,6.125-11.035,7.202
		c0.392,0.325,0.492,0.893,0.198,1.322c-0.193,0.284-0.508,0.438-0.827,0.438c-0.193,0-0.39-0.056-0.562-0.174l-2.18-1.484
		c-0.242-0.164-0.399-0.426-0.432-0.717c-0.032-0.29,0.064-0.58,0.265-0.794l1.805-1.924c0.378-0.401,1.011-0.423,1.414-0.045
		c0.395,0.371,0.417,0.986,0.06,1.39c4.237-0.994,7.732-3.866,9.71-6.434C17.467,40.913,18.096,40.83,18.534,41.17z M6.204,42.028
		c0.189,0.165,0.424,0.246,0.657,0.246c0.278,0,0.556-0.116,0.754-0.343c0.339-0.39,0.31-0.961-0.035-1.331
		c2.89-0.161,5.5-1.163,7.777-3.014c0.429-0.349,0.493-0.979,0.146-1.407c-0.35-0.429-0.978-0.493-1.407-0.146
		c-1.914,1.556-4.114,2.406-6.548,2.562c0.409-0.357,0.462-0.975,0.111-1.393c-0.353-0.424-0.983-0.479-1.408-0.123L4.23,38.775
		c-0.224,0.188-0.354,0.464-0.357,0.756c-0.003,0.293,0.122,0.571,0.343,0.764L6.204,42.028z M56.42,40.601
		c-0.345,0.37-0.374,0.941-0.035,1.331c0.198,0.227,0.476,0.343,0.754,0.343c0.233,0,0.468-0.081,0.657-0.246l1.988-1.733
		c0.221-0.192,0.346-0.471,0.343-0.764c-0.003-0.292-0.134-0.568-0.357-0.756l-2.021-1.695c-0.424-0.355-1.055-0.301-1.408,0.123
		c-0.351,0.418-0.298,1.036,0.111,1.393c-2.436-0.156-4.633-1.005-6.547-2.562c-0.429-0.348-1.058-0.283-1.407,0.146
		c-0.348,0.429-0.283,1.059,0.146,1.407C50.921,39.437,53.53,40.44,56.42,40.601z M58.052,46.44c-0.378-0.4-1.01-0.422-1.414-0.045
		c-0.395,0.371-0.417,0.986-0.06,1.39c-4.237-0.994-7.732-3.866-9.71-6.434c-0.335-0.438-0.965-0.521-1.402-0.182
		c-0.438,0.337-0.519,0.965-0.182,1.402c2.226,2.89,6.198,6.125,11.035,7.202c-0.392,0.325-0.492,0.893-0.198,1.322
		c0.193,0.284,0.507,0.438,0.827,0.438c0.193,0,0.39-0.056,0.562-0.174l2.18-1.484c0.242-0.164,0.399-0.426,0.432-0.717
		c0.032-0.29-0.064-0.58-0.265-0.794L58.052,46.44z" class="color52d5d8 svgShape"></path><path fill="#cde3f9" d="M24.063,47.783l-8.373,2.798c-2.55,0.852-4.269,3.239-4.269,5.927l0,5.492h41.158
		c0,0,0-2.841,0-5.493c0-2.688-1.719-5.075-4.269-5.927l-8.373-2.798L24.063,47.783z" class="colorf9efcd svgShape"></path><path fill="#95d9fa" d="M37.111,46.838V39.23H26.89v7.609l-2.827,0.945c0.515,3.929,3.868,6.964,7.937,6.964
		c4.069,0,7.422-3.036,7.937-6.964L37.111,46.838z" class="colorfaad95 svgShape"></path><path fill="#09427b" d="M56.727,9.267C56.727,5.254,53.473,2,49.46,2c-2.108,0-4,0.903-5.327,2.336
		C41.944,2.872,39.308,2,36.423,2h-8.846C18.58,2,11.95,10.412,14.051,19.16l1.746,7.269h32.405l1.746-7.269
		c0.216-0.9,0.318-1.794,0.357-2.678C53.92,16.062,56.727,12.995,56.727,9.267z" class="color46367d svgShape"></path><path fill="#77cef7" d="M26.89,39.23v4.559c1.616,0.501,3.332,0.773,5.11,0.773c1.779,0,3.495-0.271,5.11-0.773
		V39.23H26.89z" class="colorf78177 svgShape"></path><path fill="#95d9fa" d="M47.272,21.996C47.272,21.996,47.272,21.996,47.272,21.996L47.272,21.996l-8.436-10.017
		c-10.235-0.26-16.757,3.023-22.107,10.017c-2.923,0-5.293,2.37-5.293,5.293s2.37,5.293,5.293,5.293c0.318,0,0.625-0.04,0.928-0.094
		c2.129,5.87,7.739,10.072,14.344,10.072h0c6.604,0,12.212-4.203,14.342-10.072c0.303,0.054,0.611,0.094,0.929,0.094
		c2.923,0,5.293-2.37,5.293-5.293S50.195,21.996,47.272,21.996z" class="colorfaad95 svgShape"></path><path fill="#09427b" d="M27.109,21.511c-0.342,0-0.674-0.175-0.861-0.489c-0.202-0.342-0.854-0.688-1.705-0.688
		s-1.503,0.346-1.706,0.688c-0.281,0.473-0.894,0.631-1.371,0.348c-0.475-0.282-0.63-0.896-0.348-1.371
		c0.611-1.027,1.924-1.665,3.425-1.665c1.503,0,2.815,0.639,3.426,1.666c0.281,0.476,0.125,1.089-0.35,1.371
		C27.459,21.466,27.283,21.511,27.109,21.511z M37.752,21.021c0.202-0.342,0.854-0.688,1.705-0.688s1.503,0.346,1.706,0.688
		c0.281,0.473,0.894,0.631,1.371,0.348c0.475-0.282,0.63-0.896,0.348-1.371c-0.611-1.027-1.924-1.665-3.425-1.665
		c-1.503,0-2.815,0.639-3.426,1.666c-0.281,0.476-0.125,1.089,0.35,1.371c0.16,0.095,0.336,0.14,0.51,0.14
		C37.232,21.511,37.564,21.336,37.752,21.021z" class="color46367d svgShape"></path><path fill="#77cef7" d="M24.543,26.702c-1.501,0-2.813-0.639-3.425-1.666c-0.282-0.475-0.127-1.089,0.348-1.371
		c0.478-0.284,1.09-0.126,1.371,0.348c0.204,0.343,0.855,0.689,1.706,0.689c0.852,0,1.503-0.346,1.705-0.688
		c0.282-0.475,0.896-0.631,1.371-0.35c0.475,0.282,0.631,0.896,0.35,1.371C27.358,26.063,26.046,26.702,24.543,26.702z
		 M42.882,25.036c0.282-0.475,0.127-1.089-0.348-1.371c-0.478-0.284-1.09-0.126-1.371,0.348c-0.204,0.343-0.855,0.689-1.706,0.689
		c-0.852,0-1.503-0.346-1.705-0.688c-0.283-0.476-0.896-0.632-1.371-0.35s-0.631,0.896-0.35,1.371
		c0.61,1.028,1.923,1.667,3.426,1.667C40.958,26.702,42.271,26.063,42.882,25.036z M17.728,29.83v-5.08c0-0.552-0.448-1-1-1
		s-1,0.448-1,1v5.08c0,0.552,0.448,1,1,1S17.728,30.382,17.728,29.83z M48.272,29.83v-5.08c0-0.552-0.448-1-1-1s-1,0.448-1,1v5.08
		c0,0.552,0.448,1,1,1S48.272,30.382,48.272,29.83z" class="colorf78177 svgShape"></path><circle cx="32" cy="29.935" r="2.585" fill="#77cef7" class="colorf78177 svgShape"></circle></g><g display="none" fill="#094a69" class="color000000 svgShape"><path fill="#cde3f9" d="M24.063,47.783l-8.373,2.798c-2.55,0.852-4.269,3.239-4.269,5.927l0,5.492h41.158
		c0,0,0-2.841,0-5.493c0-2.688-1.719-5.075-4.269-5.927l-8.373-2.798L24.063,47.783z" class="colorf9efcd svgShape"></path><path fill="#09427b" d="M56.727,9.267C56.727,5.254,53.473,2,49.46,2c-2.108,0-4,0.903-5.327,2.336
		C41.944,2.872,39.308,2,36.423,2h-8.846C18.58,2,11.95,10.412,14.051,19.16l1.746,7.269h32.405l1.746-7.269
		c0.216-0.9,0.318-1.794,0.357-2.678C53.92,16.062,56.727,12.995,56.727,9.267z" class="color46367d svgShape"></path><path fill="#95d9fa" d="M47.272,21.996C47.272,21.996,47.272,21.996,47.272,21.996l-8.436-10.017
		c-10.235-0.26-16.757,3.023-22.107,10.017c-2.923,0-5.293,2.37-5.293,5.293s2.37,5.293,5.293,5.293c0.318,0,0.625-0.04,0.928-0.094
		c1.551,4.275,4.951,7.656,9.234,9.182v5.166l-2.827,0.945c0.515,3.929,3.868,6.964,7.937,6.964c4.069,0,7.422-3.036,7.937-6.964
		l-2.827-0.944v-5.167c4.281-1.527,7.681-4.908,9.232-9.182c0.303,0.054,0.611,0.094,0.929,0.094c2.923,0,5.293-2.37,5.293-5.293
		S50.195,21.996,47.272,21.996z" class="colorfaad95 svgShape"></path><circle cx="32" cy="29.935" r="2.585" fill="#77cef7" class="colorf78177 svgShape"></circle></g><g display="none" fill="#094a69" class="color000000 svgShape"><path fill="none" stroke="#000000" stroke-linejoin="round" stroke-miterlimit="10" stroke-width="2" d="
		M39.94,47.78l8.37,2.8c2.55,0.85,4.27,3.24,4.27,5.93c0,2.65,0,5.49,0,5.49H11.42v-5.49c0-2.69,1.72-5.08,4.27-5.93l8.37-2.8" class="colorStroke000000 svgStroke"></path><path fill="none" stroke="#000000" stroke-linejoin="round" stroke-miterlimit="10" stroke-width="2" d="M37.11 41.68v5.16l2.83.94c-.52 3.93-3.87 6.97-7.94 6.97s-7.42-3.04-7.94-6.97l2.83-.94v-5.16M50.33 16.47c3.6-.42 6.4-3.49 6.4-7.2 0-4.02-3.26-7.27-7.27-7.27-2.1 0-4 .89-5.32 2.33" class="colorStroke000000 svgStroke"></path><path fill="none" stroke="#000000" stroke-linejoin="round" stroke-miterlimit="10" stroke-width="2" d="
		M14.82,22.36l-0.77-3.2C11.95,10.41,18.58,2,27.58,2h8.84c2.89,0,5.53,0.87,7.72,2.33c3.93,2.63,6.4,7.19,6.19,12.14
		c-0.04,0.89-0.17,1.79-0.38,2.69l-0.77,3.2" class="colorStroke000000 svgStroke"></path><path fill="none" stroke="#000000" stroke-linejoin="round" stroke-miterlimit="10" stroke-width="2" d="M16.73 22c-.67 0-1.32.12-1.91.36-1.98.76-3.38 2.68-3.38 4.93 0 2.92 2.36 5.29 5.29 5.29.31 0 .61-.03.91-.09M47.27 22c.67 0 1.32.12 1.91.36 1.98.76 3.39 2.68 3.39 4.93 0 2.92-2.37 5.29-5.3 5.29-.31 0-.62-.03-.92-.09" class="colorStroke000000 svgStroke"></path><path fill="none" stroke="#000000" stroke-linejoin="round" stroke-miterlimit="10" stroke-width="2" d="
		M47.272,21.996l-8.436-10.017c-10.235-0.26-16.757,3.023-22.107,10.017v5.293c0,8.434,6.837,15.272,15.272,15.272h0
		c8.434,0,15.272-6.843,15.272-15.277L47.272,21.996z" class="colorStroke000000 svgStroke"></path><path fill="none" stroke="#000000" stroke-linecap="round" stroke-linejoin="round" stroke-miterlimit="10" stroke-width="2" d="M21.978 20.511c.41-.69 1.402-1.177 2.565-1.177 1.164 0 2.156.488 2.565 1.177M42.022 20.511c-.41-.69-1.402-1.177-2.565-1.177s-2.156.488-2.565 1.177M21.978 24.525c.41.69 1.402 1.177 2.565 1.177 1.164 0 2.156-.488 2.565-1.177M42.022 24.525c-.41.69-1.402 1.177-2.565 1.177s-2.156-.488-2.565-1.177M5.301 39.562c3.451.336 6.653-.498 9.426-2.751M5.883 49.068c5.002-.546 9.478-3.778 12.041-7.106" class="colorStroke000000 svgStroke"></path><polyline fill="none" stroke="#000" stroke-linecap="round" stroke-linejoin="round" stroke-miterlimit="10" stroke-width="2" points="6.861 41.275 4.873 39.541 6.893 37.846"></polyline><polyline fill="none" stroke="#000" stroke-linecap="round" stroke-linejoin="round" stroke-miterlimit="10" stroke-width="2" points="7.053 50.534 4.873 49.049 6.678 47.125"></polyline><path fill="none" stroke="#000000" stroke-linecap="round" stroke-linejoin="round" stroke-miterlimit="10" stroke-width="2" d="M58.699 39.562c-3.451.336-6.653-.498-9.426-2.751M58.117 49.068c-5.002-.546-9.478-3.778-12.041-7.106" class="colorStroke000000 svgStroke"></path><polyline fill="none" stroke="#000" stroke-linecap="round" stroke-linejoin="round" stroke-miterlimit="10" stroke-width="2" points="57.139 41.275 59.127 39.541 57.107 37.846"></polyline><polyline fill="none" stroke="#000" stroke-linecap="round" stroke-linejoin="round" stroke-miterlimit="10" stroke-width="2" points="56.947 50.534 59.127 49.049 57.323 47.125"></polyline><circle cx="32" cy="29.935" r="2.585" fill="none" stroke="#000000" stroke-linecap="round" stroke-linejoin="round" stroke-miterlimit="10" stroke-width="2" class="colorStroke000000 svgStroke"></circle></g><g display="none" fill="#094a69" class="color000000 svgShape"><path d="M53.58,62v-5.49c0-3.127-1.991-5.892-4.953-6.878L38.11,46.118V42.36c4.01-1.633,7.23-4.814,8.902-8.805
		c0.086,0.004,0.171,0.025,0.257,0.025c3.475,0,6.301-2.821,6.301-6.29c0-2.287-1.274-4.393-3.229-5.482l0.582-2.42
		c0.162-0.695,0.261-1.382,0.329-2.061c3.744-0.817,6.478-4.146,6.478-8.057c0-4.56-3.71-8.27-8.271-8.27
		c-2.022,0-3.97,0.747-5.462,2.07C41.707,1.718,39.107,1,36.42,1h-8.84c-4.598,0-8.867,2.07-11.713,5.68s-3.862,8.243-2.79,12.715
		l0.581,2.415c-1.953,1.096-3.218,3.198-3.218,5.481c0,3.469,2.821,6.29,6.29,6.29c0.087,0,0.17-0.021,0.256-0.025
		c1.672,3.991,4.892,7.173,8.903,8.806v3.758l-10.516,3.513c-2.963,0.987-4.954,3.752-4.954,6.879V62c0,0.553,0.447,1,1,1h41.16
		C53.133,63,53.58,62.553,53.58,62z M51.57,27.29c0,2.222-1.709,4.034-3.882,4.248c0.369-1.359,0.583-2.78,0.583-4.254v-4.152
		c0.186,0.045,0.372,0.089,0.55,0.162C50.466,23.925,51.57,25.53,51.57,27.29z M55.73,9.27c0,2.787-1.832,5.182-4.41,5.972
		c-0.193-4.263-2.252-8.3-5.605-10.987C46.783,3.452,48.097,3,49.46,3C52.918,3,55.73,5.812,55.73,9.27z M17.437,7.918
		C19.902,4.793,23.599,3,27.58,3h8.84c2.566,0,5.044,0.748,7.164,2.161c3.733,2.498,5.936,6.815,5.747,11.264
		c-0.036,0.812-0.156,1.655-0.354,2.501l-0.526,2.183c-0.217-0.041-0.447-0.044-0.672-0.062l-8.179-9.712
		c-0.184-0.219-0.453-0.348-0.739-0.355c-9.983-0.235-16.995,2.862-22.652,10.068c-0.221,0.018-0.448,0.021-0.661,0.061
		l-0.526-2.182C14.094,15.056,14.974,11.043,17.437,7.918z M12.44,27.29c0-1.789,1.075-3.358,2.757-4.004
		c0.169-0.068,0.35-0.111,0.531-0.155v4.159c0,1.471,0.214,2.891,0.582,4.248C14.144,31.323,12.44,29.511,12.44,27.29z
		 M17.729,27.29v-4.952c5.222-6.688,11.438-9.492,20.634-9.368l7.909,9.392v4.923c0,7.872-6.402,14.277-14.271,14.277
		S17.729,35.159,17.729,27.29z M27.205,47.789c0.409-0.136,0.685-0.519,0.685-0.949v-3.825c1.316,0.344,2.688,0.547,4.11,0.547
		s2.795-0.202,4.11-0.547v3.825c0,0.431,0.275,0.813,0.685,0.949l1.999,0.664c-0.779,3.07-3.568,5.297-6.794,5.297
		s-6.015-2.227-6.794-5.297L27.205,47.789z M51.58,61H12.42v-4.49c0-2.265,1.441-4.267,3.588-4.981l7.306-2.444
		c1.051,3.871,4.591,6.666,8.686,6.666s7.635-2.795,8.686-6.666l7.307,2.445c2.146,0.714,3.587,2.716,3.587,4.98V61z" fill="#094a69" class="color000000 svgShape"></path><path d="M24.543 18.334c-1.501 0-2.813.638-3.425 1.665-.282.475-.127 1.089.348 1.371.478.283 1.09.125 1.371-.348.203-.343.854-.688 1.706-.688s1.503.346 1.705.688c.188.314.52.489.861.489.174 0 .35-.045.51-.14.475-.282.631-.896.35-1.371C27.358 18.973 26.046 18.334 24.543 18.334zM36.381 21.371c.16.095.336.14.51.14.342 0 .674-.175.861-.489.202-.342.854-.688 1.705-.688s1.503.346 1.706.688c.281.473.894.631 1.371.348.475-.282.63-.896.348-1.371-.611-1.027-1.924-1.665-3.425-1.665-1.503 0-2.815.639-3.426 1.666C35.75 20.476 35.906 21.089 36.381 21.371zM27.619 23.664c-.475-.281-1.088-.125-1.371.35-.202.343-.854.688-1.705.688-.851 0-1.502-.347-1.706-.689-.281-.474-.894-.632-1.371-.348-.475.282-.63.896-.348 1.371.611 1.027 1.924 1.666 3.425 1.666 1.503 0 2.815-.639 3.426-1.667C28.25 24.56 28.094 23.946 27.619 23.664zM39.457 26.702c1.501 0 2.813-.639 3.425-1.666.282-.475.127-1.089-.348-1.371-.478-.284-1.09-.126-1.371.348-.204.343-.855.689-1.706.689-.852 0-1.503-.346-1.705-.688-.284-.476-.897-.632-1.371-.35-.475.282-.631.896-.35 1.371C36.642 26.063 37.954 26.702 39.457 26.702zM7.659 37.203c-.353-.424-.983-.479-1.408-.123L4.23 38.775c-.224.188-.354.464-.357.756-.003.293.122.571.343.764l1.988 1.733c.189.165.424.246.657.246.278 0 .556-.116.754-.343.339-.39.31-.961-.035-1.331 2.89-.161 5.5-1.163 7.777-3.014.429-.349.493-.979.146-1.407-.35-.429-.978-.493-1.407-.146-1.914 1.556-4.114 2.406-6.548 2.562C7.957 38.24 8.01 37.621 7.659 37.203zM6.49 51.359c.172.118.368.174.562.174.319 0 .634-.153.827-.438.293-.429.194-.997-.198-1.322 4.837-1.076 8.809-4.311 11.035-7.202.337-.438.256-1.065-.182-1.402-.438-.34-1.067-.257-1.402.182-1.978 2.568-5.473 5.44-9.71 6.434.357-.404.335-1.019-.06-1.39-.403-.378-1.036-.356-1.414.045l-1.805 1.924c-.2.214-.297.504-.265.794.032.291.189.553.432.717L6.49 51.359zM59.77 38.775l-2.021-1.695c-.424-.355-1.055-.301-1.408.123-.351.418-.298 1.036.111 1.393-2.436-.156-4.633-1.005-6.547-2.562-.429-.348-1.058-.283-1.407.146-.348.429-.283 1.059.146 1.407 2.278 1.851 4.888 2.853 7.777 3.014-.345.37-.374.941-.035 1.331.198.227.476.343.754.343.233 0 .468-.081.657-.246l1.988-1.733c.221-.192.346-.471.343-.764C60.124 39.239 59.993 38.963 59.77 38.775zM60.121 49.158c.032-.29-.064-.58-.265-.794l-1.805-1.924c-.378-.4-1.01-.422-1.414-.045-.395.371-.417.986-.06 1.39-4.237-.994-7.732-3.866-9.71-6.434-.335-.438-.965-.521-1.402-.182-.438.337-.519.965-.182 1.402 2.226 2.89 6.198 6.125 11.035 7.202-.392.325-.492.893-.198 1.322.193.284.507.438.827.438.193 0 .39-.056.562-.174l2.18-1.484C59.932 49.711 60.089 49.449 60.121 49.158zM35.585 29.936c0-1.977-1.608-3.585-3.585-3.585s-3.585 1.608-3.585 3.585 1.608 3.585 3.585 3.585S35.585 31.912 35.585 29.936zM30.415 29.936c0-.874.711-1.585 1.585-1.585s1.585.711 1.585 1.585S32.874 31.521 32 31.521 30.415 30.81 30.415 29.936z" fill="#094a69" class="color000000 svgShape"></path></g><g display="none" fill="#094a69" class="color000000 svgShape"><path fill="#5295d8" d="M18.534,41.17c0.438,0.337,0.519,0.965,0.182,1.402c-2.226,2.89-6.198,6.125-11.035,7.202
		c0.392,0.325,0.492,0.893,0.198,1.322c-0.193,0.284-0.508,0.438-0.827,0.438c-0.193,0-0.39-0.056-0.562-0.174l-2.18-1.484
		c-0.242-0.164-0.399-0.426-0.432-0.717c-0.032-0.29,0.064-0.58,0.265-0.794l1.805-1.924c0.378-0.401,1.011-0.423,1.414-0.045
		c0.395,0.371,0.417,0.986,0.06,1.39c4.237-0.994,7.732-3.866,9.71-6.434C17.467,40.913,18.096,40.83,18.534,41.17z M6.204,42.028
		c0.189,0.165,0.424,0.246,0.657,0.246c0.278,0,0.556-0.116,0.754-0.343c0.339-0.39,0.31-0.961-0.035-1.331
		c2.89-0.161,5.5-1.163,7.777-3.014c0.429-0.349,0.493-0.979,0.146-1.407c-0.35-0.429-0.978-0.493-1.407-0.146
		c-1.914,1.556-4.114,2.406-6.548,2.562c0.409-0.357,0.462-0.975,0.111-1.393c-0.353-0.424-0.983-0.479-1.408-0.123L4.23,38.775
		c-0.224,0.188-0.354,0.464-0.357,0.756c-0.003,0.293,0.122,0.571,0.343,0.764L6.204,42.028z M56.42,40.601
		c-0.345,0.37-0.374,0.941-0.035,1.331c0.198,0.227,0.476,0.343,0.754,0.343c0.233,0,0.468-0.081,0.657-0.246l1.988-1.733
		c0.221-0.192,0.346-0.471,0.343-0.764c-0.003-0.292-0.134-0.568-0.357-0.756l-2.021-1.695c-0.424-0.355-1.055-0.301-1.408,0.123
		c-0.351,0.418-0.298,1.036,0.111,1.393c-2.436-0.156-4.633-1.005-6.547-2.562c-0.429-0.348-1.058-0.283-1.407,0.146
		c-0.348,0.429-0.283,1.059,0.146,1.407C50.921,39.437,53.53,40.44,56.42,40.601z M58.052,46.44c-0.378-0.4-1.01-0.422-1.414-0.045
		c-0.395,0.371-0.417,0.986-0.06,1.39c-4.237-0.994-7.732-3.866-9.71-6.434c-0.335-0.438-0.965-0.521-1.402-0.182
		c-0.438,0.337-0.519,0.965-0.182,1.402c2.226,2.89,6.198,6.125,11.035,7.202c-0.392,0.325-0.492,0.893-0.198,1.322
		c0.193,0.284,0.507,0.438,0.827,0.438c0.193,0,0.39-0.056,0.562-0.174l2.18-1.484c0.242-0.164,0.399-0.426,0.432-0.717
		c0.032-0.29-0.064-0.58-0.265-0.794L58.052,46.44z" class="color52d5d8 svgShape"></path><path fill="#cde3f9" d="M24.063,47.783l-8.373,2.798c-2.55,0.852-4.269,3.239-4.269,5.927l0,5.492h41.158
		c0,0,0-2.841,0-5.493c0-2.688-1.719-5.075-4.269-5.927l-8.373-2.798L24.063,47.783z" class="colorf9efcd svgShape"></path><path fill="#95d9fa" d="M37.111,46.838V39.23H26.89v7.609l-2.827,0.945c0.515,3.929,3.868,6.964,7.937,6.964
		c4.069,0,7.422-3.036,7.937-6.964L37.111,46.838z" class="colorfaad95 svgShape"></path><path fill="#09427b" d="M56.727,9.267C56.727,5.254,53.473,2,49.46,2c-2.108,0-4,0.903-5.327,2.336
		C41.944,2.872,39.308,2,36.423,2h-8.846C18.58,2,11.95,10.412,14.051,19.16l1.746,7.269h32.405l1.746-7.269
		c0.216-0.9,0.318-1.794,0.357-2.678C53.92,16.062,56.727,12.995,56.727,9.267z" class="color46367d svgShape"></path><path fill="#77cef7" d="M26.89,39.23v4.559c1.616,0.501,3.332,0.773,5.11,0.773c1.779,0,3.495-0.271,5.11-0.773
		V39.23H26.89z" class="colorf78177 svgShape"></path><path fill="#95d9fa" d="M47.272,21.996C47.272,21.996,47.272,21.996,47.272,21.996L47.272,21.996l-8.436-10.017
		c-10.235-0.26-16.757,3.023-22.107,10.017c-2.923,0-5.293,2.37-5.293,5.293s2.37,5.293,5.293,5.293c0.318,0,0.625-0.04,0.928-0.094
		c2.129,5.87,7.739,10.072,14.344,10.072h0c6.604,0,12.212-4.203,14.342-10.072c0.303,0.054,0.611,0.094,0.929,0.094
		c2.923,0,5.293-2.37,5.293-5.293S50.195,21.996,47.272,21.996z" class="colorfaad95 svgShape"></path><path fill="#09427b" d="M27.109,21.511c-0.342,0-0.674-0.175-0.861-0.489c-0.202-0.342-0.854-0.688-1.705-0.688
		s-1.503,0.346-1.706,0.688c-0.281,0.473-0.894,0.631-1.371,0.348c-0.475-0.282-0.63-0.896-0.348-1.371
		c0.611-1.027,1.924-1.665,3.425-1.665c1.503,0,2.815,0.639,3.426,1.666c0.281,0.476,0.125,1.089-0.35,1.371
		C27.459,21.466,27.283,21.511,27.109,21.511z M37.752,21.021c0.202-0.342,0.854-0.688,1.705-0.688s1.503,0.346,1.706,0.688
		c0.281,0.473,0.894,0.631,1.371,0.348c0.475-0.282,0.63-0.896,0.348-1.371c-0.611-1.027-1.924-1.665-3.425-1.665
		c-1.503,0-2.815,0.639-3.426,1.666c-0.281,0.476-0.125,1.089,0.35,1.371c0.16,0.095,0.336,0.14,0.51,0.14
		C37.232,21.511,37.564,21.336,37.752,21.021z" class="color46367d svgShape"></path><path fill="#77cef7" d="M24.543,26.702c-1.501,0-2.813-0.639-3.425-1.666c-0.282-0.475-0.127-1.089,0.348-1.371
		c0.478-0.284,1.09-0.126,1.371,0.348c0.204,0.343,0.855,0.689,1.706,0.689c0.852,0,1.503-0.346,1.705-0.688
		c0.282-0.475,0.896-0.631,1.371-0.35c0.475,0.282,0.631,0.896,0.35,1.371C27.358,26.063,26.046,26.702,24.543,26.702z
		 M42.882,25.036c0.282-0.475,0.127-1.089-0.348-1.371c-0.478-0.284-1.09-0.126-1.371,0.348c-0.204,0.343-0.855,0.689-1.706,0.689
		c-0.852,0-1.503-0.346-1.705-0.688c-0.283-0.476-0.896-0.632-1.371-0.35s-0.631,0.896-0.35,1.371
		c0.61,1.028,1.923,1.667,3.426,1.667C40.958,26.702,42.271,26.063,42.882,25.036z M17.728,29.83v-5.08c0-0.552-0.448-1-1-1
		s-1,0.448-1,1v5.08c0,0.552,0.448,1,1,1S17.728,30.382,17.728,29.83z M48.272,29.83v-5.08c0-0.552-0.448-1-1-1s-1,0.448-1,1v5.08
		c0,0.552,0.448,1,1,1S48.272,30.382,48.272,29.83z" class="colorf78177 svgShape"></path><circle cx="32" cy="29.935" r="2.585" fill="#77cef7" class="colorf78177 svgShape"></circle></g><path d="M53.58,62v-5.49c0-3.127-1.991-5.892-4.953-6.878L38.11,46.118V42.36c4.01-1.633,7.23-4.814,8.902-8.805
		c0.086,0.004,0.171,0.025,0.257,0.025c3.475,0,6.301-2.821,6.301-6.29c0-2.287-1.274-4.393-3.229-5.482l0.582-2.42
		c0.162-0.695,0.261-1.382,0.329-2.061c3.744-0.817,6.478-4.146,6.478-8.057c0-4.56-3.71-8.27-8.271-8.27
		c-2.022,0-3.97,0.747-5.462,2.07C41.707,1.718,39.107,1,36.42,1h-8.84c-4.598,0-8.867,2.07-11.713,5.68s-3.862,8.243-2.79,12.715
		l0.581,2.415c-1.953,1.096-3.218,3.198-3.218,5.481c0,3.469,2.821,6.29,6.29,6.29c0.087,0,0.17-0.021,0.256-0.025
		c1.672,3.991,4.892,7.173,8.903,8.806v3.758l-10.516,3.513c-2.963,0.987-4.954,3.752-4.954,6.879V62c0,0.553,0.447,1,1,1h41.16
		C53.133,63,53.58,62.553,53.58,62z M51.57,27.29c0,2.222-1.709,4.034-3.882,4.248c0.369-1.359,0.583-2.78,0.583-4.254v-4.152
		c0.186,0.045,0.372,0.089,0.55,0.162C50.466,23.925,51.57,25.53,51.57,27.29z M55.73,9.27c0,2.787-1.832,5.182-4.41,5.972
		c-0.193-4.263-2.252-8.3-5.605-10.987C46.783,3.452,48.097,3,49.46,3C52.918,3,55.73,5.812,55.73,9.27z M17.437,7.918
		C19.902,4.793,23.599,3,27.58,3h8.84c2.566,0,5.044,0.748,7.164,2.161c3.733,2.498,5.936,6.815,5.747,11.264
		c-0.036,0.812-0.156,1.655-0.354,2.501l-0.526,2.183c-0.217-0.041-0.447-0.044-0.672-0.062l-8.179-9.712
		c-0.184-0.219-0.453-0.348-0.739-0.355c-9.983-0.235-16.995,2.862-22.652,10.068c-0.221,0.018-0.448,0.021-0.661,0.061
		l-0.526-2.182C14.094,15.056,14.974,11.043,17.437,7.918z M12.44,27.29c0-1.789,1.075-3.358,2.757-4.004
		c0.169-0.068,0.35-0.111,0.531-0.155v4.159c0,1.471,0.214,2.891,0.582,4.248C14.144,31.323,12.44,29.511,12.44,27.29z
		 M17.729,27.29v-4.952c5.222-6.688,11.438-9.492,20.634-9.368l7.909,9.392v4.923c0,7.872-6.402,14.277-14.271,14.277
		S17.729,35.159,17.729,27.29z M27.205,47.789c0.409-0.136,0.685-0.519,0.685-0.949v-3.825c1.316,0.344,2.688,0.547,4.11,0.547
		s2.795-0.202,4.11-0.547v3.825c0,0.431,0.275,0.813,0.685,0.949l1.999,0.664c-0.779,3.07-3.568,5.297-6.794,5.297
		s-6.015-2.227-6.794-5.297L27.205,47.789z M51.58,61H12.42v-4.49c0-2.265,1.441-4.267,3.588-4.981l7.306-2.444
		c1.051,3.871,4.591,6.666,8.686,6.666s7.635-2.795,8.686-6.666l7.307,2.445c2.146,0.714,3.587,2.716,3.587,4.98V61z M27.969,20
		c0.281,0.476,0.125,1.089-0.35,1.371c-0.16,0.095-0.336,0.14-0.51,0.14c-0.342,0-0.674-0.175-0.861-0.489
		c-0.202-0.342-0.854-0.688-1.705-0.688s-1.503,0.346-1.706,0.688c-0.281,0.473-0.894,0.631-1.371,0.348
		c-0.475-0.282-0.63-0.896-0.348-1.371c0.611-1.027,1.924-1.665,3.425-1.665C26.046,18.334,27.358,18.973,27.969,20z M36.031,20
		c0.61-1.027,1.923-1.666,3.426-1.666c1.501,0,2.813,0.638,3.425,1.665c0.282,0.475,0.127,1.089-0.348,1.371
		c-0.478,0.283-1.09,0.125-1.371-0.348c-0.203-0.343-0.854-0.688-1.706-0.688s-1.503,0.346-1.705,0.688
		c-0.188,0.314-0.52,0.489-0.861,0.489c-0.174,0-0.35-0.045-0.51-0.14C35.906,21.089,35.75,20.476,36.031,20z M27.969,25.035
		c-0.61,1.028-1.923,1.667-3.426,1.667c-1.501,0-2.813-0.639-3.425-1.666c-0.282-0.475-0.127-1.089,0.348-1.371
		c0.478-0.284,1.09-0.126,1.371,0.348c0.204,0.343,0.855,0.689,1.706,0.689c0.852,0,1.503-0.346,1.705-0.688
		c0.283-0.475,0.896-0.631,1.371-0.35C28.094,23.946,28.25,24.56,27.969,25.035z M36.031,25.035
		c-0.281-0.476-0.125-1.089,0.35-1.371c0.474-0.282,1.087-0.126,1.371,0.35c0.202,0.343,0.854,0.688,1.705,0.688
		c0.851,0,1.502-0.347,1.706-0.689c0.281-0.474,0.894-0.632,1.371-0.348c0.475,0.282,0.63,0.896,0.348,1.371
		c-0.611,1.027-1.924,1.666-3.425,1.666C37.954,26.702,36.642,26.063,36.031,25.035z M7.548,38.596
		c2.434-0.156,4.633-1.006,6.548-2.562c0.43-0.348,1.058-0.283,1.407,0.146c0.348,0.429,0.283,1.059-0.146,1.407
		c-2.277,1.851-4.888,2.853-7.777,3.014c0.345,0.37,0.374,0.941,0.035,1.331c-0.198,0.227-0.476,0.343-0.754,0.343
		c-0.233,0-0.468-0.081-0.657-0.246l-1.988-1.733c-0.221-0.192-0.346-0.471-0.343-0.764c0.003-0.292,0.134-0.568,0.357-0.756
		l2.021-1.695c0.425-0.355,1.056-0.301,1.408,0.123C8.01,37.621,7.957,38.24,7.548,38.596z M4.311,49.875
		c-0.242-0.164-0.399-0.426-0.432-0.717c-0.032-0.29,0.064-0.58,0.265-0.794l1.805-1.924c0.378-0.401,1.011-0.423,1.414-0.045
		c0.395,0.371,0.417,0.986,0.06,1.39c4.237-0.994,7.732-3.866,9.71-6.434c0.335-0.438,0.964-0.521,1.402-0.182
		c0.438,0.337,0.519,0.965,0.182,1.402c-2.226,2.89-6.198,6.125-11.035,7.202c0.392,0.325,0.492,0.893,0.198,1.322
		c-0.193,0.284-0.508,0.438-0.827,0.438c-0.193,0-0.39-0.056-0.562-0.174L4.311,49.875z M60.127,39.531
		c0.003,0.293-0.122,0.571-0.343,0.764l-1.988,1.733c-0.189,0.165-0.424,0.246-0.657,0.246c-0.278,0-0.556-0.116-0.754-0.343
		c-0.339-0.39-0.31-0.961,0.035-1.331c-2.89-0.161-5.499-1.163-7.777-3.014c-0.429-0.349-0.493-0.979-0.146-1.407
		c0.35-0.429,0.979-0.493,1.407-0.146c1.915,1.557,4.112,2.406,6.547,2.562c-0.409-0.357-0.462-0.975-0.111-1.393
		c0.354-0.424,0.984-0.479,1.408-0.123l2.021,1.695C59.993,38.963,60.124,39.239,60.127,39.531z M59.689,49.875l-2.18,1.484
		c-0.172,0.118-0.368,0.174-0.562,0.174c-0.32,0-0.634-0.153-0.827-0.438c-0.293-0.429-0.194-0.997,0.198-1.322
		c-4.837-1.076-8.809-4.311-11.035-7.202c-0.337-0.438-0.256-1.065,0.182-1.402c0.438-0.339,1.067-0.256,1.402,0.182
		c1.978,2.568,5.473,5.44,9.71,6.434c-0.357-0.404-0.335-1.019,0.06-1.39c0.404-0.377,1.036-0.355,1.414,0.045l1.805,1.924
		c0.2,0.214,0.297,0.504,0.265,0.794C60.089,49.449,59.932,49.711,59.689,49.875z M35.585,29.936c0-1.977-1.608-3.585-3.585-3.585
		s-3.585,1.608-3.585,3.585s1.608,3.585,3.585,3.585S35.585,31.912,35.585,29.936z M30.415,29.936c0-0.874,0.711-1.585,1.585-1.585
		s1.585,0.711,1.585,1.585S32.874,31.521,32,31.521S30.415,30.81,30.415,29.936z" fill="#094a69" class="color000000 svgShape"></path><g display="none" fill="#094a69" class="color000000 svgShape"><path fill="#cde3f9" d="M24.063,47.783l-8.373,2.798c-2.55,0.852-4.269,3.239-4.269,5.927l0,5.492h41.158
		c0,0,0-2.841,0-5.493c0-2.688-1.719-5.075-4.269-5.927l-8.373-2.798L24.063,47.783z" class="colorf9efcd svgShape"></path><path fill="#09427b" d="M56.727,9.267C56.727,5.254,53.473,2,49.46,2c-2.108,0-4,0.903-5.327,2.336
		C41.944,2.872,39.308,2,36.423,2h-8.846C18.58,2,11.95,10.412,14.051,19.16l1.746,7.269h32.405l1.746-7.269
		c0.216-0.9,0.318-1.794,0.357-2.678C53.92,16.062,56.727,12.995,56.727,9.267z" class="color46367d svgShape"></path><path fill="#95d9fa" d="M47.272,21.996C47.272,21.996,47.272,21.996,47.272,21.996l-8.436-10.017
		c-10.235-0.26-16.757,3.023-22.107,10.017c-2.923,0-5.293,2.37-5.293,5.293s2.37,5.293,5.293,5.293c0.318,0,0.625-0.04,0.928-0.094
		c1.551,4.275,4.951,7.656,9.234,9.182v5.166l-2.827,0.945c0.515,3.929,3.868,6.964,7.937,6.964c4.069,0,7.422-3.036,7.937-6.964
		l-2.827-0.944v-5.167c4.281-1.527,7.681-4.908,9.232-9.182c0.303,0.054,0.611,0.094,0.929,0.094c2.923,0,5.293-2.37,5.293-5.293
		S50.195,21.996,47.272,21.996z" class="colorfaad95 svgShape"></path><circle cx="32" cy="29.935" r="2.585" fill="#5294b4" class="colorb4525e svgShape"></circle><path d="M53.58,62v-5.49c0-3.127-1.991-5.892-4.953-6.878L38.11,46.118V42.36c4.01-1.633,7.23-4.814,8.902-8.805
		c0.086,0.004,0.171,0.025,0.257,0.025c3.475,0,6.301-2.821,6.301-6.29c0-2.287-1.274-4.393-3.229-5.482l0.582-2.42
		c0.162-0.695,0.261-1.382,0.329-2.061c3.744-0.817,6.478-4.146,6.478-8.057c0-4.56-3.71-8.27-8.271-8.27
		c-2.022,0-3.97,0.747-5.462,2.07C41.707,1.718,39.107,1,36.42,1h-8.84c-4.598,0-8.867,2.07-11.713,5.68s-3.862,8.243-2.79,12.715
		l0.581,2.415c-1.953,1.096-3.218,3.198-3.218,5.481c0,3.469,2.821,6.29,6.29,6.29c0.087,0,0.17-0.021,0.256-0.025
		c1.672,3.991,4.892,7.173,8.903,8.806v3.758l-10.516,3.513c-2.963,0.987-4.954,3.752-4.954,6.879V62c0,0.553,0.447,1,1,1h41.16
		C53.133,63,53.58,62.553,53.58,62z M51.57,27.29c0,2.222-1.709,4.034-3.882,4.248c0.369-1.359,0.583-2.78,0.583-4.254v-4.152
		c0.186,0.045,0.372,0.089,0.55,0.162C50.466,23.925,51.57,25.53,51.57,27.29z M55.73,9.27c0,2.787-1.832,5.182-4.41,5.972
		c-0.193-4.263-2.252-8.3-5.605-10.987C46.783,3.452,48.097,3,49.46,3C52.918,3,55.73,5.812,55.73,9.27z M17.437,7.918
		C19.902,4.793,23.599,3,27.58,3h8.84c2.566,0,5.044,0.748,7.164,2.161c3.733,2.498,5.936,6.815,5.747,11.264
		c-0.036,0.812-0.156,1.655-0.354,2.501l-0.526,2.183c-0.217-0.041-0.447-0.044-0.672-0.062l-8.179-9.712
		c-0.184-0.219-0.453-0.348-0.739-0.355c-9.983-0.235-16.995,2.862-22.652,10.068c-0.221,0.018-0.448,0.021-0.661,0.061
		l-0.526-2.182C14.094,15.056,14.974,11.043,17.437,7.918z M12.44,27.29c0-1.789,1.075-3.358,2.757-4.004
		c0.169-0.068,0.35-0.111,0.531-0.155v4.159c0,1.471,0.214,2.891,0.582,4.248C14.144,31.323,12.44,29.511,12.44,27.29z
		 M17.729,27.29v-4.952c5.222-6.688,11.438-9.492,20.634-9.368l7.909,9.392v4.923c0,7.872-6.402,14.277-14.271,14.277
		S17.729,35.159,17.729,27.29z M27.205,47.789c0.409-0.136,0.685-0.519,0.685-0.949v-3.825c1.316,0.344,2.688,0.547,4.11,0.547
		s2.795-0.202,4.11-0.547v3.825c0,0.431,0.275,0.813,0.685,0.949l1.999,0.664c-0.779,3.07-3.568,5.297-6.794,5.297
		s-6.015-2.227-6.794-5.297L27.205,47.789z M51.58,61H12.42v-4.49c0-2.265,1.441-4.267,3.588-4.981l7.306-2.444
		c1.051,3.871,4.591,6.666,8.686,6.666s7.635-2.795,8.686-6.666l7.307,2.445c2.146,0.714,3.587,2.716,3.587,4.98V61z M27.969,20
		c0.281,0.476,0.125,1.089-0.35,1.371c-0.16,0.095-0.336,0.14-0.51,0.14c-0.342,0-0.674-0.175-0.861-0.489
		c-0.202-0.342-0.854-0.688-1.705-0.688s-1.503,0.346-1.706,0.688c-0.281,0.473-0.894,0.631-1.371,0.348
		c-0.475-0.282-0.63-0.896-0.348-1.371c0.611-1.027,1.924-1.665,3.425-1.665C26.046,18.334,27.358,18.973,27.969,20z M36.031,20
		c0.61-1.027,1.923-1.666,3.426-1.666c1.501,0,2.813,0.638,3.425,1.665c0.282,0.475,0.127,1.089-0.348,1.371
		c-0.478,0.283-1.09,0.125-1.371-0.348c-0.203-0.343-0.854-0.688-1.706-0.688s-1.503,0.346-1.705,0.688
		c-0.188,0.314-0.52,0.489-0.861,0.489c-0.174,0-0.35-0.045-0.51-0.14C35.906,21.089,35.75,20.476,36.031,20z M27.969,25.035
		c-0.61,1.028-1.923,1.667-3.426,1.667c-1.501,0-2.813-0.639-3.425-1.666c-0.282-0.475-0.127-1.089,0.348-1.371
		c0.478-0.284,1.09-0.126,1.371,0.348c0.204,0.343,0.855,0.689,1.706,0.689c0.852,0,1.503-0.346,1.705-0.688
		c0.283-0.475,0.896-0.631,1.371-0.35C28.094,23.946,28.25,24.56,27.969,25.035z M36.031,25.035
		c-0.281-0.476-0.125-1.089,0.35-1.371c0.474-0.282,1.087-0.126,1.371,0.35c0.202,0.343,0.854,0.688,1.705,0.688
		c0.851,0,1.502-0.347,1.706-0.689c0.281-0.474,0.894-0.632,1.371-0.348c0.475,0.282,0.63,0.896,0.348,1.371
		c-0.611,1.027-1.924,1.666-3.425,1.666C37.954,26.702,36.642,26.063,36.031,25.035z M7.548,38.596
		c2.434-0.156,4.633-1.006,6.548-2.562c0.43-0.348,1.058-0.283,1.407,0.146c0.348,0.429,0.283,1.059-0.146,1.407
		c-2.277,1.851-4.888,2.853-7.777,3.014c0.345,0.37,0.374,0.941,0.035,1.331c-0.198,0.227-0.476,0.343-0.754,0.343
		c-0.233,0-0.468-0.081-0.657-0.246l-1.988-1.733c-0.221-0.192-0.346-0.471-0.343-0.764c0.003-0.292,0.134-0.568,0.357-0.756
		l2.021-1.695c0.425-0.355,1.056-0.301,1.408,0.123C8.01,37.621,7.957,38.24,7.548,38.596z M4.311,49.875
		c-0.242-0.164-0.399-0.426-0.432-0.717c-0.032-0.29,0.064-0.58,0.265-0.794l1.805-1.924c0.378-0.401,1.011-0.423,1.414-0.045
		c0.395,0.371,0.417,0.986,0.06,1.39c4.237-0.994,7.732-3.866,9.71-6.434c0.335-0.438,0.964-0.521,1.402-0.182
		c0.438,0.337,0.519,0.965,0.182,1.402c-2.226,2.89-6.198,6.125-11.035,7.202c0.392,0.325,0.492,0.893,0.198,1.322
		c-0.193,0.284-0.508,0.438-0.827,0.438c-0.193,0-0.39-0.056-0.562-0.174L4.311,49.875z M60.127,39.531
		c0.003,0.293-0.122,0.571-0.343,0.764l-1.988,1.733c-0.189,0.165-0.424,0.246-0.657,0.246c-0.278,0-0.556-0.116-0.754-0.343
		c-0.339-0.39-0.31-0.961,0.035-1.331c-2.89-0.161-5.499-1.163-7.777-3.014c-0.429-0.349-0.493-0.979-0.146-1.407
		c0.35-0.429,0.979-0.493,1.407-0.146c1.915,1.557,4.112,2.406,6.547,2.562c-0.409-0.357-0.462-0.975-0.111-1.393
		c0.354-0.424,0.984-0.479,1.408-0.123l2.021,1.695C59.993,38.963,60.124,39.239,60.127,39.531z M59.689,49.875l-2.18,1.484
		c-0.172,0.118-0.368,0.174-0.562,0.174c-0.32,0-0.634-0.153-0.827-0.438c-0.293-0.429-0.194-0.997,0.198-1.322
		c-4.837-1.076-8.809-4.311-11.035-7.202c-0.337-0.438-0.256-1.065,0.182-1.402c0.438-0.339,1.067-0.256,1.402,0.182
		c1.978,2.568,5.473,5.44,9.71,6.434c-0.357-0.404-0.335-1.019,0.06-1.39c0.404-0.377,1.036-0.355,1.414,0.045l1.805,1.924
		c0.2,0.214,0.297,0.504,0.265,0.794C60.089,49.449,59.932,49.711,59.689,49.875z M35.585,29.936c0-1.977-1.608-3.585-3.585-3.585
		s-3.585,1.608-3.585,3.585s1.608,3.585,3.585,3.585S35.585,31.912,35.585,29.936z M30.415,29.936c0-0.874,0.711-1.585,1.585-1.585
		s1.585,0.711,1.585,1.585S32.874,31.521,32,31.521S30.415,30.81,30.415,29.936z" fill="#094a69" class="color000000 svgShape"></path></g><g display="none" fill="#094a69" class="color000000 svgShape"><path d="M53.58,62v-5.49c0-3.127-1.991-5.892-4.953-6.878L38.11,46.118V42.36c4.01-1.633,7.23-4.814,8.902-8.805
		c0.086,0.004,0.171,0.025,0.257,0.025c3.475,0,6.301-2.821,6.301-6.29c0-2.287-1.274-4.393-3.229-5.482l0.582-2.42
		c0.162-0.695,0.261-1.382,0.329-2.061c3.744-0.817,6.478-4.146,6.478-8.057c0-4.56-3.71-8.27-8.271-8.27
		c-2.022,0-3.97,0.747-5.462,2.07C41.707,1.718,39.107,1,36.42,1h-8.84c-4.598,0-8.867,2.07-11.713,5.68s-3.862,8.243-2.79,12.715
		l0.581,2.415c-1.953,1.096-3.218,3.198-3.218,5.481c0,3.469,2.821,6.29,6.29,6.29c0.087,0,0.17-0.021,0.256-0.025
		c1.672,3.991,4.892,7.173,8.903,8.806v3.758l-10.516,3.513c-2.963,0.987-4.954,3.752-4.954,6.879V62c0,0.553,0.447,1,1,1h41.16
		C53.133,63,53.58,62.553,53.58,62z M51.57,27.29c0,2.222-1.709,4.034-3.882,4.248c0.369-1.359,0.583-2.78,0.583-4.254v-4.152
		c0.186,0.045,0.372,0.089,0.55,0.162C50.466,23.925,51.57,25.53,51.57,27.29z M12.44,27.29c0-1.789,1.075-3.358,2.757-4.004
		c0.169-0.068,0.35-0.111,0.531-0.155v4.159c0,1.471,0.214,2.891,0.582,4.248C14.144,31.323,12.44,29.511,12.44,27.29z
		 M17.729,27.29v-4.952c5.222-6.688,11.438-9.492,20.634-9.368l7.909,9.392v4.923c0,7.872-6.402,14.277-14.271,14.277
		S17.729,35.159,17.729,27.29z M27.205,47.789c0.409-0.136,0.685-0.519,0.685-0.949v-3.825c1.316,0.344,2.688,0.547,4.11,0.547
		s2.795-0.202,4.11-0.547v3.825c0,0.431,0.275,0.813,0.685,0.949l1.999,0.664c-0.779,3.07-3.568,5.297-6.794,5.297
		s-6.015-2.227-6.794-5.297L27.205,47.789z" fill="#094a69" class="color000000 svgShape"></path><path d="M24.543 18.334c-1.501 0-2.813.638-3.425 1.665-.282.475-.127 1.089.348 1.371.478.283 1.09.125 1.371-.348.203-.343.854-.688 1.706-.688s1.503.346 1.705.688c.188.314.52.489.861.489.174 0 .35-.045.51-.14.475-.282.631-.896.35-1.371C27.358 18.973 26.046 18.334 24.543 18.334zM36.381 21.371c.16.095.336.14.51.14.342 0 .674-.175.861-.489.202-.342.854-.688 1.705-.688s1.503.346 1.706.688c.281.473.894.631 1.371.348.475-.282.63-.896.348-1.371-.611-1.027-1.924-1.665-3.425-1.665-1.503 0-2.815.639-3.426 1.666C35.75 20.476 35.906 21.089 36.381 21.371zM27.619 23.664c-.475-.281-1.088-.125-1.371.35-.202.343-.854.688-1.705.688-.851 0-1.502-.347-1.706-.689-.281-.474-.894-.632-1.371-.348-.475.282-.63.896-.348 1.371.611 1.027 1.924 1.666 3.425 1.666 1.503 0 2.815-.639 3.426-1.667C28.25 24.56 28.094 23.946 27.619 23.664zM39.457 26.702c1.501 0 2.813-.639 3.425-1.666.282-.475.127-1.089-.348-1.371-.478-.284-1.09-.126-1.371.348-.204.343-.855.689-1.706.689-.852 0-1.503-.346-1.705-.688-.284-.476-.897-.632-1.371-.35-.475.282-.631.896-.35 1.371C36.642 26.063 37.954 26.702 39.457 26.702zM7.659 37.203c-.353-.424-.983-.479-1.408-.123L4.23 38.775c-.224.188-.354.464-.357.756-.003.293.122.571.343.764l1.988 1.733c.189.165.424.246.657.246.278 0 .556-.116.754-.343.339-.39.31-.961-.035-1.331 2.89-.161 5.5-1.163 7.777-3.014.429-.349.493-.979.146-1.407-.35-.429-.978-.493-1.407-.146-1.914 1.556-4.114 2.406-6.548 2.562C7.957 38.24 8.01 37.621 7.659 37.203zM6.49 51.359c.172.118.368.174.562.174.319 0 .634-.153.827-.438.293-.429.194-.997-.198-1.322 4.837-1.076 8.809-4.311 11.035-7.202.337-.438.256-1.065-.182-1.402-.438-.34-1.067-.257-1.402.182-1.978 2.568-5.473 5.44-9.71 6.434.357-.404.335-1.019-.06-1.39-.403-.378-1.036-.356-1.414.045l-1.805 1.924c-.2.214-.297.504-.265.794.032.291.189.553.432.717L6.49 51.359zM59.77 38.775l-2.021-1.695c-.424-.355-1.055-.301-1.408.123-.351.418-.298 1.036.111 1.393-2.436-.156-4.633-1.005-6.547-2.562-.429-.348-1.058-.283-1.407.146-.348.429-.283 1.059.146 1.407 2.278 1.851 4.888 2.853 7.777 3.014-.345.37-.374.941-.035 1.331.198.227.476.343.754.343.233 0 .468-.081.657-.246l1.988-1.733c.221-.192.346-.471.343-.764C60.124 39.239 59.993 38.963 59.77 38.775zM60.121 49.158c.032-.29-.064-.58-.265-.794l-1.805-1.924c-.378-.4-1.01-.422-1.414-.045-.395.371-.417.986-.06 1.39-4.237-.994-7.732-3.866-9.71-6.434-.335-.438-.965-.521-1.402-.182-.438.337-.519.965-.182 1.402 2.226 2.89 6.198 6.125 11.035 7.202-.392.325-.492.893-.198 1.322.193.284.507.438.827.438.193 0 .39-.056.562-.174l2.18-1.484C59.932 49.711 60.089 49.449 60.121 49.158zM35.585 29.936c0-1.977-1.608-3.585-3.585-3.585s-3.585 1.608-3.585 3.585 1.608 3.585 3.585 3.585S35.585 31.912 35.585 29.936zM30.415 29.936c0-.874.711-1.585 1.585-1.585s1.585.711 1.585 1.585S32.874 31.521 32 31.521 30.415 30.81 30.415 29.936z" fill="#094a69" class="color000000 svgShape"></path></g><g display="none" fill="#094a69" class="color000000 svgShape"><path fill="#c8e0f9" d="M49.949,19.16l-0.77,3.205c1.978,0.767,3.386,2.676,3.386,4.925
		c0,2.923-2.37,5.293-5.293,5.293c-0.318,0-0.626-0.04-0.929-0.094c-1.551,4.274-4.951,7.654-9.232,9.182v5.167l2.827,0.944
		l8.373,2.798c2.55,0.852,4.269,3.238,4.269,5.927c0,2.652,0,5.493,0,5.493H11.421l0-5.492c0-2.688,1.719-5.075,4.269-5.927
		l8.373-2.798l2.827-0.945v-5.166c-4.282-1.527-7.683-4.908-9.234-9.182c-0.302,0.054-0.61,0.094-0.928,0.094
		c-2.923,0-5.293-2.37-5.293-5.293c0-2.249,1.408-4.158,3.386-4.925l-0.77-3.205C11.95,10.412,18.58,2,27.577,2h8.846
		c2.885,0,5.521,0.872,7.709,2.336C45.46,2.903,47.352,2,49.46,2c4.014,0,7.267,3.254,7.267,7.267c0,3.727-2.807,6.795-6.422,7.214
		C50.267,17.366,50.165,18.26,49.949,19.16z" class="colorf9d3c8 svgShape"></path><path fill="#7fcef4" d="M53.58,62v-5.49c0-3.127-1.991-5.892-4.953-6.878L38.11,46.118V42.36
		c4.01-1.633,7.23-4.814,8.902-8.805c0.086,0.004,0.171,0.025,0.257,0.025c3.475,0,6.301-2.821,6.301-6.29
		c0-2.287-1.274-4.393-3.229-5.482l0.582-2.42c0.162-0.695,0.261-1.382,0.329-2.061c3.744-0.817,6.478-4.146,6.478-8.057
		c0-4.56-3.71-8.27-8.271-8.27c-2.022,0-3.97,0.747-5.462,2.07C41.707,1.718,39.107,1,36.42,1h-8.84
		c-4.598,0-8.867,2.07-11.713,5.68s-3.862,8.243-2.79,12.715l0.581,2.415c-1.953,1.096-3.218,3.198-3.218,5.481
		c0,3.469,2.821,6.29,6.29,6.29c0.087,0,0.17-0.021,0.256-0.025c1.672,3.991,4.892,7.173,8.903,8.806v3.758l-10.516,3.513
		c-2.963,0.987-4.954,3.752-4.954,6.879V62c0,0.553,0.447,1,1,1h41.16C53.133,63,53.58,62.553,53.58,62z M51.57,27.29
		c0,2.222-1.709,4.034-3.882,4.248c0.369-1.359,0.583-2.78,0.583-4.254v-4.152c0.186,0.045,0.372,0.089,0.55,0.162
		C50.466,23.925,51.57,25.53,51.57,27.29z M55.73,9.27c0,2.787-1.832,5.182-4.41,5.972c-0.193-4.263-2.252-8.3-5.605-10.987
		C46.783,3.452,48.097,3,49.46,3C52.918,3,55.73,5.812,55.73,9.27z M17.437,7.918C19.902,4.793,23.599,3,27.58,3h8.84
		c2.566,0,5.044,0.748,7.164,2.161c3.733,2.498,5.936,6.815,5.747,11.264c-0.036,0.812-0.156,1.655-0.354,2.501l-0.526,2.183
		c-0.217-0.041-0.447-0.044-0.672-0.062l-8.179-9.712c-0.184-0.219-0.453-0.348-0.739-0.355
		c-9.983-0.235-16.995,2.862-22.652,10.068c-0.221,0.018-0.448,0.021-0.661,0.061l-0.526-2.182
		C14.094,15.056,14.974,11.043,17.437,7.918z M12.44,27.29c0-1.789,1.075-3.358,2.757-4.004c0.169-0.068,0.35-0.111,0.531-0.155
		v4.159c0,1.471,0.214,2.891,0.582,4.248C14.144,31.323,12.44,29.511,12.44,27.29z M17.729,27.29v-4.952
		c5.222-6.688,11.438-9.492,20.634-9.368l7.909,9.392v4.923c0,7.872-6.402,14.277-14.271,14.277S17.729,35.159,17.729,27.29z
		 M27.205,47.789c0.409-0.136,0.685-0.519,0.685-0.949v-3.825c1.316,0.344,2.688,0.547,4.11,0.547s2.795-0.202,4.11-0.547v3.825
		c0,0.431,0.275,0.813,0.685,0.949l1.999,0.664c-0.779,3.07-3.568,5.297-6.794,5.297s-6.015-2.227-6.794-5.297L27.205,47.789z
		 M51.58,61H12.42v-4.49c0-2.265,1.441-4.267,3.588-4.981l7.306-2.444c1.051,3.871,4.591,6.666,8.686,6.666s7.635-2.795,8.686-6.666
		l7.307,2.445c2.146,0.714,3.587,2.716,3.587,4.98V61z M27.969,20c0.281,0.476,0.125,1.089-0.35,1.371
		c-0.16,0.095-0.336,0.14-0.51,0.14c-0.342,0-0.674-0.175-0.861-0.489c-0.202-0.342-0.854-0.688-1.705-0.688
		s-1.503,0.346-1.706,0.688c-0.281,0.473-0.894,0.631-1.371,0.348c-0.475-0.282-0.63-0.896-0.348-1.371
		c0.611-1.027,1.924-1.665,3.425-1.665C26.046,18.334,27.358,18.973,27.969,20z M36.031,20c0.61-1.027,1.923-1.666,3.426-1.666
		c1.501,0,2.813,0.638,3.425,1.665c0.282,0.475,0.127,1.089-0.348,1.371c-0.478,0.283-1.09,0.125-1.371-0.348
		c-0.203-0.343-0.854-0.688-1.706-0.688s-1.503,0.346-1.705,0.688c-0.188,0.314-0.52,0.489-0.861,0.489
		c-0.174,0-0.35-0.045-0.51-0.14C35.906,21.089,35.75,20.476,36.031,20z M27.969,25.035c-0.61,1.028-1.923,1.667-3.426,1.667
		c-1.501,0-2.813-0.639-3.425-1.666c-0.282-0.475-0.127-1.089,0.348-1.371c0.478-0.284,1.09-0.126,1.371,0.348
		c0.204,0.343,0.855,0.689,1.706,0.689c0.852,0,1.503-0.346,1.705-0.688c0.283-0.475,0.896-0.631,1.371-0.35
		C28.094,23.946,28.25,24.56,27.969,25.035z M36.031,25.035c-0.281-0.476-0.125-1.089,0.35-1.371
		c0.474-0.282,1.087-0.126,1.371,0.35c0.202,0.343,0.854,0.688,1.705,0.688c0.851,0,1.502-0.347,1.706-0.689
		c0.281-0.474,0.894-0.632,1.371-0.348c0.475,0.282,0.63,0.896,0.348,1.371c-0.611,1.027-1.924,1.666-3.425,1.666
		C37.954,26.702,36.642,26.063,36.031,25.035z M7.548,38.596c2.434-0.156,4.633-1.006,6.548-2.562
		c0.43-0.348,1.058-0.283,1.407,0.146c0.348,0.429,0.283,1.059-0.146,1.407c-2.277,1.851-4.888,2.853-7.777,3.014
		c0.345,0.37,0.374,0.941,0.035,1.331c-0.198,0.227-0.476,0.343-0.754,0.343c-0.233,0-0.468-0.081-0.657-0.246l-1.988-1.733
		c-0.221-0.192-0.346-0.471-0.343-0.764c0.003-0.292,0.134-0.568,0.357-0.756l2.021-1.695c0.425-0.355,1.056-0.301,1.408,0.123
		C8.01,37.621,7.957,38.24,7.548,38.596z M4.311,49.875c-0.242-0.164-0.399-0.426-0.432-0.717c-0.032-0.29,0.064-0.58,0.265-0.794
		l1.805-1.924c0.378-0.401,1.011-0.423,1.414-0.045c0.395,0.371,0.417,0.986,0.06,1.39c4.237-0.994,7.732-3.866,9.71-6.434
		c0.335-0.438,0.964-0.521,1.402-0.182c0.438,0.337,0.519,0.965,0.182,1.402c-2.226,2.89-6.198,6.125-11.035,7.202
		c0.392,0.325,0.492,0.893,0.198,1.322c-0.193,0.284-0.508,0.438-0.827,0.438c-0.193,0-0.39-0.056-0.562-0.174L4.311,49.875z
		 M60.127,39.531c0.003,0.293-0.122,0.571-0.343,0.764l-1.988,1.733c-0.189,0.165-0.424,0.246-0.657,0.246
		c-0.278,0-0.556-0.116-0.754-0.343c-0.339-0.39-0.31-0.961,0.035-1.331c-2.89-0.161-5.499-1.163-7.777-3.014
		c-0.429-0.349-0.493-0.979-0.146-1.407c0.35-0.429,0.979-0.493,1.407-0.146c1.915,1.557,4.112,2.406,6.547,2.562
		c-0.409-0.357-0.462-0.975-0.111-1.393c0.354-0.424,0.984-0.479,1.408-0.123l2.021,1.695
		C59.993,38.963,60.124,39.239,60.127,39.531z M59.689,49.875l-2.18,1.484c-0.172,0.118-0.368,0.174-0.562,0.174
		c-0.32,0-0.634-0.153-0.827-0.438c-0.293-0.429-0.194-0.997,0.198-1.322c-4.837-1.076-8.809-4.311-11.035-7.202
		c-0.337-0.438-0.256-1.065,0.182-1.402c0.438-0.339,1.067-0.256,1.402,0.182c1.978,2.568,5.473,5.44,9.71,6.434
		c-0.357-0.404-0.335-1.019,0.06-1.39c0.404-0.377,1.036-0.355,1.414,0.045l1.805,1.924c0.2,0.214,0.297,0.504,0.265,0.794
		C60.089,49.449,59.932,49.711,59.689,49.875z M35.585,29.936c0-1.977-1.608-3.585-3.585-3.585s-3.585,1.608-3.585,3.585
		s1.608,3.585,3.585,3.585S35.585,31.912,35.585,29.936z M30.415,29.936c0-0.874,0.711-1.585,1.585-1.585s1.585,0.711,1.585,1.585
		S32.874,31.521,32,31.521S30.415,30.81,30.415,29.936z" class="colorf48b7f svgShape"></path></g></svg>