<svg xmlns="http://www.w3.org/2000/svg" data-name="Layer 1" viewBox="0 0 128 128"><path d="M102,40.44385a2.0001,2.0001,0,0,0,2-2,24.0275,24.0275,0,0,0-24-24,2,2,0,0,0,0,4,20.02292,20.02292,0,0,1,20,20A2.0001,2.0001,0,0,0,102,40.44385Z" fill="#094a69" class="color000000 svgShape"></path><path d="M94,40.44385a2.0001,2.0001,0,0,0,2-2,16.01833,16.01833,0,0,0-16-16,2,2,0,0,0,0,4,12.01375,12.01375,0,0,1,12,12A2.0001,2.0001,0,0,0,94,40.44385Z" fill="#094a69" class="color000000 svgShape"></path><path d="M84 38.44385a2 2 0 0 0 4 0 8.00917 8.00917 0 0 0-8-8 2 2 0 1 0 0 4A4.00458 4.00458 0 0 1 84 38.44385zM53 43A21.01724 21.01724 0 0 0 33.22516 57h4.3006A16.98925 16.98925 0 0 1 70 64a2 2 0 0 0 4 0A21.02359 21.02359 0 0 0 53 43z" fill="#094a69" class="color000000 svgShape"></path><path d="M64.2085 62H58a2.001 2.001 0 0 0-1.51855.69824L54 65.59326V55a2.00011 2.00011 0 0 0-3.50537-1.31689L44.09229 61H32.23962A20.84519 20.84519 0 0 0 53 85a2 2 0 0 0 0-4A17.00678 17.00678 0 0 1 36.05066 65H45a2.00066 2.00066 0 0 0 1.50537-.68311L50 60.32275V71a2.00013 2.00013 0 0 0 3.51855 1.30176L58.91992 66H64.2085a2 2 0 0 0 0-4zM55 105H51a2 2 0 0 0 0 4h4a2 2 0 0 0 0-4zM55 113H51a2 2 0 0 0 0 4h4a2 2 0 0 0 0-4zM55 121H51a2 2 0 0 0 0 4h4a2 2 0 0 0 0-4zM51 7h4a2 2 0 0 0 0-4H51a2 2 0 0 0 0 4zM51 15h4a2 2 0 0 0 0-4H51a2 2 0 0 0 0 4zM51 23h4a2 2 0 0 0 0-4H51a2 2 0 0 0 0 4z" fill="#094a69" class="color000000 svgShape"></path><path d="M67,128a2.0001,2.0001,0,0,0,2-2V100.90967A6.00473,6.00473,0,0,0,74,95V93a8.00909,8.00909,0,0,0,8-8V72h4a4,4,0,0,0,4-4V60a4,4,0,0,0-4-4H82V43a8.00909,8.00909,0,0,0-8-8V33a6.00473,6.00473,0,0,0-5-5.90967V2a2,2,0,0,0-4,0V27H41V2a2,2,0,0,0-4,0V27.09033A6.00473,6.00473,0,0,0,32,33v2a8.00909,8.00909,0,0,0-8,8V85a8.00909,8.00909,0,0,0,8,8v2a6.00473,6.00473,0,0,0,5,5.90967V126a2,2,0,0,0,4,0V101H65v25A2.0001,2.0001,0,0,0,67,128ZM82,60h4v8H82ZM36,33a2,2,0,0,1,2-2H68a2,2,0,0,1,2,2v2H36ZM32,89a4,4,0,0,1-4-4V43a4,4,0,0,1,4-4H74a4,4,0,0,1,4,4V85a4,4,0,0,1-4,4Zm6,8a2,2,0,0,1-2-2V93H70v2a2,2,0,0,1-2,2Z" fill="#094a69" class="color000000 svgShape"></path></svg>