<svg xmlns="http://www.w3.org/2000/svg" viewBox="0 0 64 64"><g data-name="Brain" fill="#09427b" class="color000000 svgShape"><path fill="#094a69" d="M45.783,19.376A1,1,0,0,1,44.82,18.1c.8-2.805-.254-4.709-1.565-5.292-1.462-.649-3.143.183-4.389,2.172a1,1,0,0,1-1.7-1.062c2.172-3.465,5.074-3.748,6.9-2.938,2.077.922,3.8,3.715,2.678,7.666A1,1,0,0,1,45.783,19.376Z" class="color222222 svgShape"></path><path fill="#094a69" d="M46.7,38.327a1,1,0,0,1-.2-1.98c2.484-.51,4.06-1.509,4.683-2.969,1.132-2.654-1.048-6.168-1.071-6.2a1.015,1.015,0,0,1-.132-.743c.01-.047.961-4.7-1.732-6.081-2.1-1.077-4.185-1.091-5.711-.036A4.817,4.817,0,0,0,40.6,24.861a1,1,0,0,1-1.989.221,6.815,6.815,0,0,1,2.79-6.413c2.154-1.486,4.981-1.522,7.76-.1,3.505,1.795,3.068,6.475,2.847,7.882.619,1.11,2.324,4.628,1.019,7.7-.893,2.1-2.954,3.5-6.124,4.152A1,1,0,0,1,46.7,38.327Z" class="color222222 svgShape"></path><path fill="#094a69" d="M39.032,56.593a8.969,8.969,0,0,1-1.14-.075C32.238,55.8,31,51.7,31,50.184v-38.4a4.068,4.068,0,0,1,2.2-3.935c2.336-1.119,5.955-.069,9.45,2.737a1,1,0,1,1-1.252,1.56c-3.236-2.6-6.012-3.125-7.334-2.494A2.131,2.131,0,0,0,33,11.781v38.4c0,.037.14,3.711,5.146,4.351,4.18.534,5.231-2.738,5.335-3.113a1,1,0,0,1,1.076-.73,3.855,3.855,0,0,0,2.785-1.554,5.572,5.572,0,0,0,1.228-5.053,1,1,0,0,1,.84-1.238c.519-.068,1.851-1.334,2.386-3.118a3.654,3.654,0,0,0-1.063-4.046,1,1,0,0,1,1.307-1.514A5.574,5.574,0,0,1,53.712,40.3a7.47,7.47,0,0,1-3.033,4.163,7.514,7.514,0,0,1-1.828,5.984,6.353,6.353,0,0,1-3.692,2.213A6.474,6.474,0,0,1,39.032,56.593Z" class="color222222 svgShape"></path><path fill="#094a69" d="M41.324,31.407a8.607,8.607,0,0,1-5.257-2.141A1,1,0,0,1,37.3,27.689c2.03,1.585,3.819,2.079,5.32,1.47,1.91-.776,3.056-3.234,3.342-5.326a1,1,0,0,1,1.982.272c-.338,2.467-1.739,5.756-4.572,6.907A5.408,5.408,0,0,1,41.324,31.407Z" class="color222222 svgShape"></path><path fill="#094a69" d="M45.281 35.321h-.018a5.155 5.155 0 0 1-3.917-1.553 4.933 4.933 0 0 1-1.152-3.448 1 1 0 0 1 1.993.167 2.913 2.913 0 0 0 .658 1.956 3.277 3.277 0 0 0 2.455.878 1 1 0 0 1-.019 2zM38.019 50.516a1 1 0 0 1-1-1 6.476 6.476 0 0 1 1.838-4.8 8.586 8.586 0 0 1 5.6-2.127 1 1 0 0 1-.013 2h-.01a6.513 6.513 0 0 0-4.182 1.559 4.556 4.556 0 0 0-1.235 3.369A1 1 0 0 1 38.019 50.516z" class="color222222 svgShape"></path><path fill="#094a69" d="M42.059 44.987a1 1 0 0 1-.989-1.159h0a6.552 6.552 0 0 0-1.037-4.518A5.312 5.312 0 0 0 36.1 37.489a1 1 0 0 1-.913-1.08.988.988 0 0 1 1.079-.913 7.2 7.2 0 0 1 5.353 2.594 8.509 8.509 0 0 1 1.426 6.059A1 1 0 0 1 42.059 44.987zM18.217 19.376a1 1 0 0 1-.961-.727c-1.121-3.951.6-6.744 2.678-7.666 1.819-.811 4.723-.527 6.9 2.938a1 1 0 0 1-1.7 1.062c-1.245-1.989-2.927-2.821-4.389-2.172-1.311.583-2.361 2.487-1.565 5.292a1 1 0 0 1-.963 1.273z" class="color222222 svgShape"></path><path fill="#094a69" d="M17.3,38.327a1,1,0,0,1-.2-.021c-3.17-.65-5.231-2.047-6.124-4.152-1.3-3.073.4-6.591,1.019-7.7-.221-1.407-.658-6.087,2.847-7.882,2.778-1.424,5.606-1.388,7.76.1a6.815,6.815,0,0,1,2.79,6.413,1,1,0,0,1-1.989-.221,4.817,4.817,0,0,0-1.938-4.546c-1.526-1.055-3.61-1.041-5.711.036-2.693,1.379-1.742,6.034-1.732,6.081a1.015,1.015,0,0,1-.132.743c-.023.035-2.2,3.549-1.071,6.2.623,1.46,2.2,2.459,4.683,2.969a1,1,0,0,1-.2,1.98Z" class="color222222 svgShape"></path><path fill="#094a69" d="M24.968,56.593a6.473,6.473,0,0,1-6.127-3.929,6.353,6.353,0,0,1-3.692-2.213,7.514,7.514,0,0,1-1.828-5.984A7.47,7.47,0,0,1,10.288,40.3a5.574,5.574,0,0,1,1.672-6.135,1,1,0,0,1,1.307,1.514A3.654,3.654,0,0,0,12.2,39.729c.535,1.784,1.867,3.05,2.386,3.118a1,1,0,0,1,.84,1.238,5.572,5.572,0,0,0,1.228,5.053,3.853,3.853,0,0,0,2.785,1.554,1,1,0,0,1,1.077.736c.1.369,1.152,3.634,5.334,3.107C30.86,53.9,31,50.221,31,50.184v-38.4a2.131,2.131,0,0,0-1.065-2.132c-1.322-.631-4.1-.1-7.334,2.494a1,1,0,1,1-1.252-1.56c3.5-2.808,7.116-3.854,9.45-2.737A4.068,4.068,0,0,1,33,11.781v38.4c0,1.517-1.238,5.611-6.892,6.334A8.957,8.957,0,0,1,24.968,56.593Z" class="color222222 svgShape"></path><path fill="#094a69" d="M23.768,32.5a5.4,5.4,0,0,1-2.045-.394c-2.833-1.15-4.234-4.44-4.573-6.907a1,1,0,0,1,1.981-.273c.288,2.093,1.433,4.551,3.345,5.326,1.5.61,3.289.115,5.318-1.469a1,1,0,0,1,1.23,1.576A8.6,8.6,0,0,1,23.768,32.5Z" class="color222222 svgShape"></path><path fill="#094a69" d="M19.811 36.414a1 1 0 0 1-.019-2 3.267 3.267 0 0 0 2.468-.892 2.883 2.883 0 0 0 .646-1.937 1 1 0 1 1 1.992-.172 4.926 4.926 0 0 1-1.152 3.447 5.159 5.159 0 0 1-3.917 1.554zM24.89 51.608a1 1 0 0 1-1-1 4.554 4.554 0 0 0-1.236-3.369 6.608 6.608 0 0 0-4.181-1.559h-.009a1 1 0 0 1-.016-2 8.562 8.562 0 0 1 5.6 2.127 6.474 6.474 0 0 1 1.839 4.8A1 1 0 0 1 24.89 51.608z" class="color222222 svgShape"></path><path fill="#094a69" d="M20.849 46.078a1 1 0 0 1-.985-.836 8.516 8.516 0 0 1 1.425-6.059 7.209 7.209 0 0 1 5.354-2.6 1 1 0 0 1 .166 1.994A5.312 5.312 0 0 0 22.874 40.4a6.562 6.562 0 0 0-1.036 4.518 1 1 0 0 1-.989 1.158zM32 48.011a1 1 0 0 1-1-1 3.988 3.988 0 0 0-1.7-3.023 2.9 2.9 0 0 0-2.291-.692 1 1 0 0 1-.559-1.921 4.759 4.759 0 0 1 4.05 1.014A5.927 5.927 0 0 1 33 47.011 1 1 0 0 1 32 48.011zM32 22.214a1 1 0 0 1-1-1A3.614 3.614 0 0 1 32.153 18.4a5.06 5.06 0 0 1 3.64-1.015 1 1 0 0 1-.225 1.988 3.091 3.091 0 0 0-2.087.523A1.675 1.675 0 0 0 33 21.214 1 1 0 0 1 32 22.214z" class="color222222 svgShape"></path><path fill="#094a69" d="M32,26.806a1,1,0,0,1-1-1,3.709,3.709,0,0,0-1.4-3.052,1.591,1.591,0,0,0-1.557-.2,1,1,0,1,1-.748-1.854,3.572,3.572,0,0,1,3.424.391A5.667,5.667,0,0,1,33,25.806,1,1,0,0,1,32,26.806Z" class="color222222 svgShape"></path></g></svg>